<svg xmlns="http://www.w3.org/2000/svg" width="150" height="37.204"><path d="M13.669 19.692H8.548l2.728-8.9zM5.891 29.5l1.749-5.861h6.9l1.636 5.846h6.379L16.217 7.197a2.359 2.359 0 00-2.548-1.925H4.623v2.105h.75c.946 0 1.456.375 1.456 1.092a5.824 5.824 0 01-.48 1.959L0 29.5zm24.045 0V7.129a1.687 1.687 0 00-1.812-1.857h-5.61v2.105h.375c.942 0 1.343.4 1.343 1.355V29.5zm9.695 0V7.129a1.693 1.693 0 00-1.816-1.857h-5.591v2.105h.375c.946 0 1.347.4 1.347 1.355V29.5zm9.947-22.018c0-1.625-1.2-2.627-3.268-2.627s-3.276.983-3.276 2.627 1.242 2.627 3.276 2.627 3.268-.976 3.268-2.627M49.469 29.5V13.193a1.689 1.689 0 00-1.82-1.85h-5.52v2.064h.326c.942 0 1.343.435 1.343 1.381V29.5zm12.488-8.72v3.53a4.652 4.652 0 01-3.084 1.58c-.979 0-1.381-.5-1.381-1.876s.285-1.955 1.306-2.349a14.506 14.506 0 013.159-.886m-7.67-4.24a13.7 13.7 0 015.595-1.418c1.531 0 2.075.544 2.075 2.131v.405c-2.323.375-3.051.518-4.36.807a13.02 13.02 0 00-2.146.672c-2.293.919-3.377 2.69-3.377 5.411 0 3.452 1.5 5.118 4.574 5.118a8.232 8.232 0 003.054-.574 10.156 10.156 0 002.435-1.561v.255a1.512 1.512 0 001.707 1.7h5.2v-1.94h-.255c-.979 0-1.34-.439-1.34-1.6v-8.648c0-4.612-1.6-6.217-6.221-6.217a19.474 19.474 0 00-4.349.514 14.573 14.573 0 00-3.854 1.456zM77.315 29.5V17.222a3.977 3.977 0 013.051-1.531c1.2 0 1.5.477 1.5 2.3v11.5h5.666V17.155c0-2.874-.206-3.782-1.126-4.758a4.4 4.4 0 00-3.42-1.272c-2.218 0-3.778.687-5.876 2.649v-.724a1.535 1.535 0 00-1.749-1.707h-5.385v2.064h.326c.942 0 1.347.435 1.347 1.381V29.5zm27.024-3.812h-7.906l7.561-10.6v-3.752H92.136a1.706 1.706 0 00-1.962 1.962v3.3h2.105v-.323c0-.837.435-1.234 1.34-1.234h4.075l-7.64 10.722v3.753h14.259zm29.744 3.351V8.51c0-1.636-.582-2.188-2.169-2.188h-4.807V8.63h.289c1.1 0 1.309.248 1.309 1.568v18.84zm2.371 0h5.339V13.05c0-1.606-.619-2.184-2.184-2.184h-3.152zm-10.1 0V10.882h-3.163c-1.565 0-2.176.578-2.176 2.184v15.973zM146.841 18.6c0 9.047-6.506 15.624-15.44 15.624S115.945 27.65 115.945 18.6 122.463 2.976 131.4 2.976s15.441 6.619 15.441 15.624m3.159 0a18.604 18.604 0 10-37.207 0 18.604 18.604 0 0037.207 0" fill="#003781"/></svg>