<?xml version="1.0" encoding="utf-8"?>
<!-- Generator: Adobe Illustrator 27.6.1, SVG Export Plug-In . SVG Version: 6.00 Build 0)  -->
<svg version="1.1" id="Calque_1" xmlns="http://www.w3.org/2000/svg" xmlns:xlink="http://www.w3.org/1999/xlink" x="0px" y="0px"
	 viewBox="0 0 256.8 384.5" style="enable-background:new 0 0 256.8 384.5;" xml:space="preserve">
<style type="text/css">
	.st0{fill:#FFED00;}
	.st1{fill:#E30613;}
	.st2{fill:#008BD2;}
</style>
<polygon class="st0" points="203.7,47.5 224.4,47.5 224.4,324.1 42.8,324.1 42.8,267.9 "/>
<polygon class="st1" points="42.7,47.5 42.8,267.4 203.7,47.5 "/>
<g>
	<path d="M39,43.7v284h189.3v-284H39z M220.8,51.2c0,7.2,0,261.9,0,269.1c-7,0-167.3,0-174.4,0c0-7.2,0-261.9,0-269.1
		C53.4,51.2,213.8,51.2,220.8,51.2z"/>
</g>
<polygon class="st2" points="200.9,51.2 39.3,272 58.1,272.8 199.5,81.1 "/>
<polygon points="180.9,181.6 106.7,132.6 186.8,92.5 "/>
<polygon points="176.4,263.3 121.5,263.3 149.1,215.4 "/>
<path class="st1" d="M135.8,290.2c0.1-11.3,25-10.4,35.3,0H135.8z"/>
<path d="M49.4,357.6l-3,3.8H39l14-18.6h5.4l13.6,18.6h-7.5l-2.8-3.8H49.4z M55.4,348.2L55.4,348.2l-4,6.6h8.5L55.4,348.2z"/>
<path d="M96,358.4h9.9v3.1H89v-18.1h7V358.4z"/>
<path d="M134.6,361.4h-7v-15h-7.2v-3.1h21.5v3.1h-7.2V361.4z"/>
<path d="M166.1,346.4v4h11.1v3.1h-11.1v4.9h11.6v3.1h-18.6v-18.1h18.6v3.1H166.1z"/>
<path d="M197.2,342.9h5l18.9,12.6h0.1v-12.2h7v18.4h-5.1l-18.9-12.6h-0.1v12.3h-7V342.9z"/>
</svg>
