<svg width="45" height="71" viewBox="0 0 45 71" fill="none" xmlns="http://www.w3.org/2000/svg">
<path d="M44.6667 3.90488e-06L44.6666 67.2632C44.6666 69.3259 42.9991 71 40.9444 71H3.72222C1.66755 71 -1.803e-07 69.3259 0 67.2632L5.8804e-06 0L44.6667 3.90488e-06Z" fill="white"/>
<path d="M38.4351 38.202H39.0567C39.1832 38.202 39.2949 38.2169 39.3768 38.2506C39.6373 38.329 39.7676 38.5271 39.7676 38.755C39.7676 39.0801 39.5219 39.2483 39.2949 39.3006V39.3081C39.4326 39.3753 39.6448 39.7752 39.883 40.2161H39.414C39.1534 39.7378 38.9971 39.4202 38.9078 39.4127H38.8408V40.2161H38.4351V38.1982V38.202ZM38.9376 39.0913C39.146 39.0913 39.3284 39.0091 39.3284 38.7999C39.3284 38.6766 39.2763 38.5831 39.1646 38.5532C39.1051 38.5271 39.0381 38.5233 38.945 38.5233H38.8371V39.0913H38.9376Z" fill="black"/>
<path d="M40.9327 39.2371C40.9327 40.2684 40.0989 41.1055 39.0716 41.1055C38.0442 41.1055 37.2104 40.2684 37.2104 39.2371C37.2104 38.2057 38.0442 37.3687 39.0716 37.3687C40.0989 37.3687 40.9327 38.2057 40.9327 39.2371ZM39.0716 37.761C38.2601 37.761 37.6013 38.4224 37.6013 39.2371C37.6013 40.0517 38.2601 40.7131 39.0716 40.7131C39.883 40.7131 40.5418 40.0517 40.5418 39.2371C40.5418 38.4224 39.883 37.761 39.0716 37.761Z" fill="black"/>
<path d="M13.3481 53.7337H12.7711L11.4758 50.0679C11.3678 49.7689 11.245 49.3953 11.1147 48.9655H11.0924C10.9621 49.384 10.8281 49.7353 10.709 50.0679L9.36155 53.7337H8.77716L6.32422 46.6001H7.17289L8.74366 51.3459C8.87394 51.742 8.99305 52.0933 9.09355 52.4557H9.11589C9.21266 52.1045 9.35039 51.7532 9.48811 51.3646L10.709 47.9977L10.2326 46.6001H11.0589L12.6706 51.301C12.8121 51.7084 12.9535 52.0521 13.054 52.4034H13.0763C13.1619 52.0447 13.2624 51.7196 13.3853 51.3347L14.93 46.6001H15.7526L13.3443 53.7337H13.3481Z" fill="black"/>
<path d="M19.4858 53.2031C19.0913 53.6104 18.5292 53.8421 17.8741 53.8421C17.219 53.8421 16.6905 53.6216 16.3033 53.2143C15.8343 52.7397 15.585 52.0222 15.585 51.1777C15.585 50.3332 15.8455 49.6381 16.3033 49.1635C16.7016 48.745 17.2562 48.5059 17.8853 48.5059C18.5143 48.5059 19.0913 48.745 19.497 49.1635C19.9474 49.6381 20.208 50.3406 20.208 51.1777C20.208 52.0222 19.9437 52.7285 19.4858 53.2031ZM17.8853 49.1748C16.9324 49.1748 16.389 49.9558 16.389 51.159C16.389 52.3623 16.9547 53.162 17.8965 53.162C18.8382 53.162 19.4151 52.366 19.4151 51.159C19.4151 49.952 18.8642 49.1748 17.889 49.1748" fill="black"/>
<path d="M22.1176 53.842C21.4923 53.842 21.228 53.4459 21.228 52.9041V46.103H22.006V52.5491C22.006 53.0349 22.1251 53.1283 22.4303 53.1283C22.4787 53.1283 22.5643 53.1283 22.6871 53.0984L22.7876 53.6664C22.5569 53.786 22.3819 53.842 22.1176 53.842Z" fill="black"/>
<path d="M25.0804 53.8418C24.3546 53.8418 23.9935 53.4121 23.9935 52.7506V49.3053H23.1709V48.6364H23.9935V47.5153L24.7715 47.25V48.6364H26.3385L26.0556 49.3053H24.7715V52.5189C24.7715 52.9524 24.9352 53.1393 25.2777 53.1393C25.6201 53.1393 25.97 52.9412 26.1747 52.7768L26.4241 53.3373C26.0407 53.6138 25.5494 53.8455 25.0767 53.8455" fill="black"/>
<path d="M27.5707 51.3197C27.5707 52.2913 28.129 53.147 29.2569 53.147C29.6738 53.147 30.1577 52.9789 30.4629 52.7845L30.6862 53.3227C30.3326 53.6216 29.6775 53.8421 29.0968 53.8421C27.5112 53.8421 26.7295 52.5379 26.7295 51.0805C26.7295 49.6232 27.5744 48.5059 28.7916 48.5059C30.1055 48.5059 30.8202 49.5484 30.8202 51.1366V51.3234H27.5744L27.5707 51.3197ZM28.799 49.1748C28.0546 49.1748 27.5782 49.8437 27.5782 50.6508H29.9715C29.9715 49.9483 29.577 49.1748 28.799 49.1748Z" fill="black"/>
<path d="M34.278 49.4287C34.1701 49.3838 34.0063 49.339 33.7867 49.339C33.5001 49.339 32.9976 49.5931 32.67 49.9556V53.7298H31.8921V48.6327H32.5509L32.644 49.2157C33.3512 48.5767 33.7271 48.502 34.0994 48.502C34.3301 48.502 34.5274 48.5879 34.6168 48.6552L34.2818 49.425L34.278 49.4287Z" fill="black"/>
<path d="M29.9266 61.1099C29.9266 62.0815 30.496 62.941 31.6239 62.941C32.0445 62.941 32.5247 62.7691 32.8113 62.5748L33.0495 63.1129C32.6959 63.4155 32.0408 63.6323 31.4601 63.6323C29.8595 63.6323 29.0928 62.3281 29.0928 60.8745C29.0928 59.4209 29.9265 58.2998 31.1549 58.2998C32.4688 58.2998 33.1835 59.3461 33.1835 60.9268V61.1099H29.9266ZM31.1661 58.965C30.4179 58.965 29.9377 59.6339 29.9377 60.441H32.3385C32.3385 59.731 31.9328 58.965 31.1661 58.965Z" fill="black"/>
<path d="M36.6452 59.2119C36.5373 59.1708 36.3735 59.126 36.1539 59.126C35.8487 59.126 35.3648 59.3838 35.0372 59.7388V63.5205H34.2593V58.4234H34.8958L35.0037 59.0064C35.7147 58.3711 36.0869 58.2964 36.4591 58.2964C36.6899 58.2964 36.8686 58.3823 36.9653 58.4496L36.6489 59.2156L36.6452 59.2119Z" fill="black"/>
<path d="M36.2656 53.8421C35.5435 53.8421 35.0931 53.644 34.7544 53.4572L35.0596 52.8406C35.3016 52.9938 35.7296 53.2031 36.2991 53.2031C36.9133 53.2031 37.3748 52.9265 37.3748 52.4557C37.3748 51.2001 35.0596 51.6411 35.0596 49.8586C35.0596 49.1224 35.5956 48.5059 36.7383 48.5059C37.2855 48.5059 37.6801 48.6254 38.0188 48.7787V49.4737C37.6577 49.3205 37.3041 49.1673 36.7681 49.1673C36.2619 49.1673 35.8264 49.3541 35.8264 49.8175C35.8264 50.961 38.1826 50.6658 38.1826 52.3361C38.1826 53.4049 37.3078 53.8458 36.2656 53.8458" fill="black"/>
<path d="M12.596 63.5206L9.77086 60.3106H9.75969V63.5206H8.97803V56.4243H9.75969V59.6866H9.77086L12.4099 56.443H13.3851L10.4744 59.9332L13.6345 63.5206H12.596Z" fill="black"/>
<path d="M15.2837 63.6288C14.6546 63.6288 14.394 63.229 14.394 62.6909V55.8936H15.172V62.3359C15.172 62.8217 15.2911 62.9188 15.5889 62.9188C15.641 62.9188 15.7266 62.9188 15.8532 62.8889L15.9537 63.4569C15.7192 63.5765 15.5405 63.6288 15.2837 63.6288Z" fill="black"/>
<path d="M20.1297 63.5206L19.9213 62.9937C19.5528 63.3188 18.9535 63.6327 18.2872 63.6327C17.6209 63.6327 16.7388 63.2777 16.7388 61.8427V58.4272H17.5279V61.768C17.5279 62.62 17.874 62.9526 18.518 62.9526C19.1619 62.9526 19.6495 62.5415 19.858 62.2725V58.4272H20.6508V61.3906C20.6508 62.9937 20.6806 63.3076 20.755 63.5243H20.1334L20.1297 63.5206Z" fill="black"/>
<path d="M27.0942 63.5206H26.3907L25.1177 59.4362H25.088L23.8261 63.5206H23.145L21.4551 58.4272H22.2479L23.4949 62.4444H23.5284L24.7753 58.4272H25.49L26.7481 62.4556H26.7779L28.0025 58.4272H28.7655L27.0942 63.5206Z" fill="black"/>
<path d="M18.5992 14.9478H11.1548V22.4214H18.5992V14.9478Z" fill="#9ACD6E"/>
<path d="M26.0441 14.9478H18.5992V22.4214H26.0441V14.9478Z" fill="#CAE3B2"/>
<path d="M33.4884 14.9478H26.0441V22.4214H33.4884V14.9478Z" fill="#7AC143"/>
<path d="M18.5992 22.4214H11.1548V29.8951H18.5992V22.4214Z" fill="#CAE3B2"/>
<path d="M26.0441 22.4214H18.5992V29.8951H26.0441V22.4214Z" fill="#EF3E42"/>
<path d="M33.4884 22.4214H26.0441V29.8951H33.4884V22.4214Z" fill="#9ACD6E"/>
<path d="M18.5992 29.8951H11.1548V37.3687H18.5992V29.8951Z" fill="#7AC143"/>
<path d="M26.0441 29.8951H18.5992V37.3687H26.0441V29.8951Z" fill="#9ACD6E"/>
<path d="M33.4884 29.8951H26.0441V37.3687H33.4884V29.8951Z" fill="#7AC143"/>
<path d="M18.5992 10.7515C15.7331 11.4465 13.1722 12.9225 11.1548 14.9478H18.5992V10.7515Z" fill="#429ED6"/>
<path d="M26.0441 14.9478V10.7512C24.8492 10.4597 23.606 10.3027 22.3218 10.3027C21.0377 10.3027 19.794 10.46 18.5992 10.7515V14.9478H26.0441Z" fill="#A0C4E6"/>
<path d="M33.4884 14.9478C31.4709 12.9225 28.9103 11.4462 26.0441 10.7512V14.9478H33.4884Z" fill="#007BC6"/>
<path d="M11.1548 14.9478C9.13731 16.9731 7.66743 19.5441 6.9751 22.4214H11.1548V14.9478Z" fill="#429ED6"/>
<path d="M37.6683 22.4214C36.976 19.5441 35.5058 16.9731 33.4884 14.9478V22.4214H37.6683Z" fill="#007BC6"/>
<path d="M11.1548 22.4214H6.9751C6.68476 23.6209 6.52832 24.869 6.52832 26.1582C6.52832 27.4474 6.68465 28.6955 6.97499 29.8951H11.1548V22.4214Z" fill="#A0C4E6"/>
<path d="M33.4884 29.8951H37.6683C37.9587 28.6955 38.115 27.4474 38.115 26.1582C38.115 24.869 37.9587 23.6209 37.6683 22.4214H33.4884V29.8951Z" fill="#429ED6"/>
<path d="M6.97499 29.8951C7.66732 32.7725 9.13731 35.3433 11.1548 37.3687V29.8951H6.97499Z" fill="#007BC6"/>
<path d="M33.4884 37.3687C35.5058 35.3433 36.976 32.7725 37.6683 29.8951H33.4884V37.3687Z" fill="#007BC6"/>
<path d="M11.1548 37.3687C13.1722 39.394 15.7331 40.8701 18.5992 41.5651V37.3687H11.1548Z" fill="#007BC6"/>
<path d="M18.5992 37.3687V41.5651C19.794 41.8566 21.0377 42.0135 22.3218 42.0135C23.606 42.0135 24.8492 41.8566 26.0441 41.5651V37.3687H18.5992Z" fill="#429ED6"/>
<path d="M26.0441 41.5651C28.9103 40.8701 31.4709 39.394 33.4884 37.3687H26.0441V41.5651Z" fill="#007BC6"/>
</svg>
