<svg xmlns="http://www.w3.org/2000/svg" viewBox="0 0 907.28 343.29"><defs><style>.cls-1{fill:#eb0017;}</style></defs><g id="Layer_2" data-name="Layer 2"><g id="Logo"><polygon class="cls-1" points="145.95 0 0 336.28 69.58 336.28 93.66 278.45 217.54 278.45 191.52 219.18 118.35 219.18 173.06 87.84 276.54 336.28 346.12 336.28 200.17 0 145.95 0"/><polygon class="cls-1" points="843.45 48.06 843.45 219.13 705.47 48.06 649.87 48.06 649.87 336.28 713.69 336.28 713.69 158.5 857.12 336.28 907.27 336.28 907.27 48.06 843.45 48.06"/><path class="cls-1" d="M473.58,41c-83.33,0-151.13,67.8-151.13,151.13s67.8,151.12,151.13,151.12S624.7,275.5,624.7,192.17,556.91,41,473.58,41Zm0,238.43a87.3,87.3,0,1,1,87.3-87.3A87.4,87.4,0,0,1,473.58,279.47Z"/></g></g></svg>