<svg viewBox="0 0 202.86002 98.64017" xmlns="http://www.w3.org/2000/svg"><g fill="#687585"><path d="m14.03385 98.923a4.54014 4.54014 0 0 0 -2.23-.62c-1.86 0-2.87 1.39-2.87 3.3 0 2.12 1.12 3.28 2.89 3.28a5.00009 5.00009 0 0 0 1.33-.18v-3.32h1.18v4.08a7.53008 7.53008 0 0 1 -2.57.44c-2.63 0-4.06-1.65-4.06-4.23s1.56-4.37 4.13-4.37a5.22022 5.22022 0 0 1 2.6.68z" transform="translate(-7.70385 -7.37283)"></path><path d="m16.11 98.4v-8.36h1.17v7.38h3.15v.98z"></path><path d="m39.94385 105.923c-2.62 0-3.9-1.63-3.9-4.25s1.39-4.4 4-4.4 3.91 1.69 3.91 4.24-1.36 4.41-4 4.41m0-7.65c-1.93 0-2.61 1.5-2.61 3.24 0 2 .68 3.41 2.76 3.41s2.63-1.52 2.63-3.25c0-1.94-.71-3.4-2.78-3.4" transform="translate(-7.70385 -7.37283)"></path><path d="m55.57385 105.793h-2.5v-8.36h2.3c1.69 0 2.59.74 2.59 2.08a1.9 1.9 0 0 1 -1.12 1.78 2 2 0 0 1 1.63 2.05c0 1.65-1.26 2.45-2.9 2.45m-.34-7.44h-1v2.66h1.21a1.21 1.21 0 0 0 1.31-1.37c0-.8-.43-1.29-1.51-1.29m.18 3.58h-1.19v2.86h1.46a1.39 1.39 0 0 0 1.532-1.23169q.007-.06395.008-.12831c0-1-.63-1.5-1.82-1.5" transform="translate(-7.70385 -7.37283)"></path><path d="m72.52385 105.793c-.21-.69-.43-1.45-.66-2.16h-3.46c-.23.73-.48 1.47-.68 2.16h-1.2a86.56793 86.56793 0 0 1 3-8.36h1.33c1.16 2.79 2.17 5.62 3 8.36zm-2.41-7.15c-.49 1.35-1 2.7-1.42 4h2.87c-.43-1.3-.93-2.68-1.43-4" transform="translate(-7.70385 -7.37283)"></path><path d="m74.95 98.4v-8.36h1.17v7.38h3.14v.98z"></path><path d="m111.67385 105.923a7.62931 7.62931 0 0 1 -1.9-.26l.15-1a5.88 5.88 0 0 0 1.85.29c1 0 1.64-.5 1.64-1.37s-.73-1.2-1.66-1.62c-1.13-.52-1.92-1.11-1.92-2.36 0-1.42 1.11-2.29 2.69-2.29a5.15985 5.15985 0 0 1 1.63.25l-.19 1a5.21991 5.21991 0 0 0 -1.48-.23c-1 0-1.41.49-1.41 1.17 0 .87.7 1.2 1.53 1.59 1.15.53 2.08 1 2.08 2.39 0 1.63-1.24 2.53-3 2.53" transform="translate(-7.70385 -7.37283)"></path><path d="m115.97 98.4v-8.36h4.6v.97h-3.43v2.57h2.98v.97h-2.98v2.89h3.48v.96z"></path><path d="m141.74384 105.793-2-3.69h-1v3.69h-1.18v-8.37h2.3c1.8 0 2.77.86 2.77 2.22a2.25 2.25 0 0 1 -1.75 2.23l2.25 3.92h-1.42m-2-7.4h-1v2.77h.94c1.17 0 1.69-.6 1.69-1.41s-.4-1.36-1.63-1.36" transform="translate(-7.70385 -7.37283)"></path><path d="m155.42385 105.793h-1.34a79.42162 79.42162 0 0 1 -3-8.36h1.38a63.09948 63.09948 0 0 0 2.38 7.11c.89-2.38 1.68-4.82 2.32-7.09h1.25c-.85 2.76-1.82 5.52-3 8.36" transform="translate(-7.70385 -7.37283)"></path><path d="m159.33 90.04015h1.17v8.37h-1.17z"></path><path d="m181.23385 105.893c-2.38 0-3.89-1.47-3.89-4.19s1.55-4.4 3.88-4.4a4.88009 4.88009 0 0 1 2.18.45l-.36.94a4.41988 4.41988 0 0 0 -1.85-.39c-1.59 0-2.6 1.35-2.6 3.3 0 2.16 1.09 3.26 2.8 3.26a4.36 4.36 0 0 0 1.75-.39l.3.94a5.6502 5.6502 0 0 1 -2.21.48" transform="translate(-7.70385 -7.37283)"></path><path d="m184.52 98.4v-8.36h4.6v.97h-3.42v2.57h2.98v.97h-2.98v2.89h3.46v.96z"></path><path d="m207.55386 105.923a7.77975 7.77975 0 0 1 -1.91-.26l.16-1a5.82991 5.82991 0 0 0 1.85.29c1 0 1.64-.5 1.64-1.37s-.73-1.2-1.66-1.62c-1.14-.52-1.93-1.11-1.93-2.36 0-1.42 1.12-2.29 2.69-2.29a5.27017 5.27017 0 0 1 1.64.25l-.19 1a5.35016 5.35016 0 0 0 -1.49-.23c-1 0-1.4.49-1.4 1.17 0 .87.7 1.2 1.52 1.59 1.15.53 2.09 1 2.09 2.39 0 1.63-1.25 2.53-3 2.53" transform="translate(-7.70385 -7.37283)"></path></g><path d="m28.79385 82.953-2.69-8h-11.53l-2.7 8h-3.85l10.21-29.32h4.8l10.2 29.32zm-8.5-25.33-4.72 14.22h9.53z" fill="#4a5866" transform="translate(-7.70385 -7.37283)"></path><path d="m47.22 49.75v25.83h-4.15v-25.83h-9.03v-3.39h22.22v3.39z" fill="#4a5866"></path><path d="m93.28385 82.953-2.69-8h-11.53l-2.7 8h-3.85l10.16-29.32h4.85l10.16 29.32zm-8.5-25.33-4.73 14.22h9.54z" fill="#4a5866" transform="translate(-7.70385 -7.37283)"></path><path d="m100.76 75.58v-29.23h4.11v25.79h12.69v3.44z" fill="#4a5866"></path><path d="m129.00999 46.35015h4.14999v29.23h-4.14999z" fill="#4a5866"></path><path d="m172.87385 82.953-2.7-8h-11.53l-2.69 8h-3.85l10.13-29.32h4.85l10.15 29.32zm-8.5-25.33-4.73 14.22h9.53z" fill="#4a5866" transform="translate(-7.70385 -7.37283)"></path><path d="m198.84 75.58-14.8-23.09v23.09h-3.69v-29.23h4.23l14.1 22.02v-22.02h3.73v29.23z" fill="#4a5866"></path><path d="m113.29 27.05-9.65 4.29v-12.56l9.65-4.31z" fill="#ef7c1f"></path><path d="m92.17 27.05 9.65 4.29v-12.56l-9.65-4.31z" fill="#09b9e6"></path><path d="m124.77 4.29-9.65-4.29v12.57l9.65 4.31z" fill="#fbbf2b"></path><path d="m103.64 4.29 9.65-4.29v12.57l-9.65 4.31z" fill="#6bb644"></path></svg>