<svg class="svg-sprite-inline svg-sprite-inline-logo" height="54" style="enable-background:new 0 0 77 54;" viewBox="0 0 77 54" width="77" xml:space="preserve" xmlns="http://www.w3.org/2000/svg" xmlns:xlink="http://www.w3.org/1999/xlink">
<style type="text/css">
	.logo0{fill:#E10000;}
</style>
<g>
<g>
<g>
<path class="logo0" d="M0,38h77v-4H0V38z"></path>
</g>
<g>
<path class="logo0" d="M10.0159998,19.4300003h3.8079996l-1.9039993-8.5100002L10.0159998,19.4300003z M16.4400005,6.2839999     l7.4180012,22.7250004h-7.8780022L15.177,25.427h-6.507l-0.803,3.5820007H0L7.4099998,6.2839999H16.4400005z      M44.3479996,6.2820001L36.9350014,29l-8.6539993-0.0100002L20.894001,6.2819996h7.644001l4.0830002,13.7800007     l4.0849991-13.7799997L44.3479996,6.2820001z M56.2610016,6.2820001L48.8549995,29h-7.6349983l7.4070015-22.7180004     L56.2610016,6.2820001z M63.156002,19.4300003h3.8200035l-1.9100037-8.5100002L63.156002,19.4300003z M69.5800018,6.2820001     L77,29h-7.8779984l-0.8050003-3.5820007h-6.5089989L61.0080032,29l-7.8689995-0.0009995l7.4119987-22.7169991     L69.5800018,6.2820001z M58.2509995,0l-1.348999,4.1389999h-7.5940018L50.6399994,0H58.2509995z"></path>
</g>
<g>
<path class="logo0" d="M0,54h77V40H0V54z"></path>
</g>
</g>
</g>
</svg>