<?xml version="1.0" encoding="UTF-8"?> <svg xmlns="http://www.w3.org/2000/svg" width="307" height="178" viewBox="0 0 307 178" fill="none"><path d="M165.886 22.9707H181.758C189.24 22.9707 193.257 26.0497 193.257 31.9038C193.257 34.9828 191.699 37.3055 189.187 38.7167C192.854 39.9254 195.413 42.552 195.413 46.8936C195.413 53.0515 190.241 56.2858 182.604 56.2858H165.879V22.964L165.886 22.9707ZM180.246 36.0496C182.604 36.0496 183.813 34.9423 183.813 33.1192C183.813 31.2961 182.557 30.1888 180.246 30.1888H175.122V36.0429H180.246V36.0496ZM182.154 49.0745C184.512 49.0745 185.922 47.9132 185.922 45.9415C185.922 43.9699 184.518 42.8085 182.154 42.8085H175.122V49.0678H182.154V49.0745Z" fill="#4700A3"></path><path d="M197.771 49.6214C197.771 45.6309 200.283 42.9571 205.757 41.6944L212.037 40.2292C213.139 39.9794 213.542 39.473 213.542 38.7167C213.542 37.5081 212.588 36.7991 210.479 36.7991C208.021 36.7991 205.509 38.2103 204.253 40.4858L197.925 36.6978C199.987 32.9099 204.555 29.7296 210.835 29.7296C218.472 29.7296 221.83 33.5176 221.83 40.4858V48.3115C221.83 49.2703 222.281 49.6214 223.288 49.6214H224.141V56.2318C223.187 56.4816 221.783 56.6842 220.427 56.6842C217.162 56.6842 215.758 55.5768 214.852 53.6525C214.65 53.2473 214.502 53.0448 214.2 53.0448C213.898 53.0448 213.75 53.2473 213.394 53.7537C211.99 55.6713 209.68 56.8327 206.462 56.8327C200.941 56.8327 197.771 53.6997 197.771 49.6147V49.6214ZM208.867 50.5802C211.426 50.5802 213.535 49.0137 213.535 45.2258V44.7734C213.233 45.2258 212.729 45.4824 211.775 45.6849L208.558 46.3939C207.053 46.745 206.2 47.454 206.2 48.5681C206.2 49.6822 207.201 50.587 208.86 50.587L208.867 50.5802Z" fill="#4700A3"></path><path d="M239.2 57.0961C231.113 57.0961 226.794 53.0043 226.794 46.0428V30.5466H235.681V45.3878C235.681 47.9604 236.984 49.3784 239.193 49.3784C241.403 49.3784 242.706 47.9672 242.706 45.3878V30.5466H251.593V46.0428C251.593 53.011 247.274 57.0961 239.187 57.0961H239.2Z" fill="#4700A3"></path><path d="M268.781 56.9475C259.895 56.9475 254.716 51.2419 254.716 43.4162C254.716 35.5905 260.338 29.8849 268.123 29.8849C275.908 29.8849 281.033 35.4892 281.033 43.4635V45.5836H263.253C263.757 48.4128 266.014 49.6754 268.727 49.6754C271.139 49.6754 272.543 48.7639 273.953 47.0488L280.133 51.6403C277.62 54.9691 273.557 56.9407 268.781 56.9407V56.9475ZM272.496 39.9861C271.891 37.9132 270.333 36.7046 268.029 36.7046C265.725 36.7046 264.012 37.9132 263.408 39.9861H272.496Z" fill="#4700A3"></path><path d="M284.351 30.5398H293.19V33.8214C293.19 34.1252 293.291 34.2738 293.539 34.2738C293.788 34.2738 293.942 34.1252 294.446 33.315C295.803 31.0935 297.711 30.0807 300.122 30.0807H300.27L300.371 39.0678H298.463C294.896 39.0678 293.19 40.7356 293.19 44.5708V56.2858H284.351V30.5398Z" fill="#4700A3"></path><path d="M183.41 95.3403L174.369 83.8819V102.963H165.879V69.6416H173.362L184.357 83.6253L194.956 69.6416H202.237V102.963H193.7V84.1857L185.109 95.3403C184.76 95.7927 184.559 95.8939 184.256 95.8939C183.954 95.8939 183.753 95.7927 183.403 95.3403H183.41Z" fill="#4700A3"></path><path d="M219.419 103.618C210.533 103.618 205.354 97.9128 205.354 90.0871C205.354 82.2613 210.976 76.5558 218.761 76.5558C226.546 76.5558 231.671 82.1601 231.671 90.1344V92.2545H213.891C214.395 95.0837 216.652 96.3463 219.365 96.3463C221.777 96.3463 223.18 95.4348 224.591 93.7197L230.771 98.3112C228.258 101.64 224.195 103.612 219.419 103.612V103.618ZM223.133 86.657C222.529 84.5841 220.971 83.3755 218.667 83.3755C216.363 83.3755 214.65 84.5841 214.046 86.657H223.133Z" fill="#4700A3"></path><path d="M253.366 101.498C253.366 101.194 253.218 101.046 252.963 101.046C252.661 101.046 252.412 101.248 251.908 101.654C250.807 102.565 248.893 103.672 246.031 103.672C239.254 103.672 234.431 98.1222 234.431 90.0939C234.431 82.0656 239.254 76.5153 246.031 76.5153C248.893 76.5153 250.8 77.6294 251.908 78.5342C252.412 78.9393 252.661 79.1419 252.963 79.1419C253.211 79.1419 253.366 78.9933 253.366 78.6895V67.6362H262.205V102.977H253.366V101.512V101.498ZM248.644 95.8467C251.808 95.8467 253.769 93.5239 253.769 90.0939C253.769 86.6638 251.808 84.341 248.644 84.341C245.48 84.341 243.371 86.6638 243.371 90.0939C243.371 93.5239 245.38 95.8467 248.644 95.8467Z" fill="#4700A3"></path><path d="M271.945 66.0089C274.907 66.0089 277.016 67.8252 277.016 70.5531C277.016 73.281 274.907 75.0973 271.945 75.0973C268.983 75.0973 266.874 73.3282 266.874 70.5531C266.874 67.778 268.983 66.0089 271.945 66.0089ZM276.364 77.2175V102.963H267.525V77.2175H276.364Z" fill="#4700A3"></path><path d="M280.354 96.299C280.354 92.3085 282.866 89.6347 288.341 88.372L294.621 86.9068C295.722 86.657 296.125 86.1506 296.125 85.3943C296.125 84.1857 295.172 83.4767 293.063 83.4767C290.604 83.4767 288.092 84.8879 286.836 87.1634L280.509 83.3754C282.571 79.5875 287.138 76.4072 293.418 76.4072C301.056 76.4072 304.414 80.1952 304.414 87.1634V94.9891C304.414 95.9479 304.864 96.299 305.872 96.299H306.725V102.909C305.771 103.159 304.367 103.362 303.01 103.362C299.746 103.362 298.342 102.254 297.435 100.33C297.234 99.9249 297.086 99.7224 296.784 99.7224C296.481 99.7224 296.334 99.9249 295.978 100.431C294.574 102.349 292.263 103.51 289.046 103.51C283.525 103.51 280.354 100.377 280.354 96.2923V96.299ZM291.45 97.2578C294.01 97.2578 296.119 95.6913 296.119 91.9034V91.451C295.816 91.9034 295.313 92.16 294.359 92.3625L291.141 93.0715C289.637 93.4226 288.784 94.1316 288.784 95.2457C288.784 96.3598 289.785 97.2646 291.444 97.2646L291.45 97.2578Z" fill="#4700A3"></path><path d="M163.723 132.632C163.723 122.788 170.756 115.165 181.805 115.165C188.837 115.165 193.861 118.345 197.173 123.443L189.341 127.784C187.984 125.212 185.526 123.49 181.805 123.49C176.532 123.49 173.167 127.177 173.167 132.626C173.167 138.075 176.532 141.66 181.805 141.66C185.318 141.66 188.085 139.992 189.287 137.318L183.961 132.268C183.511 131.863 183.356 131.511 183.356 131.255C183.356 130.803 183.659 130.445 184.364 130.445H199.181V131.559C199.181 145.644 189.939 150.087 181.805 150.087C170.756 150.087 163.723 142.463 163.723 132.619V132.632Z" fill="#4700A3"></path><path d="M202.446 123.544H211.285V126.825C211.285 127.129 211.386 127.278 211.634 127.278C211.883 127.278 212.037 127.129 212.541 126.319C213.898 124.098 215.805 123.085 218.217 123.085H218.364L218.465 132.072H216.558C212.991 132.072 211.285 133.74 211.285 137.575V149.29H202.446V123.544Z" fill="#4700A3"></path><path d="M219.614 136.42C219.614 128.446 225.592 122.889 233.78 122.889C241.968 122.889 247.892 128.439 247.892 136.42C247.892 144.401 241.867 149.952 233.78 149.952C225.693 149.952 219.614 144.401 219.614 136.42ZM233.78 142.126C237.044 142.126 239.106 139.803 239.106 136.42C239.106 133.037 237.044 130.715 233.78 130.715C230.515 130.715 228.406 133.037 228.406 136.42C228.406 139.803 230.468 142.126 233.78 142.126Z" fill="#4700A3"></path><path d="M262.857 150.1C254.77 150.1 250.451 146.008 250.451 139.047V123.551H259.337V138.392C259.337 140.964 260.64 142.382 262.85 142.382C265.06 142.382 266.363 140.971 266.363 138.392V123.551H275.25V139.047C275.25 146.015 270.931 150.1 262.844 150.1H262.857Z" fill="#4700A3"></path><path d="M279.226 123.544H288.065V125.009C288.065 125.313 288.213 125.462 288.468 125.462C288.77 125.462 289.019 125.259 289.523 124.854C290.624 123.942 292.539 122.835 295.4 122.835C302.177 122.835 307 128.385 307 136.414C307 144.442 302.177 149.992 295.4 149.992C292.539 149.992 290.631 148.885 289.523 147.973C289.019 147.568 288.77 147.365 288.468 147.365C288.22 147.365 288.065 147.514 288.065 147.818V159.378H279.226V123.53V123.544ZM292.787 142.173C296.052 142.173 298.06 139.85 298.06 136.42C298.06 132.99 296.052 130.667 292.787 130.667C289.523 130.667 287.662 132.99 287.662 136.42C287.662 139.85 289.624 142.173 292.787 142.173Z" fill="#4700A3"></path><path d="M21.9507 1.0061C19.4722 1.0061 17.4639 3.02499 17.4639 5.51654V44.4224L22.8575 47.5081V30.5737C22.8575 27.2044 24.1135 24.8412 26.4376 23.7203V5.51654C26.4376 3.02499 24.4292 1.0061 21.9507 1.0061Z" fill="#1FD1BD"></path><path d="M22.8575 103.321V60.6342L17.4639 57.562V172.578C17.4639 175.07 19.4722 177.088 21.9507 177.088C24.4292 177.088 26.4376 175.07 26.4376 172.578V148.81C24.0531 147.98 22.8575 146.11 22.8575 143.584C22.8575 141.059 24.0531 139.182 26.4376 138.358V108.5C24.3218 107.811 22.8575 105.988 22.8575 103.321Z" fill="#1FD1BD"></path><path d="M54.7491 18.8857C52.4183 18.8857 50.4973 20.6751 50.2823 22.964H59.2158C59.0008 20.6751 57.0865 18.8857 54.7491 18.8857Z" fill="#1FD1BD"></path><path d="M50.2622 154.698C50.2622 157.19 52.2705 159.209 54.7491 159.209C57.2276 159.209 59.2359 157.19 59.2359 154.698V149.29H50.2622V154.698Z" fill="#1FD1BD"></path><path d="M50.2622 63.3149L59.2359 68.4803V34.3752H50.2622V63.3149Z" fill="#1FD1BD"></path><path d="M50.2622 137.886H59.2359V92.2545L50.2622 97.4537V137.886Z" fill="#1FD1BD"></path><path d="M50.2622 76.171V84.6247L57.7448 80.3438L50.2622 76.171Z" fill="#1FD1BD"></path><path d="M5.54813 27.4678C3.06962 27.4678 1.06128 29.4867 1.06128 31.9782V43.7607C2.72034 40.7965 6.1325 39.4866 10.035 40.5939V31.9782C10.035 29.4867 8.02665 27.4678 5.54813 27.4678Z" fill="#1FD1BD"></path><path d="M5.66903 120.607C3.64055 120.607 2.04194 119.824 1.06128 118.439V146.123C1.06128 148.615 3.06962 150.634 5.54813 150.634C8.02665 150.634 10.035 148.615 10.035 146.123V118.757C9.04089 119.945 7.53632 120.614 5.66903 120.614V120.607Z" fill="#1FD1BD"></path><path d="M71.1515 56.0023C68.673 56.0023 66.6647 58.0212 66.6647 60.5128V72.7476L69.9425 74.6315C72.6897 76.1845 73.7241 78.4329 73.7241 80.337C73.7241 82.41 72.6897 84.4829 69.9425 86.0426L66.6647 87.9467V117.589C66.6647 120.08 68.673 122.099 71.1515 122.099C73.63 122.099 75.6384 120.08 75.6384 117.589V60.5195C75.6384 58.028 73.63 56.0091 71.1515 56.0091V56.0023Z" fill="#1FD1BD"></path><path d="M120.352 47.2583C117.874 47.2583 115.866 49.2772 115.866 51.7687V95.9007C118.472 100.938 119.949 106.583 119.949 112.66C119.949 116.191 119.459 119.648 118.505 122.95C117.955 124.854 117.249 126.697 116.396 128.473C117.155 129.884 118.64 130.85 120.346 130.85C122.824 130.85 124.833 128.831 124.833 126.339V51.7755C124.833 49.2839 122.824 47.2651 120.346 47.2651L120.352 47.2583Z" fill="#1FD1BD"></path><path d="M84.9547 36.6709C83.8128 37.4879 83.0673 38.8248 83.0673 40.3441V137.73C86.3451 137.453 89.3408 136.805 92.041 135.826V87.42C91.7253 87.2445 91.4029 87.0757 91.0805 86.9136C86.7817 84.6651 85.754 82.7678 85.754 80.5193C85.754 78.6152 86.4391 76.8934 89.0184 74.3006C90.0729 73.2405 91.0939 72.0521 92.041 70.749V41.5662C90.1871 39.5473 87.8295 37.893 84.9547 36.6776V36.6709Z" fill="#1FD1BD"></path><path d="M34.1954 93.821L42.84 88.8717V72.0251L34.1954 67.2041V93.821Z" fill="#1FD1BD"></path><path d="M33.8663 130.971C33.8663 133.463 35.8747 135.482 38.3532 135.482C40.8317 135.482 42.84 133.463 42.84 130.971V101.762L33.8663 106.967V130.971Z" fill="#1FD1BD"></path><path d="M38.3532 42.6195C36.4724 42.6195 34.8671 43.7809 34.2021 45.4284V54.0779L42.84 59.0475V47.1299C42.84 44.6384 40.8317 42.6195 38.3532 42.6195Z" fill="#1FD1BD"></path><path d="M153.151 78.8785C150.672 78.8785 148.664 80.8974 148.664 83.389V94.7123C148.664 97.2039 150.672 99.2227 153.151 99.2227C155.629 99.2227 157.638 97.2039 157.638 94.7123V83.389C157.638 80.8974 155.629 78.8785 153.151 78.8785Z" fill="#1FD1BD"></path><path d="M136.755 68.6154C134.276 68.6154 132.268 70.6342 132.268 73.1258V104.976C132.268 107.467 134.276 109.486 136.755 109.486C139.233 109.486 141.242 107.467 141.242 104.976V73.1258C141.242 70.6342 139.233 68.6154 136.755 68.6154Z" fill="#1FD1BD"></path><path d="M99.463 92.7137V120.438C99.463 122.929 101.471 124.948 103.95 124.948C104.474 124.948 104.971 124.854 105.441 124.685C107.402 121.079 108.437 116.893 108.437 112.308C108.437 104.523 104.971 97.8183 99.463 92.7069V92.7137Z" fill="#1FD1BD"></path><path d="M99.3287 78.9596L99.4631 79.0406C102.768 80.9717 105.784 83.2742 108.437 85.8873V58.3723C107.765 65.9347 104.984 72.7476 99.4631 78.8043L99.3287 78.9596Z" fill="#1FD1BD"></path><path d="M119.949 112.653C119.949 106.583 118.472 100.931 115.866 95.8939C113.951 92.2005 111.432 88.8379 108.437 85.8805C105.784 83.2607 102.768 80.9649 99.463 79.0338C99.416 79.0068 99.3757 78.9798 99.3287 78.9528C99.3757 78.8988 99.416 78.8515 99.463 78.7975C104.984 72.7408 107.765 65.9279 108.437 58.3655C108.544 57.1231 108.605 55.8672 108.605 54.5843C108.605 52.714 108.443 50.8774 108.134 49.0813C105.663 34.4764 93.2701 22.9573 73.3748 22.9573H30.0713C28.6608 22.9573 27.4517 23.2139 26.4375 23.7068C24.1067 24.8276 22.8574 27.1909 22.8574 30.5602V47.4946L17.4638 44.4088L12.8896 41.789C11.9224 41.2421 10.9686 40.8437 10.0417 40.5804C6.13919 39.473 2.72032 40.7829 1.06797 43.7471C0.389574 44.9625 0.00671387 46.4615 0.00671387 48.1833V114.712C0.00671387 116.204 0.389574 117.454 1.06797 118.419C2.04863 119.803 3.64724 120.587 5.67573 120.587C7.54301 120.587 9.0543 119.918 10.0417 118.73C10.8746 117.73 11.3447 116.366 11.3447 114.712V54.0576L17.4638 57.5485L22.8574 60.6207V103.308C22.8574 105.975 24.3217 107.798 26.4375 108.487C28.2981 109.094 30.6624 108.831 32.9931 107.454L33.8596 106.947L42.8333 101.741L50.2621 97.4334L59.2358 92.2275L66.6646 87.9197L69.9425 86.0155C72.6897 84.4626 73.7241 82.3896 73.7241 80.31C73.7241 78.4059 72.6897 76.1642 69.9425 74.6044L66.6646 72.7206L59.2358 68.4465L50.2621 63.2811L42.8333 59.007L34.1954 54.0374V34.3346H72.1725C77.1967 34.3346 81.4484 35.1584 84.9479 36.6304C87.8227 37.8458 90.187 39.5 92.0342 41.5189C95.406 45.1921 97.092 50.0536 97.092 55.5904C97.092 61.5863 94.9359 66.6977 92.0342 70.7017C91.0871 72.0048 90.0661 73.1932 89.0116 74.2533C86.4323 76.8461 85.7472 78.5747 85.7472 80.472C85.7472 82.7205 86.7816 84.6179 91.0737 86.8663C91.3961 87.0284 91.7185 87.1972 92.0342 87.3727C94.7679 88.865 97.2733 90.6408 99.463 92.6732C104.964 97.7845 108.437 104.489 108.437 112.275C108.437 116.859 107.402 121.046 105.441 124.651C102.701 129.688 98.1398 133.578 92.0342 135.786C89.334 136.765 86.3383 137.413 83.0605 137.69C81.8716 137.791 80.6491 137.845 79.3931 137.845H29.5608C28.3585 137.845 27.3174 138.014 26.4442 138.318C24.0597 139.148 22.8641 141.019 22.8641 143.544C22.8641 146.069 24.0597 147.946 26.4442 148.77C27.3241 149.074 28.3585 149.243 29.5608 149.243H79.3998C97.8913 149.243 110.613 140.465 116.403 128.419C117.256 126.643 117.961 124.793 118.512 122.896C119.466 119.594 119.956 116.137 119.956 112.605L119.949 112.653ZM42.8333 72.0251L50.2621 76.1709L57.738 80.3437L50.2621 84.6246L42.8333 88.8785L34.1954 93.8278V67.2176L42.8333 72.0386V72.0251Z" fill="#4700A3"></path></svg> 