<svg width="1063" height="336" viewBox="0 0 1063 336" fill="none" xmlns="http://www.w3.org/2000/svg">
<path d="M255.9 82C212 82 176.4 120.5 176.4 167.9C176.4 215.3 212 253.8 255.9 253.8C299.8 253.8 335.4 215.3 335.4 167.9C335.3 120.4 299.8 82 255.9 82ZM255.9 226.2C229.6 226.2 208.3 200.1 208.3 167.8C208.3 135.5 229.6 109.4 255.9 109.4C282.2 109.4 303.5 135.5 303.5 167.8C303.5 200.1 282.1 226.2 255.9 226.2Z" fill="black"/>
<path d="M80 82C62.2 82 45.9 88.3 32.6 98.9V6.5C32.6 2.9 30.3 0.599998 26.7 0.599998C18.2 0.499998 6.50001 4.50001 2.10001 16.1C0.700006 19.9 0.5 23.7 0.5 26.9C0.5 36.1 0.5 170 0.5 171H0.599998C2.1 217 37.1 253.8 80 253.8C123.9 253.8 159.5 215.3 159.5 167.9C159.5 120.4 123.9 82 80 82ZM80 226.2C53.7 226.2 32.4 200.1 32.4 167.8C32.4 135.5 53.7 109.4 80 109.4C106.3 109.4 127.6 135.5 127.6 167.8C127.6 200.1 106.3 226.2 80 226.2Z" fill="black"/>
<path d="M468.3 227.7C468.3 231 468.4 234.8 469.9 238.5C474.3 250.1 486 254.1 494.5 254C498.2 254 500.4 251.7 500.4 248.1V154.4C500.4 114.6 467.8 82 428 82C388.2 82 355.6 114.6 355.6 154.4V248.1C355.6 251.7 357.9 254 361.5 254C370 254.1 381.7 250.1 386.1 238.5C387.5 234.7 387.7 230.9 387.7 227.7C387.7 219.9 387.7 149.8 387.7 149.8C387.7 127.7 405.8 109.5 428 109.5C450.1 109.5 468.3 127.6 468.3 149.8C468.3 149.7 468.3 219.8 468.3 227.7Z" fill="black"/>
<path d="M603 82C560.1 82 525.1 118.8 523.6 164.8L523.5 329.2C523.5 332.8 525.8 335.1 529.4 335.1C537.9 335.2 549.6 331.2 554 319.6C555.4 315.8 555.6 312 555.6 308.8V236.8C568.8 247.4 585.2 253.7 603 253.7C646.9 253.7 682.5 215.2 682.5 167.8C682.5 120.4 646.9 82 603 82ZM603 226.2C576.7 226.2 555.4 200.1 555.4 167.8C555.4 135.5 576.7 109.4 603 109.4C629.3 109.4 650.6 135.5 650.6 167.8C650.6 200.1 629.3 226.2 603 226.2Z" fill="black"/>
<path d="M733.6 159.1C733.6 116.2 748 114.1 760.7 114.1C764 114.1 767.8 114 771.5 112.5C783.1 108.1 787.1 96.4 787 87.9C787 84.2 784.7 82 781.1 82H770.9C716.6 82 701.5 112.5 701.5 148.4V190.5V193.6V248C701.5 251.6 703.8 253.9 707.4 253.9C715.9 254 727.6 250 732 238.4C733.4 234.6 733.6 230.8 733.6 227.6C733.6 218.3 733.6 206.2 733.6 192.7V159.1Z" fill="black"/>
<path d="M991.6 215.4C988.9 212.2 951.9 168.1 951.9 168.1L976.6 138.6C976.6 138.6 988.8 124 991.5 120.8C993.6 118.3 995.9 115.3 997.3 111.5C1001.3 99.8 995 89.2 988.4 83.8C985.6 81.5 982.4 81.8 980 84.5L930.9 143L881.8 84.5C879.5 81.7 876.3 81.4 873.4 83.8C866.8 89.2 860.5 99.8 864.5 111.5C865.8 115.3 868.2 118.3 870.3 120.8C873 124 876.1 127.8 885.2 138.6L909.9 168.1C909.9 168.1 873 212.1 870.2 215.4C868.1 217.9 865.8 220.9 864.4 224.7C860.4 236.4 866.7 247 873.3 252.4C876.1 254.7 879.3 254.4 881.7 251.7L930.8 193.2L979.9 251.7C982.2 254.5 985.4 254.8 988.3 252.4C994.9 247 1001.2 236.4 997.2 224.7C996.1 220.9 993.7 217.9 991.6 215.4Z" fill="black"/>
<path d="M837.2 87.9C837.2 84.3 834.9 82 831.3 82C822.8 81.9 811.1 85.9 806.7 97.5C805.3 101.3 805.1 105.1 805.1 108.3C805.1 114.2 805.1 248.1 805.1 248.1C805.1 251.7 807.4 254 811 254C819.5 254.1 831.2 250.1 835.6 238.5C837 234.7 837.2 230.9 837.2 227.7V87.9Z" fill="black"/>
<path d="M1062.2 218.5C1062.2 214.9 1059.9 212.6 1056.3 212.6C1047.8 212.5 1036.1 216.5 1031.7 228.1C1030.3 231.9 1030.1 235.7 1030.1 238.9V248.1C1030.1 251.7 1032.4 254 1036 254C1044.5 254.1 1056.2 250.1 1060.6 238.5C1062 234.7 1062.2 230.9 1062.2 227.7V218.5Z" fill="black"/>
</svg>
