<svg fill="none" height="41" viewBox="0 0 151 41" width="151" xmlns="http://www.w3.org/2000/svg">
<g id="logo">
<g id="Group">
<path d="M65.1402 0.425781H51.0806V16.2657H65.1402V0.425781Z" fill="#221F1F" id="Vector"></path>
<path d="M50.2098 16.2657H26.4868L50.2098 0.425781V16.2657Z" fill="#221F1F" id="Vector_2"></path>
<path d="M80.0704 0.425781H66.0107V16.2657H80.0704V0.425781Z" fill="#221F1F" id="Vector_3"></path>
<path d="M95.0226 0.425781H80.9629V16.2657H95.0226V0.425781Z" fill="#221F1F" id="Vector_4"></path>
<path d="M95.8931 16.2657V0.425781H119.573L95.8931 16.2657Z" fill="#221F1F" id="Vector_5"></path>
</g>
<g id="Group_2">
<path d="M79.6351 0.861328H66.4678V15.8079H79.6351V0.861328Z" fill="#DB3427" id="Vector_6"></path>
<path d="M94.5653 0.861328H81.3979V15.8079H94.5653V0.861328Z" fill="#DB3427" id="Vector_7"></path>
<path d="M118.114 0.861328C116.003 2.27755 97.5469 14.6096 96.3281 15.4375V0.861328H118.114Z" fill="#DB3427" id="Vector_8"></path>
<path d="M49.7746 1.25391V15.8301H27.9233C30.0345 14.4139 48.5558 2.06006 49.7746 1.25391Z" fill="#FFDD00" id="Vector_9"></path>
<path d="M64.683 0.861328H51.5156V15.8079H64.683V0.861328Z" fill="#FFDD00" id="Vector_10"></path>
</g>
<g id="text">
<path d="M147.409 22.2145C147.409 21.2776 148.105 20.5804 149.019 20.5804C149.912 20.5804 150.608 21.2776 150.608 22.2145C150.608 23.1514 149.912 23.8486 149.019 23.8486C148.105 23.8704 147.409 23.1732 147.409 22.2145ZM149.019 24.1972C150.086 24.1972 151 23.3693 151 22.2363C151 21.1033 150.086 20.2754 149.019 20.2754C147.931 20.2754 147.017 21.1033 147.017 22.2363C147.017 23.3693 147.931 24.1972 149.019 24.1972ZM148.606 22.367H148.998L149.585 23.3475H149.977L149.324 22.3453C149.651 22.3017 149.912 22.1274 149.912 21.7134C149.912 21.2559 149.651 21.0598 149.106 21.0598H148.236V23.3257H148.584V22.367H148.606ZM148.606 22.0838V21.3866H149.063C149.302 21.3866 149.564 21.4302 149.564 21.7134C149.564 22.062 149.302 22.0838 149.019 22.0838H148.606Z" fill="#DB3427" id="Vector_11"></path>
<path d="M14.4297 39.9054C13.2544 39.9054 11.3391 40.4283 8.87979 40.4283C3.24287 40.4283 0 37.4652 0 32.3668C0 27.203 3.69991 23.8477 9.61978 23.8477C12.3403 23.8477 14.212 24.4795 15.2567 24.4795C15.5179 24.4795 15.779 24.3924 16.1273 24.327L14.7126 28.2706C13.1673 27.2248 11.5786 26.7455 9.77212 26.7455C6.28985 26.7455 4.1352 29.0114 4.1352 32.1707C4.1352 35.6568 6.00692 37.5305 9.53272 37.5305C11.535 37.5305 13.4503 36.9205 15.6049 35.8529V40.1451C15.1479 39.9926 14.7561 39.9054 14.4297 39.9054Z" fill="#DB3427" id="Vector_12"></path>
<path d="M24.2234 33.9144L27.4228 26.5065L30.8615 33.9144H24.2234ZM36.259 37.2262L31.0356 25.526C30.8833 25.1774 30.7962 24.9378 30.7962 24.807C30.7962 24.6763 30.905 24.4802 31.0138 24.2188H24.4411C24.5716 24.502 24.6369 24.6763 24.6369 24.7852C24.6369 24.9378 24.5499 25.221 24.3975 25.526L18.7824 37.2044C18.26 38.2938 17.7159 39.2525 16.9106 40.0586H23.0046C22.6129 39.71 22.3952 39.2307 22.3952 38.5988C22.3952 38.2067 22.4823 37.7927 22.5911 37.553L22.9393 36.7904H32.0585L32.5156 37.8363C32.6026 38.0324 32.7115 38.4028 32.7115 38.7949C32.7115 39.2743 32.5156 39.6447 32.1238 40.0804H38.1307C37.369 39.2961 36.7596 38.3374 36.259 37.2262Z" fill="#DB3427" id="Vector_13"></path>
<path d="M43.4631 31.3431V26.9419H47.6854C50.2101 26.9419 51.2765 27.4213 51.2765 29.1208C51.2765 30.8202 50.2101 31.3213 47.6854 31.3213H43.4631V31.3431ZM43.4631 37.2913V34.0448H45.2913C46.8801 34.0448 48.1425 34.6331 49.1654 35.9186C50.2536 37.2477 50.7542 38.3371 50.7542 39.1432C50.7542 39.4918 50.6018 39.7533 50.2753 40.0801H57.0658C55.5858 39.0779 54.8676 37.5309 53.8664 36.0058C53.1482 34.8946 52.4518 33.9795 51.1024 33.3694C53.8882 32.8465 55.4117 31.1688 55.4117 28.9247C55.4117 26.8112 54.2364 25.1989 52.4082 24.6106C51.233 24.2402 49.6224 24.2402 47.5766 24.2402H38.2397C39.1756 24.676 39.5674 25.5257 39.5674 26.9637V37.2913C39.5674 38.7511 39.1974 39.6444 38.2397 40.0583H44.8125C43.8767 39.6662 43.4631 38.7728 43.4631 37.2913Z" fill="#DB3427" id="Vector_14"></path>
<path d="M73.8458 39.3395C72.6488 39.3395 70.3853 40.4289 66.8595 40.4289C60.8308 40.4289 57.5444 37.4222 57.5444 32.2802C57.5444 27.2254 61.1355 23.8047 67.7736 23.8047C70.1241 23.8047 71.8217 24.2404 72.8447 24.2404C73.1711 24.2404 73.6935 24.1969 74.4117 24.0879L73.3235 28.1405C71.517 27.0947 69.6018 26.5718 67.6866 26.5718C63.8343 26.5718 61.6579 28.6852 61.6579 32.4327C61.6579 35.897 63.4425 37.7054 66.8377 37.7054C69.7977 37.7054 71.3647 36.6596 71.3647 34.8076V33.3696H67.7518C66.9901 33.3696 66.4025 33.5004 65.706 34.0015L66.2719 31.9534C66.5983 30.8422 66.8813 30.6461 68.2089 30.6461H75.6087C75.1517 31.1037 75.1517 31.5176 75.1517 32.1277V39.5574C74.5205 39.4267 74.0852 39.3395 73.8458 39.3395Z" fill="#DB3427" id="Vector_15"></path>
<path d="M77.0234 24.2188H83.6398C82.7039 24.6109 82.2251 25.5478 82.2251 26.9423V37.3569H86.7303C89.2549 37.3569 91.2355 36.8558 92.9331 35.4614C92.0625 37.7273 91.4096 38.9692 91.4096 39.3832C91.4096 39.6011 91.5402 39.819 91.736 40.0804H77.0234C77.9593 39.6447 78.3511 38.7731 78.3511 37.3569V26.9423C78.3511 25.5042 77.9593 24.6545 77.0234 24.2188Z" fill="#DB3427" id="Vector_16"></path>
<path d="M100.224 33.9144L103.424 26.5065L106.862 33.9144H100.224ZM112.26 37.2262L107.037 25.526C106.884 25.1774 106.797 24.9378 106.797 24.807C106.797 24.6763 106.906 24.4802 107.015 24.2188H100.442C100.573 24.502 100.638 24.6763 100.638 24.7852C100.638 24.9378 100.551 25.221 100.399 25.526L94.7833 37.2044C94.261 38.2938 93.7169 39.2525 92.9116 40.0586H99.0056C98.6138 39.71 98.3962 39.2307 98.3962 38.5988C98.3962 38.2067 98.4833 37.7927 98.5921 37.553L98.9403 36.7904H108.059L108.517 37.8363C108.604 38.0324 108.712 38.4028 108.712 38.7949C108.712 39.2743 108.517 39.6447 108.125 40.0804H114.132C113.37 39.2961 112.761 38.3374 112.26 37.2262Z" fill="#DB3427" id="Vector_17"></path>
<path d="M121.88 37.5305C124.535 37.5305 125.863 36.8333 125.863 35.4607C125.863 33.783 123.991 33.6741 120.857 33.2601C116.983 32.7372 115.068 31.321 115.068 28.8371C115.068 25.9829 117.723 23.8477 122.25 23.8477C125.144 23.8477 127.299 24.3488 128.518 24.3488C128.736 24.3488 128.953 24.327 129.193 24.2181L128.213 28.2488C126.668 27.2684 124.6 26.7019 122.119 26.7019C120.182 26.7019 119.159 27.2684 119.159 28.2924C119.159 29.8394 120.987 29.6868 124.339 30.2969C128.126 30.9941 129.998 32.3014 129.998 35.0467C129.998 38.4456 127.147 40.4501 121.88 40.4501C119.486 40.4501 117.701 40.0797 116.722 40.0797C116.461 40.0797 116.199 40.1233 115.916 40.2323L114.937 35.7657C117.353 36.9423 119.616 37.5305 121.88 37.5305Z" fill="#DB3427" id="Vector_18"></path>
<path d="M138.138 37.5305C140.793 37.5305 142.12 36.8333 142.12 35.4607C142.12 33.783 140.249 33.6741 137.115 33.2601C133.241 32.7372 131.325 31.321 131.325 28.8371C131.325 25.9829 133.981 23.8477 138.508 23.8477C141.402 23.8477 143.557 24.3488 144.776 24.3488C144.993 24.3488 145.211 24.327 145.45 24.2181L144.471 28.2488C142.926 27.2684 140.858 26.7019 138.377 26.7019C136.44 26.7019 135.417 27.2684 135.417 28.2924C135.417 29.8394 137.245 29.6868 140.597 30.2969C144.384 30.9941 146.256 32.3014 146.256 35.0467C146.256 38.4456 143.405 40.4501 138.138 40.4501C135.744 40.4501 133.959 40.0797 132.979 40.0797C132.718 40.0797 132.457 40.1233 132.174 40.2323L131.195 35.7657C133.611 36.9423 135.874 37.5305 138.138 37.5305Z" fill="#DB3427" id="Vector_19"></path>
</g>
</g>
</svg>