<?xml version="1.0" encoding="UTF-8"?> <svg xmlns="http://www.w3.org/2000/svg" xmlns:xlink="http://www.w3.org/1999/xlink" version="1.1" id="Laag_1" x="0px" y="0px" viewBox="0 0 400.5 91.1" style="enable-background:new 0 0 400.5 91.1;" xml:space="preserve"> <style type="text/css"> .st0{fill:#FFFFFF;} .st1{fill:#252526;} </style> <g id="century21-viaplus-logo-neg" transform="translate(-426.5 1857.7)"> <path id="Via_plus" class="st0" d="M431.1-1788.9h5.5l5.4,14.4h0.1l5.5-14.4h5.2l-9.1,21.9h-3.9L431.1-1788.9z M456.6-1782.1h4.7 v15.1h-4.7V-1782.1z M456.2-1786.8c0-0.7,0.3-1.4,0.8-1.9c0.5-0.5,1.2-0.8,1.9-0.8c0.7,0,1.4,0.3,1.9,0.8c0.5,0.5,0.8,1.2,0.8,1.9 c0,0.7-0.3,1.4-0.8,1.9c-0.5,0.5-1.2,0.8-1.9,0.8c-0.7,0-1.4-0.3-1.9-0.8C456.5-1785.4,456.2-1786.1,456.2-1786.8z M475.8-1768.9 L475.8-1768.9c-0.5,0.8-1.3,1.4-2.1,1.7c-0.9,0.4-1.8,0.5-2.7,0.5c-0.7,0-1.4-0.1-2-0.3c-0.6-0.2-1.2-0.5-1.7-0.9 c-0.5-0.4-0.9-0.9-1.2-1.5c-0.3-0.6-0.4-1.3-0.4-2c0-0.8,0.1-1.5,0.5-2.2c0.3-0.6,0.8-1.1,1.3-1.5c0.6-0.4,1.2-0.7,1.9-0.9 c0.7-0.2,1.4-0.4,2.2-0.5c0.8-0.1,1.5-0.2,2.3-0.2c0.8,0,1.5,0,2.1,0c0-0.8-0.3-1.5-0.9-2c-0.6-0.5-1.3-0.7-2.1-0.7 c-0.7,0-1.4,0.2-2.1,0.5c-0.6,0.3-1.2,0.8-1.7,1.3l-2.5-2.5c0.9-0.8,1.9-1.4,3-1.8c1.2-0.4,2.4-0.6,3.6-0.6c1.1,0,2.3,0.1,3.4,0.5 c0.8,0.3,1.6,0.8,2.1,1.5c0.6,0.7,0.9,1.5,1.1,2.4c0.2,1.1,0.3,2.2,0.3,3.3v7.7h-4.3V-1768.9z M474.7-1773.6c-0.4,0-0.8,0-1.3,0 c-0.5,0-1,0.1-1.5,0.3c-0.5,0.1-0.9,0.3-1.2,0.7c-0.3,0.3-0.5,0.7-0.5,1.2c0,0.5,0.3,1,0.7,1.2c0.5,0.3,1,0.4,1.5,0.4 c0.4,0,0.9-0.1,1.3-0.2c0.4-0.1,0.8-0.3,1.1-0.5c0.3-0.2,0.6-0.5,0.8-0.9c0.2-0.4,0.3-0.8,0.3-1.2v-1H474.7z M496.3-1788.9h8.2 c1.1,0,2.2,0.1,3.2,0.3c0.9,0.2,1.8,0.5,2.6,1.1c0.8,0.5,1.4,1.2,1.8,2c0.5,1,0.7,2.1,0.7,3.2c0,1.1-0.2,2.2-0.6,3.2 c-0.4,0.8-1,1.5-1.7,2.1c-0.8,0.5-1.6,0.9-2.6,1.1c-1.1,0.2-2.1,0.3-3.2,0.3h-3.5v8.6h-4.8V-1788.9z M501.2-1779.6h3.2 c0.4,0,0.8,0,1.3-0.1c0.4-0.1,0.8-0.2,1.1-0.4c0.3-0.2,0.6-0.5,0.8-0.8c0.2-0.4,0.3-0.8,0.3-1.3c0-0.5-0.1-1-0.4-1.3 c-0.3-0.3-0.6-0.6-1-0.8c-0.4-0.2-0.9-0.3-1.3-0.4c-0.5-0.1-0.9-0.1-1.4-0.1h-2.5L501.2-1779.6z M517.1-1790.4h4.7v23.4h-4.7 V-1790.4z M541.4-1767h-4.5v-2h-0.1c-0.2,0.3-0.4,0.6-0.6,0.9c-0.3,0.3-0.6,0.6-0.9,0.8c-0.4,0.2-0.8,0.4-1.3,0.6 c-0.5,0.1-1,0.2-1.6,0.2c-1,0-2-0.1-2.9-0.5c-0.7-0.3-1.3-0.8-1.7-1.5c-0.4-0.7-0.7-1.5-0.8-2.3c-0.1-0.9-0.2-1.9-0.2-2.8v-8.3h4.6 v7.4c0,0.4,0,0.9,0,1.3c0,0.4,0.1,0.9,0.3,1.3c0.1,0.4,0.4,0.7,0.7,1c0.4,0.3,0.9,0.4,1.4,0.4c0.5,0,1-0.1,1.5-0.3 c0.4-0.2,0.7-0.5,0.9-0.9c0.2-0.4,0.3-0.8,0.4-1.2c0.1-0.5,0.1-0.9,0.1-1.4v-7.5h4.7L541.4-1767z M554.9-1777.6 c-0.6-0.8-1.6-1.3-2.7-1.3c-0.4,0-0.8,0.1-1.1,0.3c-0.4,0.2-0.6,0.6-0.6,1c0,0.4,0.2,0.7,0.6,0.8c0.5,0.2,1,0.4,1.5,0.5l1.9,0.4 c0.7,0.2,1.3,0.4,1.9,0.7c0.6,0.3,1.1,0.8,1.5,1.3c0.4,0.7,0.6,1.5,0.6,2.3c0,0.8-0.2,1.7-0.6,2.4c-0.4,0.6-1,1.1-1.6,1.5 c-0.7,0.4-1.4,0.7-2.2,0.8c-0.8,0.2-1.6,0.2-2.4,0.2c-1.1,0-2.2-0.2-3.2-0.4c-1-0.3-2-0.8-2.7-1.6l2.8-3.1c0.4,0.5,0.9,0.9,1.4,1.2 c0.6,0.3,1.2,0.4,1.8,0.4c0.5,0,1-0.1,1.5-0.2c0.4-0.1,0.7-0.5,0.7-0.9c0-0.4-0.2-0.7-0.6-0.9c-0.5-0.2-1-0.4-1.5-0.5l-1.9-0.4 c-0.7-0.2-1.3-0.4-1.9-0.7c-0.6-0.3-1.1-0.8-1.5-1.3c-0.4-0.7-0.6-1.5-0.6-2.3c0-0.8,0.2-1.6,0.5-2.3c0.4-0.6,0.8-1.2,1.4-1.6 c0.6-0.4,1.3-0.7,2-0.9c0.8-0.2,1.5-0.3,2.3-0.3c1,0,2,0.1,3,0.4c1,0.3,1.9,0.8,2.6,1.5L554.9-1777.6z"></path> <path id="century21-logo-benelux" class="st1" d="M641-1831.3c0,5.5-4.5,10-10,10s-10-4.5-10-10v-26.4h-8.6v26.4 c0,10.3,8.3,18.6,18.6,18.6c10.3,0,18.6-8.3,18.6-18.6v-26.4H641L641-1831.3z M449-1849.1c3.6,0,7,1.4,9.6,3.8l4.9-7.1 c-9.5-8-23.7-6.8-31.7,2.8c-8,9.5-6.8,23.7,2.8,31.7c4.1,3.4,9.2,5.3,14.5,5.3c5.3,0,10.4-1.9,14.4-5.3l-4.9-7.1 c-5.6,5.3-14.4,5.1-19.7-0.5s-5.1-14.4,0.5-19.7C442-1847.7,445.4-1849.1,449-1849.1z M545.9-1827.4l-20.9-30.3h-8.6v45h8.6v-30.2 l20.9,30.2h8.6v-45h-8.6V-1827.4z M566-1857.7v8.6h13.3v36.4h8.6v-36.4h13.3v-8.6H566z M802.8-1857.7v8.6h4.7v36.4h8.6v-45H802.8z M474.9-1857.7v45h30v-8.6h-21.4v-9.7h17.2v-8.6h-17.2v-9.5h21.4v-8.6H474.9z M695.5-1842.6c0-8.3-6.8-15-15.1-15.1h-19.4v45h8.6 v-14.8h5.5l10.2,14.8h10.2l-10.7-15.4C691.2-1830.1,695.6-1836,695.5-1842.6L695.5-1842.6z M680.5-1836h-10.8v-13.1h10.8 c3.6,0,6.5,2.9,6.5,6.5C687-1839,684.1-1836,680.5-1836L680.5-1836z M734.9-1857.7l-12.6,18.1l-12.6-18.1h-10.2L718-1831v18.3h8.6 v-18.3l18.5-26.7H734.9z M790.6-1835.2l0.2-0.3c1.6-2.4,2.4-5.1,2.4-8c0-1.1-0.1-2.3-0.4-3.4c-1.9-7.6-9.6-12.3-17.2-10.4 c-6.4,1.6-10.8,7.3-10.8,13.8v0.5h8.6v-0.5c0-3.1,2.5-5.6,5.6-5.6c3-0.1,5.5,2.3,5.6,5.3c0,0.1,0,0.2,0,0.3c-0.3,1.6-0.9,3-1.8,4.4 c-0.5,0.7-18.3,26.4-18.3,26.4h29.5v-8.6H781L790.6-1835.2L790.6-1835.2z M823.3-1820.2c0.6,0,1.3,0.2,1.8,0.5 c0.6,0.3,1.1,0.8,1.4,1.4c0.3,0.6,0.5,1.2,0.5,1.9c0,0.6-0.2,1.3-0.5,1.8c-0.3,0.6-0.8,1.1-1.4,1.4c-0.5,0.3-1.2,0.5-1.8,0.5 c-0.6,0-1.3-0.2-1.8-0.5c-0.6-0.3-1.1-0.8-1.4-1.4c-0.3-0.5-0.5-1.2-0.5-1.8c0-0.7,0.2-1.3,0.5-1.9c0.3-0.6,0.8-1.1,1.4-1.4 C822.1-1820,822.7-1820.2,823.3-1820.2z M823.3-1819.6c-0.5,0-1,0.1-1.5,0.4c-0.5,0.3-0.9,0.7-1.2,1.2c-0.3,0.5-0.4,1-0.4,1.6 c0,0.5,0.1,1,0.4,1.5c0.3,0.5,0.7,0.9,1.2,1.2c0.5,0.3,1,0.4,1.6,0.4c0.6,0,1.1-0.1,1.6-0.4c0.5-0.3,0.9-0.7,1.2-1.2 c0.3-0.4,0.4-1,0.4-1.5c0-0.6-0.1-1.1-0.4-1.6c-0.3-0.5-0.7-0.9-1.2-1.2C824.5-1819.5,823.9-1819.6,823.3-1819.6L823.3-1819.6z M821.7-1814.4v-4h1.4c0.4,0,0.7,0,1.1,0.1c0.2,0.1,0.4,0.2,0.5,0.4c0.1,0.2,0.2,0.4,0.2,0.6c0,0.3-0.1,0.6-0.3,0.7 c-0.2,0.2-0.5,0.3-0.8,0.3c0.1,0.1,0.2,0.1,0.3,0.2c0.2,0.1,0.3,0.4,0.6,0.7l0.5,0.7h-0.7l-0.3-0.6c-0.2-0.3-0.4-0.7-0.6-1 c-0.2-0.1-0.3-0.1-0.5-0.1h-0.6v1.7h-0.6L821.7-1814.4z M822.4-1816.7h0.7c0.3,0,0.5,0,0.7-0.2c0.1-0.1,0.2-0.3,0.2-0.4 c0-0.1,0-0.2-0.1-0.3c-0.1-0.1-0.1-0.2-0.3-0.2c-0.2-0.1-0.4-0.1-0.6-0.1h-0.6L822.4-1816.7L822.4-1816.7z"></path> </g> </svg> 