<svg clip-rule="evenodd" fill-rule="evenodd" height="100%" stroke-linejoin="round" stroke-miterlimit="2" viewBox="0 0 431 139" xmlns="http://www.w3.org/2000/svg"><g fill-rule="nonzero" id="CHIP-Logo"><path d="M430.651 99.319l-55.783-.023.027 39.226H0V0h430.587l.064 99.319z" fill="#eb443f"></path><path d="M100.849 51.294h12.705a3.926 3.926 0 003.924-3.84h.018V24.113a7.855 7.855 0 00-7.856-7.856H26.499a7.855 7.855 0 00-7.855 7.856v89.468a7.855 7.855 0 007.855 7.855h83.141a7.854 7.854 0 007.856-7.855l-.014-21.879a3.927 3.927 0 00-3.928-3.928h-12.705a3.928 3.928 0 00-3.929 3.928l.027 4.406a6.547 6.547 0 01-6.546 6.547H63.849a6.547 6.547 0 01-6.546-6.547V76.241L39.449 58.57V41.336a6.546 6.546 0 016.546-6.547h44.406a6.547 6.547 0 016.546 6.547l-.027 6.03a3.929 3.929 0 003.929 3.928M232.507 16.257h-12.766a3.917 3.917 0 00-3.914 3.928v34.997c0 3.615-2.916 6.546-6.531 6.546h-44.718c-3.615 0-6.626-2.931-6.626-6.546V20.185c0-2.169-1.838-3.928-4.007-3.928h-12.766a3.928 3.928 0 00-3.927 3.928l.16 93.396a7.853 7.853 0 007.855 7.855h22.916a7.855 7.855 0 007.857-7.855V87.057l.155-.371c0-3.615 2.932-6.176 6.548-6.176h26.438c3.615 0 6.589 2.932 6.589 6.547l.041-.371-.041 30.822c0 2.17 1.802 3.928 3.971 3.928h12.766a3.927 3.927 0 003.928-3.928V20.185a3.928 3.928 0 00-3.928-3.928M278.366 58.781V20.184a3.928 3.928 0 00-3.929-3.927h-13.105c-2.169 0-4.03 1.758-4.03 3.927v93.396c0 4.34 3.416 7.856 7.752 7.856h23.119a7.854 7.854 0 007.855-7.856V76.543l-17.662-17.762zM393.502 57.473a3.928 3.928 0 01-3.928 3.928h-49.753a3.927 3.927 0 01-3.927-3.928V38.325a3.928 3.928 0 013.927-3.929h49.753a3.93 3.93 0 013.928 3.929v19.148zm12.164-41.216h-82.268a7.856 7.856 0 00-7.855 7.857v89.467a7.853 7.853 0 007.855 7.855h23.229c4.339 0 7.89-3.515 7.89-7.855V86.772c0-3.615 2.965-6.562 6.58-6.562h44.569c4.337 0 7.856-3.533 7.856-7.871V24.113a7.858 7.858 0 00-7.856-7.856" fill="#fff"></path></g></svg>