<?xml version="1.0" standalone="no"?>
<!DOCTYPE svg PUBLIC "-//W3C//DTD SVG 20010904//EN"
 "http://www.w3.org/TR/2001/REC-SVG-20010904/DTD/svg10.dtd">
<svg version="1.0" xmlns="http://www.w3.org/2000/svg"
 width="260.000000pt" height="260.000000pt" viewBox="0 0 260.000000 260.000000"
 preserveAspectRatio="xMidYMid meet">
<metadata>
Created by potrace 1.11, written by Peter Selinger 2001-2013
</metadata>
<g transform="translate(0.000000,260.000000) scale(0.100000,-0.100000)"
fill="#000000" stroke="none">
<path d="M1830 2108 c-690 -65 -1390 -502 -1565 -978 -23 -61 -28 -93 -29
-170 -1 -88 1 -100 32 -161 44 -91 143 -184 254 -238 160 -79 131 -76 877 -76
l664 0 74 174 c40 96 73 178 73 182 0 5 -308 9 -684 9 -742 0 -729 -1 -803 56
-39 30 -73 91 -73 132 0 71 113 230 241 339 225 191 598 355 859 377 92 8 134
-2 138 -33 5 -30 -35 -71 -110 -118 -32 -20 -58 -37 -58 -39 0 -2 125 -4 278
-4 l278 0 31 53 c88 147 82 299 -16 397 -55 55 -129 86 -235 100 -81 11 -96
11 -226 -2z"/>
</g>
</svg>
