<?xml version="1.0" standalone="no"?>
<!DOCTYPE svg PUBLIC "-//W3C//DTD SVG 20010904//EN"
 "http://www.w3.org/TR/2001/REC-SVG-20010904/DTD/svg10.dtd">
<svg version="1.0" xmlns="http://www.w3.org/2000/svg"
 width="260.000000pt" height="260.000000pt" viewBox="0 0 260.000000 260.000000"
 preserveAspectRatio="xMidYMid meet">
<metadata>
Created by potrace 1.14, written by Peter Selinger 2001-2017
</metadata>
<g transform="translate(0.000000,260.000000) scale(0.100000,-0.100000)"
fill="#000000" stroke="none">
<path d="M1160 2590 c-227 -28 -434 -107 -618 -237 -97 -68 -248 -224 -315
-324 -244 -367 -291 -808 -131 -1211 267 -671 1035 -995 1703 -718 283 116
530 349 671 629 143 287 168 665 64 981 -146 441 -543 785 -997 864 -114 20
-283 27 -377 16z m343 -391 c43 -20 57 -72 36 -137 -2 -8 21 -24 63 -42 140
-60 269 -174 324 -286 38 -78 46 -200 17 -265 -47 -105 -136 -163 -251 -162
-49 0 -76 7 -127 32 -153 75 -244 254 -245 479 l0 82 -48 0 c-169 0 -388 -129
-481 -284 -64 -108 -84 -178 -85 -306 -1 -133 10 -182 66 -291 101 -197 302
-319 526 -319 210 0 346 71 518 273 51 59 89 64 136 17 26 -26 30 -36 25 -66
-11 -68 -154 -222 -271 -293 -139 -83 -268 -115 -436 -108 -131 6 -204 24
-305 73 -302 147 -480 476 -435 801 26 186 108 343 249 475 131 124 290 191
482 204 l98 7 17 49 c22 67 71 93 127 67z"/>
<path d="M1502 1778 c8 -154 69 -260 166 -289 104 -31 152 83 83 194 -38 61
-136 139 -219 174 l-35 14 5 -93z"/>
</g>
</svg>
