<svg enable-background="new 0 0 141.093 40.331" height="40.331px" id="evkidettingen" version="1.1" viewBox="0 0 141.093 40.331" width="141.093px" x="0px" xml:space="preserve" xmlns="http://www.w3.org/2000/svg" xmlns:xlink="http://www.w3.org/1999/xlink" y="0px">
<path d="M-0.002,32.083v0.851l1.998-0.001l19.359,2.043l0.089-0.849L2.04,32.083H-0.002L-0.002,32.083z M13.591,13.906h-0.569v1.739
											h0.569L13.591,13.906L13.591,13.906z M14.517,18.697h-1.664v0.853h1.664V18.697z M12.097,20.133v0.853h3.781v-0.853H12.097z
											 M37.63,29.89h-8.469v-4.008h-4.084v-0.799l-2.666-0.788l0.027-0.03l-9.203-8.122l-3.194,4.507l-5.326-1.569V30.12l-4.715-0.004
											v0.853h22.556l20.138,5.28l0.216-0.824L37.63,34.04L37.63,29.89L37.63,29.89z M13.381,17.413l7.188,6.341l-9.665-2.848
											L13.381,17.413z M24.224,30.526l-1.507-0.396l-17.151-0.01v-9.898l1.189,0.351v7.549h0.853v-7.299l1.833,0.54v6.759h0.853v-6.507
											l1.832,0.539v5.968h0.852v-5.717l1.833,0.54v5.177h0.851v-4.926l1.833,0.54v4.386h0.853v-4.135l5.877,1.731V30.526L24.224,30.526z
											 M36.776,33.816l-11.7-3.067v-4.015h3.231v3.156h0v0.852h8.47L36.776,33.816L36.776,33.816z M41.547,30.212h6.789l1.21-2.042h4.431
											l0.894,1.509l0.494-0.845l-0.906-1.516h-5.4l-1.209,2.042h-6.824l-1.884,3.69h0.959L41.547,30.212z M56.903,29.43l1.384,2.653
											l-1.093-0.003v3.783h0.853v-2.929l1.65,0.006l-2.72-5.217l-1.859,2.922h-6.012l-1.286,2.78l0.926,0.007l0.903-1.935h5.937
											L56.903,29.43z M54.187,37.283h6.634v-0.851h-6.634V37.283z M54.565,22.802v-0.02h-8.86v3.413h0.83v1.943h0.853v-2.752h-0.831
											v-1.748h7.274l-1.956,2.229l0.64,0.563l3.432-3.909L59,25.825h-0.881v2.597h0.853v-1.743h1.991l-5.032-5.433L54.565,22.802z
											 M66.115,19.306l0.719-1.155l-9.223,3.297l0.65,0.675L66.115,19.306z M88.066,10.724c-0.804,0.284-12.892,4.482-12.892,4.482
											l0.169,0.844c0,0,12.202-4.238,13.009-4.522c0.355-0.125,1.227-0.373,1.643,0.041l1.357,1.304l0.441,0.461l10.684-7.198
											l-0.605-0.638l-10.002,6.742l-1.272-1.272c-0.25-0.25-0.578-0.397-0.964-0.452V9.81c0.705-0.152,1.232-0.777,1.232-1.528
											c0-0.862-0.701-1.563-1.564-1.563c-0.865,0-1.564,0.701-1.564,1.563c0,0.784,0.576,1.43,1.327,1.544v0.676
											C88.754,10.529,88.422,10.599,88.066,10.724z M88.588,8.282c0-0.392,0.318-0.71,0.711-0.71c0.391,0,0.711,0.318,0.711,0.71
											s-0.321,0.711-0.711,0.711C88.907,8.994,88.588,8.674,88.588,8.282z M74.881,32.567l2.227,2.229l1.25,0.004l-3.452-3.415
											l-2.932,2.697l-2.443-2.533h-5.763l-2.237,2.292v4.675h0.853v-4.329l1.744-1.784h5.041l2.77,2.871L74.881,32.567z M77.406,23.115
											v7.961h0.852v-5.141h3.211v-0.925h-3.211v-1.896H77.406z M81.955,23.115v7.961h0.852v-5.141h3.281v-0.925h-3.281v-1.896H81.955z
											 M87.404,25.936h2.949v-0.925h-2.949v-1.896h-0.853v7.961h0.853V25.936z M90.72,23.115v8.388h0.853v-5.567h3.4v-0.925h-3.4v-1.896
											H90.72z M96.312,31.503v-8.388h-0.853v8.388H96.312z M99.629,31.503v-3.08h-0.852v3.08H99.629z M65.115,25.17l-1.202,1.491
											l0.54,0.436v3.522h0.908v-4.305l0.665-0.823v-2.161l0.018-0.029l2.033-3.21l0.42-2.351l-3.381,5.328V25.17L65.115,25.17z
											 M69.113,22.82v8.02h0.852v-9.764l1.823-2.568l1.779,2.565v9.768h0.853v-4.941h2.57v-0.852h-2.57v-2.327l0.754,0.003l-0.66-4.536
											h2.038l1.422,1.636h15.239l1.631,2.203h3.221l1.425,4.94h-2.384v0.854h3.518l-1.916-6.647h-0.002v-1.208h-0.852v1.208h-2.452
											l-1.386-1.935v-1.441h-0.853v1.172H78.409l-1.42-1.635h-2.596L71.874,0L68.36,22.812L69.113,22.82z M71.848,5.763l2.077,14.324
											l-2.104-3.057l-2.171,3.024L71.848,5.763z M87.279,34.494v-1.659l-2.116-3.98l-1.728,3.153h-6.225v0.924h6.772l1.169-2.129
											l1.2,2.263v2.342L87.279,34.494z M100.5,25.036l0.306,0.852h1.074c1.448,0,2.106,1.241,2.106,2.396c0,0.652-0.2,1.256-0.565,1.696
											c-0.4,0.487-0.983,0.744-1.682,0.744v0.85c0.961,0,1.771-0.364,2.339-1.051c0.488-0.594,0.76-1.39,0.76-2.239
											c0-1.614-1.015-3.247-2.959-3.247H100.5L100.5,25.036z M85.805,37.428h-1.978l-1.469-1.662h-7.027l-2.417,3.558H69.35v0.849h4.016
											l2.416-3.553h6.195l1.469,1.658h2.712l5.379-5.379h13.423v-0.851H91.184L85.805,37.428z M119.389,32.57h-3.673v-3.84h-0.851v4.69
											h4.523V32.57L119.389,32.57z M118.967,31.976h5.579l7.368-9.262l2.022,3.983c0.044,0.082,1.063,2.044,2.713,2.044h1.848v-0.851
											h-1.848c-1.128,0-1.946-1.564-1.955-1.581l-2.622-5.165l-7.937,9.98h-3.47l3.008-4.028h-7.652l3.823-5.358h6.77v-0.851h-7.21
											l-5.037,7.06h7.607L118.967,31.976z M120.975,35.365v-2.819h-0.85v2.819H120.975z M123.44,35.365v-2.819h-0.851v2.819H123.44z
											 M133.22,30.525c-0.366-0.39-0.881-0.585-1.535-0.585c-0.656,0-1.166,0.199-1.515,0.593c-0.537,0.602-0.459,1.405-0.451,1.444v3.39
											h0.852l-0.004-3.436c0-0.007-0.049-0.515,0.243-0.838c0.179-0.2,0.476-0.304,0.876-0.304c0.405,0,0.713,0.107,0.911,0.314
											c0.317,0.333,0.299,0.846,0.298,0.872v3.39h0.851l-0.001-3.363C133.747,31.967,133.79,31.129,133.22,30.525z M137.846,35.365v-6.017
											h-0.948v6.017H137.846z M118.607,35.776v0.87h22.486v-0.87H118.607z M128.146,22.381v-2.584h-0.976v2.584H128.146z M129.781,22.381
											v-2.584h-0.977v2.584H129.781z M131.33,20.865v-1.067h-1.137v1.067H131.33z M131.588,18.258h-3.574l0.12-0.211
											c0.209-0.372,0.381-0.705,0.505-0.991c0.189-0.431,0.445-1.288,0.737-2.474l0.138-0.56l0.88,3.543l0.887,0.007l-1.825-7.36
											l-0.382,1.845c-0.206,0.995-0.825,3.771-1.216,4.654c-0.334,0.76-0.958,1.733-0.963,1.743l-0.422,0.656h5.114V18.258L131.588,18.258
											z M109.588,28.321c0-0.815,0.588-1.482,1.312-1.482c0.642,0,1.175,0.525,1.289,1.212v0.985h0.85v-0.715h0.005
											c0-0.043-0.003-0.084-0.005-0.128v-0.681c0-1.006,0.253-1.714,0.752-2.106c0.723-0.567,1.779-0.319,1.798-0.313l0,0l0,0h0.001V25.09
											l0.549-0.74c-0.461-0.124-1.806-0.443-2.866,0.382c-0.524,0.407-0.858,1.016-1.002,1.812c-0.372-0.335-0.851-0.538-1.372-0.538
											c-1.181,0-2.143,1.04-2.143,2.314c0,0.561,0.186,1.075,0.494,1.475h-2.632v0.852h7.534v-0.852h-3.355
											C110.122,29.738,109.588,29.1,109.588,28.321z M71.596,20.454l-0.651,0.653c-0.095,0.094-0.095,0.247,0,0.341l0.652,0.652
											c0.094,0.095,0.248,0.095,0.341,0l0.651-0.652c0.095-0.094,0.095-0.247,0-0.341l-0.651-0.653
											C71.844,20.36,71.69,20.36,71.596,20.454z"></path>
</svg>