<?xml version="1.0" standalone="no"?>
<!DOCTYPE svg PUBLIC "-//W3C//DTD SVG 20010904//EN"
 "http://www.w3.org/TR/2001/REC-SVG-20010904/DTD/svg10.dtd">
<svg version="1.0" xmlns="http://www.w3.org/2000/svg"
 width="700.000000pt" height="700.000000pt" viewBox="0 0 700.000000 700.000000"
 preserveAspectRatio="xMidYMid meet">
<metadata>
Created by potrace 1.14, written by Peter Selinger 2001-2017
</metadata>
<g transform="translate(0.000000,700.000000) scale(0.100000,-0.100000)"
fill="#000000" stroke="none">
<path d="M0 3775 c0 -1774 3 -3225 6 -3225 4 0 16 10 28 23 19 19 91 86 249
231 18 16 59 54 92 85 33 31 107 99 164 151 57 52 121 111 141 130 20 19 75
69 121 111 46 42 100 92 120 110 35 33 205 191 264 244 17 16 75 70 130 121
55 51 114 105 130 120 17 15 75 69 130 120 55 50 112 103 126 116 111 102 228
209 261 241 22 20 84 76 136 125 53 48 128 118 168 155 40 38 82 77 94 87 23
20 210 192 239 220 9 8 70 65 136 125 66 61 129 119 141 130 11 11 65 61 119
110 54 50 110 101 125 115 93 86 247 228 265 245 11 11 48 44 80 74 33 30 87
80 120 110 50 47 282 261 321 296 6 6 59 55 119 110 59 55 120 111 135 125 78
72 246 227 260 240 9 8 43 40 76 69 32 30 91 84 129 120 59 55 168 155 305
281 15 14 71 66 125 115 53 50 114 106 135 125 21 19 85 78 141 131 57 53 116
107 130 120 15 13 73 67 129 119 57 52 111 102 120 110 23 20 195 179 246 227
35 33 162 150 259 238 17 15 77 72 135 125 58 53 119 109 135 124 17 15 55 51
85 79 31 29 107 99 170 157 63 58 142 131 175 163 33 31 63 57 67 57 5 0 8 5
8 10 0 7 -1172 10 -3495 10 l-3495 0 0 -3225z"/>
</g>
</svg>
