<?xml version="1.0" standalone="no"?>
<!DOCTYPE svg PUBLIC "-//W3C//DTD SVG 20010904//EN"
 "http://www.w3.org/TR/2001/REC-SVG-20010904/DTD/svg10.dtd">
<svg version="1.0" xmlns="http://www.w3.org/2000/svg"
 width="512.000000pt" height="512.000000pt" viewBox="0 0 512.000000 512.000000"
 preserveAspectRatio="xMidYMid meet">
<metadata>
Created by potrace 1.11, written by Peter Selinger 2001-2013
</metadata>
<g transform="translate(0.000000,512.000000) scale(0.100000,-0.100000)"
fill="#000000" stroke="none">
<path d="M3838 4505 c-2 -1 -39 -6 -83 -10 -86 -7 -105 -9 -175 -20 -45 -7
-57 -11 -49 -19 2 -2 54 -6 114 -10 61 -3 121 -8 135 -10 14 -3 45 -7 70 -11
25 -3 59 -8 75 -10 17 -3 41 -7 55 -10 14 -3 35 -7 48 -10 184 -35 432 -131
569 -222 83 -55 194 -163 247 -241 57 -84 90 -157 118 -258 35 -127 31 -379
-9 -514 -2 -8 2 -4 10 10 27 47 99 273 122 384 27 132 28 325 2 418 -52 181
-166 316 -342 403 -95 47 -224 88 -328 105 -34 5 -78 12 -97 16 -35 6 -475 15
-482 9z"/>
<path d="M3138 4325 c-2 -2 -48 -6 -103 -9 -105 -7 -158 -12 -209 -20 -17 -3
-60 -8 -96 -12 -71 -8 -61 -16 36 -28 58 -7 72 -10 232 -42 489 -99 909 -301
1177 -569 270 -270 417 -614 419 -977 1 -70 4 -124 7 -120 11 14 87 219 118
317 168 548 87 936 -248 1184 -192 142 -466 229 -841 267 -49 5 -488 13 -492
9z"/>
<path d="M951 4160 c-111 -68 -162 -103 -251 -173 -100 -79 -289 -272 -347
-355 -26 -37 -50 -69 -53 -72 -6 -5 -38 -56 -67 -105 -114 -195 -198 -447
-220 -661 -13 -117 -6 -342 12 -404 2 -8 6 -26 9 -40 81 -450 399 -879 853
-1154 147 -88 465 -220 604 -250 13 -3 43 -10 67 -16 23 -5 59 -13 80 -16 20
-3 40 -8 43 -10 3 -1 34 -6 70 -10 35 -3 67 -8 70 -10 13 -7 207 -18 314 -18
142 1 338 15 401 29 12 3 39 7 60 10 84 13 324 77 425 114 296 108 562 266
770 457 l46 42 -116 110 c-64 61 -156 149 -206 197 -49 48 -138 133 -196 188
-58 56 -200 193 -315 303 -115 111 -238 229 -273 263 -35 33 -68 61 -73 61 -4
0 -75 -42 -157 -94 l-148 -94 -209 214 c-115 118 -210 216 -212 217 -1 2 66
43 149 92 l150 87 -73 70 c-40 39 -178 172 -307 297 -129 124 -253 244 -276
266 -194 186 -493 474 -511 493 -12 12 -23 22 -26 22 -3 0 -42 -23 -87 -50z"/>
<path d="M2279 4156 c-2 -2 -39 -6 -83 -10 -185 -16 -409 -65 -598 -133 -167
-59 -162 -46 -55 -148 85 -81 392 -377 661 -637 61 -59 115 -108 119 -108 4 0
51 25 103 56 l96 56 26 -23 c14 -13 38 -35 53 -49 14 -14 88 -83 164 -155 183
-172 175 -164 175 -175 0 -5 -9 -14 -20 -20 -11 -6 -54 -33 -96 -60 l-76 -48
49 -49 c27 -26 150 -145 273 -263 122 -118 253 -244 290 -280 297 -288 490
-473 515 -494 l30 -26 30 29 c16 16 43 39 59 52 55 46 192 206 250 294 150
225 218 458 210 720 -16 601 -506 1136 -1249 1365 -106 33 -305 75 -400 86
-33 3 -69 8 -80 11 -23 5 -441 13 -446 9z"/>
<path d="M2340 2894 c-85 -52 -162 -99 -170 -103 -12 -8 8 -32 93 -116 69 -68
111 -104 120 -99 85 51 306 190 317 201 13 12 2 26 -90 113 -58 55 -107 99
-110 99 -3 0 -75 -43 -160 -95z"/>
<path d="M356 1540 c79 -111 215 -257 325 -351 113 -95 115 -97 229 -171 257
-168 579 -296 889 -354 104 -20 93 -18 306 -40 61 -6 372 -6 400 0 11 2 54 7
95 11 41 3 82 8 90 10 8 2 35 7 60 10 154 21 446 112 623 195 107 50 268 144
362 213 39 28 71 52 73 53 2 1 6 39 16 187 2 31 2 57 0 57 -3 0 -42 -30 -87
-67 -215 -176 -503 -328 -772 -409 -91 -28 -228 -64 -265 -70 -14 -2 -36 -7
-48 -10 -13 -2 -43 -7 -65 -10 -23 -3 -53 -7 -67 -10 -111 -18 -474 -25 -625
-11 -192 18 -454 77 -631 142 -217 81 -465 221 -636 362 -37 30 -115 105 -175
166 -59 62 -103 105 -97 97z"/>
</g>
</svg>
