<svg id="uuid-d57654a5-d986-453e-abe4-33c778404ace" viewBox="0 0 746.34 195.41" xmlns="http://www.w3.org/2000/svg">
<defs>
<style>
		.uuid-e11d82b6-fb96-4d1f-bb5e-90cc1f83dbd5 {
			fill: #1f4e79;
		}

		.uuid-fedf1e81-775b-4130-a404-fbbdbf82b902 {
			fill: #46d088;
		}

		.uuid-7dc14793-7f33-49b2-9fc7-cc09cf67e30f {
			fill: #22af61;
			isolation: isolate;
			opacity: .8;
		}
		</style>
</defs>
<path class="uuid-e11d82b6-fb96-4d1f-bb5e-90cc1f83dbd5" d="m542.66,96.19h13.56v6.31c2.31-4,8.09-7.46,15.87-7.46,15.13,0,23.85,11.56,23.85,26.9s-9.77,27.22-24.38,27.22c-7.15,0-12.4-2.84-14.92-6.31v25h-13.98s0-71.66,0-71.66Zm13.77,25.85c0,9.14,5.78,14.61,12.92,14.61s12.82-5.36,12.82-14.61-5.69-14.5-12.82-14.5-12.92,5.36-12.92,14.5Zm-152.58-11.35c0-23.74,18-38.88,37.93-38.88s31.21,12.61,34.16,24.7l-13.67,4.31c-1.78-7.15-7.56-15-20.49-15-11.14,0-22.91,8-22.91,24.9,0,15.87,11.14,24.6,23.12,24.6,12.72,0,18.92-8.31,20.91-15.24l13.56,4.1c-2.84,11.45-13.56,25.32-34.47,25.32s-38.14-15.06-38.14-38.81Zm268.69,23.12c0-9.21,6.83-14.39,15.45-15.65l12.72-1.89c2.94-.43,3.89-1.9,3.89-3.68,0-3.68-2.84-6.73-8.73-6.73s-9.45,3.89-9.87,8.41l-12.41-2.67c.85-8.09,8.31-17,22.18-17,16.39,0,22.49,9.24,22.49,19.65v25.45c.01,2.74.22,5.49.63,8.2h-12.82c-.36-2.05-.54-4.12-.53-6.2-2.63,4.09-7.57,7.67-15.24,7.67-11,0-17.76-7.46-17.76-15.56Zm20.39-7.35c-3.57.52-6.41,2.52-6.41,6.51,0,3,2.21,6,6.73,6,5.88-.01,11.35-2.84,11.35-11.99v-2.31l-11.67,1.79Zm-210.06,7.35c0-9.21,6.83-14.39,15.45-15.65l12.71-1.89c2.94-.43,3.89-1.9,3.89-3.68,0-3.68-2.84-6.73-8.72-6.73s-9.46,3.89-9.88,8.41l-12.4-2.67c.84-8.09,8.3-17,22.17-17,16.4,0,22.49,9.24,22.49,19.65v25.45c.02,2.74.23,5.48.63,8.2h-12.82c-.35-2.05-.53-4.12-.52-6.2-2.63,4.09-7.57,7.67-15.24,7.67-11,0-17.76-7.46-17.76-15.56Zm20.39-7.35c-3.58.52-6.41,2.52-6.41,6.51,0,3,2.2,6,6.72,6,5.91-.01,11.35-2.84,11.35-11.99v-2.31l-11.66,1.79Zm152.34,22.19c-10.09,0-16.4-6-16.4-16v-24.05h-9.32v-12.4h2.6c5.46,0,8-3.57,8-8.19v-7.26h12.61l.02,15.44h10.37v12.41h-10.4v21.65c0,4.52,2.1,6,6.09,6,1.45.01,2.89-.13,4.31-.42v11.56c-2.28.84-4.7,1.27-7.13,1.27-.25,0-.5,0-.75-.01Zm-48.63-52.46h14v51.71l-14,.05v-51.76Zm-283.72,51.71v-74.51h47.08v13.77h-32.58v18.44h29v13.34h-28.9v29l-14.6-.04Zm409.09,0v-76.09h14v76.09h-14Zm-485.17,0v-74.51h26.69c21.22,0,36.78,13.77,36.78,37.3s-15.66,37.21-36.89,37.21h-26.58Zm14.5-13.46h11.56c12.19,0,22.38-7.56,22.38-23.75s-10.13-23.85-22.28-23.85h-11.66v47.6Zm343.62-55.12c-.06-4.76,3.76-8.66,8.52-8.72,4.76-.06,8.66,3.76,8.72,8.52.06,4.76-3.76,8.66-8.52,8.72-.01,0-.02,0-.03,0h-.07c-4.72,0-8.56-3.8-8.62-8.52Z" id="logo-text"></path>
<path class="uuid-fedf1e81-775b-4130-a404-fbbdbf82b902" d="m182.48,0C112.93.09,56.57,56.45,56.48,126h0v69.39h69.49v-69.73c.23-30.69,24.92-55.58,55.61-56.06h.9V0ZM56.53,194.46v-.87c0,.33,0,.63,0,.87Zm0-1.1h0v-.55h0c.03.18.04.37.03.55h-.03Zm.06-1.16v-.21h0c.03.07.04.14.03.21h-.03Zm.07-1.28h0c0-.1,0-.19,0-.29.04.09.05.19.03.29h-.03Zm.16-2.11h0l.06-.78c0,.26,0,.52-.03.78h-.03Zm.09-1.15h0l.06-.73c0,.24,0,.49-.03.73h-.03Zm.12-1.27h0v-.49c.06.16.07.33.03.49h-.03Zm.4-3.63v-.4h0c.04.13.06.26.05.4h-.05Zm.19-1.46l.06-.48v-.05c0,.18,0,.35-.03.53h-.03Zm.1-.78h0c.02-.19.04-.39.08-.58,0,.19-.01.39-.05.58h-.03Zm.46-2.92v-.11h0s0,.07,0,.11Zm.66-4h0c.08-.46.17-.93.25-1.4-.08.46-.16.93-.25,1.4Zm.84-4.35l.24-1.14h0c-.07.36-.15.75-.24,1.14Zm.31-1.44h0c.12-.51.23-1,.35-1.55-.12.5-.24,1.03-.35,1.55Zm.45-2h0c.13-.57.27-1.16.41-1.74h0l-.41,1.74Zm1.91-7.5l.21-.75h0l-.21.75Zm.29-1.05h0c.07-.25.15-.51.23-.77l-.23.77Zm1.36-4.48h0c.14-.44.28-.88.43-1.32-.14.4-.29.85-.43,1.29v.03Zm.75-2.27h0l.69-2h0c-.23.62-.47,1.29-.69,1.97v.03Zm1.1-3.15l.43-1.2h0l-.43,1.2Zm2.36-6.12h0c.25-.59.5-1.19.76-1.78-.25.55-.49,1.14-.76,1.75v.03Zm1-2.34h0c.31-.73.63-1.45,1-2.17-.38.69-.71,1.41-1,2.14v.03Zm2.15-4.71h0c.13-.28.28-.56.41-.84l-.41.84Zm3.64-7l-.41.76.41-.75h0Zm66.34-84.41l.47-.76.31-.43-.78,1.19ZM181.59.78h0l.19-.13-.19.13Z"></path>
<path class="uuid-7dc14793-7f33-49b2-9fc7-cc09cf67e30f" d="m0,69.4v69.57h.85c30.7.47,55.41,25.37,55.63,56.08v.36h69.58c-.08-69.58-56.48-125.95-126.06-126.01Z"></path>
</svg>