<svg height="40" id="Layer_1" style="enable-background:new 0 0 301.4 101.9;" version="1.1" viewBox="0 0 301.4 101.9" width="127" x="0px" xml:space="preserve" xmlns="http://www.w3.org/2000/svg" xmlns:xlink="http://www.w3.org/1999/xlink" y="0px">
<g>
<g>
<g>
<path class="st0" d="M72.4,78.3h-11c-0.2,0-0.3-0.1-0.3-0.3V27.4c0-0.2,0.1-0.3,0.3-0.3h11c0.2,0,0.3,0.1,0.3,0.3l0,50.6
				C72.7,78.2,72.6,78.3,72.4,78.3 M66.9,9.6L66.9,9.6c-3.2,0-5.8,2.6-5.8,5.8c0,3.2,2.6,5.8,5.8,5.8c3.2,0,5.8-2.6,5.8-5.8
				C72.7,12.3,70.1,9.6,66.9,9.6"></path>
<path class="st0" d="M105.3,25.5c-15,0-27.2,12.2-27.2,27.2c0,15,12.2,27.1,27.2,27.1c5.8,0,11.1-1.8,15.5-4.9c0,0,0,0.2,0,0.2
				c0,3.8-1.5,7.5-4,10.3c-2.5,2.8-5.9,4.3-9.5,5c-0.2,0-0.5,0.1-0.7,0.2c-0.4,0.2-0.8,0.5-1,0.9c-0.2,0.4-0.3,0.8-0.3,1.3v6.6
				c0,1.5,1.3,2.7,2.8,2.5c13.7-1.4,24.3-12.9,24.3-27V52.7C132.5,37.7,120.3,25.5,105.3,25.5 M105.3,68.2c-8.6,0-15.6-7-15.6-15.6
				c0-8.6,7-15.6,15.6-15.6c8.6,0,15.5,7,15.5,15.6C120.9,61.3,113.9,68.2,105.3,68.2"></path>
<path class="st0 st_d" d="M51.8,9.7h-6.5c-1.4,0-2.5,1.2-2.5,2.5v18.3c-4.4-3.1-9.8-4.9-15.5-4.9C12.2,25.6,0,37.7,0,52.7
				c0,15,12.2,27.2,27.2,27.2c15,0,27.1-12.2,27.1-27.2V12.2C54.3,10.8,53.2,9.7,51.8,9.7 M27.2,68.3c-8.6,0-15.6-7-15.6-15.6
				c0-8.6,7-15.5,15.6-15.5c8.6,0,15.5,7,15.5,15.5C42.7,61.3,35.7,68.3,27.2,68.3"></path>
<path class="st0" d="M150.6,78.3h-11c-0.2,0-0.3-0.1-0.3-0.3V27.4c0-0.2,0.1-0.3,0.3-0.3h11c0.2,0,0.3,0.1,0.3,0.3V78
				C150.9,78.1,150.8,78.3,150.6,78.3 M145.1,9.6L145.1,9.6c-3.2,0-5.8,2.6-5.8,5.8c0,3.2,2.6,5.8,5.8,5.8c3.2,0,5.8-2.6,5.8-5.8
				C150.9,12.2,148.3,9.6,145.1,9.6"></path>
<path class="st0" d="M169,78.3h-11c-0.2,0-0.3-0.1-0.3-0.3V9.9c0-0.2,0.1-0.3,0.3-0.3h11c0.2,0,0.3,0.1,0.3,0.3V78
				C169.3,78.1,169.2,78.3,169,78.3"></path>
<path class="st0" d="M219.5,68.1L219.5,68.1c1.2,0.2,2.2,1.2,2.2,2.5v6.6c0,1.5-1.3,2.7-2.8,2.5c-13.7-1.4-24.3-13-24.3-27V12.2
				c0-1.4,1.1-2.5,2.5-2.5h6.5c1.4,0,2.5,1.2,2.5,2.5v14.9h13c1.4,0,2.5,1.1,2.5,2.5v6.5c0,1.4-1.2,2.5-2.5,2.5h-13v14
				C206.1,60.5,211.9,67,219.5,68.1"></path>
<path class="st0" d="M187.4,78.3h-11c-0.2,0-0.3-0.1-0.3-0.3V27.4c0-0.2,0.1-0.3,0.3-0.3h11c0.2,0,0.3,0.1,0.3,0.3V78
				C187.7,78.1,187.6,78.3,187.4,78.3 M181.9,9.6L181.9,9.6c-3.2,0-5.8,2.6-5.8,5.8c0,3.2,2.6,5.8,5.8,5.8c3.2,0,5.8-2.6,5.8-5.8
				C187.7,12.2,185.1,9.6,181.9,9.6"></path>
<path class="st0" d="M250.2,25.5c-15,0-27.2,12.2-27.2,27.2c0,15,12.2,27.1,27.2,27.1c4.7,0,9.3-1.2,13.4-3.5
				c3.8-2.2,7-5.2,9.4-8.8c0.4-0.6,0.8-1.3,0.5-2.1c-0.2-0.7-0.9-1.2-1.6-1.2h-10.4c-0.8,0-1.4,0.4-2,0.9c-1.5,1.1-3.1,1.9-4.8,2.5
				c-1.5,0.4-3,0.7-4.5,0.7c-6.6,0-12.2-4-14.4-9.8h39.1c1.4,0,2.5-1.1,2.5-2.5v-3.2C277.3,37.7,265.2,25.5,250.2,25.5 M235.8,46.9
				c2.3-5.7,7.9-9.8,14.4-9.8c6.5,0,12.1,4,14.4,9.8H235.8z"></path>
</g>
</g>
<g>
<g>
<path class="st0" d="M289.9,23c-6.3,0-11.5-5.2-11.5-11.5S283.6,0,289.9,0s11.5,5.2,11.5,11.5S296.3,23,289.9,23z M289.9,2.1
				c-5.2,0-9.4,4.2-9.4,9.4s4.2,9.4,9.4,9.4s9.4-4.2,9.4-9.4S295.1,2.1,289.9,2.1z"></path>
</g>
<g>
<g>
<path class="st0" d="M292.5,16.9l-2.1-3.1h-0.1H288v3.1h-2.5v-11h4.8c1,0,1.8,0.2,2.5,0.5c0.7,0.3,1.3,0.8,1.7,1.4
					c0.4,0.6,0.6,1.3,0.6,2.1s-0.2,1.5-0.6,2.1c-0.4,0.6-1,1-1.7,1.4l2.5,3.5H292.5z M291.8,8.5c-0.4-0.3-1-0.5-1.7-0.5H288v3.8h2.1
					c0.8,0,1.3-0.2,1.7-0.5c0.4-0.3,0.6-0.8,0.6-1.4C292.4,9.3,292.2,8.8,291.8,8.5z"></path>
</g>
</g>
</g>
</g>
</svg>