<svg xmlns="http://www.w3.org/2000/svg" data-name="Layer 1" viewBox="0 0 109 26">
<path d="M31.59 3.53A9.19 9.19 0 0026 1.87H.62v.55h.75a1.25 1.25 0 011.25 1.19v19.26a1.24 1.24 0 01-1.16 1.19H.62v1h26a10.14 10.14 0 001.07-.1c4.95-.75 8.76-5.61 8.76-11.49a12 12 0 00-4.86-9.94zm-3.8 16.33a1.32 1.32 0 01-.68 1.14l-.1.14v2H10.54a.71.71 0 01-.71-.7V4a.7.7 0 01.71-.7H23a6 6 0 013 1.2 9.42 9.42 0 011.59 1.64h.67v1.31c1.83 3.38 1.92 7.55-.47 12.41z" fill="#004e38"></path>
<path d="M27.89 10.52V6.4h-2.1l-.59-.82H14.87V-.09h-1.39v6.46h-2.12v4.12h1.87V16.14h-.94V19a1 1 0 00.28 1.84v2h3.26v-1.6h7.59v1.63h3.26v-2A1 1 0 0027 19v-2.9h-1v-5.58z" fill="#231f20"></path>
<path d="M19.32 5.58h.61V5.2a.31.31 0 00-.61 0z" fill="#211e1f"></path>
<path d="M14.26 6.19l.44-.55V.27h-.43l-.01 5.92z" fill="#fff"></path>
<path d="M14.79 5.83l-.41.51h.73v.01h10.37l-.37-.52H14.79z" fill="#004e38"></path>
<path d="M26.24 6.6h1.37v3.72h-1.37zM12.83 16.5h2.82v2.71h-2.82zM23.59 16.5h2.82v2.71h-2.82zM19.62 19.47h-7a.61.61 0 00-.15.65.39.39 0 00.19.12l2.71.73h8.47l2.71-.73a.39.39 0 00.19-.12.61.61 0 00-.15-.65z" fill="#fff"></path>
<path d="M13.68 18.3a.56.56 0 011.12 0h.38a.94.94 0 00-1.88 0zM24.44 18.3a.56.56 0 011.12 0h.38a.94.94 0 00-1.88 0z" fill="#211e1f"></path>
<path d="M19.44 11.09h.36v7.81h-.36zM15.65 10.54l.16.04h7.62l.17-.04.86-.2-4.79-.87-.05.01-.04-.01-4.79.87.86.2z" fill="#fff"></path>
<path d="M13.97 10.54h-.39v5.56h1.89v-5.22l-1.5-.34zM25.67 10.54h-.39l-1.5.34v5.22h1.89v-5.56z" fill="#004e38"></path>
<path d="M11.65 6.6h1.37v3.72h-1.37zM19.57 6.6h.11v2.66h-.11z" fill="#fff"></path>
<path d="M13.22 6.6h.29v3.72h-.29zM13.73 6.6h.46v3.72h-.46zM25.75 6.6h.29v3.72h-.29zM25.06 6.6h.46v3.72h-.46z" fill="#004e38"></path>
<path d="M21.56 11.09h.36v7.81h-.36zM17.32 11.09h.36v7.81h-.36z" fill="#fff"></path>
<path d="M21.43 5.58H22V5.2a.29.29 0 00-.3-.29.3.3 0 00-.31.29zM17.2 5.58h.61V5.2a.31.31 0 00-.61 0zM23.65 5.58h.61V5.2a.29.29 0 00-.3-.29.3.3 0 00-.31.29zM15 5.58h.61V5.2a.3.3 0 00-.31-.29.29.29 0 00-.3.29z" fill="#211e1f"></path>
<path d="M40.38 1.81h2.83a17.54 17.54 0 013.71.25 2.85 2.85 0 011.47.83A2.71 2.71 0 0149 4.17a20.21 20.21 0 01.12 2.77V12a12.21 12.21 0 01-.12 2.66 2 2 0 01-.65 1 2.62 2.62 0 01-1.13.52 10.08 10.08 0 01-2 .15h-4.84zm3.78 2.49v9.57c.55 0 .88-.11 1-.33a4.91 4.91 0 00.19-1.78V6.1a6.4 6.4 0 00-.07-1.26.57.57 0 00-.28-.41 1.83 1.83 0 00-.84-.13zM58.61 1.81l-2.75 9.28v5.27h-3.51v-5.27l-2.66-9.28h3.48a57.82 57.82 0 01.91 5.73q.31-2.33 1.06-5.73zM67.28 6.21h-3.52V5.13a2.14 2.14 0 00-.13-1 .49.49 0 00-.45-.13.59.59 0 00-.52.28 1.72 1.72 0 00-.17.85 2.32 2.32 0 00.2 1.1 2.9 2.9 0 001.06.89 10.84 10.84 0 013.19 2.46 5.7 5.7 0 01.65 3.1 5.5 5.5 0 01-.36 2.29 2.87 2.87 0 01-1.41 1.24 5.58 5.58 0 01-2.43.49 5.47 5.47 0 01-2.59-.57 2.8 2.8 0 01-1.4-1.47 7.23 7.23 0 01-.34-2.52v-.95h3.52v1.77a2.33 2.33 0 00.15 1.04.57.57 0 00.52.23.61.61 0 00.56-.3A1.6 1.6 0 0064 13a2.78 2.78 0 00-.35-1.68A11.67 11.67 0 0061.88 10 17 17 0 0160 8.67a3.25 3.25 0 01-.76-1.17A5.21 5.21 0 0159 5.59a5.34 5.34 0 01.42-2.44 2.9 2.9 0 011.38-1.21 5.52 5.52 0 012.3-.44 6 6 0 012.47.5 2.63 2.63 0 011.37 1.2 6.23 6.23 0 01.34 2.46zM75.32 1.81l2.16 14.55h-3.86l-.21-2.62h-1.35l-.23 2.62h-3.91l1.93-14.55zm-2 9.35Q73 8.7 72.74 5.05q-.58 4.18-.73 6.11zM78.12 1.81h2.68a21.51 21.51 0 013.63.2A2.47 2.47 0 0186 3.07a4.79 4.79 0 01.6 2.71 4.25 4.25 0 01-.42 2.28 2.19 2.19 0 01-1.66.7 2.89 2.89 0 011.48.75 2.29 2.29 0 01.48.86 14.2 14.2 0 01.09 2.15v3.84h-3.51v-4.84a3.34 3.34 0 00-.18-1.44c-.13-.19-.45-.28-1-.28v6.56h-3.76zm3.79 2.49v3.23a1.74 1.74 0 00.89-.17c.17-.12.26-.5.26-1.14v-.8a1.21 1.21 0 00-.25-.91 1.41 1.41 0 00-.9-.21zM95.66 1.81v2.91h-2.25v11.64h-3.78V4.72h-2.24V1.81zM98.53 1.81v1.3a5 5 0 01-.25 1.68 2.39 2.39 0 01-.84 1.11 3.47 3.47 0 01-1.35.62v-1a1.09 1.09 0 00.61-.81h-.61v-2.9zM107.63 6.21h-3.51V5.13a2.1 2.1 0 00-.14-1 .49.49 0 00-.45-.21.59.59 0 00-.52.28 1.72 1.72 0 00-.17.85 2.32 2.32 0 00.2 1.1 2.87 2.87 0 001.07.89 10.9 10.9 0 013.18 2.46 5.7 5.7 0 01.65 3.1 5.5 5.5 0 01-.36 2.29 2.87 2.87 0 01-1.41 1.24 5.56 5.56 0 01-2.42.49 5.49 5.49 0 01-2.6-.57 2.8 2.8 0 01-1.4-1.47 7.52 7.52 0 01-.33-2.52v-.95h3.51v1.77a2.33 2.33 0 00.15 1.05.58.58 0 00.52.23.6.6 0 00.56-.3 1.6 1.6 0 00.19-.88 2.78 2.78 0 00-.35-1.68 11.67 11.67 0 00-1.77-1.3 17 17 0 01-1.87-1.35 3.25 3.25 0 01-.76-1.15 5.21 5.21 0 01-.3-1.91 5.34 5.34 0 01.42-2.44 2.88 2.88 0 011.39-1.21 5.49 5.49 0 012.3-.44 6 6 0 012.51.48 2.63 2.63 0 011.37 1.2 6.23 6.23 0 01.34 2.46z" fill="#004e38"></path>
<path d="M75.08 20.8a1 1 0 01-.11.51 1.06 1.06 0 01-.29.37 1.32 1.32 0 01-.44.23 1.9 1.9 0 01-.54.07 2 2 0 01-.35 0l-.3-.08-.21-.09a.41.41 0 01-.12-.09.16.16 0 010-.1 1.06 1.06 0 010-.21.66.66 0 010-.15.2.2 0 010-.09.09.09 0 010-.06h.05a.21.21 0 01.11 0 1.6 1.6 0 00.19.11 1.51 1.51 0 00.28.1 1 1 0 00.37.05.88.88 0 00.24 0 .49.49 0 00.19-.1.44.44 0 00.12-.15.53.53 0 000-.19.38.38 0 00-.07-.22.69.69 0 00-.18-.16l-.25-.13-.29-.14a2.1 2.1 0 01-.3-.15 1.64 1.64 0 01-.25-.21 1 1 0 01-.25-.69 1.12 1.12 0 01.1-.47 1 1 0 01.27-.34 1.25 1.25 0 01.4-.2 1.86 1.86 0 01.48-.06 1.23 1.23 0 01.27 0l.25.05.2.08.12.07a.43.43 0 010 .05.22.22 0 010 .09.41.41 0 010 .12.57.57 0 010 .14V18.91h-.1l-.17-.09-.23-.09a1.36 1.36 0 00-.3 0 .65.65 0 00-.21 0 .48.48 0 00-.16.08.3.3 0 00-.09.13.4.4 0 000 .15.32.32 0 00.07.22.93.93 0 00.18.16l.26.13.29.13.3.16a1.27 1.27 0 01.25.21.79.79 0 01.18.29.94.94 0 01.04.41zM78 20.46a.25.25 0 01-.06.19.19.19 0 01-.16.07H76.2a1.36 1.36 0 000 .3.61.61 0 00.13.22.51.51 0 00.22.15 1 1 0 00.32 0 1.72 1.72 0 00.33 0l.25-.06.17-.06h.12a.19.19 0 010 .08.41.41 0 010 .12v.11a.2.2 0 000 .07v.06h-.1l-.22.07-.22.22h-.36a1.8 1.8 0 01-.6-.09 1 1 0 01-.43-.26 1.12 1.12 0 01-.26-.44 2.35 2.35 0 01-.08-.63 1.91 1.91 0 01.09-.61 1.19 1.19 0 01.26-.47 1 1 0 01.41-.29 1.35 1.35 0 01.55-.1 1.51 1.51 0 01.55.09.92.92 0 01.37.26 1.2 1.2 0 01.22.4 1.63 1.63 0 01.07.5zm-.7-.21a.78.78 0 00-.13-.48.47.47 0 00-.4-.17.6.6 0 00-.24 0 .46.46 0 00-.17.14.68.68 0 00-.1.21 1 1 0 000 .25zM80.23 19.49v.17a.87.87 0 010 .1H79.94a.25.25 0 00-.12 0 .42.42 0 00-.12.08.83.83 0 00-.14.13 1.39 1.39 0 00-.15.22V21.84h-.69v-2.59a.08.08 0 010-.05h.54a.07.07 0 010 .05v.32a1.83 1.83 0 01.19-.24l.17-.15a.71.71 0 01.16-.07.5.5 0 01.17 0h.25a.25.25 0 010 .1zM83.09 19.25v.08a.07.07 0 000 .05.19.19 0 000 .07l-.77 2.33v.08a.2.2 0 01-.08 0 .57.57 0 01-.16 0h-.73a.43.43 0 010-.07l-.77-2.33a.36.36 0 010-.1.25.25 0 010-.07.08.08 0 010-.05h.54a.1.1 0 01.05 0 .09.09 0 010 .06l.59 1.88v.08-.08l.58-1.88a.14.14 0 010-.06h.63a.07.07 0 01.12.01zM84.3 18.38a.38.38 0 01-.09.3.47.47 0 01-.33.09.53.53 0 01-.33-.08.39.39 0 01-.08-.29.43.43 0 01.08-.31.54.54 0 01.34-.08c.16 0 .27 0 .32.08a.37.37 0 01.09.29zm0 3.44v.05h-.69v-2.61a.08.08 0 010-.05.09.09 0 01.06 0h.57a.09.09 0 01.06 0 .08.08 0 010 .05zM86.91 21.41v.12a.64.64 0 010 .09.43.43 0 010 .05.13.13 0 010 .06.48.48 0 01-.12.08.68.68 0 01-.19.08l-.23.07L86 22a1.44 1.44 0 01-.53-.09 1.14 1.14 0 01-.62-.71 2.18 2.18 0 01-.08-.6 1.87 1.87 0 01.1-.66 1.14 1.14 0 01.27-.47 1 1 0 01.41-.27 1.4 1.4 0 01.51-.09h.23l.21.05.17.08.11.08v.05a.08.08 0 010 .06.19.19 0 010 .08.45.45 0 010 .12.7.7 0 010 .24s0 .07-.08.07a.19.19 0 01-.1-.05l-.13-.08a.51.51 0 00-.18-.09.61.61 0 00-.24 0 .51.51 0 00-.44.21 1.14 1.14 0 00-.15.64 2 2 0 000 .37.89.89 0 00.11.26.42.42 0 00.19.16.51.51 0 00.25.05.68.68 0 00.26 0 .85.85 0 00.19-.1l.14-.1a.12.12 0 01.09 0 .31.31 0 010 .1.76.76 0 01.22.1zM89.81 20.46a.25.25 0 01-.06.19.21.21 0 01-.17.07H88a1 1 0 000 .3.78.78 0 00.12.22.57.57 0 00.22.15 1 1 0 00.32 0 1.78 1.78 0 00.34 0l.25-.06.17-.06h.11a.19.19 0 010 .08v.23a.15.15 0 010 .07v.06h-.11a1.27 1.27 0 01-.21.07L89 22h-.35a1.8 1.8 0 01-.6-.09.94.94 0 01-.43-.26 1 1 0 01-.26-.44 2 2 0 01-.09-.63 1.91 1.91 0 01.09-.61 1.33 1.33 0 01.26-.47 1 1 0 01.42-.29 1.33 1.33 0 01.54-.1 1.47 1.47 0 01.55.09 1 1 0 01.38.26 1.2 1.2 0 01.22.4 2 2 0 01.07.5zm-.71-.21a.72.72 0 00-.12-.48.49.49 0 00-.4-.17.54.54 0 00-.24 0 .39.39 0 00-.17.14.7.7 0 00-.11.21 1 1 0 000 .25zM94.35 21.35v.12a.64.64 0 010 .09.14.14 0 010 .06.21.21 0 010 .06l-.13.09-.22.09a1.32 1.32 0 01-.3.08 2 2 0 01-.36 0 1.85 1.85 0 01-.69-.12 1.39 1.39 0 01-.65-.32 1.63 1.63 0 01-.33-.58 2.86 2.86 0 01-.11-.82 2.7 2.7 0 01.12-.84 1.88 1.88 0 01.36-.62 1.47 1.47 0 01.54-.38 1.82 1.82 0 01.7-.13 1.39 1.39 0 01.3 0 1.81 1.81 0 01.27.06l.22.1.14.09v.07a.14.14 0 010 .07.64.64 0 010 .09v.14a.61.61 0 010 .14.25.25 0 010 .1v.05a.19.19 0 01-.11-.05l-.1-.06a1.17 1.17 0 00-.25-.11 1 1 0 00-.74 0 .82.82 0 00-.3.26 1.13 1.13 0 00-.18.4 2.23 2.23 0 00-.06.54 2.37 2.37 0 00.06.57 1.16 1.16 0 00.2.4.76.76 0 00.3.23 1 1 0 00.4.07 1.13 1.13 0 00.34 0 2.26 2.26 0 00.26-.11l.17-.1a.23.23 0 01.1 0v.05a.56.56 0 010 .1zM97.22 20.46a.25.25 0 01-.06.19.18.18 0 01-.16.07h-1.56a1 1 0 000 .3.59.59 0 00.12.22.57.57 0 00.22.15 1 1 0 00.32 0 1.78 1.78 0 00.34 0l.24-.06.18-.06h.11a.19.19 0 010 .08v.23a.15.15 0 010 .07.14.14 0 010 .06h-.1l-.21.07-.3.06h-.35a1.8 1.8 0 01-.6-.09.89.89 0 01-.43-.26.92.92 0 01-.26-.44 2 2 0 01-.09-.63 1.91 1.91 0 01.09-.61 1.33 1.33 0 01.26-.47 1 1 0 01.41-.29 1.42 1.42 0 01.55-.1 1.47 1.47 0 01.55.09 1 1 0 01.38.26 1 1 0 01.21.4 1.63 1.63 0 01.07.5zm-.7-.21a.72.72 0 00-.12-.48.49.49 0 00-.4-.17.62.62 0 00-.25 0 .55.55 0 00-.17.14 1 1 0 00-.1.21 1 1 0 000 .25zM100.27 21.82a.06.06 0 010 .05h-.63a.06.06 0 010-.05v-1.47a1.12 1.12 0 000-.29.49.49 0 00-.08-.18.37.37 0 00-.13-.12.41.41 0 00-.19 0 .46.46 0 00-.28.1 1.33 1.33 0 00-.3.29v1.71a.09.09 0 010 .05H97.83V19.25a.07.07 0 010-.05H98.38a.08.08 0 010 .05v.3a1.51 1.51 0 01.43-.35 1 1 0 01.46-.11 1 1 0 01.44.08.76.76 0 01.29.24.82.82 0 01.16.34 1.77 1.77 0 010 .48zM102.45 21.56a1 1 0 010 .2.19.19 0 010 .09.16.16 0 01-.08 0H101.95a1.4 1.4 0 01-.38 0 .65.65 0 01-.26-.17.67.67 0 01-.15-.29 1.58 1.58 0 010-.41v-1.24h-.31s-.06 0-.08-.07a.57.57 0 010-.22.66.66 0 010-.15.29.29 0 010-.09h.3v-.57a.1.1 0 01.05 0H101.76v.57h.56v.24a.57.57 0 010 .22.09.09 0 01-.09.07h-.56V21a.62.62 0 00.07.31.25.25 0 00.24.11h.32v.08c0 .08.15.01.15.06zM105.27 20.46a.25.25 0 01-.06.19.19.19 0 01-.16.07h-1.56a1.39 1.39 0 000 .3.61.61 0 00.13.22.57.57 0 00.22.15 1 1 0 00.32 0 1.67 1.67 0 00.33 0l.25-.06.17-.06h.12a.19.19 0 010 .08.41.41 0 010 .12v.11a.2.2 0 000 .07v.06h-.1l-.21.07-.3.06h-.36a1.8 1.8 0 01-.6-.09 1 1 0 01-.43-.26 1.12 1.12 0 01-.26-.44 2.35 2.35 0 01-.08-.63 1.91 1.91 0 01.09-.61 1.19 1.19 0 01.26-.47 1 1 0 01.41-.29 1.38 1.38 0 01.55-.1 1.51 1.51 0 01.55.09 1 1 0 01.38.26 1.39 1.39 0 01.21.4 1.63 1.63 0 01.07.5zm-.7-.21a.85.85 0 00-.12-.48.51.51 0 00-.41-.17.6.6 0 00-.24 0 .46.46 0 00-.17.14.68.68 0 00-.1.21.69.69 0 000 .25zM107.51 19.49v.17a.25.25 0 010 .1H107.27a.25.25 0 00-.12 0 .42.42 0 00-.12.08.83.83 0 00-.14.13c0 .06-.1.13-.15.22v1.6a.06.06 0 010 .05h-.69a.09.09 0 010-.05v-2.54a.07.07 0 010-.05h.54a.07.07 0 010 .05v.32a1.83 1.83 0 01.19-.24l.17-.15a.61.61 0 01.17-.07.41.41 0 01.16 0h.25a.25.25 0 010 .1z"></path>
</svg>