<svg aria-label="ECAAS International" data-bbox="0 0 823.815 529.182" data-type="shape" preserveaspectratio="none" role="img" viewBox="0 0 823.815 529.182" xmlns="http://www.w3.org/2000/svg">
<g>
<path d="m616.92 525.18-7.39-27.71h-60l-7.93 27.82H441.38q-3.7-13.89-7.45-27.9H374c-2.63 9.23-5.26 18.49-7.92 27.84h-49.66q31.83-82.8 63.39-164.92H430l62.32 164c21.18-55.1 42.07-109.43 63-163.88h50.27l62.51 164.39c-2.51.77-45.1 1.04-51.18.36zm-57-59.76h40c-5.82-19.18-11.55-38.06-17.3-57h-4zm-175.56 0h40q-8.75-28.84-17.28-56.93H403z"></path>
<path d="M134.1 487.27v37.51H0V360.89h133.73c.66 2.56.8 29.37.14 33.61H46.44v27h79.67v34.67l-13.08.08H46.46v30.92c4.06.26 8.2.09 12.32.12s8.37 0 12.55 0h62.77z"></path>
<path d="m670.26 479.36 48.62-6.31c.18 1 .36 1.82.49 2.66 1.49 10.33 7.38 16.65 17.45 19.1 7.82 1.91 15.71 2.23 23.47-.1a26.83 26.83 0 0 0 7.91-3.92c4.64-3.38 6.38-8.29 5.83-13.94-.36-3.61-2.37-6.32-5.23-8.44a36 36 0 0 0-11.65-5.3c-11.61-3.38-23.29-6.51-34.85-10-7-2.15-14-4.6-20.79-7.41A45.8 45.8 0 0 1 685 433.84a33 33 0 0 1-8.64-21.27c-1-21.38 8.38-37 26.9-47.36 9.36-5.23 19.6-7.75 30.17-8.95a107.2 107.2 0 0 1 42.17 3.11c9.09 2.61 17.47 6.63 24.64 12.93a44.47 44.47 0 0 1 14.5 24.56 21.77 21.77 0 0 1 .24 2.47l-44.48 5.78c-.34-.47-.64-.7-.69-1-1.21-6.47-5.44-10.36-11.12-13a26.76 26.76 0 0 0-11.53-2.48A71.53 71.53 0 0 0 734.1 390a17.07 17.07 0 0 0-6.7 3.35 10.77 10.77 0 0 0-.7 16.95 25.4 25.4 0 0 0 8.41 5c6.85 2.34 13.84 4.33 20.89 6 12.62 3 25.27 5.89 37.36 10.72a55.67 55.67 0 0 1 18.15 11.19 38.3 38.3 0 0 1 12.18 26.28c1.28 20.8-7.3 36.4-25 47.14-9.36 5.69-19.67 8.67-30.39 10.42a137.48 137.48 0 0 1-36.18 1.27 89.61 89.61 0 0 1-36.56-11.46c-13.16-7.68-21.61-19.13-24.84-34.19-.17-.89-.25-1.86-.46-3.31z"></path>
<path d="m269.22 463.84 46.09 13.73c-.5 1.66-.85 3-1.32 4.33-6.43 18.06-18.81 30.72-35.74 39.2a78.36 78.36 0 0 1-32.1 7.95c-13.42.57-26.68-.61-39.28-5.49-27.22-10.54-44-30.25-50.24-58.74-4.13-18.88-3.3-37.65 3.22-55.93 8.58-24 25.11-40.28 49.27-48.35 21.4-7.15 43-7.38 64.46.09 21.19 7.4 34.51 22.35 40.87 44.2C307 407.26 299.46 409 292 411s-15 4-22.72 6.11c-.48-1.45-.85-2.58-1.23-3.71-4.14-12.18-14.59-19.69-27.48-19.88-15.11-.23-25.57 6.69-31.69 20.37a64.49 64.49 0 0 0-5.14 21.39c-.85 10.61-.52 21.16 3.07 31.29a55.55 55.55 0 0 0 5.83 11.76c9.17 14 28.26 15.78 39.45 10.46a25.69 25.69 0 0 0 10.14-8.72 45.32 45.32 0 0 0 5.83-12.51c.36-1.1.7-2.24 1.16-3.72z"></path>
<path d="M415.69 152.45 593.86 0a3 3 0 0 1 .34.42.38.38 0 0 1 0 .28L422.87 237.79c-.31.43-.71.8-1.38 1.56l-48.81-128.44.54-.43z"></path>
<path d="M594.4 76.81Q525.66 203.7 456.67 331.06c-.55-1.07-1-1.74-1.26-2.47-8.09-21.27-16.13-42.57-24.31-63.8-.86-2.21-.14-3.42 1.18-4.92q24.92-28.21 49.72-56.48L591.75 78.75c.71-.81 1.45-1.61 2.18-2.41z"></path>
<path d="M492 424.9c-.44-1.12-.89-2.22-1.31-3.34q-12.08-31.76-24.19-63.48a5.61 5.61 0 0 1 .62-5.74q62.09-94.23 124.06-188.54a7 7 0 0 1 2.37-2.44L492.66 425z"></path>
</g>
</svg>