<svg fill="none" height="39" width="112" xmlns="http://www.w3.org/2000/svg"><g clip-path="url(#clip0_4696_4486)" fill="#000000"><path clip-rule="evenodd" d="M112 15.761C96.993 5.941 77.417 0 56.002 0 34.586 0 15.007 5.94 0 15.761c14.926-4.864 32.376-7.88 56.002-7.88 23.626 0 41.075 3.016 55.998 7.88z" fill-rule="evenodd"></path><path d="M47.414 20.866c-1.102 0-1.667.873-1.811 1.943-.162 1.183-.797 5.28-.937 6.32-.084.625-.13 1.275-.748 1.543-.617.269-1.368-.144-2.007-.687L31.789 21.55a2.887 2.887 0 00-1.88-.688c-1.433 0-2.808.87-2.808 3v13.191a1.56 1.56 0 00.44 1.188 1.622 1.622 0 001.185.498c.442.011.871-.145 1.198-.437.327-.291.527-.696.556-1.128 0 0 1.053-6.285 1.169-6.986.147-.816.277-1.455 1.08-1.7.727-.22 1.405.193 2.437 1.07 1.031.877 9.546 8.42 9.546 8.42.27.26.593.46.947.591.354.13.731.189 1.11.17.838 0 2.361-.344 2.361-2.848V22.75c.003-1.218-.78-1.885-1.716-1.885zm61.069 14.058c-7.437 1.569-15.951-.106-15.951-5.266 0-3.897 3.689-5.483 6.594-5.713 3.05-.238 5.433.388 6.669 1.637.765.78.551 1.844-.955 1.93-1.383.082-3.983.161-6.145.24-1.229.045-1.885.688-1.885 1.559 0 .688.527 1.472 1.94 1.479 2.026 0 7.167.04 9.719.048 1.688 0 2.516-.922 2.516-2.824 0-3.01-2.783-7.568-10.929-7.568-7.37 0-12.718 3.605-12.718 9.494 0 8.352 12.54 10.9 21.727 7.798.871-.292 1.66-.908 1.404-1.86-.224-.857-.93-1.177-1.986-.954zm-86.303 0c-7.44 1.569-15.95-.106-15.95-5.266 0-3.897 3.684-5.483 6.594-5.713 3.046-.238 5.429.388 6.668 1.637.765.78.55 1.844-.951 1.93-1.387.082-3.987.161-6.149.24-1.228.045-1.885.688-1.885 1.559 0 .688.527 1.472 1.941 1.479 2.025 0 7.17.04 9.722.048 1.684 0 2.516-.922 2.516-2.824 0-3.01-2.787-7.568-10.932-7.568-7.37 0-12.719 3.605-12.719 9.494 0 8.352 12.54 10.9 21.731 7.798.87-.292 1.66-.908 1.404-1.86-.228-.857-.934-1.177-1.99-.954zm57.617-8.032c.165 4.554.603 8.33.726 9.655.158 1.72 1.053 2.195 1.962 2.195.91 0 1.79-.444 1.948-2.181.147-1.459.576-5.947.79-10.42a.26.26 0 00-.089-.247.272.272 0 00-.262-.051l-4.844.767a.292.292 0 00-.167.1.282.282 0 00-.064.182zm2.702-6.456a2.728 2.728 0 00-1.108.161c-.353.13-.674.331-.943.591a2.63 2.63 0 00-.614.917 2.577 2.577 0 00-.178 1.083c0 .196.024.732.056 1.403a.287.287 0 00.113.214.299.299 0 00.238.058l5.054-.805a.293.293 0 00.172-.093.283.283 0 00.073-.179c0-.234 0-.471.021-.585a2.616 2.616 0 00-.189-1.09 2.659 2.659 0 00-.625-.921 2.726 2.726 0 00-.954-.593 2.768 2.768 0 00-1.116-.161zm-7.427 7.261c-1.684 0-6.885.042-10.212.049-1.615 0-2.018.853-2.018 1.558 0 .612.435 1.403 1.94 1.479 2.292.117 5.212.25 6.56.32 1.814.09 1.839 1.004 1.225 1.788-1.232 1.569-4.23 2.597-7.335 2.597-4.064 0-8.536-2.263-8.536-5.847 0-3.371 3.83-7.083 15.197-5.504 1 .138 1.983-.038 2.228-.946.264-.963-.379-1.582-1.67-1.916a27.953 27.953 0 00-7.174-.839c-7.654 0-13.789 3.58-13.789 9.366 0 6.192 6.114 9.198 13.737 9.198 8.51 0 12.655-4.54 12.655-8.51.007-2.019-1.042-2.793-2.808-2.793z"></path></g><defs><clippath id="clip0_4696_4486"><path d="M0 0h112v39H0z" fill="#000000"></path></clippath></defs></svg>