<svg alt="Logo FFT Produktionssysteme" class="ce-image__image header__logo" height="79" viewBox="0 0 203.574 79.769" width="203" xmlns="http://www.w3.org/2000/svg"> <g transform="translate(0 0)"> <path d="M20.63,0,0,79.77H57.228L77.858,0Z" fill="#009d80" transform="translate(0 0)"></path> <path d="M54.163,0,33.533,79.77H90.759L111.389,0Z" fill="#009d80" transform="translate(29.326 0)"></path> <path d="M87.7,0,67.065,79.77h57.228L144.923,0Z" fill="#009d80" transform="translate(58.651 0)"></path> <path d="M59.885,22.658l4.8-18.539H21.429L4.794,68.445H28.5l5.558-21.49H50.82l4.122-15.937H38.18l2.163-8.36Z" fill="#fff" transform="translate(4.192 3.602)"></path> <path d="M127.186,4.119H83.937l-4.8,18.539h9.772L77.072,68.446h23.707l11.842-45.788h9.77Z" fill="#fff" transform="translate(67.403 3.602)"></path> <path d="M93.418,22.658l4.8-18.539H54.961L38.327,68.445H62.034l5.558-21.49h16.76l4.122-15.937H71.712l2.163-8.36Z" fill="#fff" transform="translate(33.518 3.602)"></path> </g> </svg>