<svg aria-hidden="false" aria-label="Fluidmaster" class="brand-logo" role="img" viewBox="0 0 570.893 74.538" xmlns="http://www.w3.org/2000/svg"><path d="M238.328 20.245a7.149 7.149 0 10-7.142 7.145 7.149 7.149 0 007.142-7.145m326.2 35.855v-1.123h1.271c.594 0 1.093 0 1.093.509 0 .615-.5.615-1.093.615zm2.167 1.062a1.359 1.359 0 001.26-1.523c0-1.32-.713-1.718-1.891-1.718h-2.7v5.629h1.167v-2.388h.907l1.229 2.388h1.365zm3.253-.419a4.378 4.378 0 11-4.386-4.428 4.217 4.217 0 014.386 4.428m-9.683 0a5.3 5.3 0 101.528-3.788 5.314 5.314 0 00-1.528 3.788m-14.362-25.258h-12.775V61.78h12.776V48.149c0-4.7.9-9.985 9.758-9.985a12.552 12.552 0 015.293 1.075l1.554-8.009a21.129 21.129 0 00-5.285-.747c-4.75 0-8.576 1.5-11.144 4.141h-.175zm-48.65 11.164c.651-3.154 3.475-6.111 8.58-6.111 4.945 0 7.858 3.012 8.507 6.111zm29.146 5.38V46.98c0-9.131-6.574-16.5-21.286-16.5-14.5 0-21.72 7.237-21.72 16.432s8.469 15.864 22.354 15.864c9.427 0 17.263-3.4 20.379-9.44l-11.781-1.313a9.861 9.861 0 01-8.6 4.156c-6.659 0-8.848-4.345-8.848-8.148zm-53.834-9.261h7.845v-7.282h-7.845V21.232h-12.772v10.256h-4.4v7.283h4.4v23.008h12.772zm-22.927-5.129c-3.658-2.154-9.687-3.157-14.422-3.157-8.416 0-14.256 4.141-14.256 9.828 0 4.867 4.484 6.67 8.952 7.944 4.477 1.32 8.944 1.933 8.944 4.581 0 1.967-2.282 3.281-5.1 3.281a16.058 16.058 0 01-9.5-3.53l-5.841 5.133c3.922 3.2 9.758 5.06 15.795 5.06 9.4 0 17.438-4.007 17.438-10.743 0-5.244-4.569-7.353-9.216-8.7-4.569-1.374-9.231-1.982-9.231-4.2 0-1.471 2.093-2.572 4.219-2.572a12.886 12.886 0 016.755 2.067zM400.966 46.61c0 4.081-4.126 8.522-10.683 8.522-6.574 0-10.592-4.443-10.592-8.522s4.021-8.465 10.592-8.465c6.555 0 10.683 4.4 10.683 8.465m11.327-15.124H399.68v2.841c-3.1-2.478-7.85-3.843-12.5-3.843-12.866 0-20.462 7.963-20.462 16 0 8.222 7.473 16.3 20.643 16.3 4.658 0 9.414-1.348 12.15-3.758h.17v2.759h12.614zm-102.448 0h-12.782v30.291h12.782v-14.86c0-3.223-.36-9.516 6.763-9.516 6.649 0 6.1 6.048 6.1 9.021v15.355h12.787v-14.86c0-3.154-.081-9.516 6.858-9.516 6.3 0 6.016 5.49 6.016 8.454v15.921h12.776V42.892c0-6.6-2.81-12.408-14.226-12.408-5.2 0-10.33 1.788-13.048 4.754-2.957-3.215-7.32-4.754-12.9-4.754-4.111 0-8.484 1.3-10.945 3.7h-.181zM277.931 46.61c0 4.081-4.011 8.522-10.592 8.522s-10.579-4.443-10.579-8.522 4-8.465 10.579-8.465 10.592 4.4 10.592 8.465m-1.286 15.171h12.788V13.2h-12.788v21.048h-.179c-2.832-2.4-7.577-3.765-12.227-3.765-12.887 0-20.46 7.963-20.46 16 0 8.222 7.486 16.3 20.624 16.3 4.665 0 9.408-1.348 12.062-3.828h.179zm-51.829 0h12.889v-30.3h-12.886zm-48.2-30.295v17.831c0 8.84 6.736 13.465 20.078 13.465s20.1-4.624 20.1-13.465V31.486h-12.789v16.4c0 3.468-.826 7.609-7.313 7.609s-7.3-4.141-7.3-7.609V31.485zm-20.092 30.283h12.9V13.187h-12.9zm-27.5-40.587v10.265h19.448v7.9h-19.448v22.427h-13.435V13.283h34.172v7.9zM99.606 36.445l-8.516-7.336v6.535h-4.374c.023.413.027.841.027 1.25v.739h4.354v6.789z" fill="#00853f"></path><path d="M73.87 39.839c-7.334 0-11.013 1.162-17.375 11.571-6.111 10-18.614 5.425-18.614-1.06 0-5.733 5.446-8.993 9.715-8.993v-1.518c-9.989 0-14.637 5.169-14.637 12.363 0 15.773 19.291 17.7 25.525 4.383 5.664-12.014 9.315-14.562 15.384-15.227zm12.866-2.2a36.9 36.9 0 11-73.79 0zM73.87 32.176c-6.07-.658-9.721-3.268-15.384-15.286C52.252 3.571 32.961 5.5 32.961 21.273c0 7.187 4.648 12.38 14.637 12.38v-1.6c-4.269 0-9.715-3.172-9.715-8.887 0-6.524 12.5-11.094 18.614-1.086 6.361 10.383 10.042 11.577 17.375 11.577zM49.844 0a36.9 36.9 0 0136.881 35.652l-73.759-.013A36.925 36.925 0 0149.844-.005m-36.87 35.644c-.021.409-.028.841-.028 1.25 0 .262 0 .5.008.747H8.511v6.785l-8.51-7.979 8.51-7.337v6.534h4.463" fill="#e31b23"></path></svg>