<svg xmlns="http://www.w3.org/2000/svg" width="147" height="50" viewBox="0 0 147 50" fill="none"><path d="M108.597 36.6996H111.575V38.0161C112.445 37.4905 113.392 37.1064 114.382 36.8781C115.457 36.6359 116.556 36.5193 117.658 36.5307C120.294 36.5307 122.074 36.9886 122.998 37.9046C123.511 38.4103 123.766 39.1329 123.764 40.0722V46.0267H120.624V40.1487C120.635 39.8968 120.596 39.6451 120.51 39.4083C120.424 39.1714 120.292 38.9539 120.122 38.7684C119.562 38.184 118.553 37.8929 117.093 37.895C116.482 37.8871 115.871 37.9222 115.265 38.0002C114.469 38.1059 113.702 38.3668 113.006 38.7684C112.582 38.9823 112.229 39.3144 111.988 39.7247C111.809 40.1738 111.728 40.6568 111.753 41.1401V46.0299H108.597V36.6996ZM84.1407 43.5722C84.1407 42.9889 84.6238 42.5681 85.5964 42.2972C86.4317 42.1018 87.2825 41.9802 88.139 41.9338L90.0109 41.8063C90.5862 41.768 91.1678 41.7043 91.7653 41.6182C92.2608 41.5537 92.7499 41.447 93.2273 41.2994V42.5554C93.2273 43.5223 92.3628 44.2098 90.6339 44.6178C89.5921 44.8621 88.5255 44.984 87.4556 44.9812C86.6691 45.0045 85.885 44.8836 85.1419 44.6242C84.485 44.3713 84.1566 44.0249 84.1566 43.585M86.7342 40.7161C85.2889 40.7584 83.8619 41.0517 82.5166 41.5831C81.4445 42.057 80.9085 42.7296 80.9085 43.6009C80.9085 44.3883 81.4519 45.0449 82.5421 45.5645C83.6322 46.0841 85.0338 46.3455 86.7501 46.3455C88.0711 46.3587 89.3885 46.2067 90.672 45.8929C91.6329 45.68 92.5543 45.3164 93.4021 44.8154C93.4877 45.1512 93.6768 45.4513 93.9424 45.6729C94.4287 46.0491 95.2137 46.2371 96.2848 46.2371C96.7266 46.2371 97.073 46.2371 97.3304 46.2116C97.5879 46.1861 97.9661 46.1511 98.4396 46.0777V44.9397C98.2458 44.9621 98.0583 44.9748 97.8866 44.9812H97.4194C97.1339 45.0132 96.845 44.9669 96.5835 44.8473C96.5202 44.8031 96.4688 44.7439 96.4339 44.6749C96.3989 44.606 96.3816 44.5294 96.3833 44.452V39.1095C96.3833 38.2276 95.7095 37.572 94.362 37.1427C93.0144 36.7134 91.2462 36.5009 89.0575 36.5052C87.3824 36.4758 85.7127 36.7026 84.1058 37.1778C82.6819 37.6304 81.9403 38.4359 81.881 39.594H84.8018C84.8971 39.1517 85.1634 38.7654 85.5423 38.5198C86.2182 38.0799 87.3677 37.8599 88.9907 37.8599C90.0797 37.8217 91.1684 37.9419 92.223 38.217C92.9731 38.4528 93.3513 38.8545 93.3513 39.3709C93.3592 39.4829 93.3429 39.5954 93.3034 39.7005C93.2639 39.8056 93.2021 39.9008 93.1224 39.9797C92.8809 40.2348 92.401 40.3878 91.6891 40.4324L86.731 40.7512L86.7342 40.7161ZM54.9518 36.6869H57.9298V38.0034C58.7949 37.4815 59.7366 37.0996 60.7203 36.8718C61.7955 36.6295 62.8951 36.5129 63.997 36.5243C66.635 36.5243 68.4159 36.9823 69.3397 37.8982C69.6063 38.189 69.8113 38.5311 69.9424 38.9036C70.0735 39.2762 70.128 39.6716 70.1024 40.0658V46.0204H66.9655V40.1487C66.9762 39.8966 66.9371 39.6448 66.8504 39.4079C66.7636 39.171 66.631 38.9537 66.4602 38.7684C65.9051 38.184 64.8965 37.8929 63.4345 37.895C62.8236 37.8868 62.2129 37.922 61.607 38.0002C60.8099 38.1054 60.0411 38.3664 59.3441 38.7684C58.9217 38.9842 58.569 39.3158 58.3271 39.7247C58.1473 40.1738 58.067 40.6568 58.0919 41.1401V46.0299H54.9518V36.6869ZM30.4761 40.5535C30.5334 39.7853 31.0419 39.1478 31.9985 38.6409C33.1058 38.105 34.3262 37.8468 35.555 37.8886C37.5255 37.8886 38.9324 38.251 39.7757 38.9756C40.2412 39.3804 40.5496 39.9369 40.6465 40.5471L30.4761 40.5535ZM35.7743 36.5371C33.1808 36.5371 31.0821 37.0035 29.4782 37.9365C27.8742 38.8694 27.0712 40.0807 27.0691 41.5704C27.0691 43.0856 27.8658 44.2629 29.4591 45.1023C31.0525 45.9417 32.9944 46.3604 35.2848 46.3583C36.1269 46.3641 36.9686 46.3184 37.8052 46.2212C39.009 46.1079 40.1848 45.7899 41.2822 45.2808C41.8388 45.0151 42.3538 44.6693 42.8109 44.2544C43.187 43.9581 43.4686 43.5582 43.6213 43.1037H40.5353C40.2713 43.5661 39.8853 43.9467 39.4197 44.2034C38.4599 44.7368 37.1738 45.0035 35.5613 45.0035C33.8345 45.0035 32.5632 44.7177 31.7474 44.146C31.3607 43.8986 31.039 43.5614 30.8095 43.1631C30.5799 42.7648 30.4492 42.3169 30.4285 41.8573H43.901C43.9416 41.1469 43.8477 40.4352 43.6245 39.7598C43.3892 39.1117 42.9567 38.5541 42.3882 38.166C41.5398 37.5903 40.5859 37.1894 39.5818 36.9865C38.3331 36.6838 37.0526 36.5329 35.7679 36.5371M13.3645 41.2707C13.3729 42.0117 13.1029 42.7287 12.6081 43.279C11.7033 44.282 10.1375 44.7846 7.91064 44.7867C6.48679 44.7867 5.35322 44.5158 4.50993 43.9739C4.10425 43.7258 3.77232 43.3731 3.54873 42.9527C3.32513 42.5322 3.21805 42.0592 3.23863 41.5831C3.20065 40.8153 3.42487 40.0574 3.87428 39.4347C4.67943 38.4082 6.17109 37.895 8.34924 37.895C9.59999 37.8457 10.8411 38.133 11.9438 38.727C12.3935 38.977 12.7641 39.3485 13.0136 39.7993C13.2631 40.2502 13.3813 40.7622 13.355 41.2771M7.79305 36.5371C5.64244 36.5371 3.80542 36.9759 2.28198 37.8536C0.758544 38.7312 -0.00211441 39.9511 4.41422e-06 41.513C4.41422e-06 43.1621 0.756425 44.3458 2.26927 45.0641C3.92972 45.815 5.73687 46.1832 7.55786 46.1415C8.73397 46.1723 9.9091 46.0501 11.0539 45.7781C11.875 45.5658 12.644 45.1872 13.3137 44.6656C13.3497 45.9534 13.1473 46.8502 12.7066 47.356C11.9693 48.206 10.4056 48.6311 8.01553 48.6311C6.50268 48.6311 5.39348 48.4621 4.69109 48.1338C4.48618 48.0521 4.29979 47.9299 4.14306 47.7743C3.98633 47.6188 3.86249 47.4331 3.77893 47.2285H0.600692C0.76596 48.1848 1.52238 48.8701 2.88267 49.3228C4.51336 49.809 6.20992 50.0359 7.91064 49.9954C11.4893 49.9954 13.926 49.3579 15.2206 48.0828C15.9092 47.3964 16.2535 46.4624 16.2535 45.2808V36.808H13.4185V37.9301C12.8493 37.5774 12.2441 37.2868 11.6133 37.063C10.3767 36.6914 9.09014 36.514 7.79941 36.5371" fill="#000000"></path><path d="M59.786 12.9515C59.786 9.97742 57.9839 7.23922 54.9614 5.05248V20.8505C57.9839 18.6638 59.786 15.9256 59.786 12.9515Z" fill="#000000"></path><path d="M53.3054 21.9216V3.98145C51.5213 2.96348 49.6262 2.15486 47.6577 1.57158V24.3315C49.6262 23.7482 51.5213 22.9396 53.3054 21.9216Z" fill="#000000"></path><path d="M45.5314 24.8988V0.991345C43.9813 0.63474 42.4103 0.377085 40.8276 0.219931V25.6766C42.4105 25.5163 43.9815 25.2555 45.5314 24.8956" fill="#000000"></path><path d="M36.569 25.903C36.9663 25.903 37.3636 25.903 37.7577 25.903V0.0191252C37.3636 0.0191252 36.9663 0 36.569 0C35.6982 0 34.84 0.0276259 33.9946 0.0828788V25.8201C34.8422 25.8732 35.7003 25.9008 36.569 25.903Z" fill="#000000"></path><path d="M30.419 25.3706V0.538696C29.4507 0.69808 28.5099 0.891465 27.5967 1.11885V24.7968C28.5099 25.0221 29.4507 25.2155 30.419 25.377" fill="#000000"></path><path d="M23.2966 23.1265V2.77006C22.6418 3.05695 22.0253 3.36297 21.415 3.68811V22.2148C22.0125 22.5336 22.6418 22.8524 23.2966 23.1361" fill="#000000"></path><path d="M103.179 12.9515C103.179 9.97742 101.373 7.23922 98.354 5.05248V20.8505C101.373 18.6638 103.179 15.9256 103.179 12.9515Z" fill="#000000"></path><path d="M96.2657 21.9216V3.98145C94.4829 2.96291 92.5888 2.15426 90.6211 1.57158V24.3315C92.5888 23.7488 94.4829 22.9402 96.2657 21.9216Z" fill="#000000"></path><path d="M88.4887 24.8988V0.991345C86.9397 0.634738 85.3697 0.377083 83.7881 0.219931V25.6766C85.3699 25.5163 86.9399 25.2555 88.4887 24.8956" fill="#000000"></path><path d="M79.5292 25.903C79.9265 25.903 80.3238 25.903 80.7179 25.903V0.0191252C80.3238 0.0191252 79.9265 0 79.5292 0C78.6584 0 77.8013 0.0276259 76.958 0.0828788V25.8201C77.8055 25.8732 78.6626 25.9008 79.5292 25.903Z" fill="#000000"></path><path d="M73.3823 25.3706V0.538696C72.4119 0.69808 71.4712 0.891465 70.5601 1.11885V24.7968C71.4733 25.0221 72.414 25.2155 73.3823 25.377" fill="#000000"></path><path d="M66.2565 23.1265V2.77006C65.5976 3.05695 64.9704 3.36297 64.375 3.68811V22.2148C64.9725 22.54 65.5997 22.847 66.2565 23.1361" fill="#000000"></path><path d="M147 12.9515C147 9.97739 145.198 7.23919 142.179 5.05245V20.8505C145.198 18.6638 147 15.9256 147 12.9515ZM140.52 21.9216V3.9814C138.737 2.96285 136.843 2.1542 134.875 1.57152V24.3315C136.843 23.7488 138.737 22.9401 140.52 21.9216ZM132.749 24.8989V0.991363C131.2 0.63515 129.63 0.377498 128.048 0.219948V25.6766C129.631 25.5161 131.202 25.2552 132.752 24.8957M123.786 25.8998C124.19 25.8998 124.584 25.8998 124.978 25.8998V0.0191252C124.584 0.0191252 124.19 0 123.786 0C122.92 0 122.063 0.0276259 121.215 0.0828788V25.8201C122.063 25.8732 122.92 25.9008 123.786 25.903M117.64 25.3706V0.538715C116.669 0.698098 115.729 0.891483 114.817 1.11887V24.7969C115.731 25.0221 116.671 25.2155 117.64 25.377M110.517 23.1456V2.77008C109.863 3.05697 109.246 3.36299 108.636 3.68813V22.2148C109.233 22.5336 109.863 22.8524 110.517 23.1361" fill="#000000"></path></svg>