<svg version="1.1" id="Livello_1" xmlns="http://www.w3.org/2000/svg" xmlns:xlink="http://www.w3.org/1999/xlink" x="0px" y="0px"
    width="493.334px" height="99.048px" viewBox="0 0 493.334 99.048" enable-background="new 0 0 493.334 99.048" xml:space="preserve">
    <g>
        <path fill="#E30613" d="M158.342,21.566v15.818c-7.697-1.299-18.416-3.551-24.113,3.331c-1.999,2.736-2.112,7.018-1.088,10.236
                    c1.202,3.856,5.295,5.991,8.994,6.436l0.154-14.965h16.053v29.465c-12.521,2.344-27.175,2.212-35.975-7.988
                    c-6.517-6.879-7.774-17.966-4.655-26.826c3.663-10.292,14.461-16.533,24.967-16.901C148.145,20.055,153.359,20.52,158.342,21.566
                    L158.342,21.566z"/>
        <polygon fill="#E30613" points="179.896,71.734 163.537,71.734 163.534,21.21 179.889,21.21 179.896,71.734"/>
        <path fill="#E30613" d="M363.167,23.198c6.957-4.689,18.433-4.03,25.043,0.932c5.755,4.71,7.5,11.36,7.985,18.376v29.229h-16.361
                    l-0.23-31.789c-0.329-1.396-0.719-2.987-2.172-3.718c-1.201-0.527-2.888-0.369-4.032,0.149c-1.589,1.086-1.705,2.927-1.937,4.653
                    l-0.156,30.704h-16.36l-0.233-31.945c-0.249-1.433-0.868-3.063-2.324-3.644c-1.28-0.309-3.08-0.5-4.109,0.468
                    c-1.49,1.337-1.608,3.372-1.707,5.35l-0.074,29.771h-16.13l0.003-32.022c0.582-7.772,5.367-16.262,13.334-18.529
                    C349.869,19.36,357.895,19.591,363.167,23.198L363.167,23.198z"/>
        <polygon fill="#E30613" points="418.06,71.734 401.701,71.734 401.701,21.21 418.06,21.21 418.06,71.734"/>
        <path fill="#E30613" d="M463.494,30.564c1.704,3.353,2.637,7.036,2.867,11.012v30.159h-16.279l-0.117-31.016
                    c-0.369-1.452-0.737-2.965-2.057-4.029c-1.275-0.875-3.198-0.95-4.729-0.543c-2.655,1.067-3.078,3.955-3.291,6.436l0.035,29.153
                    h-16.28V39.556c0.931-6.745,4.186-13.587,10.697-17.055c6.688-3.468,16.905-3.354,23.104,1.084
                    C460.042,25.332,462.058,28.007,463.494,30.564L463.494,30.564z"/>
        <polygon fill="#E30613" points="488.303,71.734 471.942,71.734 471.942,21.21 488.303,21.21 488.303,71.734"/>
        <path fill-rule="evenodd" clip-rule="evenodd" fill="#E30613" d="M322.763,31.65c5.058,6.803,6.243,17.792,2.482,25.585
                    c-3.819,8.761-12.93,14.962-22.178,15.739c-9.882,0.678-18.548-2.929-24.654-10.777c-5.369-6.708-6.647-17.405-3.255-25.429
                    c3.565-9.459,13.51-16.072,23.335-16.674C308.36,19.651,316.967,23.586,322.763,31.65L322.763,31.65z M308.885,40.255
                    c1.938,2.52,2.481,6.104,1.627,9.303c-0.834,3.275-4.069,6.453-7.364,7.215c-3.604,0.753-7.367-0.021-10.004-2.562
                    c-2.751-2.577-3.7-6.067-3.1-9.847c0.563-3.236,3.161-6.298,6.204-7.596C300.742,34.942,305.938,36.358,308.885,40.255
                    L308.885,40.255z"/>
        <path fill-rule="evenodd" clip-rule="evenodd" fill="#E30613" d="M210.363,37.075c1.918,2.501,1.492,5.951,1.554,9.226h-10.08
                    c0.326-3.643-0.835-8.471,3.103-10.074C206.739,35.814,208.949,35.836,210.363,37.075L210.363,37.075z M225.252,30.253
                    c1.588,3.234,2.597,6.705,2.944,10.465c0.29,10.236,0.097,20.685,0.156,31.016h-16.361V60.723h-10.233v11.012h-16.307l0.258-31.945
                    c0.601-7.812,5.408-16.32,13.412-18.606C208.852,18.509,220.423,20.483,225.252,30.253L225.252,30.253z"/>
        <path fill="#E30613" d="M248.287,46.482c0.01,2.223,0.486,3.641,1.691,5.658c5.225,6.029,12.361,4.768,21.479,3.786v16.66
                    c-5.642,0.758-7.502,0.758-13.138,0.862c-10.562-0.323-21.688-6.73-25.421-17.207c-1.07-3.045-1.59-6.349-1.614-9.657
                    c0.024-3.307,0.544-6.606,1.614-9.647c3.732-10.479,14.486-16.571,25.055-16.891c5.64,0,8.165,0.235,13.04,0.946l-0.003,16.37
                    c-7.044-1.411-14.954-2.9-21.012,3.64C248.773,43.261,248.297,44.262,248.287,46.482L248.287,46.482z"/>
    </g>
    <g>
        <path fill="#E30613" d="M278.257,96.587h-4.143l-1.753-4.754c-0.042-0.128-0.085-0.19-0.211-0.19c-0.148,0-0.19,0.063-0.233,0.19
                    l-1.648,4.754h-4.161c-1.902-4.648-2.536-9.952-2.494-15.531h4.141c-0.02,1.775,0.212,4.648,0.276,5.98
                    c0.063,1.311,0.252,3.824,0.464,4.86l0.085,0.02c0.147-0.717,0.634-2.577,0.781-3.147l0.782-3.021h4.143l0.781,3.021
                    c0.148,0.57,0.634,2.431,0.782,3.147l0.085-0.02c0.211-1.036,0.4-3.55,0.463-4.86c0.065-1.332,0.297-4.205,0.276-5.98h4.078
                    C280.793,86.635,280.159,91.938,278.257,96.587z"/>
        <path fill="#E30613" d="M295.092,96.523c-0.148-0.507-0.359-1.415-0.593-2.365h-4.606c-0.233,0.95-0.466,1.858-0.613,2.365h-4.248
                    c0,0,0.571-2.134,2.346-8.009c1.797-5.96,2.389-7.459,2.389-7.459h4.839c0,0,0.591,1.521,2.388,7.479
                    c1.775,5.875,2.346,7.988,2.346,7.988H295.092z M292.428,86.255c-0.085-0.233-0.126-0.233-0.232-0.233
                    c-0.105,0-0.147,0-0.232,0.233c-0.212,0.634-0.993,3.422-1.226,4.374h2.917C293.421,89.677,292.639,86.889,292.428,86.255z"/>
        <path fill="#E30613" d="M310.482,84.543c0,1.394,0.044,2.388,0.044,4.839c0,2.154-0.022,4.312,0.021,7.142h-3.889
                    c0.042-4.479-0.021-4.542-0.021-8.114c0-2.028,0-2.873,0-3.866c-1.817,0.021-3.952,0.063-3.952,0.063v-3.509
                    c0,0,2.451-0.063,5.051-0.063c2.578,0,6.74,0.063,6.74,0.063v3.487C314.477,84.584,312.321,84.543,310.482,84.543z"/>
        <path fill="#E30613" d="M325.094,96.587c-2.557,0-4.754-0.063-4.754-0.063c0.063-4.459-0.021-4.501-0.021-8.071
                    c0-2.22,0.043-4.439,0-7.313c0,0,2.197-0.063,4.774-0.063c2.557,0,5.706,0.063,5.706,0.063v3.486c0,0-3.612-0.042-4.733-0.042
                    c-0.402,0-1.247,0-1.902,0c0,0.381,0.021,0.952,0.021,1.628c0,0.169,0.063,0.359,0.38,0.359h5.854v3.698l-5.832,0.021
                    c-0.316,0-0.359,0.168-0.359,0.339c0,1.161-0.043,1.817-0.043,2.451c0.677,0,1.479,0,1.901,0c1.121,0,4.735-0.043,4.735-0.043
                    v3.486C330.822,96.523,327.673,96.587,325.094,96.587z"/>
        <path fill="#E30613" d="M344.652,96.523l-2.79-5.07c-0.169-0.318-0.169-0.297-0.382-0.297c-0.021,1.564,0.022,2.007,0.064,5.367
                    h-3.889c0.063-4.479-0.021-4.542-0.021-8.114c0-2.22,0.043-4.459,0-7.354h6.192c3.296,0,4.585,2.705,4.585,5.028
                    c0,1.712-0.485,3.275-2.451,4.333c-0.296,0.169-0.316,0.295-0.148,0.549l3.382,5.558H344.652z M343.32,84.543h-1.817
                    c0.021,0.907,0.021,2.303,0.042,3.211c0.506,0.021,1.924,0,1.924,0c0.653,0,0.992-0.782,0.992-1.605
                    C344.461,85.365,343.975,84.543,343.32,84.543z"/>
        <path fill="#E30613" d="M369.241,96.587c-2.557,0-4.754-0.063-4.754-0.063c0.063-4.459-0.021-4.501-0.021-8.071
                    c0-2.22,0.043-4.439,0-7.313c0,0,2.197-0.063,4.774-0.063c2.558,0,5.706,0.063,5.706,0.063v3.486c0,0-3.612-0.042-4.733-0.042
                    c-0.401,0-1.246,0-1.902,0c0,0.381,0.022,0.952,0.022,1.628c0,0.169,0.063,0.359,0.38,0.359h5.854v3.698l-5.832,0.021
                    c-0.316,0-0.359,0.168-0.359,0.339c0,1.161-0.042,1.817-0.042,2.451c0.676,0,1.479,0,1.9,0c1.121,0,4.735-0.043,4.735-0.043v3.486
                    C374.97,96.523,371.82,96.587,369.241,96.587z"/>
        <path fill="#E30613" d="M378.66,91.199v-2.811h6.155v2.811H378.66z"/>
        <path fill="#E30613" d="M402.655,88.389c0,3.57-0.085,3.655-0.022,8.135h-3.972c0-1.543-0.022-2.642,0.021-4.12
                    c0.042-1.227,0.148-2.873,0.148-3.825l-0.106,0.021l-1.965,5.008h-2.748l-1.964-5.008l-0.107-0.021
                    c0,0.952,0.086,2.642,0.128,3.868c0.043,1.479,0.063,2.451,0.063,4.077h-3.973c0.063-4.479-0.021-4.564-0.021-8.135
                    c0-2.219,0.041-4.438,0-7.333h4.5l2.536,6.445c0.063,0.147,0.148,0.169,0.232,0.169c0.064,0,0.147-0.043,0.211-0.19l2.536-6.424
                    h4.502C402.612,83.95,402.655,86.17,402.655,88.389z"/>
        <path fill="#E30613" d="M420.438,95.827c-1.099,1.056-2.79,1.415-4.65,1.415c-1.88,0-3.592-0.359-4.711-1.415
                    c-1.669-1.606-2.114-4.312-2.114-6.848s0.423-5.198,2.094-6.805c1.097-1.078,2.831-1.436,4.691-1.436
                    c1.88,0,3.612,0.357,4.731,1.436c1.671,1.606,2.093,4.269,2.093,6.805S422.107,94.221,420.438,95.827z M417.479,84.859
                    c-0.211-0.211-0.781-0.444-1.712-0.444c-0.93,0-1.5,0.233-1.711,0.444c-0.697,0.697-0.993,2.177-0.993,4.12
                    c0,1.924,0.296,3.402,0.993,4.121c0.211,0.211,0.781,0.444,1.711,0.444c0.91,0,1.501-0.233,1.712-0.444
                    c0.697-0.719,0.993-2.197,0.993-4.121C418.473,87.036,418.177,85.557,417.479,84.859z"/>
        <path fill="#E30613" d="M435.643,84.543c0,1.394,0.043,2.388,0.043,4.839c0,2.154-0.021,4.312,0.021,7.142h-3.889
                    c0.043-4.479-0.021-4.542-0.021-8.114c0-2.028,0-2.873,0-3.866c-1.817,0.021-3.951,0.063-3.951,0.063v-3.509
                    c0,0,2.451-0.063,5.05-0.063c2.577,0,6.742,0.063,6.742,0.063v3.487C439.638,84.584,437.48,84.543,435.643,84.543z"/>
        <path fill="#E30613" d="M445.52,96.523c0.043-4.162-0.041-4.248-0.041-8.029c0-2.388,0.021-4.967,0-7.438h3.888
                    c-0.041,4.163,0.042,4.669,0.042,8.475c0,2.303-0.042,4.585,0,6.993H445.52z"/>
        <path fill="#E30613" d="M467.293,95.827c-1.099,1.056-2.789,1.415-4.648,1.415c-1.882,0-3.594-0.359-4.713-1.415
                    c-1.67-1.606-2.112-4.312-2.112-6.848s0.422-5.198,2.092-6.805c1.099-1.078,2.831-1.436,4.69-1.436
                    c1.881,0,3.613,0.357,4.733,1.436c1.67,1.606,2.092,4.269,2.092,6.805S468.962,94.221,467.293,95.827z M464.334,84.859
                    c-0.211-0.211-0.781-0.444-1.712-0.444c-0.93,0-1.5,0.233-1.712,0.444c-0.696,0.697-0.993,2.177-0.993,4.12
                    c0,1.924,0.297,3.402,0.993,4.121c0.212,0.211,0.782,0.444,1.712,0.444c0.91,0,1.501-0.233,1.712-0.444
                    c0.697-0.719,0.993-2.197,0.993-4.121C465.327,87.036,465.031,85.557,464.334,84.859z"/>
        <path fill="#E30613" d="M484.146,96.523l-4.206-7.945c-0.105-0.189-0.339-0.148-0.339,0.085c0,0.591,0.085,1.458,0.085,1.986
                    c0,1.943,0.105,4.437,0.105,5.874h-3.909c0.063-4.479-0.02-4.564-0.02-8.135c0-1.628,0.02-2.431,0.02-3.234
                    c0-0.782-0.02-1.584-0.042-4.099h4.713L484.44,89c0.086,0.191,0.318,0.148,0.318-0.083c0-0.593-0.063-1.458-0.063-1.986
                    c0-1.945-0.107-4.438-0.107-5.875h3.909c-0.063,4.48,0.022,4.563,0,8.136c0,1.626,0,2.431,0,3.232c0,0.782,0,1.586,0.043,4.1
                    H484.146z"/>
    </g>
    <g>
        <g>
            <g>
                <path fill="#E30613" d="M101.653,48.293C100.735,22.066,78.731,1.546,52.506,2.458C26.275,3.37,5.763,25.37,6.681,51.595
                    c0.92,26.229,22.928,46.747,49.155,45.837C82.059,96.52,102.573,74.52,101.653,48.293z"/>
            </g>
        </g>
    <g>
        <g>
            <g>
                <path fill-rule="evenodd" clip-rule="evenodd" fill="#FFFFFF" d="M90.84,39.284c1.011,3.175,2.143,6.398,1.673,10.042
                    c-0.302,0.926-1.501,0.983-2.264,0.589c-1.715-0.988-0.654-2.314-1.379-6.101c-0.823-5.089-1.772-10.042-5.313-13.683
                    c0.616-0.765,1.428,0.12,2.069,0.39C88.157,33.035,89.508,36.111,90.84,39.284L90.84,39.284z M82.864,33.575
                    c3.224,7.015,5.391,14.473,6.104,22.541c0.05,0.883-0.315,1.625-1.18,1.868c-1.228,0.32-2.095-0.466-2.459-1.374
                    c-0.763-9.649-1.895-19.147-6.103-27.365c-0.025-0.394,0.515-0.492,0.788-0.297L82.864,33.575L82.864,33.575z"/>
            </g>
        </g>
        <path fill="#FFFFFF" d="M79.81,22.824c0,0,0.003-0.208-0.276-0.283l0,0c-1.41-0.299-2.646-0.409-4.896-3.761
            c-0.654-1.04-1.064-2.716-1.178-4.616c-0.111-1.9-0.678-4.64-2.285-5.702c-1.608-1.063-6.697,1.154-10.454,7.602
            c-1.337,2.151-2.868,3.227-3.663,3.576c0,0-2.264,1.041-6.702,2.625c-3.283,1.173-6.065,2.431-7.208,4.323
            c-0.402,0.661-0.216,1.398-0.233,2.238c-0.068,3.206,1.54,8.916,1.54,8.916s3.373,9.496-0.659,16.792
            c-2.264,3.574-3.983,6.741-1.677,11.313c1.021,1.983,1.713,2.849,2.865,5.903c1.433,3.784,4.505,6.994,4.058,7.811
            c-0.279,0.157-1.221-0.462-2.065-0.577c-0.842-0.113-2.131-0.383-5.691,1.117c-4.021,1.694-5.115,0.906-5.77,0.456
            c-0.655-0.456-1.243-1.63-2.852-0.906c-0.519,0.225-0.833,0.293-2.804,2.693c-0.521,0.724-2.485,1.017-2.485,1.017
            s-1.696,0.272-1.924,0.859c-0.225,0.588,0.341,0.613,0.861,0.476c0.519-0.135,1.223-0.206,2.165-0.195c0,0,1.752,0.038,4.48-0.642
            c1.52-0.383,3.121-0.362,5.928,0.248c2.808,0.611,12.672,0.862,14.798,0.139c0.431-0.114,2.056-0.429,1.855-2.782
            c-0.067-0.659,0-4.664-1.676-9.756c-1.128-3.435-1.568-4.744-1.733-5.229c-0.025-0.11-0.015-0.279,0.258-0.292
            c0.071-0.003,0.133-0.008,0.189-0.016c1.833-0.112,7.836-0.652,10.519-2.995c0.613-0.405,1.425-0.858,1.563-0.724
            c0.135,0.138,0.748,0.498,0.386,1.404c-0.365,0.905-1.855,4.866-1.582,7.422c0.199,2.616,0.399,4.248,0.743,5.848l0,0
            c0.059,0.262,0.12,0.526,0.184,0.791c0.119,0.616,0.219,1.437,0.021,1.849c-0.006,0.015-0.014,0.028-0.025,0.043
            c-0.429,0.859-1.153,1.991-0.923,3.373c0.225,1.38,2.103,1.086,2.531,1.039c0.43-0.043,2.806-0.179,4.302,0.388
            c1.489,0.565,4.549,0.927,5.135,0.043c0.315-0.405-0.09-0.997-0.769-0.903c-1.377,0.098-2.838-1.093-3.449-1.386
            c-0.61-0.293-1.604-0.978-3.044-1.805c-0.588-0.534-0.725-1.971,0.136-7.831c0.157-1.108,1.808-7.692,1.808-7.692
            s0.431-1.9,0.839-3.191c0.383-1.425,0.791-5.521-2.061-6.063c-2.85-0.545-4.211-0.998-12.92,1.085
            c-1.29,0.159-1.332-1.583-0.906-2.807c0.429-1.222,1.179-2.896,2.059-3.574c1.977-0.152,3.191-1.067,3.378-2.561
            c0.154-1.737-1.752-3.377,1.399-5.116c0,0,0.101-0.052,0.272-0.145c1.014-0.538,3.875-2.584,5.637-3.874
            c0.194-0.14,1.304-1.098,1.444-1.219c0.391-0.389,0.375-1.126,0.126-3.356c-0.31-2.722-0.833-6.938-0.893-9.546
            c0.028-0.187,0.063-0.364,0.104-0.536c0-0.005,0-0.011,0.003-0.016c0.034-0.163,0.075-0.319,0.121-0.467c0-0.002,0-0.004,0-0.004
            c0.374-1.092,1.437-2.471,3.683-1.402c2.088,0.995,3.553,3.454,3.917,4.113c0,0.001,0.005,0.005,0.005,0.007
            c0.021,0.036,0.118,0.172,0.36,0.127c0.792-0.122,2.995-0.725,3.134-3.667L79.81,22.824z M51.487,31.482l0.491,4.433
            c-0.318,0.786-1.97,0.819-2.164,0.194c-0.865-2.783-2.545-7.13-1.805-7.75c2.705-2.253,6.751-5.145,10.96-5.145
            c0,0,0.386-0.038,0.439,0.51c0.09,0.917-2.309,1.095-3.491,1.656C53.559,26.51,51.636,28.652,51.487,31.482z M65.456,35.621
            c-2.063,2.141-6.269,3.959-9.831,3.147c-0.2-2.608,2.808-2.013,4.82-3.153c1.587-0.899,2.926-2.188,3.445-3.934
            C65.588,32.171,65.854,34.193,65.456,35.621z M64.972,26.462c-1.061,0.076-1.202-0.761-1.379-1.576
            c-0.121-0.808,0.177-1.523,0.495-2.064c1.06-0.369,1.6,0.589,1.672,1.376C66.008,25.038,65.784,26.192,64.972,26.462z"/>
        </g>
    </g>
</svg>
