<svg height="59" viewBox="0 0 101 59" width="101" xmlns="http://www.w3.org/2000/svg"><g fill="none" fill-rule="evenodd"><g fill="#f26334" transform="translate(58.765713 49.106147)"><path d="m3.73460094.49582868h1.70841307l3.61506183 8.57190224h-1.93752969l-.77401572-1.9058729h-3.56226539l-.7720234 1.9058729h-1.8887179zm1.9494836 5.01259659-1.11669449-2.75974419-1.12067913 2.75974419z"></path><path d="m9.87393025 6.7716318v-4.21906957h1.82795215v3.63574171c0 .87398605.4104176 1.32556227 1.1107176 1.32556227.6983076 0 1.1435908-.45157622 1.1435908-1.32556227v-3.63574171h1.826956v6.51617443h-1.826956v-.92326719c-.4203792.54812704-.9652783 1.04496145-1.8927026 1.04496145-1.3806767 0-2.18955795-.92226145-2.18955795-2.41879912z"></path><path d="m16.7972369 8.20581373.7789965-1.21593685c.6993038.51091474 1.4334731.77743522 2.0371456.77743522.5299567 0 .7710272-.19410737.7710272-.48375982v-.02413771c0-.40229507-.6265841-.53605818-1.338838-.75631473-.9025202-.26551475-1.9275681-.69295326-1.9275681-1.95515405v-.02413771c0-1.32556226 1.0599135-2.06679093 2.3618936-2.06679093.8188428 0 1.7074169.2775836 2.4097091.75229179l-.7022922 1.27829259c-.6365458-.37614589-1.2740877-.6084713-1.7432787-.6084713-.4462793 0-.6763921.19611885-.6763921.45057048v.02212623c0 .36709425.6156264.53605818 1.313934.7794467.9045126.30473852 1.9494836.74223441 1.9494836 1.93202209v.02514344c0 1.44625078-1.069875 2.10199175-2.4674864 2.10199175-.9015241 0-1.914618-.30473852-2.7663341-.98461719z"></path><path d="m23.4057572 7.22220228v-3.08862042h-.769035v-1.58001389h.769035v-1.6655016h1.8289483v1.6655016h1.5181467v1.58001389h-1.5181467v2.78488764c0 .4244213.181301.632609.5897263.632609.3396903 0 .6415265-.08649344.9045125-.23031393v1.48346308c-.3845174.23031393-.8307967.37715163-1.4444308.37715163-1.1186868-.00100574-1.8787563-.45258196-1.8787563-1.959177z"></path><path d="m27.9791242 2.55256223h1.8319368v1.31449915c.3725635-.90013522.9752399-1.48446882 2.0610534-1.43619341v1.93403356h-.0966274c-1.2192989 0-1.9654222.74122867-1.9654222 2.29710486v2.40673027h-1.8319368v-6.51617443z"></path><path d="m32.9290394.19310164h1.9285642v1.64236963h-1.9285642zm.0478156 2.35946059h1.8289483v6.51617443h-1.8289483z"></path><path d="m36.0221138 7.1960531v-.02212623c0-1.42211308 1.0718673-2.08087126 2.602964-2.08087126.6475035 0 1.1166945.10962541 1.5739316.2695377v-.10861967c0-.76637211-.469191-1.19280489-1.3846613-1.19280489-.6963153 0-1.1894141.13376311-1.7811327.35401966l-.4582333-1.41306144c.7122539-.31278441 1.4105615-.52097211 2.5073328-.52097211.9961592 0 1.720367.26853196 2.1795964.72915981.4821411.4857713.6983076 1.20487374.6983076 2.07986553v3.7795622h-1.7711711v-.70301064c-.4462793.49784015-1.0599134.8247049-1.9494836.8247049-1.2173066-.00100574-2.2174504-.70602785-2.2174504-1.99538356zm4.2027957-.4244213v-.32787048c-.312794-.14583197-.7242077-.24338852-1.1684947-.24338852-.7829812 0-1.2661184.31580163-1.2661184.89812374v.02514345c0 .50085736.4124099.78950408 1.0001439.78950408.8557007 0 1.4344692-.47370245 1.4344692-1.14151227z"></path></g><g transform="translate(-.007682 .830739)"><path d="m69.4721444 36.7667524v-1.9430852h-3.5602731v-14.7702636h-1.7313247l-4.7168139 1.9430852.4811449 2.1371926 3.6569005-1.4573139v12.1462939h-4.0434103v1.9430852h9.9137766z" fill="#002c6c"></path><path d="m57.3458982 28.7982927c0 15.838357-12.8006461 28.6635239-28.5827967 28.6635239-15.7841429 0-28.584789-12.8251669-28.584789-28.6635239.09563129-15.838357 12.8016422-28.66352385 28.584789-28.66352385s28.5827967 12.82516685 28.5827967 28.66352385z" fill="#002c6c"></path><path d="m34.6334678 20.1519659c-4.2336767 0-7.4114246 3.4979556-7.4114246 8.2591178v.1941074c0 4.9542638 2.9854892 8.2591178 7.3147972 8.2591178 2.4057245 0 4.2346728-.9725483 5.3892214-1.8485458v-7.0914564h-5.4858489v1.7489778h3.5602731v4.1778343l-.0956313.0975566c-.8666585.5823221-2.0202109.9705368-3.1757556.9705368-3.1767518 0-5.1979589-2.5254073-5.1979589-6.4115777v-.0965508c0-3.5955122 2.1178346-6.3160326 5.1013314-6.3160326 1.7323209 0 2.7912382.5823221 3.6569006 1.3597573l1.2521721-1.6504155c-1.5410583-1.1666557-2.9834969-1.652427-4.9080765-1.652427z" fill="#fff"></path><path d="m43.0061861 34.6295598c1.6356934 1.4553024 3.5602731 2.1371926 5.5814801 2.1371926 3.0801244 0 5.1003353-1.8475402 5.1003353-4.5680606 0-2.2337434-1.1535524-3.4969499-4.329308-4.6625999-2.8868695-1.1666557-3.6569005-1.8455286-3.6569005-3.2062917s1.1555447-2.3323057 2.7912381-2.3323057c1.1555447 0 2.4037322.4857713 3.6549082 1.4573139l1.2531683-1.6504155c-1.3478034-1.1666557-2.984493-1.7499836-4.8134414-1.7499836-2.9834968 0-5.0037078 1.8455287-5.0037078 4.3719417 0 2.6239696 1.6356935 3.6930688 4.6211827 4.857713 2.5959909.9725484 3.4636456 1.6534328 3.4636456 3.0152016 0 1.4563082-1.2521721 2.5254073-2.9825007 2.5254073-1.9255758 0-3.3680143-.9725483-4.3313003-1.8465344z" fill="#fff"></path><path d="m50.6108656 5.09104414c0-1.55386472 1.2481875-2.81807698 2.790242-2.81807698 1.5400622 0 2.790242 1.26421226 2.790242 2.81807698 0 1.55386471-1.2501798 2.81707124-2.790242 2.81707124-1.5420545 0-2.790242-1.26320653-2.790242-2.81707124zm5.0027117 0c0-1.26320653-.963286-2.23575487-2.2134658-2.23575487-1.2531683 0-2.214462.9715426-2.214462 2.23575487 0 1.26220078.9612937 2.23474912 2.214462 2.23474912 1.2501798 0 2.2134658-.97254834 2.2134658-2.23474912zm-3.2733793-1.36176882h1.2521722c.5767762 0 1.0579211.29166392 1.0579211.87499178 0 .38922048-.1912626.67987867-.5767762.87499178l.6724075.9715426h-.7680388l-.5767762-.87398604h-.3855136v.87398604h-.675396zm1.2521722 1.26421226c.2898823 0 .4811449-.19410737.4811449-.38922048s-.1912626-.38922048-.4811449-.38922048h-.5767762v.77743522h.5767762z" fill="#002c6c"></path><g fill="#fff" transform="translate(2.988478 3.017213)"><path d="m3.06020114 25.7810797c0-13.1168308 10.00940786-23.80480516 22.81105016-24.87390431v-.09755656c-13.7639321 0-24.92788851 11.17374567-24.92788851 24.97146087 0 13.798721 11.16395641 24.9724666 24.83126101 24.9724666v-.0965508c-12.7050148-1.0701049-22.71442266-11.8556358-22.71442266-24.8759158z"></path><path d="m8.64267744 25.7810797c0-10.9796383 8.27708706-20.01518558 18.95890236-21.08428473l-.0956313-.09755656c-11.4528426.19410737-20.78785068 9.61988089-20.78785068 21.18184129 0 11.5639718 9.23838068 20.9897454 20.78785068 21.182847l.0956313-.0965508c-10.6828115-1.1676615-18.95890236-10.1056522-18.95890236-21.0862962z"></path><path d="m13.9362676 25.7810797c0-8.9379908 6.7370248-16.32312256 15.3986293-17.39121597l-.0966275-.09755656c-9.4326317.29166393-16.9376953 7.96745393-16.9376953 17.48877253 0 9.5233301 7.5050636 17.2001258 16.9376953 17.490784l.0966275-.0985623c-8.6626006-1.0680934-15.3986293-8.4522195-15.3986293-17.3922217z"></path><path d="m19.037599 25.7810797c0-6.9938998 5.1959665-12.8241612 12.0296188-13.6015964v-.0975566c-7.4104285.1941074-13.2807948 6.2194819-13.2807948 13.7001587 0 7.4816826 5.9659976 13.5070571 13.2807948 13.7021702v-.0995681c-6.7360287-.873986-12.0296188-6.605685-12.0296188-13.6036078z"></path></g></g></g></svg>