<?xml version="1.0" standalone="no"?>
<!DOCTYPE svg PUBLIC "-//W3C//DTD SVG 20010904//EN"
 "http://www.w3.org/TR/2001/REC-SVG-20010904/DTD/svg10.dtd">
<svg version="1.0" xmlns="http://www.w3.org/2000/svg"
 width="1226.000000pt" height="1226.000000pt" viewBox="0 0 1226.000000 1226.000000"
 preserveAspectRatio="xMidYMid meet">
<metadata>
Created by potrace 1.14, written by Peter Selinger 2001-2017
</metadata>
<g transform="translate(0.000000,1226.000000) scale(0.100000,-0.100000)"
fill="#000000" stroke="none">
<path d="M4910 11053 c-2107 -117 -3906 -1610 -4405 -3656 -49 -202 -84 -393
-112 -617 -26 -209 -26 -821 0 -1030 56 -452 151 -833 304 -1220 484 -1228
1479 -2219 2713 -2703 1790 -702 3823 -284 5182 1065 778 773 1245 1737 1385
2858 14 117 18 219 18 525 0 405 -7 496 -61 815 -188 1113 -803 2161 -1694
2886 -779 633 -1729 1006 -2735 1074 -137 9 -460 11 -595 3z m288 -619 c-4 -3
-62 -12 -130 -20 -958 -111 -1841 -540 -2517 -1224 -681 -689 -1092 -1578
-1181 -2555 -14 -153 -14 -565 0 -715 93 -1016 536 -1937 1270 -2643 314 -302
646 -535 1045 -732 309 -153 574 -250 890 -325 142 -34 388 -76 500 -86 44 -3
87 -11 95 -16 22 -13 -297 -2 -455 17 -1278 150 -2387 847 -3081 1937 -99 155
-275 502 -341 673 -140 357 -225 701 -270 1085 -21 185 -24 668 -5 850 98 911
453 1705 1068 2391 251 280 606 570 943 771 573 342 1205 540 1881 591 82 6
293 7 288 1z m286 -633 c3 -4 -25 -11 -62 -14 -177 -17 -477 -83 -682 -150
-725 -239 -1356 -703 -1793 -1320 -218 -307 -391 -660 -497 -1008 -115 -382
-155 -681 -147 -1104 5 -280 17 -395 63 -625 109 -551 368 -1096 728 -1535
470 -570 1108 -983 1828 -1180 166 -45 380 -89 502 -101 46 -5 64 -10 57 -17
-14 -14 -301 7 -481 34 -658 100 -1276 380 -1780 808 -141 120 -360 344 -473
486 -787 980 -990 2313 -530 3480 324 820 951 1499 1747 1889 312 153 661 264
1001 320 210 35 508 56 519 37z m294 -616 c-3 -3 -59 -15 -124 -26 -1199 -204
-2162 -1122 -2404 -2293 -72 -345 -79 -727 -20 -1076 155 -911 743 -1701 1580
-2120 279 -140 591 -242 860 -281 196 -28 80 -40 -141 -14 -243 28 -454 77
-694 161 -146 51 -461 210 -602 303 -877 581 -1371 1556 -1312 2594 16 283 57
501 144 762 247 742 767 1338 1475 1691 325 162 655 255 1050 297 58 6 194 7
188 2z m297 -635 c-3 -5 -20 -10 -37 -10 -62 0 -288 -52 -433 -101 -477 -159
-892 -476 -1170 -894 -240 -360 -367 -757 -382 -1190 -23 -667 229 -1268 727
-1741 234 -221 529 -397 845 -503 134 -45 369 -101 423 -101 12 0 24 -5 28
-12 16 -26 -323 15 -505 62 -650 166 -1196 608 -1496 1212 -319 644 -311 1423
22 2058 114 217 238 386 413 560 374 373 844 597 1385 659 105 12 187 13 180
1z m2651 -831 c119 -16 239 -54 359 -113 122 -60 241 -144 239 -168 -1 -9 -45
-73 -98 -142 l-97 -126 -72 49 c-290 196 -585 243 -808 130 -76 -38 -139 -102
-176 -177 -25 -51 -28 -68 -27 -157 0 -83 3 -108 22 -145 68 -139 213 -232
615 -394 225 -91 326 -142 427 -216 96 -72 157 -141 203 -228 52 -98 70 -183
69 -327 0 -217 -64 -377 -207 -521 -68 -68 -97 -89 -185 -133 -166 -81 -229
-94 -460 -95 -216 -1 -274 7 -440 60 -165 53 -353 156 -461 253 l-40 36 108
132 c59 73 111 132 115 132 5 1 38 -24 75 -54 190 -153 431 -245 643 -245 176
0 297 45 401 149 84 84 112 150 113 266 1 104 -21 169 -81 235 -87 97 -178
148 -473 265 -356 141 -500 222 -625 349 -124 126 -175 261 -176 462 0 120 8
170 45 268 84 224 294 389 566 447 99 21 307 25 426 8z m-2390 -10 c239 -24
424 -97 657 -260 5 -4 -37 -67 -94 -140 -56 -74 -103 -135 -104 -137 -2 -2
-33 20 -70 48 -155 118 -282 160 -501 167 -131 5 -161 3 -235 -16 -478 -119
-744 -638 -658 -1281 47 -352 223 -624 483 -750 134 -64 227 -85 386 -83 160
1 281 31 430 105 l105 53 3 358 2 357 -300 0 -300 0 0 145 0 145 465 0 465 0
-2 -592 -3 -593 -70 -47 c-97 -66 -272 -150 -385 -186 -134 -43 -245 -62 -395
-69 -356 -16 -669 100 -905 337 -180 179 -298 416 -357 715 -26 131 -26 532 0
660 60 293 179 526 367 716 270 272 610 389 1016 348z"/>
<path d="M9198 10681 c-148 -48 -274 -179 -312 -326 -71 -271 104 -540 382
-587 142 -24 294 26 401 132 149 147 182 361 85 551 -52 104 -161 194 -275
230 -79 25 -203 24 -281 0z m257 -96 c265 -79 342 -442 134 -629 -73 -65 -143
-90 -254 -90 -116 0 -190 30 -265 110 -67 71 -92 129 -98 230 -10 175 70 306
224 369 70 29 183 33 259 10z"/>
<path d="M9160 10230 l0 -230 55 0 55 0 0 75 0 75 35 0 c32 0 38 -6 85 -75
l51 -75 59 0 c33 0 60 3 60 7 0 4 -23 40 -51 80 l-51 74 41 39 c87 84 58 218
-55 249 -21 6 -94 11 -161 11 l-123 0 0 -230z m269 126 c29 -26 26 -60 -5 -85
-21 -16 -41 -21 -90 -21 l-64 0 0 58 c0 32 3 62 8 66 14 15 130 1 151 -18z"/>
<path d="M10763 7577 c-215 -89 -394 -164 -397 -167 -4 -4 29 -159 69 -327 3
-13 10 -23 15 -23 5 0 141 52 301 115 161 63 296 115 301 115 4 0 8 -454 8
-1010 l0 -1010 -340 0 -340 0 0 -165 0 -165 833 2 832 3 3 163 2 162 -300 0
-300 0 -2 1233 -3 1232 -145 2 -145 1 -392 -161z"/>
</g>
</svg>
