<?xml version="1.0" standalone="no"?>
<!DOCTYPE svg PUBLIC "-//W3C//DTD SVG 20010904//EN"
 "http://www.w3.org/TR/2001/REC-SVG-20010904/DTD/svg10.dtd">
<svg version="1.0" xmlns="http://www.w3.org/2000/svg"
 width="505.000000pt" height="357.000000pt" viewBox="0 0 505.000000 357.000000"
 preserveAspectRatio="xMidYMid meet">

<g transform="translate(0.000000,357.000000) scale(0.100000,-0.100000)"
fill="#D23538" stroke="none">
<path d="M2326 2974 c-241 -44 -469 -164 -647 -343 -163 -163 -273 -357 -334
-586 -1 -6 -25 -18 -53 -28 -68 -25 -139 -89 -168 -152 -43 -92 -26 -230 38
-305 25 -30 84 -69 131 -87 l48 -18 35 -105 c148 -443 542 -773 1004 -841 104
-15 360 -6 450 16 99 24 190 56 190 66 0 18 -29 79 -37 79 -4 0 -30 -9 -58
-19 -150 -57 -424 -74 -595 -37 -392 84 -721 368 -854 735 -40 111 -40 111 49
111 l75 0 0 45 0 45 -122 0 c-109 0 -129 3 -175 24 -49 23 -103 82 -103 113 0
10 42 13 185 13 l185 0 0 45 0 45 -179 0 c-116 0 -182 4 -186 11 -11 16 40 84
82 110 34 22 52 24 176 27 l137 4 0 44 0 44 -74 0 c-41 0 -77 4 -80 8 -3 4 8
44 23 88 271 770 1227 1025 1848 492 110 -94 233 -259 291 -388 26 -59 74
-192 69 -195 -1 -1 -30 -15 -65 -30 -66 -30 -108 -69 -144 -138 -32 -60 -32
-184 0 -244 33 -63 74 -106 129 -133 66 -34 197 -36 258 -3 57 30 114 89 139
142 28 62 27 168 -1 231 -28 60 -95 123 -163 153 l-55 25 -23 78 c-55 186
-195 412 -337 542 -183 168 -400 277 -630 317 -110 19 -351 18 -459 -1z m1456
-1044 c152 -42 186 -246 57 -339 -73 -54 -166 -49 -235 11 -48 42 -67 83 -67
143 0 79 46 146 123 179 42 18 72 19 122 6z"/>
<path d="M167 2034 c-4 -4 -7 -135 -7 -291 l0 -283 50 0 50 0 0 120 0 120 165
0 165 0 0 -120 0 -120 50 0 50 0 -2 288 -3 287 -45 0 -45 0 -3 -122 -3 -123
-164 0 -164 0 -3 123 -3 122 -40 3 c-23 2 -44 0 -48 -4z"/>
<path d="M2040 1750 l0 -290 226 0 225 0 -3 43 -3 42 -175 5 -175 5 -3 243 -2
242 -45 0 -45 0 0 -290z"/>
<path d="M2947 2033 c-4 -3 -7 -134 -7 -290 l0 -283 45 0 45 0 0 290 0 290
-38 0 c-21 0 -42 -3 -45 -7z"/>
<path d="M4458 2010 c-105 -56 -111 -218 -10 -286 23 -16 53 -20 194 -24 155
-5 169 -7 189 -27 30 -29 28 -72 -5 -100 -26 -22 -33 -23 -217 -23 l-189 0 0
-45 0 -45 201 0 c228 0 253 6 296 71 56 85 31 192 -57 237 -40 20 -58 22 -195
22 -145 0 -152 1 -173 23 -31 33 -29 80 4 106 25 20 40 21 215 21 l189 0 0 45
0 45 -202 0 c-181 -1 -207 -3 -240 -20z"/>
<path d="M4470 1240 c0 -25 25 -36 45 -20 20 16 7 40 -21 40 -17 0 -24 -6 -24
-20z"/>
<path d="M2450 1185 c0 -16 -6 -25 -15 -25 -8 0 -15 -9 -15 -20 0 -11 6 -20
14 -20 10 0 15 -19 18 -71 4 -80 18 -99 75 -99 26 0 33 4 33 19 0 14 -8 21
-27 23 -27 3 -28 6 -31 65 -3 61 -3 62 25 65 37 4 37 32 1 36 -22 3 -28 9 -28
28 0 19 -5 24 -25 24 -20 0 -25 -5 -25 -25z"/>
<path d="M3430 1186 c0 -15 -7 -26 -20 -29 -11 -3 -20 -10 -20 -17 0 -7 9 -14
20 -17 18 -5 20 -14 20 -73 0 -79 16 -100 73 -100 30 0 37 4 37 19 0 15 -8 21
-32 23 -33 3 -33 3 -36 66 l-3 62 31 0 c23 0 30 4 30 20 0 16 -7 20 -30 20
-25 0 -30 4 -30 25 0 18 -5 25 -20 25 -14 0 -20 -7 -20 -24z"/>
<path d="M2136 1147 c-12 -9 -17 -23 -14 -47 3 -29 10 -37 48 -56 25 -13 45
-29 45 -36 0 -17 -52 -23 -71 -7 -11 9 -17 9 -30 -2 -14 -11 -13 -15 8 -31 13
-10 40 -18 64 -18 50 0 77 25 72 67 -2 22 -13 33 -50 53 -27 14 -48 30 -48 36
0 19 28 24 56 12 21 -10 27 -9 35 3 20 33 -75 55 -115 26z"/>
<path d="M2740 1055 c0 -98 1 -105 20 -105 18 0 20 7 20 61 0 72 10 93 50 107
16 6 30 18 30 26 0 18 -32 21 -61 6 -13 -7 -19 -7 -19 0 0 5 -9 10 -20 10 -19
0 -20 -7 -20 -105z"/>
<path d="M3039 1131 c-64 -64 -21 -181 66 -181 20 0 45 5 56 10 13 7 19 7 19
0 0 -5 9 -10 20 -10 19 0 20 7 20 105 0 85 -3 105 -14 105 -8 0 -18 -5 -21
-10 -4 -7 -12 -7 -25 0 -38 20 -90 12 -121 -19z m125 -33 c34 -48 8 -108 -46
-108 -35 0 -68 32 -68 65 0 57 83 88 114 43z"/>
<path d="M3729 1131 c-24 -24 -29 -38 -29 -76 0 -65 39 -105 102 -105 53 0 95
25 77 46 -8 10 -16 11 -29 4 -30 -16 -75 -12 -93 8 -10 10 -17 22 -17 25 0 4
36 7 80 7 l80 0 0 31 c0 47 -47 89 -100 89 -33 0 -48 -6 -71 -29z m102 -11
c10 -6 19 -20 19 -30 0 -17 -7 -20 -49 -20 -66 0 -76 20 -26 48 25 14 32 14
56 2z"/>
<path d="M4101 1134 c-27 -22 -31 -32 -31 -75 0 -42 5 -54 28 -76 24 -23 33
-25 85 -20 61 5 69 -1 37 -33 -23 -23 -55 -25 -90 -5 -24 13 -50 5 -50 -15 0
-17 89 -42 123 -36 62 12 72 33 75 167 3 96 1 119 -10 119 -8 0 -19 -5 -26
-12 -9 -9 -15 -9 -24 0 -22 22 -84 14 -117 -14z m123 -36 c21 -29 20 -51 -2
-78 -35 -43 -112 -17 -112 38 0 58 82 87 114 40z"/>
<path d="M4480 1056 c0 -100 1 -106 20 -106 20 0 21 5 18 102 -3 89 -5 103
-20 106 -16 3 -18 -7 -18 -102z"/>
<path d="M4729 1131 c-64 -64 -21 -181 66 -181 20 0 45 5 56 10 13 7 19 7 19
0 0 -5 9 -10 20 -10 19 0 20 7 20 105 0 85 -3 105 -14 105 -8 0 -18 -5 -21
-10 -4 -7 -12 -7 -25 0 -38 20 -90 12 -121 -19z m123 -28 c22 -20 23 -61 2
-91 -31 -45 -114 -14 -114 43 0 54 71 85 112 48z"/>
</g>
</svg>
