<svg xmlns="http://www.w3.org/2000/svg" width="654" height="233" viewBox="0 0 654 233" fill="none"><g clip-path="url(#clip0_11_19)"><path d="M158.762 87.6367H169.969V135.38H158.762V87.6367Z" fill="white"></path><path d="M281.347 132.879C277.559 130.879 274.408 127.861 272.252 124.167C270.039 120.318 268.908 115.945 268.979 111.509C268.904 107.088 270.036 102.73 272.252 98.9008C274.419 95.2251 277.568 92.2224 281.347 90.2283C285.421 88.1739 289.923 87.1035 294.488 87.1035C299.054 87.1035 303.555 88.1739 307.629 90.2283C311.398 92.2269 314.536 95.2292 316.694 98.9008C318.918 102.721 320.059 107.072 319.997 111.489C320.068 115.925 318.937 120.298 316.724 124.147C314.568 127.841 311.417 130.859 307.629 132.859C303.557 134.92 299.055 135.994 294.488 135.994C289.921 135.994 285.419 134.92 281.347 132.859V132.879ZM304.287 121.754C305.637 120.464 306.702 118.908 307.416 117.185C308.13 115.462 308.476 113.61 308.433 111.746C308.546 109.887 308.27 108.024 307.621 106.277C306.972 104.53 305.965 102.938 304.664 101.6C301.956 99.089 298.412 97.666 294.715 97.6057C291.017 97.5454 287.428 98.8523 284.64 101.274C283.302 102.57 282.247 104.129 281.542 105.851C280.837 107.573 280.497 109.422 280.544 111.282C280.432 113.13 280.706 114.982 281.348 116.719C281.99 118.457 282.986 120.043 284.273 121.378C285.572 122.671 287.121 123.688 288.826 124.368C290.53 125.048 292.355 125.376 294.191 125.334C296.028 125.438 297.867 125.174 299.601 124.56C301.335 123.945 302.928 122.991 304.287 121.754Z" fill="white"></path><path d="M340.784 136.28C338.074 136.301 335.373 135.945 332.761 135.222C330.87 134.699 329.133 133.733 327.693 132.404C326.42 131.146 325.506 129.572 325.045 127.845C324.514 125.818 324.26 123.729 324.291 121.635V66H335.141V119.558C335.12 120.67 335.223 121.782 335.449 122.871C335.632 123.708 336.017 124.489 336.569 125.145C337.164 125.808 337.924 126.302 338.771 126.579C339.921 126.957 341.108 127.213 342.312 127.341L340.784 136.28Z" fill="white"></path><path d="M422.815 87.6367H434.022V135.38H422.815V87.6367Z" fill="white"></path><path d="M517.709 120.893C517.709 125.897 515.964 129.707 512.473 132.324C508.982 134.942 503.765 136.26 496.822 136.28C493.772 136.319 490.724 136.077 487.718 135.558C485.299 135.104 482.935 134.395 480.666 133.442V122.416C483.359 123.668 486.165 124.661 489.047 125.382C491.726 126.105 494.484 126.5 497.259 126.559C502.105 126.559 504.529 125.162 504.529 122.366C504.545 121.896 504.465 121.428 504.295 120.989C504.124 120.551 503.866 120.151 503.537 119.815C502.537 118.919 501.415 118.17 500.204 117.59C498.631 116.759 496.531 115.79 493.906 114.683C490.977 113.56 488.19 112.097 485.605 110.322C483.96 109.124 482.635 107.542 481.747 105.713C480.889 103.692 480.479 101.509 480.547 99.3152C480.464 97.3486 480.885 95.3933 481.77 93.6337C482.655 91.8742 483.975 90.3684 485.605 89.2582C488.977 86.8849 493.758 85.6982 499.946 85.6982C505.895 85.7069 511.769 87.0167 517.154 89.5351L513.127 99.1471C510.668 98.0989 508.377 97.2386 506.254 96.5661C504.143 95.9042 501.942 95.5706 499.728 95.5772C495.761 95.5772 493.778 96.6354 493.778 98.7615C493.804 99.3964 493.993 100.014 494.326 100.556C494.659 101.098 495.126 101.545 495.682 101.857C498.377 103.393 501.209 104.677 504.142 105.694C507.108 106.788 509.929 108.239 512.542 110.015C514.215 111.221 515.575 112.807 516.509 114.643C517.375 116.61 517.786 118.746 517.709 120.893Z" fill="white"></path><path d="M524.255 133.907C523.015 132.704 522.233 131.109 522.043 129.394C521.853 127.68 522.266 125.953 523.213 124.509C524.159 123.065 525.58 121.994 527.231 121.479C528.883 120.965 530.662 121.038 532.265 121.688C533.867 122.338 535.194 123.523 536.017 125.04C536.839 126.557 537.108 128.313 536.775 130.006C536.443 131.698 535.531 133.224 534.195 134.32C532.859 135.416 531.182 136.014 529.452 136.014C528.488 136.031 527.531 135.853 526.637 135.491C525.744 135.129 524.934 134.59 524.255 133.907Z" fill="#D3D3D3"></path><path d="M579.121 92.1565C582.856 95.5187 584.724 100.598 584.724 107.395V135.381H574.142V129.576C572.706 131.716 570.661 133.379 568.271 134.352C565.353 135.531 562.223 136.097 559.077 136.014C555.843 136.084 552.632 135.457 549.665 134.174C547.147 133.099 544.987 131.333 543.436 129.082C541.968 126.903 541.2 124.329 541.234 121.704C541.168 119.729 541.567 117.766 542.401 115.972C543.235 114.179 544.48 112.606 546.035 111.38C549.228 108.776 554.263 107.478 561.14 107.484H573.567V106.772C573.567 103.44 572.575 100.839 570.591 99.0787C568.608 97.3185 565.632 96.3988 561.665 96.3988C558.971 96.399 556.293 96.8228 553.731 97.6547C551.332 98.3831 549.096 99.5649 547.146 101.136L542.752 93.0069C545.451 91.0011 548.502 89.5153 551.747 88.6262C555.392 87.5931 559.165 87.0804 562.955 87.1033C569.996 87.1033 575.385 88.7877 579.121 92.1565ZM568.895 125.947C571.06 124.728 572.717 122.778 573.567 120.449V114.911H561.953C555.493 114.911 552.263 117.027 552.263 121.259C552.24 122.204 552.453 123.139 552.882 123.982C553.312 124.824 553.944 125.547 554.723 126.085C556.716 127.388 559.078 128.016 561.457 127.875C564.066 127.916 566.637 127.249 568.895 125.947Z" fill="white"></path><path d="M640.879 87.6364V128.181C640.879 144.992 632.284 153.398 615.093 153.398C610.67 153.42 606.264 152.834 602.001 151.657C598.279 150.695 594.798 148.974 591.776 146.604L596.794 138.198C599.155 140.065 601.847 141.474 604.729 142.352C607.871 143.387 611.159 143.915 614.468 143.914C619.725 143.914 623.579 142.724 626.032 140.344C628.485 137.964 629.712 134.338 629.712 129.466V126.885C627.778 128.987 625.381 130.612 622.71 131.632C619.807 132.734 616.721 133.281 613.615 133.244C609.345 133.292 605.129 132.293 601.337 130.337C597.731 128.466 594.719 125.631 592.639 122.149C590.472 118.5 589.363 114.324 589.435 110.084C589.354 105.855 590.456 101.688 592.619 98.0494C594.712 94.5952 597.731 91.7933 601.337 89.9603C605.151 88.021 609.383 87.0399 613.665 87.1024C616.899 87.0575 620.111 87.635 623.126 88.8033C625.91 89.8924 628.365 91.6768 630.257 93.9851V87.6364H640.879ZM623.751 120.388C625.101 119.099 626.167 117.543 626.881 115.82C627.595 114.097 627.941 112.245 627.897 110.381C628.01 108.526 627.736 106.668 627.09 104.925C626.445 103.181 625.443 101.591 624.148 100.255C622.833 98.9691 621.274 97.9574 619.563 97.2783C617.852 96.5992 616.022 96.2663 614.18 96.2991C612.343 96.2069 610.506 96.4842 608.778 97.1145C607.05 97.7448 605.468 98.7151 604.124 99.9679C602.785 101.263 601.73 102.822 601.025 104.544C600.32 106.266 599.98 108.116 600.028 109.975C599.912 111.832 600.183 113.692 600.825 115.438C601.467 117.185 602.465 118.779 603.757 120.121C605.059 121.411 606.608 122.426 608.312 123.106C610.016 123.786 611.84 124.116 613.675 124.077C615.516 124.164 617.356 123.882 619.087 123.248C620.817 122.615 622.403 121.642 623.751 120.388Z" fill="white"></path><path d="M379.534 87.6367L366.462 118.5L353.301 87.6367H341.637L360.749 131.474L350.266 154.713H361.126L391.286 87.6367H379.534Z" fill="white"></path><path d="M462.1 136.141C446.932 136.141 439.348 127.841 439.348 111.241C439.348 102.981 441.411 96.6716 445.537 92.3139C449.663 87.9562 455.574 85.7774 463.27 85.7774C468.517 85.6882 473.712 86.8191 478.445 89.0802L474.477 99.335C472.381 98.4978 470.434 97.8088 468.636 97.2682C466.883 96.7408 465.062 96.471 463.231 96.4672C456.315 96.4672 452.86 101.362 452.866 111.152C452.866 120.659 456.321 125.409 463.231 125.402C465.668 125.421 468.093 125.064 470.421 124.344C472.742 123.596 474.943 122.521 476.957 121.15V132.532C474.951 133.831 472.742 134.787 470.421 135.36C467.687 135.938 464.895 136.2 462.1 136.141Z" fill="white"></path><path d="M176.168 89.3968C177.328 89.6044 179.024 89.8813 181.127 90.1088C182.704 90.2868 184.043 90.3856 184.499 90.4153C188.466 90.6329 190.588 88.6749 194.615 87.7058C198.675 86.8062 202.914 87.1509 206.774 88.6946C209.278 89.604 211.513 91.1276 213.27 93.1249C214.934 95.1178 216.106 97.4716 216.692 99.9976C217.379 102.884 217.712 105.842 217.684 108.809V135.38H206.159V110.5C206.1 109.095 206.03 107.701 205.971 106.297C205.971 105.753 205.535 100.631 201.389 98.2473C199.549 97.2682 197.437 96.9207 195.379 97.2584C192.39 97.6485 189.645 99.1067 187.653 101.362V135.38H176.168V89.3968Z" fill="white"></path><path d="M223.407 89.7336C224.567 89.9413 226.243 90.2182 228.296 90.4456C229.873 90.6236 231.202 90.7225 231.658 90.7522C235.626 90.9697 237.718 89.0216 241.725 88.0624C245.766 87.1639 249.985 87.5087 253.825 89.0513C256.324 89.9492 258.553 91.467 260.301 93.4617C261.954 95.4438 263.119 97.7838 263.703 100.295C264.385 103.172 264.718 106.12 264.695 109.076V135.47H253.22V110.748C253.15 109.353 253.091 107.959 253.031 106.565C253.031 106.021 252.595 100.928 248.479 98.5446C246.656 97.5778 244.567 97.2306 242.528 97.5557C239.557 97.9336 236.824 99.3701 234.832 101.6V135.47H223.407V89.7336Z" fill="white"></path><path d="M415.664 127.054C414.584 127.21 413.493 127.286 412.401 127.282C409.545 127.282 407.522 126.481 406.332 124.879C405.142 123.277 404.547 120.607 404.547 116.869V97.9118H415.694V88.9228H404.547V74.9004L393.746 76.6804V116.958C393.714 119.725 393.983 122.487 394.549 125.195C395.004 127.421 395.95 129.519 397.316 131.336C398.701 133.089 400.539 134.433 402.632 135.223C405.304 136.187 408.134 136.64 410.973 136.558C412.203 136.56 413.431 136.494 414.653 136.36L415.664 127.054Z" fill="white"></path></g><path d="M11 71.1107L27.4353 43H60.3059L77.2392 71.1107L60.3059 100.225H27.4353L11 71.1107Z" stroke="white" stroke-width="9"></path><path d="M77 108.111L93.4353 80H126.306L143.239 108.111L126.306 137.225H93.4353L77 108.111Z" stroke="#D3D3D3" stroke-width="9"></path><path d="M11 145.111L27.4353 117H60.3059L77.2392 145.111L60.3059 174.225H27.4353L11 145.111Z" stroke="white" stroke-width="9"></path><mask id="mask0_11_19" style="mask-type:alpha" maskUnits="userSpaceOnUse" x="5" y="112" width="78" height="67"><path d="M11 145.111L27.4353 117H60.3059L77.2392 145.111L60.3059 174.225H27.4353L11 145.111Z" stroke="#0F5F9F" stroke-width="9"></path></mask><g mask="url(#mask0_11_19)"><rect x="20.2363" y="104.354" width="99" height="99" transform="rotate(-29.7447 20.2363 104.354)" fill="#D3D3D3"></rect></g><path d="M28 145.246L35.9398 131H51.8195L60 145.246L51.8195 160H35.9398L28 145.246Z" stroke="white" stroke-width="7"></path><mask id="mask1_11_19" style="mask-type:alpha" maskUnits="userSpaceOnUse" x="24" y="127" width="41" height="37"><path d="M28 145.246L35.9398 131H51.8195L60 145.246L51.8195 160H35.9398L28 145.246Z" stroke="#0F5F9F" stroke-width="7"></path></mask><g mask="url(#mask1_11_19)"><rect x="21" y="103.846" width="99" height="99" transform="rotate(-28.9006 21 103.846)" fill="#D3D3D3"></rect></g><defs><clipPath id="clip0_11_19"><rect width="483" height="89" fill="white" transform="translate(159 66)"></rect></clipPath></defs></svg>