<svg fill="none" height="17" viewBox="0 0 556.17 58.98" width="155" xmlns="http://www.w3.org/2000/svg"><path class="st0" d="M80.31 6.73c0-3.83 2.51-6.41 6.42-6.41s6.41 2.58 6.41 6.41v45.53c0 3.83-2.5 6.42-6.41 6.42s-6.42-2.58-6.42-6.42V6.73zm23.61 1.09c0-5.32 2.58-7.51 8.06-7.51 2.66 0 5.01 1.02 6.42 3.36l22.45 36.22h.15V6.49c0-4.15 2.34-6.18 6.18-6.18s6.18 2.03 6.18 6.18v44.2c0 5.08-2.19 7.98-7.59 7.98-4.07 0-5.4-.86-7.04-3.44l-22.29-35.2h-.16V52.5c0 4.15-2.35 6.18-6.18 6.18-3.83 0-6.18-2.03-6.18-6.18V7.82zm69.84 4.31h-9.14c-3.68 0-6.65-1.88-6.65-5.4 0-3.52 2.97-5.4 6.65-5.4h31.12c3.68 0 6.65 1.88 6.65 5.4 0 3.52-2.97 5.4-6.65 5.4h-9.14v40.13c0 3.83-2.51 6.42-6.42 6.42s-6.42-2.58-6.42-6.42V12.13zm33.26-3.29c0-5.71 2.97-7.51 7.51-7.51h28.13c3.76 0 6.49 1.09 6.49 5.16s-2.73 5.16-6.49 5.16h-22.81v12.2h19.76c3.36 0 6.02.94 6.02 4.93s-2.66 4.93-6.02 4.93h-19.76v13.61h23.44c3.76 0 6.49 1.09 6.49 5.16s-2.74 5.16-6.49 5.16h-28.76c-4.54 0-7.51-1.8-7.51-7.51V8.84zm61.21 17.52h10.84c4.85 0 9.7-1.25 9.7-7.59 0-6.02-3.68-7.59-9.31-7.59h-11.23v15.18zM255.4 8.84c0-5.71 2.97-7.51 7.51-7.51h19.37c15.26 0 19.32 8.37 19.32 15.64 0 6.1-3.6 12.13-9.7 13.53v.16c6.57.94 7.74 5.71 7.74 11.42 0 6.49 1.72 8.92 1.72 11.58 0 2.97-3.05 5.01-6.02 5.01-7.04 0-7.59-6.81-7.59-9.07 0-9.86-1.8-13.85-8.84-13.85h-10.68v16.51c0 3.83-2.5 6.42-6.41 6.42s-6.42-2.58-6.42-6.42V8.84z" fill="#E30613"></path><path class="st1" d="M477.09 26.36h10.84c4.85 0 9.7-1.25 9.7-7.59 0-6.02-3.68-7.59-9.31-7.59h-11.23v15.18zM464.26 8.84c0-5.71 2.97-7.51 7.51-7.51h19.37c15.26 0 19.32 8.37 19.32 15.64 0 6.1-3.6 12.13-9.7 13.53v.16c6.57.94 7.74 5.71 7.74 11.42 0 6.49 1.72 8.92 1.72 11.58 0 2.97-3.05 5.01-6.02 5.01-7.04 0-7.59-6.81-7.59-9.07 0-9.86-1.8-13.85-8.84-13.85h-10.68v16.51c0 3.83-2.5 6.42-6.41 6.42s-6.42-2.58-6.42-6.42V8.84zM339.65 25.03c11.73 2.66 14.71 9.62 14.71 16.19 0 10.17-7.67 17.76-23.16 17.76-16.27 0-23.55-8.13-23.55-14.24 0-3.13 2.27-5.32 5.4-5.32 6.96 0 5.17 10.17 18.15 10.17 6.65 0 10.33-3.68 10.33-7.43 0-2.27-1.09-4.77-5.48-5.87l-14.47-3.68c-11.66-2.97-13.77-9.39-13.77-15.41 0-12.51 11.57-17.2 22.45-17.2 10.01 0 21.83 5.63 21.83 13.14 0 3.21-2.74 5.08-5.87 5.08-5.95 0-4.85-8.37-16.82-8.37-5.95 0-9.23 2.74-9.23 6.65s4.69 5.16 8.76 6.1l10.72 2.43zm33.16 2.12h9.98c5.16 0 8.99-3.13 8.99-7.98 0-5.63-3.99-7.98-10.33-7.98h-8.65v15.96zM359.98 8.84c0-5.71 2.97-7.51 7.51-7.51h17.65c10.79 0 19.48 5.32 19.48 17.84 0 10.25-7.12 17.84-19.56 17.84h-12.25v15.25c0 3.83-2.5 6.42-6.41 6.42s-6.42-2.58-6.42-6.42V8.84zm72.83 39.82c11.66 0 11.67-9.07 11.67-19.87s-1.18-18.46-11.67-18.46c-10.48 0-11.67 7.67-11.67 18.46s-.38 19.87 11.67 19.87m0-48.66c18.46 0 24.5 12.28 24.5 28.79 0 15.88-5.26 30.2-24.5 30.2-20.18 0-24.5-13.14-24.5-30.2 0-16.51 6.04-28.79 24.5-28.79m94.73 12.13h-9.14c-3.68 0-6.65-1.88-6.65-5.4 0-3.52 2.97-5.4 6.65-5.4h31.12c3.68 0 6.65 1.88 6.65 5.4 0 3.52-2.97 5.4-6.65 5.4h-9.14v40.13c0 3.83-2.51 6.42-6.42 6.42s-6.42-2.58-6.42-6.42V12.13z" fill="#164196"></path><path class="st0" d="M0 13.32C0 6.36 5.65.71 12.61.71s12.61 5.65 12.61 12.61-5.65 12.61-12.61 12.61S0 20.29 0 13.32" fill="#E30613"></path><path class="st1" d="M12.62 58.12c-1.73 0-3.12-1.52-3.12-3.4V34.05c0-1.88 1.35-3.4 3.12-3.4 19.84 0 21.41-26.85 49.92-26.85 1.73 0 3.12 1.52 3.12 3.4v20.46c0 1.88-1.4 3.4-3.12 3.4-19.43 0-20.64 27.06-49.92 27.06" fill="#164196"></path></svg>