<svg fill="none" height="65" viewBox="0 0 170 65" width="220" xmlns="http://www.w3.org/2000/svg">
<path d="M78.8809 25.1282C78.8809 32.868 73.6953 39.12 65.4212 39.12C57.147 39.12 51.9615 32.868 51.9615 25.1282C51.9615 17.3884 57.147 11.1749 65.4212 11.1749C73.6953 11.1749 78.8809 17.3884 78.8809 25.1282ZM58.4445 25.1282C58.4445 29.7408 61.0373 33.0967 65.4212 33.0967C69.8051 33.0967 72.3978 29.7408 72.3978 25.1282C72.3978 20.5156 69.8051 17.1982 65.4212 17.1982C61.0373 17.1982 58.4445 20.5156 58.4445 25.1282Z" fill="#192846"></path>
<path d="M82.5016 11.7455H95.3114C100.649 11.7455 103.509 15.4433 103.509 19.2951C103.509 22.3837 101.754 25.5471 97.9812 27.1118L105.035 38.5109H97.6393L91.8446 28.7513H88.7945V38.5109H82.5039V11.7455H82.5016ZM88.7922 17.4654V23.0698H93.9392C95.9591 23.0698 97.0279 21.5821 97.0279 20.1329C97.0279 18.7607 96.113 17.4632 94.1294 17.4632H88.7922V17.4654Z" fill="#192846"></path>
<path d="M108.273 11.7455H118.377C126.803 11.7455 130.883 17.7326 130.883 24.6323C130.883 31.8762 126.384 38.5109 117.539 38.5109H108.275V11.7455H108.273ZM114.566 17.4654V32.7932H117.31C122.306 32.7932 124.402 28.7513 124.402 24.5191C124.402 20.8983 122.763 17.4654 118.379 17.4654H114.566Z" fill="#192846"></path>
<path d="M140.985 11.7455V38.5109H134.694V11.7455H140.985Z" fill="#192846"></path>
<path d="M163.137 20.8213C162.68 18.609 160.506 17.1982 157.8 17.1982C154.444 17.1982 151.281 19.4853 151.281 25.0535C151.281 30.6217 154.408 32.9835 157.877 32.9835C160.927 32.9835 163.633 31.2285 164.245 28.2554L169.849 30.6964C168.133 36.1876 163.101 39.1223 157.648 39.1223C151.014 39.1223 144.8 34.6999 144.8 25.169C144.8 15.638 151.358 11.1771 157.877 11.1771C163.101 11.1771 167.601 13.8831 168.934 18.9554L163.14 20.8236L163.137 20.8213Z" fill="#192846"></path>
<path d="M35.1075 39.0951C33.0242 39.0951 30.9636 38.3569 29.3559 36.9303C25.7464 33.7284 24.6481 29.2019 23.6767 25.2075C23.1582 23.0698 22.6668 21.0523 21.8697 19.5102C21.641 19.0686 21.1157 18.2965 20.1691 18.0904C19.0935 17.8572 17.787 18.5342 17.1258 19.6619C16.0456 21.5119 15.0561 23.8669 14.105 26.8582C13.2921 29.417 12.0603 33.2824 9.2773 35.8774C6.37885 38.5788 2.76485 38.5358 0.124543 38.5064H0L0.0769901 31.6565H0.203797C2.38216 31.6837 3.76119 31.6565 4.61035 30.8662C6.08222 29.494 6.94949 26.7699 7.58126 24.7795C8.68856 21.3013 9.87511 18.498 11.2156 16.2064C13.3736 12.5132 17.6534 10.5341 21.6229 11.3945C24.3175 11.9787 26.625 13.788 27.9565 16.3604C29.1317 18.6339 29.7453 21.1519 30.3364 23.5884C31.1402 26.899 31.9011 30.0261 33.9051 31.8037C34.4689 32.3041 35.3158 32.3902 36.011 32.0188C36.8148 31.5908 37.5802 30.7009 38.2822 29.3785C39.6091 26.8809 40.2341 23.9507 40.8976 20.8462C41.5429 17.8209 42.2109 14.6938 43.5877 11.6821C43.633 11.5802 43.6805 11.4806 43.7281 11.3832C45.8974 6.80909 51.5494 0 58.2226 0V6.84985C55.4147 6.84985 51.5901 10.7877 49.9122 14.3202C49.8805 14.3904 49.8465 14.4605 49.8126 14.533C48.7483 16.8608 48.1867 19.4943 47.5912 22.2796C46.8598 25.7079 46.1035 29.2517 44.3259 32.5962C42.9718 35.146 41.2554 36.9869 39.2264 38.0671C37.9312 38.7577 36.5137 39.0951 35.1052 39.0951H35.1075Z" fill="#192846"></path>
<path d="M10.7356 51.5517V64.9977H9.27957V58.8499H1.75266V64.9977H0.278522V51.5517H1.75266V57.5274H9.28183V51.5517H10.7379H10.7356Z" fill="#192846"></path>
<path d="M14.1458 64.9977V51.5517H22.2682V52.8537H15.6222V57.5478H20.8326V58.8499H15.6222V63.6572H22.2682V64.9977H14.1458Z" fill="#192846"></path>
<path d="M24.8135 64.9977L30.4654 51.5517H32.3607L37.9923 64.9977H36.3642L34.9671 61.6079H27.841L26.4416 64.9977H24.8135ZM28.3188 60.3059H34.487L31.4029 52.8356L28.3188 60.3059Z" fill="#192846"></path>
<path d="M40.6349 64.9977V51.5517H42.109V63.6572H48.2569V64.9977H40.6326H40.6349Z" fill="#192846"></path>
<path d="M59.1578 51.5517V52.8537H54.7716V64.9977H53.3156V52.8537H48.9476V51.5517H59.1578Z" fill="#192846"></path>
<path d="M72.4114 51.5517V64.9977H70.9554V58.8499H63.4262V64.9977H61.9521V51.5517H63.4262V57.5274H70.9554V51.5517H72.4114Z" fill="#192846"></path>
<path d="M82.7349 51.5517H88.5975C91.24 51.5517 92.6394 53.3337 92.6394 55.2879C92.6394 57.2421 91.1653 59.2144 88.4254 59.2144H84.2113V65H82.7372V51.5539L82.7349 51.5517ZM84.209 52.8537V57.9305H88.405C90.1667 57.9305 91.1246 56.667 91.1246 55.3264C91.1246 53.9859 90.1871 52.856 88.482 52.856H84.2113L84.209 52.8537Z" fill="#192846"></path>
<path d="M92.8297 64.9977L98.4794 51.5517H100.375L106.006 64.9977H104.378L102.981 61.6079H95.8549L94.4578 64.9977H92.8297ZM96.335 60.3059H102.503L99.4191 52.8356L96.335 60.3059Z" fill="#192846"></path>
<path d="M108.651 51.5517H114.283C116.984 51.5517 118.325 53.3519 118.325 55.1906C118.325 56.7802 117.328 58.3902 115.374 58.8884L119.09 65H117.385L113.918 59.2144H110.125V65H108.651V51.5539V51.5517ZM110.125 52.8537V57.9305H114.034C115.834 57.9305 116.792 56.6285 116.792 55.3445C116.792 54.0606 115.911 52.8537 114.034 52.8537H110.125Z" fill="#192846"></path>
<path d="M131.08 51.5517V52.8537H126.694V64.9977H125.238V52.8537H120.87V51.5517H131.08Z" fill="#192846"></path>
<path d="M144.277 51.5517V64.9977H142.515L135.351 53.773V64.9977H133.877V51.5517H135.638L142.821 62.8148V51.5517H144.277Z" fill="#192846"></path>
<path d="M147.4 64.9977V51.5517H155.522V52.8537H148.876V57.5478H154.087V58.8499H148.876V63.6572H155.522V64.9977H147.4Z" fill="#192846"></path>
<path d="M158.833 51.5517H164.464C167.166 51.5517 168.506 53.3519 168.506 55.1906C168.506 56.7802 167.51 58.3902 165.556 58.8884L169.272 65H167.567L164.1 59.2144H160.307V65H158.833V51.5539V51.5517ZM160.309 52.8537V57.9305H164.218C166.018 57.9305 166.976 56.6285 166.976 55.3445C166.976 54.0606 166.095 52.8537 164.218 52.8537H160.309Z" fill="#192846"></path>
</svg>