<svg class="c-logo__full" fill="none" height="44" role="img" viewBox="0 0 428 44" width="428" xmlns="http://www.w3.org/2000/svg"><title>JLL Logo</title><path clip-rule="evenodd" d="M59.8385 8.80005H51.3286H48.6672V9.82764C49.2032 9.87989 49.64 9.93702 49.9977 10.0189C50.4192 10.115 50.7307 10.2449 50.9611 10.4414C51.6145 10.9994 51.6143 12.0326 51.614 13.8889L51.614 14.0049L51.6137 26.9553C51.6136 27.1043 51.6142 27.2569 51.6148 27.412C51.6256 30.0013 51.6394 33.3197 48.119 33.2734C46.5195 33.2525 44.8774 32.1124 44.3679 30.029H43.084C43.6269 33.52 45.4851 35.8884 49.9877 35.8884H49.9977H50.0082C53.8331 35.8884 57.2463 34.1296 57.2404 28.1518V18.0762V14.0052L57.2404 13.8893C57.2401 12.0347 57.24 11.0433 57.8933 10.4853C58.3197 10.1213 58.6726 9.9412 59.8385 9.82764V8.80005ZM72.6514 8.80032H61.4801V8.80067V9.7774V9.82791C62.6467 9.94146 62.9993 10.1216 63.4253 10.4856C63.9599 10.9422 64.0566 11.6894 64.0744 12.9608L64.0738 13.1369C64.0726 13.4759 64.0713 13.8475 64.0778 14.2559V29.7457C64.0708 30.168 64.0724 30.5507 64.0738 30.899L64.0744 31.0408C64.0566 32.3123 63.9599 33.0595 63.4253 33.5158C62.9989 33.8798 62.6464 34.0599 61.4801 34.1734V34.2239V35.2007H72.6517H72.6973H78.3603L80.1405 30.0296H78.8294C77.5319 32.8706 75.5258 33.2026 73.6959 33.2026C72.1993 33.2026 71.2036 33.1183 70.4974 32.6606C69.9277 32.2959 69.7147 31.3334 69.7046 29.7025V14.2988V14.0055L69.7046 13.8868C69.7043 12.0322 69.7041 11.0001 70.3575 10.4424C70.7838 10.0784 71.4851 9.94181 72.6514 9.82825V8.80032ZM80.0951 8.80032H91.2668V9.82825C90.1005 9.94181 89.3992 10.0784 88.9732 10.4424C88.3198 10.9998 88.32 12.0312 88.3203 13.8841L88.3203 14.0055V14.2988V29.7025C88.3301 31.3334 88.5431 32.2959 89.1124 32.6606C89.819 33.1183 90.8144 33.2026 92.3113 33.2026C94.1412 33.2026 96.1473 32.8706 97.4448 30.0296H98.7559L96.9757 35.2007H91.3124H91.2668H80.0951V34.2239V34.1734C81.2611 34.0599 81.614 33.8798 82.0403 33.5158C82.5749 33.0595 82.6713 32.3123 82.6891 31.0408L82.6886 30.9238C82.6872 30.5689 82.6857 30.178 82.6929 29.7457V14.2559C82.6858 13.8135 82.6874 13.4141 82.6887 13.0528L82.6891 12.9608C82.6717 11.6894 82.5749 10.9422 82.0403 10.4856C81.6143 10.1216 81.2614 9.94146 80.0951 9.82791V9.7774V8.80067V8.80032Z" fill="black" fill-rule="evenodd"></path><path d="M39.2385 16.2958C38.786 13.3649 37.9097 10.3724 36.537 7.68184C35.4132 5.47862 33.917 3.38791 31.9238 1.89494C30.437 0.780619 28.5729 0.0466768 26.7029 0.000348144H26.7025V0H26.7022C25.5237 0.0296085 24.3484 0.332312 23.2677 0.830431C22.5567 0.502648 21.8046 0.264735 21.0372 0.128536C20.8527 0.0957921 20.6675 0.0654874 20.482 0.045284L20.4817 0.0456321C20.2663 0.0222937 20.0501 0.00557318 19.834 0.000348144H19.8337H19.8333C18.6552 0.0296083 17.4795 0.33266 16.3992 0.83078C15.3186 0.33266 14.1432 0.0296083 12.9655 0.000348144H12.9644V0H12.9637C11.0941 0.046677 9.22929 0.78062 7.74352 1.8946C5.74996 3.38756 4.25339 5.47862 3.12958 7.68149C1.75657 10.372 0.880558 13.3646 0.428109 16.2955C0.133669 18.2047 -0.00102066 20.1188 0.000719534 21.9998H2.38405e-05C-0.00206439 23.8808 0.132973 25.7946 0.427761 27.7045C0.88021 30.6351 1.75657 33.6276 3.12923 36.3182C4.25304 38.5214 5.74961 40.6121 7.74282 42.1051C9.22929 43.2194 11.0934 43.9533 12.9637 44H12.9641C14.1425 43.9704 15.3182 43.6673 16.3985 43.1692C16.3992 43.1689 16.3996 43.1685 16.3999 43.1682C16.3992 43.1685 16.3992 43.1692 16.3985 43.1692C17.1092 43.497 17.8617 43.7346 18.6287 43.8711C18.8132 43.9039 18.9984 43.9342 19.1842 43.954C19.1846 43.954 19.1853 43.954 19.1856 43.9537C19.1849 43.9537 19.1849 43.954 19.1842 43.954C19.3996 43.9774 19.6161 43.9937 19.8323 43.9993H19.8326V43.9986H19.833C21.0111 43.9693 22.1867 43.6663 23.2667 43.1682C23.2674 43.1678 23.2684 43.1671 23.2691 43.1668C23.2684 43.1671 23.2681 43.1682 23.267 43.1685C24.3477 43.667 25.5227 43.9693 26.7004 43.9993H26.7015V43.999H26.7018C28.5711 43.9523 30.4359 43.2183 31.922 42.104C33.9156 40.6114 35.4118 38.5203 36.5356 36.3175C37.9086 33.6269 38.7847 30.634 39.2375 27.7031C39.5319 25.7935 39.6666 23.8798 39.6648 21.9988H39.6652C39.668 20.1192 39.5333 18.2054 39.2385 16.2958ZM35.8169 24.8415C35.4703 29.8663 34.1109 34.9091 31.2778 39.1191C30.0649 40.9252 28.5074 42.6718 26.6997 43.9387C26.0103 43.458 25.3612 42.9087 24.7542 42.3141C24.7539 42.3141 24.7539 42.3141 24.7539 42.3141C24.7539 42.3141 24.7542 42.3141 24.7542 42.3137C24.8541 42.244 24.9571 42.1782 25.0542 42.1051C27.0474 40.6121 28.5433 38.521 29.6678 36.3182C31.0405 33.628 31.9165 30.6351 32.3693 27.7042C32.6637 25.7946 32.7988 23.8808 32.7963 21.9998H32.797C32.7991 20.1188 32.6641 18.2051 32.3696 16.2955C31.9172 13.3646 31.0408 10.3724 29.6685 7.68149C28.6303 5.64687 27.2691 3.71395 25.498 2.25338C24.9286 2.86297 24.4009 3.51053 23.9165 4.1755C24.0863 4.40888 24.2513 4.64401 24.411 4.88053C27.243 9.09121 28.6025 14.1341 28.9484 19.1588C29.0131 20.1007 29.0438 21.0496 29.0448 21.9995C29.0438 22.9501 29.0131 23.8986 28.9484 24.8405C28.6018 29.8652 27.2427 34.9084 24.41 39.1184C24.0567 39.6444 23.6739 40.1617 23.2677 40.665C22.8045 41.2394 22.3103 41.7947 21.7813 42.313C21.2185 42.8644 20.6178 43.373 19.984 43.8279C19.9415 43.8586 19.8824 43.9039 19.8333 43.9397C19.8023 43.9181 19.772 43.8934 19.7407 43.8711C19.5528 43.7381 19.3666 43.6012 19.1853 43.4587C18.7328 43.1023 18.2995 42.7185 17.886 42.3137C17.8857 42.3137 17.8857 42.3137 17.8853 42.3134C17.8853 42.3134 17.8857 42.3134 17.8857 42.313C17.9856 42.2437 18.0889 42.1775 18.1857 42.1047C18.7801 41.6599 19.3245 41.1572 19.8333 40.6187C19.834 40.618 19.8347 40.617 19.8354 40.6163C19.8347 40.617 19.8343 40.6184 19.8333 40.6191C20.212 41.0189 20.6133 41.3958 21.0382 41.7459C21.6076 41.1363 22.1349 40.4888 22.6193 39.8235C22.4495 39.5904 22.2842 39.3553 22.1255 39.1184C21.9511 38.8593 21.7987 38.5872 21.6354 38.3218H21.6351L21.6354 38.3214C22.0604 37.6728 22.4502 37.0023 22.7996 36.3175C24.1723 33.6273 25.0487 30.6344 25.5011 27.7035C25.7955 25.7939 25.9302 23.8801 25.9285 21.9991C25.9306 20.1181 25.7955 18.2044 25.5011 16.2948C25.049 13.3639 24.1719 10.3717 22.7996 7.6808C22.6406 7.36869 22.4714 7.05971 22.2971 6.75318C21.5655 8.09462 20.9689 9.50259 20.482 10.9499C21.372 13.5973 21.8881 16.378 22.0795 19.1578C22.1443 20.0997 22.1693 21.0489 22.1704 21.9988H22.1669C22.1662 22.949 22.1439 23.8983 22.0792 24.8398C21.8457 28.2343 21.1343 31.6313 19.8333 34.7806C19.3276 36.005 18.7286 37.1883 18.0315 38.3207C17.8683 38.5865 17.7158 38.8582 17.5415 39.1177C17.1879 39.6437 16.805 40.161 16.3992 40.6643C15.9356 41.2387 15.4414 41.7943 14.912 42.3123C14.3496 42.8637 13.7486 43.3726 13.1148 43.8272C13.0643 43.8638 13.0156 43.9032 12.9644 43.939C11.1459 42.6708 9.60761 40.9326 8.38808 39.1181C5.55575 34.9077 4.19597 29.8645 3.85002 24.8398C3.78528 23.8979 3.75465 22.949 3.75361 21.9988C3.75465 21.0482 3.78528 20.0997 3.85002 19.1578C4.19666 14.1334 5.5561 9.09016 8.38878 4.87983C9.60447 3.06988 11.1557 1.3289 12.9683 0.0613066C13.6574 0.542358 14.3061 1.09099 14.9127 1.6849C14.8129 1.75457 14.7098 1.82075 14.6127 1.89355C12.6195 3.38652 11.1233 5.47723 9.9995 7.68045C8.62649 10.371 7.75048 13.3635 7.29768 16.2944C7.00324 18.204 6.8682 20.1178 6.87064 21.9988H6.86994C6.8682 23.8801 7.00289 25.7935 7.29733 27.7031C7.74978 30.6337 8.62649 33.6266 9.9988 36.3171C11.037 38.3517 12.3982 40.2847 14.1693 41.7452C14.7387 41.1353 15.2664 40.4881 15.7512 39.8228C15.5813 39.5897 15.416 39.3543 15.2566 39.1177C12.4246 34.9074 11.0652 29.8645 10.7189 24.8395C10.6542 23.8979 10.6235 22.9487 10.6225 21.9988C10.6235 21.0482 10.6542 20.0997 10.7189 19.1578C11.0655 14.133 12.4246 9.09016 15.2573 4.87983C15.6106 4.35385 15.9934 3.83692 16.3996 3.33357C16.8628 2.75917 17.357 2.20427 17.886 1.6856C18.4488 1.13418 19.0495 0.625611 19.6833 0.170685C19.7292 0.137593 19.786 0.0940499 19.8343 0.0592164C19.8657 0.0811615 19.8956 0.105546 19.9266 0.127839H19.9269C20.1145 0.260903 20.3007 0.39745 20.4824 0.540268C20.9348 0.896267 21.3678 1.28013 21.7813 1.68525C21.681 1.75457 21.5784 1.8211 21.4813 1.89355C20.8872 2.33803 20.3425 2.84102 19.8337 3.3792C19.4553 2.97931 19.054 2.60276 18.6291 2.25234C18.0597 2.86192 17.5324 3.50948 17.048 4.1748C17.2178 4.40784 17.3828 4.64296 17.5418 4.87948C17.7162 5.13865 17.8686 5.4107 18.0319 5.67613C17.6069 6.32473 17.2171 6.99562 16.8677 7.6801C15.4954 10.3706 14.6187 13.3632 14.1662 16.2941C13.8718 18.2037 13.7371 20.1174 13.7388 21.9984H13.7385C13.7364 23.8798 13.8714 25.7932 14.1659 27.7028C14.618 30.6333 15.495 33.6262 16.8673 36.3168C17.0264 36.6289 17.1955 36.9375 17.3699 37.2444C18.1015 35.9029 18.698 34.4953 19.1849 33.0476C18.295 30.3999 17.7788 27.6199 17.5874 24.8398C17.5227 23.8979 17.4976 22.9487 17.4966 21.9988H17.5001C17.5008 21.0485 17.523 20.0993 17.5878 19.1578C17.8216 15.7629 18.5327 12.3663 19.8333 9.21696C20.339 7.99221 20.938 6.80891 21.6354 5.67648C21.7987 5.4107 21.9508 5.13899 22.1255 4.87983C22.4791 4.35385 22.8619 3.83692 23.2677 3.33357C23.731 2.75917 24.2255 2.20392 24.7549 1.68525C25.3173 1.13383 25.9184 0.625262 26.5522 0.170336C26.596 0.138985 26.6559 0.0950957 26.705 0.0602622C28.5224 1.3289 30.0597 3.0657 31.2792 4.87948C34.1115 9.08981 35.4713 14.133 35.8173 19.1578C35.8817 20.0997 35.9123 21.0485 35.9137 21.9988C35.9123 22.9511 35.8813 23.8993 35.8169 24.8415Z" fill="#DE0614"></path><path clip-rule="evenodd" d="M125.635 29.6773C124.596 29.6773 123.635 29.4779 122.747 29.0791C121.86 28.6802 121.093 28.15 120.445 27.4868L121.573 26.177C122.1 26.7345 122.72 27.1816 123.434 27.52C124.148 27.8584 124.889 28.0276 125.656 28.0276C126.634 28.0276 127.393 27.8055 127.935 27.3614C128.477 26.9173 128.747 26.3342 128.747 25.612C128.747 25.0999 128.638 24.6936 128.419 24.3929C128.201 24.0923 127.908 23.8355 127.539 23.6255C127.171 23.4155 126.753 23.204 126.288 22.994L124.167 22.068C123.701 21.8731 123.239 21.6163 122.78 21.3006C122.321 20.9848 121.938 20.5785 121.63 20.0815C121.322 19.5844 121.168 18.9756 121.168 18.252C121.168 17.4997 121.368 16.8259 121.766 16.2307C122.165 15.6355 122.717 15.1687 123.425 14.8303C124.131 14.492 124.928 14.3228 125.816 14.3228C126.703 14.3228 127.523 14.492 128.275 14.8303C129.026 15.1687 129.666 15.6099 130.191 16.1507L129.176 17.3698C128.724 16.9332 128.223 16.5903 127.675 16.3425C127.126 16.0948 126.505 15.9694 125.814 15.9694C124.987 15.9694 124.321 16.1658 123.817 16.557C123.313 16.9483 123.061 17.4755 123.061 18.1372C123.061 18.604 123.185 18.9923 123.434 19.3004C123.681 19.6086 123.994 19.8609 124.37 20.0573C124.746 20.2537 125.129 20.4334 125.52 20.5996L127.618 21.503C128.19 21.7432 128.705 22.0333 129.164 22.3716C129.622 22.71 129.986 23.124 130.258 23.6134C130.528 24.1029 130.664 24.7162 130.664 25.4534C130.664 26.236 130.46 26.9475 130.054 27.5865C129.648 28.227 129.068 28.7346 128.317 29.1108C127.567 29.49 126.672 29.6773 125.635 29.6773ZM139.983 29.4038V14.5931H148.511V16.1733H141.856V20.8247H147.474V22.4275H141.856V27.801H148.737V29.4038H139.983ZM158.279 14.5931V29.4038H167.034V27.801H160.153V22.4275H165.771V20.8247H160.153V16.1733H166.807V14.5931H158.279ZM185.535 29.4068L190.543 14.5931H192.663L197.672 29.4068H195.664L194.265 24.8914H188.873L187.451 29.4068H185.535ZM190.046 21.1193L189.347 23.3777H193.792L193.094 21.1193C192.823 20.2914 192.567 19.4681 192.327 18.6463C192.087 17.826 191.845 16.986 191.605 16.128H191.515C191.29 16.986 191.056 17.826 190.816 18.6463C190.573 19.4681 190.318 20.2914 190.046 21.1193ZM217.097 14.5931V29.4068H221.814C222.926 29.4068 223.904 29.2482 224.747 28.9325C225.589 28.6152 226.247 28.1333 226.721 27.4868C227.195 26.8402 227.432 26.035 227.432 25.0712C227.432 24.0485 227.15 23.2433 226.585 22.6556C226.021 22.068 225.295 21.6918 224.407 21.5256V21.435C225.115 21.2084 225.652 20.799 226.021 20.2038C226.389 19.6086 226.573 18.9424 226.573 18.2052C226.573 17.332 226.359 16.6325 225.93 16.1053C225.501 15.5796 224.907 15.1959 224.147 14.9542C223.388 14.714 222.504 14.5931 221.497 14.5931H217.097ZM221.157 20.8942H218.969V16.0826H221.248C222.406 16.0826 223.274 16.2639 223.853 16.625C224.433 16.986 224.723 17.5964 224.723 18.4544C224.723 19.2082 224.445 19.8019 223.888 20.2385C223.331 20.6766 222.421 20.8942 221.157 20.8942ZM221.541 27.9158H218.969V22.3384H221.541C222.834 22.3384 223.832 22.5529 224.531 22.9819C225.23 23.411 225.58 24.0847 225.58 25.0032C225.58 25.9957 225.225 26.7299 224.519 27.2043C223.811 27.6786 222.819 27.9158 221.541 27.9158ZM236.771 29.4068V14.5931H241.395C242.402 14.5931 243.299 14.7261 244.081 14.9889C244.862 15.2533 245.475 15.6884 245.919 16.2987C246.363 16.909 246.585 17.7248 246.585 18.749C246.585 19.8926 246.283 20.8156 245.682 21.515C245.08 22.2145 244.268 22.6934 243.246 22.9487L247.013 29.4068H244.893L241.328 23.1526H238.642V29.4068H236.771ZM238.644 21.6163H241.125C242.283 21.6163 243.17 21.3791 243.788 20.9047C244.404 20.4304 244.713 19.7113 244.713 18.7475C244.713 17.7686 244.404 17.0842 243.788 16.693C243.17 16.3017 242.283 16.1053 241.125 16.1053H238.644V21.6163ZM256.016 14.5931V29.4068H257.889V14.5931H256.016ZM274.176 29.6773C272.883 29.6773 271.732 29.3721 270.724 28.7633C269.716 28.153 268.927 27.2768 268.354 26.1332C267.782 24.9896 267.497 23.6119 267.497 22.0015C267.497 20.4063 267.791 19.0361 268.377 17.891C268.964 16.7474 269.769 15.8667 270.791 15.2488C271.814 14.6324 272.979 14.3228 274.288 14.3228C275.311 14.3228 276.172 14.5146 276.87 14.8983C277.569 15.282 278.129 15.7005 278.552 16.1522L277.513 17.3713C277.138 16.98 276.701 16.6492 276.205 16.3773C275.708 16.1069 275.085 15.9709 274.332 15.9709C273.338 15.9709 272.474 16.2156 271.737 16.7051C271 17.1946 270.431 17.8834 270.033 18.7717C269.634 19.66 269.435 20.7205 269.435 21.9562C269.435 23.8234 269.861 25.3024 270.711 26.3931C271.56 27.4838 272.775 28.0306 274.354 28.0306C274.881 28.0306 275.384 27.9521 275.865 27.7935C276.347 27.6364 276.73 27.4203 277.015 27.1499V23.2886H273.879V21.7311H278.73V27.9627C278.264 28.4597 277.636 28.8691 276.846 29.1939C276.06 29.5156 275.169 29.6773 274.176 29.6773ZM288.683 14.5931V29.4068H290.556V22.429H297.437V29.4068H299.333V14.5931H297.437V20.8035H290.556V14.5931H288.683ZM312.869 29.4069V16.1748H308.401V14.5947H319.231V16.1748H314.763V29.4069H312.869ZM328.3 14.5931V29.4038H337.054V27.801H330.173V22.4275H335.791V20.8247H330.173V16.1733H336.828V14.5931H328.3ZM346.598 29.4068V14.5931H351.223C352.23 14.5931 353.126 14.7261 353.908 14.9889C354.69 15.2533 355.303 15.6884 355.746 16.2987C356.19 16.909 356.412 17.7248 356.412 18.749C356.412 19.8926 356.11 20.8156 355.509 21.515C354.907 22.2145 354.095 22.6934 353.073 22.9487L356.841 29.4068H354.72L351.155 23.1526H348.47V29.4068H346.598ZM348.47 21.6163H350.951C352.109 21.6163 352.996 21.3791 353.614 20.9047C354.229 20.4304 354.539 19.7113 354.539 18.7475C354.539 17.7686 354.229 17.0842 353.614 16.693C352.996 16.3017 352.109 16.1053 350.951 16.1053H348.47V21.6163ZM375.249 14.5932L378.386 29.4054H380.617L382.805 20.4863C382.926 19.9138 383.053 19.3533 383.189 18.8034C383.323 18.2535 383.444 17.6931 383.549 17.1205H383.64C383.761 17.6931 383.877 18.2535 383.99 18.8034C384.103 19.3533 384.227 19.9138 384.363 20.4863L386.597 29.4054H388.853L391.922 14.5916H390.117L388.561 22.6526C388.41 23.4352 388.268 24.2298 388.132 25.035C388.096 25.2485 388.06 25.4618 388.024 25.6748L388.009 25.7628L388.005 25.7875C387.912 26.3401 387.819 26.8911 387.726 27.44H387.635C387.498 26.8354 387.362 26.2283 387.225 25.6193L387.093 25.035C386.912 24.2298 386.733 23.4352 386.552 22.6526L384.499 14.5916H382.784L380.731 22.6526C380.565 23.4352 380.393 24.2298 380.212 25.035C380.031 25.8402 379.859 26.6423 379.693 27.44H379.602C379.466 26.6423 379.323 25.8447 379.174 25.047C379.023 24.2494 378.881 23.4518 378.745 22.6541L377.189 14.5932H375.249ZM398.939 29.4068L403.947 14.5931H406.068L411.076 29.4068H409.069L407.669 24.8914H402.278L400.856 29.4068H398.939ZM403.452 21.1193L402.753 23.3777H407.199L406.5 21.1193C406.229 20.2914 405.973 19.4681 405.733 18.6463C405.493 17.826 405.251 16.986 405.011 16.128H404.921C404.696 16.986 404.462 17.826 404.222 18.6463C403.977 19.4681 403.722 20.2914 403.452 21.1193ZM421.658 23.6708V29.4068H423.554V23.6708L427.999 14.5931H426.036L424.14 18.7701C423.915 19.3125 423.673 19.8457 423.418 20.373C423.163 20.9002 422.907 21.441 422.651 21.9985H422.561C422.319 21.4425 422.082 20.9002 421.85 20.373L421.665 19.9565C421.491 19.5652 421.316 19.1701 421.139 18.7701L419.221 14.5931H417.213L421.658 23.6708Z" fill="black" fill-rule="evenodd"></path></svg>