<svg width="760" height="150" xmlns="http://www.w3.org/2000/svg" xml:space="preserve" version="1.1">
 <defs>
    <style>
      .st0 {
        fill: #b48cbf;
      }

      .st1 {
        fill: #ffe366;
      }

      .st2 {
        fill: #000f9f;
      }

      .st3, .st4, .st5 {
        fill: #1d1d1b;
      }

      .st6 {
        fill: #3a8dde;
      }

      .st7 {
        fill: #fff;
      }

      .st8 {
        fill: #e1251b;
      }

      .st9 {
        fill: #00684e;
      }

      .st10, .st4 {
        display: none;
      }

      .st11 {
        fill: #3dae2b;
      }

      .st5 {
        stroke: #1d1d1b;
        stroke-miterlimit: 10;
        stroke-width: .15px;
      }
    </style>
  </defs>
 <g>
  <title>Layer 1</title>
    <g transform="translate(-0,-270.38)">
    <path class="st3" d="M719.68,312.18l-25.09-40.61h15.53l16.13,28.07,16.12-28.07h15.53l-25.09,40.61v29.26h-13.14v-29.26ZM646.82,271.57h42.41v10.75h-29.26v18.51h25.08v10.75h-25.08v19.11h29.86v10.75h-43v-69.87ZM594.26,271.57h13.74v59.13h27.47v10.75h-41.21v-69.87ZM534.54,330.7h11.35c12.54,0,21.5-9.56,21.5-23.89s-8.96-23.89-21.5-23.89h-11.35v47.78ZM521.41,271.57h25.08c18.27-.55,33.51,13.81,34.06,32.08.03.85.02,1.7-.02,2.56.87,18.25-13.23,33.75-31.48,34.61-.85.04-1.71.05-2.56.02h-25.08v-69.28ZM464.07,271.57h42.41v10.75h-29.26v18.51h25.08v10.75h-25.08v19.11h29.86v10.75h-43v-69.87ZM378.07,271.57h11.35l22.7,31.06,22.1-31.06h11.94v69.87h-12.54v-48.38l-17.32,24.49h-8.36l-17.32-24.49v48.38h-12.54v-69.87ZM318.95,325.92c5.8,4.03,12.65,6.31,19.7,6.57,7.77,0,13.14-4.18,13.14-10.15,0-14.34-34.04-7.17-34.04-31.66,0-11.94,10.15-20.3,25.09-20.3,6.34.03,12.62,1.25,18.51,3.58v11.94c-5.36-3.4-11.56-5.26-17.92-5.37-7.17,0-12.54,3.58-12.54,9.55,0,13.74,34.04,7.17,34.04,31.65,0,12.54-10.75,20.9-25.08,20.9-7.03-.16-13.95-1.79-20.31-4.78v-11.94h-.6ZM219.21,271.57h11.35l35.23,48.37v-48.37h12.54v69.87h-11.95l-34.64-48.38v48.38h-12.54v-69.87ZM142.17,271.57h13.14v29.26h32.25v-29.26h13.73v69.87h-13.73v-29.86h-32.25v29.86h-13.14v-69.87ZM94.39,331.29c11.94,0,20.3-10.15,20.3-25.08s-8.36-25.09-20.3-25.09-20.31,10.15-20.31,25.09,8.36,25.08,20.31,25.08M94.39,270.38c19.7,0,34.04,14.93,34.04,36.43s-14.34,36.43-34.04,36.43-34.04-14.93-34.04-36.43,14.34-36.43,34.04-36.43M47.21,321.74c.3,11.28-8.6,20.66-19.87,20.96-.74.02-1.49,0-2.23-.06-4.91-.19-9.76-1.19-14.33-2.99v-11.34c3.4,2.09,7.35,3.13,11.34,2.98,6.07.2,11.15-4.55,11.35-10.62,0-.24,0-.49,0-.73v-48.37h13.74v50.17Z"/>
   
  </g>
  <g transform="translate(5,-270.38)">
    <path class="st3" d="M198.71,390.88h-.08l-3.43,19.42h-3.78l6.01-30.65,10.1,23.17,10.1-23.17,6.01,30.65h-3.78l-3.43-19.42h-.08l-8.81,20.05-8.81-20.05Z"/>
    <path class="st3" d="M234.47,402.93l-3.35,7.37h-3.94l14.04-30.65,14.04,30.65h-3.94l-3.35-7.37h-13.49ZM241.22,387.69l-5.23,11.9h10.45l-5.23-11.9Z"/>
    <path class="st3" d="M259.72,380.9h6.08c2.26,0,4.39.3,6.38.9,1.99.6,3.74,1.5,5.25,2.71,1.51,1.21,2.7,2.72,3.57,4.54.87,1.82,1.31,3.95,1.31,6.4s-.43,4.68-1.29,6.55-2.03,3.42-3.53,4.64c-1.5,1.22-3.26,2.14-5.28,2.75-2.03.61-4.2.92-6.51.92h-5.97v-29.41ZM263.39,406.95h1.29c1.87,0,3.65-.19,5.34-.57,1.69-.38,3.17-1.01,4.45-1.89s2.29-2.05,3.04-3.51c.75-1.46,1.13-3.25,1.13-5.38s-.38-3.93-1.13-5.38c-.75-1.46-1.77-2.63-3.04-3.51s-2.76-1.51-4.45-1.89c-1.69-.38-3.47-.57-5.34-.57h-1.29v22.7Z"/>
    <path class="st3" d="M288.37,380.9h15.79v3.35h-12.13v8.23h11.78v3.35h-11.78v11.12h12.13v3.35h-15.79v-29.41Z"/>
    <path class="st3" d="M329.35,410.31h-3.67v-29.41h3.67v29.41Z"/>
    <path class="st3" d="M336.85,379.5l22.07,23.13v-21.72h3.67v30.62l-22.07-23.13v21.92h-3.67v-30.81Z"/>
    <path class="st3" d="M384.94,380.9h15.79v3.35h-12.13v8.23h11.78v3.35h-11.78v11.12h12.13v3.35h-15.79v-29.41Z"/>
    <path class="st3" d="M406.81,379.5l22.07,23.13v-21.72h3.67v30.62l-22.07-23.13v21.92h-3.67v-30.81Z"/>
    <path class="st3" d="M467.12,395.49v1.17c0,2.03-.34,3.91-1.01,5.64-.68,1.73-1.63,3.24-2.87,4.52-1.24,1.29-2.7,2.29-4.41,3.02-1.7.73-3.58,1.09-5.64,1.09s-3.98-.41-5.79-1.23c-1.81-.82-3.38-1.93-4.72-3.33-1.34-1.4-2.4-3.03-3.18-4.88-.78-1.85-1.17-3.78-1.17-5.81s.4-4.09,1.19-5.97,1.88-3.51,3.26-4.91c1.38-1.4,3-2.51,4.86-3.32,1.86-.81,3.84-1.21,5.95-1.21,2.29,0,4.49.49,6.61,1.48,2.12.99,3.91,2.39,5.36,4.21l-2.57,2.46c-1.07-1.43-2.42-2.59-4.08-3.47-1.65-.88-3.37-1.33-5.17-1.33-1.64,0-3.17.31-4.6.94-1.43.62-2.67,1.48-3.72,2.55-1.05,1.08-1.89,2.35-2.5,3.8s-.92,3-.92,4.64c0,1.53.3,3.02.9,4.47.6,1.44,1.41,2.72,2.44,3.84,1.03,1.12,2.24,2.01,3.63,2.69,1.39.68,2.88,1.01,4.47,1.01,1.14,0,2.28-.23,3.41-.68,1.13-.46,2.15-1.08,3.06-1.87.91-.79,1.65-1.72,2.22-2.79.57-1.07.88-2.2.94-3.39h-7.6v-3.35h11.66Z"/>
    <path class="st3" d="M476.6,406.95h8.93v3.35h-12.6v-29.41h3.67v26.05Z"/>
    <path class="st3" d="M495.94,402.93l-3.35,7.37h-3.94l14.04-30.65,14.04,30.65h-3.94l-3.35-7.37h-13.49ZM502.68,387.69l-5.23,11.9h10.45l-5.23-11.9Z"/>
    <path class="st3" d="M521.18,379.5l22.07,23.13v-21.72h3.67v30.62l-22.07-23.13v21.92h-3.67v-30.81Z"/>
    <path class="st3" d="M554.33,380.9h6.08c2.26,0,4.39.3,6.38.9,1.99.6,3.74,1.5,5.25,2.71,1.51,1.21,2.7,2.72,3.57,4.54.87,1.82,1.31,3.95,1.31,6.4s-.43,4.68-1.29,6.55-2.03,3.42-3.53,4.64c-1.5,1.22-3.26,2.14-5.28,2.75-2.03.61-4.2.92-6.51.92h-5.97v-29.41ZM558,406.95h1.29c1.87,0,3.65-.19,5.34-.57,1.69-.38,3.17-1.01,4.45-1.89s2.29-2.05,3.04-3.51c.75-1.46,1.13-3.25,1.13-5.38s-.38-3.93-1.13-5.38c-.75-1.46-1.77-2.63-3.04-3.51s-2.76-1.51-4.45-1.89c-1.69-.38-3.47-.57-5.34-.57h-1.29v22.7Z"/>
  </g>
 </g>
</svg>