<svg xmlns="http://www.w3.org/2000/svg" xmlns:xlink="http://www.w3.org/1999/xlink" width="2835" zoomAndPan="magnify" viewBox="0 0 2126.25 1622.999934" height="2164" preserveAspectRatio="xMidYMid meet" version="1.0"><defs><clipPath id="4cedaea63c"><path d="M 273.121094 491.792969 L 781.902344 491.792969 L 781.902344 1032 L 273.121094 1032 Z M 273.121094 491.792969 " clip-rule="nonzero"/></clipPath><clipPath id="97b98b9bb4"><path d="M 348.84375 491.792969 L 706.179688 491.792969 C 726.261719 491.792969 745.523438 499.773438 759.722656 513.972656 C 773.925781 528.175781 781.902344 547.433594 781.902344 567.515625 L 781.902344 955.390625 C 781.902344 975.472656 773.925781 994.734375 759.722656 1008.933594 C 745.523438 1023.136719 726.261719 1031.113281 706.179688 1031.113281 L 348.84375 1031.113281 C 328.761719 1031.113281 309.5 1023.136719 295.300781 1008.933594 C 281.097656 994.734375 273.121094 975.472656 273.121094 955.390625 L 273.121094 567.515625 C 273.121094 547.433594 281.097656 528.175781 295.300781 513.972656 C 309.5 499.773438 328.761719 491.792969 348.84375 491.792969 Z M 348.84375 491.792969 " clip-rule="nonzero"/></clipPath><clipPath id="5a15f9b98b"><path d="M 0.121094 0.792969 L 508.902344 0.792969 L 508.902344 540 L 0.121094 540 Z M 0.121094 0.792969 " clip-rule="nonzero"/></clipPath><clipPath id="497cbdb26f"><path d="M 75.84375 0.792969 L 433.179688 0.792969 C 453.261719 0.792969 472.523438 8.773438 486.722656 22.972656 C 500.925781 37.175781 508.902344 56.433594 508.902344 76.515625 L 508.902344 464.390625 C 508.902344 484.472656 500.925781 503.734375 486.722656 517.933594 C 472.523438 532.136719 453.261719 540.113281 433.179688 540.113281 L 75.84375 540.113281 C 55.761719 540.113281 36.5 532.136719 22.300781 517.933594 C 8.097656 503.734375 0.121094 484.472656 0.121094 464.390625 L 0.121094 76.515625 C 0.121094 56.433594 8.097656 37.175781 22.300781 22.972656 C 36.5 8.773438 55.761719 0.792969 75.84375 0.792969 Z M 75.84375 0.792969 " clip-rule="nonzero"/></clipPath><clipPath id="655470b8d0"><rect x="0" width="509" y="0" height="541"/></clipPath></defs><path fill="#e5007d" d="M 1728.457031 260.476562 L 1915.265625 963.667969 C 1925.886719 1003.339844 1902.144531 1044.261719 1862.46875 1054.570312 L 513.261719 1412.882812 C 473.589844 1423.503906 432.664062 1399.761719 422.355469 1360.089844 L 235.546875 656.898438 C 224.925781 617.226562 248.667969 576.304688 288.339844 565.996094 L 1637.550781 207.371094 C 1677.222656 196.75 1718.144531 220.492188 1728.457031 260.476562 Z M 1728.457031 260.476562 " fill-opacity="1" fill-rule="nonzero"/><path fill="#ffed00" d="M 1751.882812 471.027344 L 1751.882812 1198.585938 C 1751.882812 1239.820312 1718.457031 1272.933594 1677.535156 1272.933594 L 281.46875 1272.933594 C 240.234375 1272.933594 207.117188 1239.507812 207.117188 1198.585938 L 207.117188 471.027344 C 207.117188 429.792969 240.542969 396.679688 281.46875 396.679688 L 1677.535156 396.679688 C 1718.457031 396.367188 1751.882812 429.792969 1751.882812 471.027344 Z M 1751.882812 471.027344 " fill-opacity="1" fill-rule="nonzero"/><path fill="#e5007d" d="M 607.285156 542.253906 L 751.296875 542.253906 L 669.761719 848.082031 L 525.4375 848.082031 Z M 607.285156 542.253906 " fill-opacity="1" fill-rule="nonzero"/><path fill="#e5007d" d="M 394.234375 701.882812 L 539.496094 701.882812 L 457.027344 1007.714844 L 352.6875 854.953125 Z M 394.234375 701.882812 " fill-opacity="1" fill-rule="nonzero"/><path fill="#e5007d" d="M 793.160156 664.710938 C 793.160156 661.898438 793.785156 659.710938 794.722656 657.210938 C 795.660156 654.714844 797.222656 652.839844 798.785156 650.964844 C 800.65625 649.089844 802.53125 647.839844 805.03125 646.902344 C 807.53125 645.964844 809.714844 645.339844 812.527344 645.339844 C 815.339844 645.339844 817.527344 645.964844 820.027344 646.902344 C 822.523438 647.839844 824.398438 649.402344 826.273438 650.964844 C 828.148438 652.839844 829.398438 654.714844 830.335938 657.210938 C 831.273438 659.710938 831.894531 662.210938 831.894531 664.710938 C 831.894531 667.210938 831.273438 669.707031 830.335938 672.207031 C 829.398438 674.707031 827.835938 676.582031 826.273438 678.453125 C 824.710938 680.328125 822.523438 681.578125 820.027344 682.515625 C 817.527344 683.453125 815.339844 684.078125 812.527344 684.078125 C 809.714844 684.078125 807.53125 683.453125 805.03125 682.515625 C 802.53125 681.578125 800.65625 680.015625 798.785156 678.453125 C 796.910156 676.582031 795.660156 674.707031 794.722656 672.207031 C 793.472656 670.019531 793.160156 667.519531 793.160156 664.710938 Z M 829.710938 702.195312 L 829.710938 847.769531 L 795.347656 847.769531 L 795.347656 702.195312 Z M 829.710938 702.195312 " fill-opacity="1" fill-rule="nonzero"/><path fill="#e5007d" d="M 885.625 702.195312 L 885.625 756.863281 C 885.625 768.734375 891.5625 774.984375 903.117188 774.984375 C 914.675781 774.984375 920.613281 769.046875 920.613281 756.863281 L 920.613281 702.195312 L 954.976562 702.195312 L 954.976562 763.425781 C 954.976562 776.546875 950.601562 786.542969 942.167969 793.101562 C 933.421875 799.660156 920.613281 803.097656 903.429688 803.097656 C 886.25 803.097656 873.441406 799.972656 864.695312 793.414062 C 855.949219 786.855469 851.574219 776.859375 851.574219 763.738281 L 851.574219 702.507812 Z M 885.625 702.195312 " fill-opacity="1" fill-rule="nonzero"/><path fill="#e5007d" d="M 976.53125 702.195312 L 1010.894531 702.195312 L 1010.894531 714.378906 C 1015.578125 708.757812 1020.265625 705.007812 1024.949219 702.820312 C 1029.636719 700.945312 1035.257812 700.011719 1041.820312 700.011719 C 1048.691406 700.011719 1054.316406 701.257812 1059.3125 703.445312 C 1064.3125 705.632812 1068.375 708.757812 1071.808594 712.816406 C 1074.621094 716.253906 1076.496094 719.691406 1077.433594 723.75 C 1078.371094 727.8125 1078.996094 732.5 1078.996094 737.496094 L 1078.996094 799.351562 L 1044.632812 799.351562 L 1044.632812 750.304688 C 1044.632812 745.617188 1044.320312 741.558594 1043.695312 738.746094 C 1043.070312 735.933594 1041.820312 733.433594 1039.945312 731.5625 C 1038.382812 730 1036.820312 729.0625 1034.949219 728.4375 C 1033.074219 727.8125 1031.199219 727.5 1029.011719 727.5 C 1023.078125 727.5 1018.703125 729.375 1015.578125 732.8125 C 1012.457031 736.246094 1010.894531 741.246094 1010.894531 747.804688 L 1010.894531 799.660156 L 976.53125 799.660156 Z M 976.53125 702.195312 " fill-opacity="1" fill-rule="nonzero"/><path fill="#e5007d" d="M 1209.261719 702.195312 L 1209.261719 792.789062 C 1209.261719 798.101562 1208.949219 803.097656 1208.328125 807.472656 C 1207.699219 811.84375 1206.765625 815.59375 1205.515625 818.71875 C 1203.953125 822.777344 1201.765625 826.839844 1198.328125 830.277344 C 1195.207031 833.710938 1191.144531 836.835938 1186.769531 839.648438 C 1182.085938 842.460938 1177.085938 844.335938 1171.464844 845.894531 C 1165.839844 847.457031 1159.59375 848.082031 1152.71875 848.082031 C 1145.222656 848.082031 1138.351562 847.144531 1131.789062 845.269531 C 1125.542969 843.398438 1119.917969 840.585938 1115.234375 837.460938 C 1110.546875 834.023438 1106.488281 830.277344 1103.675781 825.589844 C 1100.550781 821.214844 1098.675781 816.21875 1097.742188 810.90625 L 1136.476562 810.90625 C 1138.976562 817.46875 1144.285156 820.59375 1152.71875 820.59375 C 1159.90625 820.59375 1165.527344 818.71875 1169.277344 814.65625 C 1173.027344 810.597656 1175.210938 804.972656 1175.210938 797.789062 L 1175.210938 788.414062 C 1172.714844 790.914062 1170.214844 792.789062 1168.027344 794.351562 C 1165.527344 795.914062 1163.34375 797.164062 1160.84375 798.101562 C 1158.34375 799.039062 1155.84375 799.972656 1153.34375 800.285156 C 1150.847656 800.597656 1147.722656 800.910156 1144.597656 800.910156 C 1137.726562 800.910156 1131.164062 799.660156 1125.542969 797.476562 C 1119.605469 794.976562 1114.609375 791.851562 1110.546875 787.480469 C 1106.175781 783.105469 1103.050781 778.105469 1100.550781 772.171875 C 1098.050781 766.238281 1097.113281 759.363281 1097.113281 752.179688 C 1097.113281 744.992188 1098.363281 737.808594 1100.863281 731.5625 C 1103.363281 725.3125 1106.800781 719.691406 1111.171875 715.003906 C 1115.546875 710.320312 1120.542969 706.570312 1126.792969 703.757812 C 1133.039062 700.945312 1139.289062 699.699219 1146.472656 699.699219 C 1158.03125 699.699219 1167.714844 704.070312 1175.523438 712.503906 L 1175.523438 702.195312 Z M 1132.414062 750.304688 C 1132.414062 753.429688 1133.039062 756.238281 1133.976562 759.050781 C 1135.226562 761.863281 1136.789062 764.050781 1138.664062 766.238281 C 1140.539062 768.421875 1143.035156 769.671875 1145.535156 770.921875 C 1148.347656 772.171875 1151.160156 772.796875 1154.28125 772.796875 C 1157.40625 772.796875 1160.21875 772.171875 1163.03125 770.921875 C 1165.839844 769.671875 1168.027344 768.109375 1169.902344 766.238281 C 1171.777344 764.363281 1173.339844 761.863281 1174.589844 759.050781 C 1175.835938 756.238281 1176.460938 753.429688 1176.460938 750.304688 C 1176.460938 747.179688 1175.835938 744.367188 1174.589844 741.558594 C 1173.339844 738.746094 1171.777344 736.558594 1169.902344 734.683594 C 1168.027344 732.8125 1165.527344 731.25 1162.71875 730 C 1159.90625 728.75 1157.09375 728.125 1154.28125 728.125 C 1151.472656 728.125 1148.347656 728.75 1145.847656 730 C 1143.347656 731.25 1140.851562 732.8125 1138.976562 734.683594 C 1137.101562 736.558594 1135.226562 739.058594 1134.289062 741.558594 C 1133.039062 744.367188 1132.414062 747.179688 1132.414062 750.304688 Z M 1132.414062 750.304688 " fill-opacity="1" fill-rule="nonzero"/><path fill="#e5007d" d="M 1263.925781 756.550781 C 1263.925781 771.234375 1270.800781 778.730469 1284.855469 778.730469 C 1292.355469 778.730469 1297.976562 775.605469 1301.726562 769.671875 L 1334.839844 769.671875 C 1328.28125 791.851562 1311.410156 803.097656 1284.542969 803.097656 C 1276.421875 803.097656 1268.925781 801.847656 1262.050781 799.347656 C 1255.179688 796.847656 1249.558594 793.410156 1244.558594 788.726562 C 1239.558594 784.039062 1235.8125 778.730469 1233.3125 772.480469 C 1230.5 766.234375 1229.25 759.050781 1229.25 751.238281 C 1229.25 743.429688 1230.5 735.933594 1233 729.371094 C 1235.5 722.8125 1239.25 717.1875 1243.933594 712.816406 C 1248.621094 708.128906 1254.242188 704.695312 1260.804688 702.195312 C 1267.363281 699.695312 1274.859375 698.445312 1283.296875 698.445312 C 1291.730469 698.445312 1298.914062 699.695312 1305.476562 702.195312 C 1312.035156 704.695312 1317.65625 708.128906 1322.03125 712.816406 C 1326.40625 717.5 1330.152344 723.125 1332.339844 729.996094 C 1334.527344 736.871094 1335.777344 744.367188 1335.777344 752.800781 L 1335.777344 756.238281 Z M 1304.226562 736.558594 C 1302.976562 731.871094 1300.789062 727.808594 1297.351562 725 C 1293.917969 722.1875 1289.542969 720.625 1284.542969 720.625 C 1279.234375 720.625 1274.859375 721.875 1271.425781 724.6875 C 1267.988281 727.496094 1265.800781 731.246094 1265.175781 736.558594 Z M 1304.226562 736.558594 " fill-opacity="1" fill-rule="nonzero"/><path fill="#e5007d" d="M 864.070312 849.960938 L 898.433594 849.960938 L 898.433594 1007.089844 L 864.070312 1007.089844 Z M 864.070312 849.960938 " fill-opacity="1" fill-rule="nonzero"/><path fill="#e5007d" d="M 918.109375 872.757812 C 918.109375 869.945312 918.738281 867.761719 919.671875 865.261719 C 920.609375 862.761719 922.171875 860.886719 923.734375 859.015625 C 925.609375 857.140625 927.484375 855.890625 929.980469 854.953125 C 932.480469 854.015625 934.667969 853.390625 937.480469 853.390625 C 940.292969 853.390625 942.476562 854.015625 944.976562 854.953125 C 947.476562 855.890625 949.351562 857.453125 951.226562 859.015625 C 953.097656 860.886719 954.347656 862.761719 955.285156 865.261719 C 956.222656 867.761719 956.847656 869.945312 956.847656 872.757812 C 956.847656 875.570312 956.222656 877.757812 955.285156 880.257812 C 954.347656 882.753906 952.785156 884.628906 951.226562 886.503906 C 949.351562 888.378906 947.476562 889.628906 944.976562 890.566406 C 942.476562 891.503906 940.292969 892.128906 937.480469 892.128906 C 934.667969 892.128906 932.480469 891.503906 929.980469 890.566406 C 927.484375 889.628906 925.609375 888.066406 923.734375 886.503906 C 921.859375 884.628906 920.609375 882.753906 919.671875 880.257812 C 918.421875 878.070312 918.109375 875.570312 918.109375 872.757812 Z M 954.660156 910.246094 L 954.660156 1007.398438 L 920.296875 1007.398438 L 920.296875 910.246094 Z M 954.660156 910.246094 " fill-opacity="1" fill-rule="nonzero"/><path fill="#e5007d" d="M 1010.582031 849.960938 L 1010.582031 919.621094 C 1018.707031 911.1875 1028.703125 906.8125 1040.886719 906.8125 C 1048.070312 906.8125 1054.628906 908.0625 1060.566406 910.875 C 1066.5 913.6875 1071.8125 917.121094 1075.871094 921.808594 C 1080.246094 926.496094 1083.371094 931.804688 1085.867188 938.054688 C 1088.367188 944.300781 1089.304688 950.859375 1089.304688 958.046875 C 1089.304688 965.230469 1088.054688 972.101562 1085.558594 978.351562 C 1083.058594 984.597656 1079.621094 990.222656 1075.25 994.90625 C 1070.875 999.59375 1065.5625 1003.34375 1059.628906 1005.839844 C 1053.691406 1008.339844 1047.132812 1009.902344 1040.261719 1009.902344 C 1027.765625 1009.902344 1017.769531 1005.21875 1010.269531 996.15625 L 1010.269531 1007.089844 L 975.910156 1007.089844 L 975.910156 849.960938 Z M 1054.003906 958.984375 C 1054.003906 955.859375 1053.378906 953.046875 1052.445312 950.238281 C 1051.195312 947.425781 1049.632812 945.238281 1047.757812 943.050781 C 1045.882812 941.175781 1043.382812 939.300781 1040.886719 938.363281 C 1038.074219 937.117188 1035.261719 936.492188 1032.136719 936.492188 C 1029.015625 936.492188 1026.203125 937.117188 1023.703125 938.054688 C 1020.890625 939.300781 1018.707031 940.863281 1016.832031 942.738281 C 1014.957031 944.613281 1013.394531 947.113281 1012.144531 949.921875 C 1010.894531 952.734375 1010.269531 955.546875 1010.269531 958.671875 C 1010.269531 961.792969 1010.894531 964.605469 1011.832031 967.105469 C 1013.082031 969.917969 1014.644531 972.101562 1016.519531 973.976562 C 1018.394531 975.851562 1020.890625 977.414062 1023.703125 978.664062 C 1026.515625 979.914062 1029.328125 980.539062 1032.449219 980.539062 C 1035.574219 980.539062 1038.386719 979.914062 1040.886719 978.976562 C 1043.695312 977.726562 1045.882812 976.164062 1047.757812 974.289062 C 1049.632812 972.414062 1051.195312 969.917969 1052.445312 967.417969 C 1053.378906 964.605469 1054.003906 961.792969 1054.003906 958.984375 Z M 1054.003906 958.984375 " fill-opacity="1" fill-rule="nonzero"/><path fill="#e5007d" d="M 1138.347656 964.601562 C 1138.347656 979.285156 1145.21875 986.78125 1159.277344 986.78125 C 1166.773438 986.78125 1172.398438 983.65625 1176.144531 977.722656 L 1209.257812 977.722656 C 1202.699219 999.902344 1185.828125 1011.148438 1158.964844 1011.148438 C 1150.839844 1011.148438 1143.34375 1009.898438 1136.472656 1007.398438 C 1129.597656 1004.898438 1123.976562 1001.464844 1118.976562 996.777344 C 1113.980469 992.09375 1110.230469 986.78125 1107.730469 980.535156 C 1104.921875 974.285156 1103.671875 967.101562 1103.671875 959.289062 C 1103.671875 951.480469 1104.921875 943.984375 1107.417969 937.421875 C 1109.917969 930.863281 1113.667969 925.238281 1118.351562 920.867188 C 1123.039062 916.492188 1128.664062 912.746094 1135.222656 910.246094 C 1141.78125 907.746094 1149.28125 906.496094 1157.714844 906.496094 C 1166.148438 906.496094 1173.332031 907.746094 1179.894531 910.246094 C 1186.453125 912.746094 1192.078125 916.179688 1196.449219 920.867188 C 1200.824219 925.554688 1204.574219 931.175781 1206.757812 938.046875 C 1208.945312 944.921875 1210.195312 952.417969 1210.195312 960.851562 L 1210.195312 964.289062 Z M 1178.644531 944.609375 C 1177.394531 939.921875 1175.207031 935.863281 1171.773438 933.050781 C 1168.335938 930.238281 1163.960938 928.675781 1158.964844 928.675781 C 1153.652344 928.675781 1149.28125 930.238281 1145.84375 932.738281 C 1142.40625 935.550781 1140.21875 939.296875 1139.59375 944.609375 Z M 1178.644531 944.609375 " fill-opacity="1" fill-rule="nonzero"/><path fill="#e5007d" d="M 1228.3125 910.246094 L 1262.675781 910.246094 L 1262.675781 926.175781 C 1266.425781 920.242188 1270.800781 915.867188 1276.109375 912.746094 C 1281.421875 909.621094 1287.667969 908.058594 1294.542969 908.058594 L 1297.351562 908.058594 C 1298.289062 908.058594 1299.539062 908.058594 1301.101562 908.371094 L 1301.101562 941.171875 C 1296.414062 938.984375 1291.730469 937.734375 1286.417969 937.734375 C 1278.609375 937.734375 1272.359375 940.234375 1268.613281 944.921875 C 1264.863281 949.605469 1262.675781 956.480469 1262.675781 965.539062 L 1262.675781 1007.085938 L 1228.3125 1007.085938 Z M 1228.3125 910.246094 " fill-opacity="1" fill-rule="nonzero"/><path fill="#e5007d" d="M 1391.074219 910.246094 L 1425.4375 910.246094 L 1425.4375 1007.398438 L 1391.074219 1007.398438 L 1391.074219 996.464844 C 1383.578125 1005.835938 1373.894531 1010.210938 1361.398438 1010.210938 C 1354.210938 1010.210938 1347.652344 1008.960938 1342.027344 1006.460938 C 1336.09375 1003.960938 1330.78125 1000.214844 1326.410156 995.527344 C 1322.035156 990.84375 1318.601562 985.21875 1316.101562 978.972656 C 1313.601562 972.722656 1312.351562 965.851562 1312.351562 958.355469 C 1312.351562 951.480469 1313.601562 944.921875 1315.789062 938.671875 C 1317.976562 932.425781 1321.410156 926.800781 1325.785156 922.429688 C 1330.160156 917.742188 1335.15625 913.996094 1341.089844 911.496094 C 1347.027344 908.996094 1353.585938 907.433594 1360.773438 907.433594 C 1372.957031 907.433594 1382.953125 911.808594 1390.761719 920.242188 Z M 1347.964844 958.355469 C 1347.964844 961.476562 1348.589844 964.601562 1349.527344 967.101562 C 1350.777344 969.914062 1352.335938 972.097656 1354.210938 974.285156 C 1356.085938 976.472656 1358.585938 977.722656 1361.085938 978.972656 C 1363.894531 980.222656 1366.707031 980.535156 1369.832031 980.535156 C 1372.957031 980.535156 1375.765625 979.910156 1378.578125 978.972656 C 1381.390625 977.722656 1383.578125 976.160156 1385.453125 974.285156 C 1387.324219 972.410156 1388.886719 969.914062 1390.136719 967.414062 C 1391.386719 964.601562 1392.011719 961.789062 1392.011719 958.976562 C 1392.011719 956.167969 1391.386719 953.042969 1390.136719 950.230469 C 1388.886719 947.421875 1387.324219 945.234375 1385.453125 943.046875 C 1383.578125 941.171875 1381.078125 939.609375 1378.578125 938.359375 C 1375.765625 937.113281 1372.957031 936.800781 1369.832031 936.800781 C 1366.707031 936.800781 1363.582031 937.421875 1361.085938 938.359375 C 1358.273438 939.609375 1356.085938 941.171875 1354.210938 943.046875 C 1352.335938 944.921875 1350.777344 947.421875 1349.527344 949.917969 C 1348.589844 952.730469 1347.964844 955.542969 1347.964844 958.355469 Z M 1347.964844 958.355469 " fill-opacity="1" fill-rule="nonzero"/><path fill="#e5007d" d="M 1446.988281 849.960938 L 1481.351562 849.960938 L 1481.351562 1007.089844 L 1446.988281 1007.089844 Z M 1446.988281 849.960938 " fill-opacity="1" fill-rule="nonzero"/><path fill="#e5007d" d="M 1534.144531 964.601562 C 1534.144531 979.285156 1541.019531 986.78125 1555.078125 986.78125 C 1562.574219 986.78125 1568.195312 983.65625 1571.945312 977.722656 L 1605.058594 977.722656 C 1598.5 999.902344 1581.628906 1011.148438 1554.765625 1011.148438 C 1546.640625 1011.148438 1539.144531 1009.898438 1532.273438 1007.398438 C 1525.398438 1004.898438 1519.777344 1001.464844 1514.777344 996.777344 C 1509.78125 992.09375 1506.03125 986.78125 1503.53125 980.535156 C 1500.722656 974.285156 1499.472656 967.101562 1499.472656 959.289062 C 1499.472656 951.480469 1500.722656 943.984375 1503.21875 937.421875 C 1505.71875 930.863281 1509.46875 925.238281 1514.152344 920.867188 C 1518.839844 916.492188 1524.460938 912.746094 1531.023438 910.246094 C 1537.582031 907.746094 1545.078125 906.496094 1553.515625 906.496094 C 1561.949219 906.496094 1569.132812 907.746094 1575.695312 910.246094 C 1582.253906 912.746094 1587.878906 916.179688 1592.25 920.867188 C 1596.625 925.554688 1600.371094 931.175781 1602.558594 938.046875 C 1604.746094 944.921875 1606.308594 952.417969 1606.308594 960.851562 L 1606.308594 964.289062 Z M 1574.445312 944.609375 C 1573.195312 939.921875 1571.007812 935.863281 1567.570312 933.050781 C 1564.136719 930.238281 1559.761719 928.675781 1554.765625 928.675781 C 1549.453125 928.675781 1545.078125 930.238281 1541.644531 932.738281 C 1538.207031 935.238281 1536.019531 939.296875 1535.394531 944.609375 Z M 1574.445312 944.609375 " fill-opacity="1" fill-rule="nonzero"/><path fill="#e5007d" d="M 1328.230469 1062.960938 L 1337.046875 1062.960938 C 1353.242188 1062.960938 1361.339844 1069.136719 1361.339844 1081.492188 C 1361.339844 1084.191406 1360.664062 1086.769531 1359.316406 1089.230469 C 1357.964844 1091.6875 1356.210938 1093.429688 1354.050781 1094.449219 L 1354.050781 1094.628906 C 1357.890625 1095.289062 1361.113281 1097.296875 1363.722656 1100.65625 C 1366.332031 1104.015625 1367.636719 1107.734375 1367.636719 1111.8125 C 1367.636719 1117.691406 1365.492188 1122.324219 1361.203125 1125.710938 C 1356.917969 1129.101562 1351.292969 1130.796875 1344.335938 1130.796875 L 1328.230469 1130.796875 Z M 1336.6875 1070.515625 L 1336.6875 1093.007812 L 1339.117188 1093.007812 C 1343.015625 1093.007812 1345.984375 1092.515625 1348.023438 1091.523438 C 1350.0625 1090.535156 1351.472656 1089.273438 1352.253906 1087.746094 C 1353.03125 1086.214844 1353.421875 1084.191406 1353.421875 1081.671875 C 1353.421875 1079.574219 1353.109375 1077.730469 1352.476562 1076.140625 C 1351.847656 1074.550781 1350.511719 1073.214844 1348.472656 1072.136719 C 1346.433594 1071.054688 1343.347656 1070.515625 1339.207031 1070.515625 Z M 1336.6875 1123.238281 L 1343.4375 1123.238281 C 1348.535156 1123.238281 1352.433594 1122.234375 1355.132812 1120.222656 C 1357.832031 1118.214844 1359.179688 1115.230469 1359.179688 1111.273438 C 1359.179688 1107.433594 1357.652344 1104.554688 1354.59375 1102.636719 C 1351.535156 1100.714844 1347.09375 1099.757812 1341.277344 1099.757812 L 1336.6875 1099.757812 Z M 1403.265625 1089.5 L 1399.578125 1096.878906 C 1398.855469 1096.21875 1398.0625 1095.769531 1397.191406 1095.527344 C 1396.324219 1095.289062 1395.46875 1095.167969 1394.628906 1095.167969 C 1391.269531 1095.167969 1388.796875 1096.367188 1387.207031 1098.765625 C 1385.617188 1101.164062 1384.820312 1104.792969 1384.820312 1109.652344 L 1384.820312 1130.796875 L 1376.722656 1130.796875 L 1376.722656 1088.691406 L 1384.820312 1088.691406 L 1384.820312 1095.527344 L 1385.089844 1095.527344 C 1386.109375 1093.007812 1387.625 1091.03125 1389.636719 1089.589844 C 1391.644531 1088.148438 1393.96875 1087.429688 1396.605469 1087.429688 C 1397.6875 1087.429688 1398.8125 1087.609375 1399.980469 1087.96875 C 1401.152344 1088.332031 1402.246094 1088.839844 1403.265625 1089.5 Z M 1443.121094 1110.371094 L 1443.121094 1111.09375 L 1411.003906 1111.09375 C 1411.121094 1115.171875 1412.398438 1118.515625 1414.824219 1121.125 C 1417.253906 1123.734375 1420.210938 1125.039062 1423.6875 1125.039062 C 1426.808594 1125.039062 1429.296875 1124.300781 1431.15625 1122.832031 C 1433.015625 1121.363281 1434.722656 1119.371094 1436.285156 1116.851562 L 1443.121094 1120.71875 C 1441.140625 1124.378906 1438.425781 1127.210938 1434.980469 1129.222656 C 1431.53125 1131.230469 1427.738281 1132.234375 1423.597656 1132.234375 C 1417.539062 1132.234375 1412.578125 1130.195312 1408.707031 1126.117188 C 1404.839844 1122.039062 1402.90625 1116.699219 1402.90625 1110.101562 C 1402.90625 1103.203125 1404.734375 1097.703125 1408.394531 1093.59375 C 1412.050781 1089.484375 1417.058594 1087.429688 1423.417969 1087.429688 C 1429.535156 1087.429688 1434.347656 1089.425781 1437.859375 1093.414062 C 1441.367188 1097.402344 1443.121094 1103.054688 1443.121094 1110.371094 Z M 1411.453125 1104.972656 L 1435.023438 1104.972656 C 1434.542969 1101.734375 1433.300781 1099.171875 1431.289062 1097.28125 C 1429.28125 1095.394531 1426.625 1094.449219 1423.328125 1094.449219 C 1420.269531 1094.449219 1417.644531 1095.453125 1415.457031 1097.460938 C 1413.265625 1099.472656 1411.933594 1101.976562 1411.453125 1104.972656 Z M 1481.355469 1094.898438 C 1482.675781 1092.617188 1484.507812 1090.804688 1486.84375 1089.453125 C 1489.183594 1088.105469 1491.671875 1087.429688 1494.3125 1087.429688 C 1498.929688 1087.429688 1502.410156 1088.945312 1504.75 1091.972656 C 1507.089844 1095.003906 1508.257812 1099.394531 1508.257812 1105.15625 L 1508.257812 1130.796875 L 1500.160156 1130.796875 L 1500.160156 1106.59375 C 1500.160156 1102.515625 1499.53125 1099.5 1498.269531 1097.550781 C 1497.011719 1095.601562 1495.03125 1094.628906 1492.332031 1094.628906 C 1489.273438 1094.628906 1486.964844 1095.78125 1485.40625 1098.09375 C 1483.847656 1100.402344 1483.066406 1104.253906 1483.066406 1109.652344 L 1483.066406 1130.796875 L 1474.96875 1130.796875 L 1474.96875 1108.035156 C 1474.96875 1103.296875 1474.355469 1099.875 1473.125 1097.777344 C 1471.894531 1095.675781 1469.929688 1094.628906 1467.230469 1094.628906 C 1464.171875 1094.628906 1461.847656 1095.78125 1460.261719 1098.09375 C 1458.671875 1100.402344 1457.875 1104.253906 1457.875 1109.652344 L 1457.875 1130.796875 L 1449.777344 1130.796875 L 1449.777344 1088.691406 L 1457.875 1088.691406 L 1457.875 1094 L 1458.054688 1094 C 1459.253906 1092.140625 1460.859375 1090.578125 1462.867188 1089.320312 C 1464.878906 1088.058594 1466.992188 1087.429688 1469.210938 1087.429688 C 1471.910156 1087.429688 1474.265625 1088.089844 1476.273438 1089.410156 C 1478.285156 1090.730469 1479.976562 1092.558594 1481.355469 1094.898438 Z M 1556.03125 1110.371094 L 1556.03125 1111.09375 L 1523.914062 1111.09375 C 1524.03125 1115.171875 1525.308594 1118.515625 1527.734375 1121.125 C 1530.164062 1123.734375 1533.121094 1125.039062 1536.597656 1125.039062 C 1539.71875 1125.039062 1542.207031 1124.300781 1544.066406 1122.832031 C 1545.925781 1121.363281 1547.632812 1119.371094 1549.195312 1116.851562 L 1556.03125 1120.71875 C 1554.050781 1124.378906 1551.335938 1127.210938 1547.890625 1129.222656 C 1544.441406 1131.230469 1540.648438 1132.234375 1536.507812 1132.234375 C 1530.449219 1132.234375 1525.488281 1130.195312 1521.617188 1126.117188 C 1517.75 1122.039062 1515.816406 1116.699219 1515.816406 1110.101562 C 1515.816406 1103.203125 1517.644531 1097.703125 1521.304688 1093.59375 C 1524.960938 1089.484375 1529.96875 1087.429688 1536.328125 1087.429688 C 1542.445312 1087.429688 1547.257812 1089.425781 1550.769531 1093.414062 C 1554.277344 1097.402344 1556.03125 1103.054688 1556.03125 1110.371094 Z M 1524.363281 1104.972656 L 1547.933594 1104.972656 C 1547.453125 1101.734375 1546.210938 1099.171875 1544.199219 1097.28125 C 1542.191406 1095.394531 1539.535156 1094.449219 1536.238281 1094.449219 C 1533.179688 1094.449219 1530.554688 1095.453125 1528.367188 1097.460938 C 1526.175781 1099.472656 1524.84375 1101.976562 1524.363281 1104.972656 Z M 1598.855469 1105.246094 L 1598.855469 1130.796875 L 1590.757812 1130.796875 L 1590.757812 1106.234375 C 1590.757812 1102.035156 1590.097656 1099.050781 1588.78125 1097.28125 C 1587.460938 1095.511719 1585.03125 1094.628906 1581.492188 1094.628906 C 1577.832031 1094.628906 1575.179688 1095.769531 1573.53125 1098.046875 C 1571.878906 1100.324219 1571.054688 1104.34375 1571.054688 1110.101562 L 1571.054688 1130.796875 L 1562.957031 1130.796875 L 1562.957031 1088.691406 L 1571.054688 1088.691406 L 1571.054688 1094.359375 L 1571.234375 1094.359375 C 1572.554688 1092.078125 1574.355469 1090.355469 1576.632812 1089.183594 C 1578.914062 1088.015625 1581.34375 1087.429688 1583.921875 1087.429688 C 1589.019531 1087.429688 1592.78125 1088.914062 1595.210938 1091.882812 C 1597.640625 1094.851562 1598.855469 1099.304688 1598.855469 1105.246094 Z M 1598.855469 1105.246094 " fill-opacity="1" fill-rule="nonzero"/><g clip-path="url(#4cedaea63c)"><g clip-path="url(#97b98b9bb4)"><g transform="matrix(1, 0, 0, 1, 273, 491)"><g clip-path="url(#655470b8d0)"><g clip-path="url(#5a15f9b98b)"><g clip-path="url(#497cbdb26f)"><path fill="#ffed00" d="M 0.121094 0.792969 L 508.902344 0.792969 L 508.902344 539.386719 L 0.121094 539.386719 Z M 0.121094 0.792969 " fill-opacity="1" fill-rule="nonzero"/></g></g></g></g></g></g><path fill="#e6007e" d="M 539.566406 701.867188 L 393.289062 701.867188 L 351.695312 855.621094 L 456.378906 1009.84375 Z M 539.566406 701.867188 " fill-opacity="1" fill-rule="nonzero"/><path fill="#e6007e" d="M 752.203125 542.039062 L 607.328125 542.039062 L 526.011719 848.613281 L 670.886719 848.613281 Z M 752.203125 542.039062 " fill-opacity="1" fill-rule="nonzero"/><path fill="#ffffff" d="M 642.097656 848.613281 L 612.9375 848.613281 L 694.253906 542.039062 L 723.414062 542.039062 Z M 642.097656 848.613281 " fill-opacity="1" fill-rule="nonzero"/><path fill="#ffffff" d="M 584.710938 848.613281 L 554.988281 848.613281 L 636.304688 542.039062 L 665.464844 542.039062 Z M 584.710938 848.613281 " fill-opacity="1" fill-rule="nonzero"/><path fill="#e6007e" d="M 711.265625 587.839844 L 682.101562 587.839844 L 669.953125 633.636719 L 699.113281 633.636719 Z M 711.265625 587.839844 " fill-opacity="1" fill-rule="nonzero"/><path fill="#ffffff" d="M 682.289062 587.839844 L 653.128906 587.839844 L 640.976562 633.636719 L 670.136719 633.636719 Z M 682.289062 587.839844 " fill-opacity="1" fill-rule="nonzero"/><path fill="#e6007e" d="M 653.40625 587.839844 L 624.152344 587.839844 L 612 633.636719 L 641.351562 633.636719 Z M 653.40625 587.839844 " fill-opacity="1" fill-rule="nonzero"/><path fill="#ffffff" d="M 740.238281 587.839844 L 711.078125 587.839844 L 698.925781 633.636719 L 728.089844 633.636719 Z M 740.238281 587.839844 " fill-opacity="1" fill-rule="nonzero"/><path fill="#ffffff" d="M 624.433594 587.839844 L 595.179688 587.839844 L 583.027344 633.636719 L 612.375 633.636719 Z M 624.433594 587.839844 " fill-opacity="1" fill-rule="nonzero"/></svg>