<?xml version="1.0" encoding="utf-8"?>
<!-- Generator: Adobe Illustrator 19.2.1, SVG Export Plug-In . SVG Version: 6.00 Build 0)  -->
<svg version="1.1" id="Ebene_1" xmlns="http://www.w3.org/2000/svg" xmlns:xlink="http://www.w3.org/1999/xlink" x="0px" y="0px"
	 viewBox="0 0 194 29" style="enable-background:new 0 0 194 29;" xml:space="preserve">
<path id="u" d="M18.6,21.5c-0.3,0.9-0.5,1.9-0.5,2.6c0,2.7,2.1,4.4,6.3,4.4c5.7,0,7.8-2.1,9.1-6.5l3.7-12.6h-5.3l-3.7,12.5
	c-0.4,1.4-1.2,2-2.9,2c-1.5,0-2.1-0.8-1.7-2l3.7-12.5H22L18.6,21.5z"/>
<polygon id="e" points="89.6,28.2 102.1,28.2 103.4,23.7 96.2,23.7 97,20.9 103.4,20.9 104.7,16.5 98.3,16.5 99.2,13.6 106.4,13.6
	107.7,9.3 95.2,9.3 "/>
<path id="c" d="M171.1,9.1c-5.1,0-9,0.6-11.5,10.1c-0.4,1.6-0.7,3.1-0.7,4.3c0,3,1.6,4.9,6.8,4.9c1.3,0,3-0.2,4.2-0.6l1.3-4.4
	c0,0-1.4,0.3-3.5,0.3c-2.4,0-3-0.8-3-2c0-0.7,0.2-1.6,0.5-2.6c1.3-5,2.7-5.6,5.3-5.6c2.2,0,3.4,0.3,3.4,0.3l1.3-4.5
	C174.4,9.3,172.4,9.1,171.1,9.1"/>
<path id="j" d="M0.9,28c0.7,0.2,2.6,0.4,4.1,0.4c6.7,0,9.4-1.8,10.9-7l3.6-12.1h-5.3L11,20.1c-0.1,0.3-0.3,1-0.6,1.6
	c-0.9,1.6-2.6,2-4.6,2s-3.7-0.2-3.7-0.2L0.9,28z"/>
<path id="r" d="M140,17.9l1.2-4.2h2.4c0.9,0,1.4,0.5,1.4,1.2c0,1.7-0.9,3-2.7,3H140z M131.8,28.2h5.2l1.9-6.3h1.4l1.6,6.3h5.6
	l-2.1-7.2c1.6-0.5,3.4-1,4.6-5.2c0.3-1.1,0.5-2.3,0.5-2.8c0-2.3-1.3-3.6-4.7-3.6h-8.4L131.8,28.2z"/>
<path id="g" d="M71,17.3h-7l-1.1,3.5h2.2l-0.9,3c0,0-0.8,0.1-1.6,0.1c-1.9,0-2.2-0.8-2.2-2c0-0.7,0.2-1.6,0.4-2.6
	c1.3-5,2.8-5.7,5.4-5.7c2.7,0,4.9,0.5,4.9,0.5l1.4-4.4C71.7,9.5,69.3,9,67,9c-5.1,0-9,0.6-11.5,10.1c-0.4,1.6-0.6,3-0.6,4.3
	c0,3,1.8,5,6.9,5c2.5,0,5.1-0.4,6.3-0.8L71,17.3z"/>
<polygon id="i1" points="110.4,9.3 115.7,9.3 110.1,28.2 104.9,28.2 "/>
<path id="n1" d="M40.4,9.3h4.4l2.7,10h0.1c0,0,0.4-1.6,0.8-3l2.1-7h5.2l-5.6,18.8h-4.4l-2.8-9.9h-0.1c0,0-0.4,1.5-0.8,3.1l-2,6.8
	h-5.2L40.4,9.3z"/>
<path id="n" d="M118.8,9.3h4.4l2.7,10h0.1c0,0,0.4-1.6,0.8-3l2.1-7h5.2l-5.6,18.8h-4.4l-2.8-9.9h-0.1c0,0-0.4,1.5-0.8,3.1l-2,6.8
	h-5.2L118.8,9.3z"/>
<polygon id="i" points="154.6,9.3 159.9,9.3 154.3,28.2 149.1,28.2 "/>
<polygon id="h1" points="76.2,9.3 81.5,9.3 79.3,16.6 84.5,16.6 86.7,9.3 91.9,9.3 86.4,28.2 81.1,28.2 83.2,21 78.1,21 75.9,28.2
	70.7,28.2 "/>
<polygon id="h" points="178,9.3 183.3,9.3 181.1,16.6 186.3,16.6 188.4,9.3 193.7,9.3 188.1,28.2 182.9,28.2 185,21 179.8,21
	177.7,28.2 172.4,28.2 "/>
<path fill="#CC0000" d="M20.2,7.7l-8-7.7L0,7.7h6.9l-4.2,14c0,0,1.4,0.2,3.3,0.2c1.5,0,2.4-0.5,2.8-1.2
	c0.2-0.4,0.3-0.6,0.5-1.2l3.6-11.9L20.2,7.7L20.2,7.7z"/>
</svg>
