<svg id="图层_1" data-name="图层 1" xmlns="http://www.w3.org/2000/svg" viewBox="0 0 283.46 30.54">
  <defs></defs>
  <title>Jungheinrich Logo China RGB Bildschirm_[MAM-50624]</title>
  <g id="JH">
    <path
      d="M47.6,36.5a10.52,10.52,0,0,0-.49,2.77c0,2.87,2.2,4.64,6.75,4.64,6,0,8.33-2.2,9.71-6.87l3.95-13.45H61.91L58,36.93c-.43,1.49-1.29,2.12-3.06,2.12s-2.21-.81-1.81-2.15L57,23.59H51.41Z"
      transform="translate(-27.76 -13.65)"/>
    <polygon
      points="95.44 29.97 108.67 29.97 110.1 25.25 102.43 25.25 103.31 22.21 110.04 22.21 111.42 17.61 104.69 17.61 105.6 14.51 113.27 14.51 114.62 9.94 101.37 9.94 95.44 29.97"/>
    <path
      d="M209.91,23.3c-5.47,0-9.54.63-12.23,10.74a18.29,18.29,0,0,0-.74,4.61c0,3.23,1.72,5.26,7.24,5.26a15.33,15.33,0,0,0,4.47-.63L210,38.65a16.92,16.92,0,0,1-3.78.37c-2.54,0-3.23-.81-3.23-2.09a12.61,12.61,0,0,1,.48-2.72c1.38-5.36,2.9-6,5.67-6a14.88,14.88,0,0,1,3.67.38l1.43-4.79A19.77,19.77,0,0,0,209.91,23.3Z"
      transform="translate(-27.76 -13.65)"/>
    <path
      d="M28.67,43.49a23.68,23.68,0,0,0,4.36.42c7.15,0,10-1.94,11.65-7.41l3.83-12.91H42.9L39.52,35.1a8.41,8.41,0,0,1-.63,1.68C38,38.44,36.15,38.9,34,38.9a31.74,31.74,0,0,1-3.89-.25Z"
      transform="translate(-27.76 -13.65)"/>
    <path
      d="M168.08,43.63h5.56l2-6.73h1.52l1.66,6.73h6L182.57,36c1.69-.49,3.61-1.09,4.92-5.55a12,12,0,0,0,.49-3c0-2.43-1.43-3.83-5-3.83h-9Zm8.76-10.94,1.32-4.52h2.52c1,0,1.46.48,1.46,1.29,0,1.86-.92,3.23-2.84,3.23Z"
      transform="translate(-27.76 -13.65)"/>
    <path
      d="M103.3,32.09H95.8l-1.14,3.69H97L96.09,39a11.21,11.21,0,0,1-1.72.14c-2,0-2.35-.89-2.35-2.17a12.68,12.68,0,0,1,.46-2.75c1.38-5.35,3-6,5.76-6a23.83,23.83,0,0,1,5.18.57l1.46-4.66A23.82,23.82,0,0,0,99,23.3c-5.46,0-9.56.6-12.25,10.71a17.66,17.66,0,0,0-.66,4.58c0,3.23,1.89,5.32,7.33,5.32a24.25,24.25,0,0,0,6.67-.86Z"
      transform="translate(-27.76 -13.65)"/>
    <polygon points="117.57 9.94 123.18 9.94 117.25 29.97 111.64 29.97 117.57 9.94"/>
    <path
      d="M70.73,23.59h4.69l2.92,10.68h.09s.46-1.75.89-3.24l2.2-7.44H87l-5.92,20h-4.7l-3-10.54h-.09s-.4,1.63-.89,3.29l-2.14,7.25H64.8Z"
      transform="translate(-27.76 -13.65)"/>
    <path
      d="M154.26,23.59H159l2.91,10.68H162s.46-1.75.88-3.24l2.21-7.44h5.53l-5.93,20H160l-3-10.54h-.09s-.4,1.63-.88,3.29l-2.15,7.25h-5.53Z"
      transform="translate(-27.76 -13.65)"/>
    <polygon points="164.63 9.94 170.24 9.94 164.32 29.97 158.71 29.97 164.63 9.94"/>
    <polygon
      points="81.16 9.94 86.76 9.94 84.44 17.72 89.95 17.72 92.27 9.94 97.87 9.94 91.95 29.97 86.34 29.97 88.6 22.33 83.1 22.33 80.84 29.97 75.23 29.97 81.16 9.94"/>
    <polygon
      points="189.51 9.94 195.12 9.94 192.8 17.72 198.29 17.72 200.61 9.94 206.22 9.94 200.3 29.97 194.69 29.97 196.95 22.33 191.45 22.33 189.19 29.97 183.58 29.97 189.51 9.94"/>
    <path fill="#c00"
          d="M49.31,21.87l-8.56-8.22-13,8.22h7.36L30.68,36.81A25.56,25.56,0,0,0,34.2,37c1.6,0,2.52-.49,2.95-1.23a4.7,4.7,0,0,0,.51-1.29l3.81-12.65Z"
          transform="translate(-27.76 -13.65)"/>
  </g>
  <path
    d="M254,31.39a1.87,1.87,0,0,0,.08.25l.08.42.17.37,1.47-.83c.87-.49,2-1.22,3.53-2.2a5.07,5.07,0,0,0,.51.67l1.23,1.38.7.82c-2.17,1.32-4.24,2.5-6.22,3.52a7.78,7.78,0,0,0,1.4,1.85,16.25,16.25,0,0,0,3.28,2.26c-2.09,1.88-3.41,3.12-4,3.7a25.1,25.1,0,0,1-3.11-2.39,7.66,7.66,0,0,1-1.4-2.06l-.48,1.66a6.23,6.23,0,0,1-.75,1.88,2.11,2.11,0,0,1-1.87.89h-4.31c.46-1.61.91-3.51.91-3.51,1.44,0,1.95,0,2.07-.39.36-1.11,2.55-8.54,2.55-8.54h-2.53l-2.41.09,1.14-3.93,2.37.06H253a13.76,13.76,0,0,1-1.24-.65c-.63-.35-1.5-.77-2.62-1.26a29.11,29.11,0,0,0,2.18-2.26l.54-.7c1,.41,1.83.72,2.34,1s1.45.72,2.84,1.48c-.67.69-1.42,1.49-2.24,2.39l.49,0-.66,2.07-.6,2Zm-16.73,8.76a22.28,22.28,0,0,0,4-2.5,26.23,26.23,0,0,0,2.41-2.42l-1.91,0-2.27.09,1.08-3.73,2.26.08h6.44l-.77,2.64c-.38.71-1,1.76-1.84,3.18s-3.12,3.31-6.86,5.67c-.57-.78-1-1.34-1.28-1.67s-.72-.77-1.3-1.31Z"
    transform="translate(-27.76 -13.65)"/>
  <path
    d="M276.93,31.27h4.27L281,32h-4.26l.21-.74Zm-5.33,5.82L271,39l2.18-.06h7.47l2,.06.49-2,2-6.91.71-2.15-2.11.07h-7.54l-2-.07-.3,1.18c0-.12-.05-.45-.07-1s-.06-1-.09-1.44l-1.69.59.71-2.44.62-1.9h-3.86L269,25l-.65,2.26a10.87,10.87,0,0,1-1.77-.37l-.73,1.7c-.09.19-.35.72-.78,1.58s-.75,1.48-1,1.86-.48.85-.8,1.39a27.24,27.24,0,0,1,2.69.84l.69-1.33L264.05,42l-.67,2h3.86l.51-2L271,30.84V32.4c.76-.32,1.49-.59,2.2-.82l-1.61,5.51Zm4-1.35.23-.79h4.26l-.23.79Zm-1.83-8.61,1.72-.09h9.68l1.77.09L288,23.47l-1.86.1h-9.67l-1.64-.07-1.07,3.63Zm-6,16.49,1.69-.09h11.43l1.78.09L283.76,40l-1.86.08H270.5L268.86,40l-1.06,3.61Z"
    transform="translate(-27.76 -13.65)"/>
  <path
    d="M297.34,27a6.41,6.41,0,0,1,.25-.91l.24-.79.55-2.14c1.59.09,3.23.1,4.94,0-.3.91-.54,1.64-.72,2.23s-.31,1-.38,1.29l-.09.28h7.16l1.93-.07c-.41,1.25-.7,2.18-.89,2.8l-1.07,3.46c-.32,1-.72,2.18-1.19,3.57a25.41,25.41,0,0,1-1.31,3.28,8.31,8.31,0,0,1-1.33,2,4.81,4.81,0,0,1-1.75,1.17,6.21,6.21,0,0,1-2.27.39h-4.25l1.26-4.29a21.75,21.75,0,0,0,3.16-.06,2.38,2.38,0,0,0,.91-.49,2.93,2.93,0,0,0,.47-.87l.88-2.37c.37-1,.68-1.94.93-2.72l.33-1.05h-4.62c-.35.71-.89,1.78-1.63,3.19a19.56,19.56,0,0,1-3.71,4.64,25.91,25.91,0,0,1-7,4.63c-.5-.95-.86-1.6-1.09-2l-.93-1.29-.37-.52A35.89,35.89,0,0,0,290,38.3a18.19,18.19,0,0,0,3.08-2.56,12.49,12.49,0,0,0,2.66-4h-4l-2.44.08L290.75,27l2.34.07Z"
    transform="translate(-27.76 -13.65)"/>
</svg>
