<svg fill="#000000" viewBox="0 0 102.6 51.3" xmlns="http://www.w3.org/2000/svg"><path d="M59.1 35.2c0 .2.1.3.2.3s.2 0 .2-.1L91 14.9c.6-.4 1.1-.6 1.8-.6h6.9c1.1 0 1.8.7 1.8 1.8v13.2c0 1.6-.4 2.5-1.8 3.4l-8.4 5c-.1.1-.2.1-.3.1-.1 0-.2-.1-.2-.4V22c0-.2-.1-.3-.2-.3s-.2 0-.2.1l-23 15c-.6.4-1.2.5-1.8.5H50.4c-1.1 0-1.8-.7-1.8-1.8v-19c0-.1-.1-.3-.2-.3s-.2 0-.2.1L33 25.5c-.2.1-.2.2-.2.2 0 .1 0 .1.1.2l10.8 10.8c.1.1.2.3.2.4 0 .1-.2.2-.3.2h-9.8c-.8 0-1.4-.1-1.8-.5l-6.6-6.6c-.1-.1-.1-.1-.2-.1s-.1 0-.2.1l-11 6.6c-.7.4-1.1.5-1.8.5H2.3c-1.1 0-1.8-.7-1.8-1.8v-13c0-1.6.4-2.5 1.8-3.4l8.4-5.1c.1-.1.2-.1.2-.1.1 0 .2.1.2.4v17.3c0 .2.1.3.2.3s.2 0 .3-.1l28.5-17.2c.7-.4 1.1-.5 1.9-.5h15.4c1.1 0 1.8.7 1.8 1.8v19.3h-.1z"></path></svg>