<svg xmlns="http://www.w3.org/2000/svg" width="137.488" height="32.336" viewBox="0 0 137.488 32.336">
    <path fill="#05141f" d="M139.872 88.68c0 .261.071.4.237.4a.63.63 0 0 0 .332-.119l42.83-27.849a4.121 4.121 0 0 1 2.469-.76h9.425a2.293 2.293 0 0 1 2.422 2.422V80.75c0 2.16-.475 3.419-2.422 4.582l-11.42 6.861a.758.758 0 0 1-.38.142c-.142 0-.261-.095-.261-.5V70.85c0-.237-.071-.4-.237-.4a.63.63 0 0 0-.332.119L151.22 90.912a4.083 4.083 0 0 1-2.4.736h-20.771a2.293 2.293 0 0 1-2.422-2.422V63.348c0-.19-.095-.356-.237-.356a.63.63 0 0 0-.332.119L104.4 75.527c-.214.119-.261.237-.261.332s.024.166.19.309l14.744 14.744c.19.19.332.356.332.5 0 .166-.214.261-.475.261h-13.341a3.232 3.232 0 0 1-2.422-.736l-8.951-8.951a.365.365 0 0 0-.261-.142.8.8 0 0 0-.285.095l-14.957 9a4.144 4.144 0 0 1-2.422.712H62.522a2.293 2.293 0 0 1-2.422-2.425v-17.64c0-2.184.475-3.419 2.422-4.582l11.491-6.909a.575.575 0 0 1 .308-.095c.166 0 .261.19.261.57v23.6c0 .237.071.356.237.356a.78.78 0 0 0 .332-.142l38.819-23.339a4.289 4.289 0 0 1 2.564-.712h20.893a2.293 2.293 0 0 1 2.422 2.422l.024 25.926z" transform="translate(-60.1 -60)"/>
</svg>
