<svg height="20px" viewBox="0 0 65.328 15.362" width="80px" xmlns="http://www.w3.org/2000/svg"><path d="M87.9 613.471c0 .121.037.19.109.19a.294.294 0 0 0 .158-.061l20.361-13.222a1.958 1.958 0 0 1 1.174-.356h4.475a1.084 1.084 0 0 1 1.147 1.147v8.544a2.145 2.145 0 0 1-1.147 2.18l-5.428 3.262a.368.368 0 0 1-.182.067c-.066 0-.127-.05-.127-.236v-9.973c0-.108-.037-.192-.111-.192a.307.307 0 0 0-.157.059l-14.886 9.668a1.955 1.955 0 0 1-1.143.352h-9.861a1.084 1.084 0 0 1-1.148-1.147v-12.314c0-.09-.04-.173-.11-.173a.317.317 0 0 0-.16.059l-9.817 5.9c-.1.059-.125.107-.126.154s.017.082.087.151l7.012 7.012c.093.093.157.165.157.238s-.1.121-.222.121H71.61a1.535 1.535 0 0 1-1.148-.344L66.21 610.3a.177.177 0 0 0-.123-.067.271.271 0 0 0-.132.046l-7.113 4.275a2 2 0 0 1-1.149.343h-6.546A1.084 1.084 0 0 1 50 613.753v-8.388a2.142 2.142 0 0 1 1.148-2.176l5.46-3.281a.284.284 0 0 1 .149-.048c.082 0 .128.087.128.276v11.214c0 .118.032.173.109.173a.345.345 0 0 0 .162-.068l18.453-11.089a2 2 0 0 1 1.217-.344h9.93a1.084 1.084 0 0 1 1.147 1.147z" fill="#000000" transform="translate(-50 -599.86)"></path></svg>