<?xml version="1.0" encoding="UTF-8"?>
<svg id="Ebene_1" data-name="Ebene 1" xmlns="http://www.w3.org/2000/svg" viewBox="0 0 1000 1166.719">
  <path d="m995.5088,672.1356c-1.5796.9031-11.2998,5.5599-14.0015,6.6033-19.8213,8.843-37.6128,7.3816-57.447-4.2838-14.2488-8.3785-27.4731-26.8132-32.6499-33.2878-4.085-5.1064-9.0305-11.7966-16.1267-18.1421-13.1741-11.8469-30.9922-19.6499-61.833-19.0789-2.479.0459-4.9302-.5212-7.1218-1.6805-31.1592-16.4798-84.8362-36.5707-136.1394-33.9863-10.1685.6863-11.6309-6.7083-14.9844-14.9843-9.3318-24.9326-16.1284-36.4803-22.4619-45.5166-8.0623-11.5002-11.6033-11.5906-18.2864-13.468-7.4407-2.0892-15.5056-2.8797-20.4534-11.5042-.6057-1.0584-3.0342-5.6234-.2825-8.833,6.8113-7.9422,25.7034-18.8723-2.675-34.8966-17.3032-9.7701-9.5984-16.0507-6.7214-17.5341,3.9829-2.0548,10.8496-3.6741,19.0598-2.0377,8.2114,1.6365,17.7676,6.5287,27.1299,17.4958,9.2566,10.8444,40.4988,61.436,59.4846,99.8444.2573.5206.6692,3.2835,4.1626,3.6234,5.2947.5147,14.3679.5292,16.2249.6876,2.9246.2495,2.9629-2.1116,2.6738-3.0697-26.9189-89.3267-57.8787-200.5017-111.6145-277.8544-1.0901-2.2198-.1558-4.5439,3.2332-4.21,48.0889,4.924,62.0386,73.3624,90.219,118.3168,36.2043,57.7915,57.4299,35.1441,60.8638-3.8358,2.3994-27.25-4.7878-61.9302-23.7698-81.3726-4.5188-5.4954-12.5098-12.4544-15.8528-16.5693-1.2024-1.4801-1.3792-3.9678,1.812-4.7629,1.3184-.3286,3.2017-.4619,5.7634-.3656,22.2256,1.7064,53.0996,19.6932,66.0728,39.7216,26.6206,41.098,24.6357,63.1879,20.9866,77.7526-6.241,24.9154-17.8826,39.2372-3.4485,78.6355,28.5698,77.9809,21.0986,61.7137,4.8354,110.7659-1.395,3.7296.8936,6.5063,4.1084,6.2108,37.4133-3.4327,48.8423,5.0381,56.9192,9.3675.8193.4389,1.5222,1.1092,2.0955.9827,1.4355-.5068,1.9478-2.3157,2.1948-4.756,3.0718-21.0448-1.3123-29.9315-6.1108-42.3328-2.8171-7.2838-6.0076-15.4926-7.0137-23.4916-1.6311-10.2671.2266-16.0444,3.3167-23.727,5.2666-13.0934,8.408-23.2395,4.1267-42.9464-9.4604-41.5865-43.5432-110.061-65.3149-149.5018-1.8008-3.4027-16.7134-31.5679-19.0547-35.6885-1.5977-2.8159-.9185-6.248.2703-8.9124.988-2.2139,2.627-6.6509,2.627-6.6509,5.1997-13.2516,7.9578-23.3733,9.5195-34.9396,5.0427-37.2964-4.7341-63.8265-31.708-86.0228-25.0342-20.5996-69.6272-29.7192-129.0012-26.3745l-12.5686.7141c-55.9214,3.1917-119.3015,6.8091-166.9973,2.8674-46.1729-3.8169-73.1392-11.1226-82.4478-22.3339-3.0181-3.6406-4.186-7.671-3.6689-12.692,1.0342-10.0354,7.1113-20.0182,16.6697-27.3856,8.2693-6.3729,18.0461-9.8026,24.967-8.7194,12.4243.5081,26.0503,7.5011,41.822,15.5992,14.1328,7.2567,30.1516,15.4784,48.7791,20.8325,15.7512,4.5282,31.3403,6.5365,46.3145,5.9652,14.1301-.5403,27.9697-3.4978,41.135-8.7966,5.5652-2.241,9.5686-4.8101,11.3052-6.3293.8979-.7847,1.2351-2.3477.1492-3.8103-.6482-.8787-1.4639-.8748-4.3533-.8761-19.8264-.0038-37.4817-3.1261-48.6941-5.7543-12.3987-3.1311-13.4639-6.1389-13.3481-7.2864.2703-2.6565,6.8052-5.1843,14.2717-5.5188,36.5862-1.6428,64.5999.3372,83.1399,1.6416,6.3188.4463,11.3103.7988,14.9124.8708,3.6921.0759,8.5471-.0643,8.7451-.0875,1.1038-.108,1.4255-.8116,1.5103-1.1102.2085-.7062-.113-1.5437-.5273-1.8704-12.8977-10.6505-54.8023-26.7245-102.6035-35.1905-76.9109-13.6234-128.4329-2.4443-158.1082,9.3382-5.9099,2.3465-21.1182,8.9343-34.6414,19.4149-14.9045,11.5509-23.2227,24.1373-24.7227,37.4044-2.0042,17.7605,10.8833,40.7041,83.6751,49.1418,77.073,8.9355,149.0774,7.6633,212.6016,6.5505,6.6406-.1184,13.155-.2314,19.5308-.3318,40.2397-.5854,74.2993,9.1014,88.9082,25.389,16.8291,18.7626,17.8298,43.8778,13.5742,59.683-1.2271,4.5526-3.728,11.4146-6.7227,15.7562-4.6211,6.2546-9.6895,8.1586-19.0034,5.6989-29.7397-7.855-82.7871-25.335-108.5056-34.0146-22.9065-7.7314-40.9963-13.8395-56.3408-17.6011-45.5452-11.1624-59.7678-3.7717-90.344,15.5531-7.3711,4.6543-14.8633,9.7577-23.5391,15.6649-12.5505,8.5458-26.7786,18.2339-45.7019,30.0474-11.4133,7.1255-26.3745,15.3574-42.2131,24.0742-16.1089,8.865-32.7656,18.0308-49.0801,27.8076-52.3272,30.7163-60.6763,71.9003-70.345,119.5885-6.8594,33.837-14.6345,72.1909-40.479,111.0284-2.8328,4.2607-25.2349,31.4315-29.9998,39.145-17.7014,28.4573-27.2134,53.0139-23.4619,94.3086,2.8042,30.8706-7.7573,57.7417-17.969,83.7316-8.0378,20.4506-15.6277,39.7664-16.8806,60.4535-.9468,12.7924-.4863,24.7472-.0386,36.3083.741,19.1821,1.0291,38.2998-4.8267,54.8614-4.4949,12.7113-15.8928,25.2257-20.3154,37.5266-5.6836,15.8129-9.6665,38.3126-9.6665,58.9767-.3601,17.4081-13.2913,30.2056-26.979,43.7568-12.0642,11.9407-24.6892,24.4822-29.2817,40.7209-.6125,2.165-1.019,3.8064-1.8191,5.0969-1.1912,1.9219-2.9768,3.1516-5.3696,4.8511-4.6287,3.2869-10.2246,7.6118-16.3376,19.9062-5.1614,10.3804-3.6792,28.8882,1.042,37.8843.728,1.3894,2.7607,4.6582,5.8892,5.0159,2.1201.2456,4.2505-.8801,6.355-3.3269,0,0,13.3687-15.4692,18.5789-20.1094,1.8267-1.5811,4.0032-1.2917,5.2461-.3604,1.469,1.1038,1.8035,2.946.8953,4.9309-.53,1.1526-8.5884,15.5029-13.2966,27.5994l-.1106.2996c-.6406,1.7161-1.4331,3.8491-.2908,5.6179,1.1116,1.7212,3.7283,2.6616,8.2537,2.9626,1.9941.0771,3.9187.1133,5.7788.1133,24.7742,0,37.8008-6.5789,44.4978-12.373,2.614-2.7942,3.1338-4.0032,3.9958-6.01.2263-.5249.4785-1.1128.8232-1.8604,4.9553-13.2888,8.2769-28.6489,8.6704-40.1123,0-4.8604,1.3792-6.2417,4.7188-9.5789,13.042-13.1614,13.0547-30.5425,13.0676-47.355.0129-15.4526.0256-31.4315,10.186-44.0283,27.7046-31.0018,42.1025-67.2433,56.0269-102.2883,14.3618-36.1554,29.2124-73.5392,58.6924-104.7173,7.4253-7.6285,14.7065-11.7876,19.51-11.0157,2.3467.3589,4.2068,1.864,5.5396,4.4948,6.3086,11.6693,4.4124,27.3638,2.5754,42.5452-2.0764,17.1597-4.0369,33.3674,5.0557,43.9613,6.0745,7.8691,7.7134,16.1615,4.7239,24.019-3.8826,12.4077-15.6997,50.1736-43.8752,66.8856-.6819.4027-8.1021,5.6887-10.4229,7.936-1.2144,1.1785-2.0994,2.7582-3.1233,4.5875-2.4675,4.4047-5.5369,9.8849-15.2212,12.7472-10.6055,2.6682-20.583,9.1094-26.0322,16.8125-14.9023,21.05-14.2617,47.1145-12.8618,54.5847.5427,2.8972,1.5205,6.7063,4.2939,10.4858,1.6929,2.313,3.6563,3.6882,5.6809,3.9802,1.6648.2405,3.3269-.2419,4.9014-1.4407,1.6414-1.2505,3.5764-3.4902,6.0283-6.332,3.8489-4.4524,8.637-9.9956,14.6704-14.4299,1.9348-1.4176,3.8386-1.0884,4.9709-.2971,1.0601.7383,1.5461,1.9141,1.2373,2.9949-.5608,1.9656-2.3591,4.7996-4.6414,8.3875-2.8945,4.5591-6.499,10.2324-9.3396,16.9219-.7048,1.4871-.7949,2.8635-.27,4.0806.8181,1.8987,2.8481,2.686,3.4553,2.8843,17.9355,5.7219,44.7217-1.073,59.7139-15.1594,7.5178-7.0676,11.1741-16.4304,11.1741-28.6272,0-3.0937,1.4741-7.8999,4.6772-11.1018,10.5591-9.0411,14.9331-23.1547,19.5642-38.0979,1.0986-3.5505,2.2385-7.222,3.4683-10.8447,4.783-14.0786,11.084-26.1776,26.3076-39.491,19.7546-18.4642,28.6799-35.8865,34.3145-46.6191,5.7349-11.5496,6.9878-17.9946,11.179-24.7266,8.2437-13.0034,36.0718-15.4579,46.353-9.3898,4.2632,2.5201,5.2126,6.0051,2.8223,10.3623-1.5591,2.8236-16.2373,26.579-23.1428,42.8113-3.3911,7.9644-11.0584,10.9412-15.6199,13.6093-27.5605,16.1113-32.5855,46.4531-33.3882,58.8879-.2495,3.8799.1775,9.054,2.1328,11.9407,1.1321,1.6685,2.717,2.7439,4.459,3.0283,1.7236.2791,3.4888-.2214,5.1018-1.4551,1.6082-1.226,16.5308-16.2876,18.3164-17.8531,2.47-2.165,4.6362-1.8009,5.7375-.8258,1.1704,1.0317,1.6621,3.0874.1284,5.3567-2.0789,3.0732-12.3806,18.589-11.1738,21.989,2.0454,5.7466,7.9063,5.6321,13.7803,5.6887,47.2842-4.0125,64.0002-37.6631,64.0002-37.6631,1.1448-1.9604,2.5652-4.5488,1.8137-11.5483-1.3506-12.6226-4.3325-56.3729,20.9614-83.6133,7.5254-8.3516,11.938-2.7104,13.6465,1.0203,3.0615,6.6958,7.5898,18.2905,10.1628,24.1078,5.4646,12.342,9.2004,21.4552,15.4963,33.6725,10.6233,20.6113,26.5881,23.4619,46.3477,20.9805,25.5488-3.2097,43.165-1.1565,60.3313.5339,14.5806,1.2117,22.6414,2.1907,33.3547-7.6055,5.8403-5.3401,17.0427-15.1182,24.5684-25.7571,4.7651-6.7319,6.2417-10.9912,5.0403-21.4641-3.5376-52.5884,23.8093-98.2722,73.1082-122.1897,7.3945-2.9934,15.6096-2.0762,20.6318,4.6698,11.0584,16.4047,36.7793,58.403,36.7793,94.0514,0,3.364-1.325,7.0703-2.8611,11.3618-3.4861,9.7448-7.8215,21.8643.2368,38.4026.5017,14.313-4.7986,25.4895-9.4758,35.354-6.6614,14.0414-11.9202,25.1318,6.2983,36.0549,5.1509,3.0835,11.8325,5.8494,20.4233,8.4531.5044.1531,1.0061.229,1.4819.229.7412,0,1.4255-.184,1.9785-.543.6304-.4103,1.0215-1.0059,1.1013-1.6761.5017-4.1205.9905-18.4282,1.7625-21.8051.3086-1.3444,1.0034-2.9653,2.5574-3.0579,1.4434-.0837,2.8867,1.0947,3.2959,2.2383,1.4509,3.4399,5.1584,17.4338,6.1799,19.6555.8774,1.9104,1.917,3.2097,3.314,3.6174,7.3069,2.1085,17.2871-10.4509,21.0178-16.918,6.4424-13.3274,3.8-33.1309-6.7-50.3884-1.5435-3.3164-1.7649-4.6478-1.783-7.6632,3.8826-15.7074,1.0576-23.6602-1.9373-32.0824-1.7266-4.8577-3.4683-9.8838-4.2529-16.7778-2.8252-24.7329,12.311-103.0216,13.7339-111.0657,2.573-14.5637,4.7058-24.9517,5.6294-35.6459.8928-10.348-3.3447-22.4689-10.5435-30.1631-6.5996-7.0485-14.5547-13.5089-22.2451-19.7571-6.7822-5.5111-13.1912-10.7147-18.4294-16.0817-8.4778-8.6836-11.1765-21.3499-11.0994-24.926.0308-.9675.2083-1.5875.5479-1.8937.2651-.2418.6973-.3345,1.3225-.292,11.6731.8387,21.0154,8.578,32.8455,18.3729,10.5847,8.767,22.5845,18.7047,39.3931,26.1597,33.2107,14.7322,64.7336,12.5569,96.398-6.6536,13.4585-9.5479,17.6189-17.7347,18.2878-18.8706.844-1.4293-.3806-5.573-4.2375-3.3693Zm-735.92-131.3609c1.9282-15.3156,13.2356-31.6356,18.1965-50.7665,7.0671-21.5963,9.0244-59.3343,12.865-89.2541,1.9148-14.9117,7.6162-21.2214,18.3826-22.5464,7.1108-.6387,14.5212,5.5482,18.343,26.6152,13.2451,86.2693,39.1553,98.2045,54.2051,121.0531.2715.4125.5313.8442.7654,1.2791,3.8547,7.1625,5.0891,13.833-.9561,18.6703-3.5488,2.8388-15.3445,7.0818-35.4087-5.0163-24.0735-14.5159-27.7078-30.1508-67.6196,1.7896,0,0-5.3435,4.1479-10.4629,5.2889-4.3352.9661-9.1155-.7173-8.3103-7.1127Zm208.9546,316.4833c-1.4346.8948-3.0498.2838-5.3896-1.2128-15.8542-10.137-59.7964-18.1306-96.885-3.2703-38.1616,15.2918-73.1111,36.8841-75.4509-.8552-.4634-33.4489,6.6633-48.0175-4.9675-67.9205,0,0-.4963-.6731-1.0095-1.4847-1.0005-1.5823.2112-1.9321.5925-1.9625,53.5999-4.1888,67.9087-20.9416,71.2502-26.8026.7336-1.2855-.231-2.6725-1.5957-2.8243-12.3118-1.3633-73.7036-3.207-98.3921.3616-43.4233,6.2794-72.5896,71.6805-78.2315,77.8621-6.5156,7.1398-14.731,1.6735-14.731-4.8342,0-10.9123,6.4429-63.8781,10.7217-82.241,6.7727-29.0686,16.1074-50.6662,44.4646-55.0306,19.874-3.0578,68.6411-8.222,65.2876-21.4221-2.7847-10.9156-4.1716-19.4529-4.198-24.2806-.0371-6.4482,3.2622-7.7363,9.791-6.2886,4.8276,1.0717,11.2971,3.9388,19.5903,5.89,61.3521,14.438,92.7857,2.9377,129.3491-13.3109,1.0334-.4593,14.6348-6.575,15.4622-7.0355,6.5908-3.6716,14.8669,2.9582,11.2019,10.7981-1.9414,4.1532-4.5715,6.0748-10.2002,11.4949-12.0742,11.6282-57.1226,48.5546-29.9846,110.9811,21.1594,48.6747,27.3154,61.2743,42.3269,94.4711,2.4309,5.3779,2.7859,7.8023.9976,8.9175Zm114.0586,84.2219c-2.9902,4.6521-7.6016,7.9561-16.5667,7.9561-11.021,0-18.8196-3.3019-23.4954-8.2847-9.5972-10.2293-10.7915-24.2291-8.4424-33.4,1.4873-5.8068,4.9741-9.6275,8.7117-10.7321,1.6404-.5464,2.5261-.421,3.3391.6348,1.6626,2.6672,7.6201,12.1021,8.9939,14.0605,1.6074,2.295,4.5203,4.3156,6.8958,5.2658,4.4805,1.7928,10.1987,3.3481,13.2212,4.722,9.2524,3.9949,11.3853,13.4918,7.3428,19.7776Zm176.8892-172.1233c-1.1655,1.8899-2.2041,2.1948-3.7666,2.9088-55.5784,21.0248-99.7539,77.7605-91.7393,145.9291.1572,3.5607-.9529,8.5519-4.3062,11.9067,0,0-11.6653,11.8513-19.0071,16.8993-2.5088,1.7249-5.3337,3.1311-11.8948,2.7108-10.2769-.6572-24.7544-1.5679-24.7544-1.5679-3.8867-.6506-2.2224-4.0278-1.9294-4.7669.2771-.7047.5476-1.5243.76-2.4772,2.1025-10.2293.6006-24.559-13.7754-29.9251-2.0667-1.1627-.7693-3.0579-.52-3.6755,6.1699-15.1995,13.8921-34.0118,20.0833-60.3861,3.7424-15.9435,1.4443-25.5638-4.145-37.0282-1.238-2.5391-2.8591-4.8837-4.7024-7.024l-8.7439-11.5901c-2.436-2.8279-1.7983-5.805,1.717-7.0591l12.3245-3.1413c3.0076-1.0729,2.7183-5.635-.1777-6.3663l-6.3596-2.0351c-6.0154-2.478-9.6814-7.2814-12.3809-10.9886-.4441-.6099-1.2212-1.8383-1.9604-3.1744-1.3533-2.445-2.334-5.0812-2.8975-7.8184l-.7402-3.5976c-.082-1.8308-2.9619-1.8546-4.2219-.5898-9.7234,9.7611-12.7295,24.7483-5.5896,36.6622,10,16.6866,9.5959,15.044,18.5063,27.6642,2.9438,4.1697,4.7039,7.5611,5.6772,11.6832,1.3445,5.6929.9636,20.1271-2.8521,30.4296l-10.1118,30.7169c-6.1052,13.7367-12.9138,10.4258-16.7793,7.8563-4.9834-3.3113-9.6262-11.8975-12.1431-21.0037,0,0-6.9551-25.6412-6.7134-59.7236-.4634-4.1189-3.2678-10.8496-12.2105-4.957l-23.7908,19.7414c-3.3589,1.7896-9.1868.811-8.0071-6.9307,0,0,17.0986-76.2718,35.5103-119.24,13.8257-35.0471-1.5637-54.8009-19.9082-76.4988-29.97-38.2474-36.6821-89.6884,33.103-61.5092,18.7351,8.5677,25.4329-2.5378,48.5469-4.5399,16.5786-1.4346,22.0317,5.273,23.4478,8.1138,1.2656,2.5378,1.7026,5.3436,1.8503,6.8125.0647.6388-.1477,1.0604-.8459,1.0717-39.1265,2.2231-85.8135,34.7263-49.7544,85.7291,35.4063,49.9641,132.8467,66.7644,176.3638,19.1244.5728-.6381.718-2.0733-.1558-2.7992-.45-.3735-1.218-.7205-2.2344-.3352-9.5139,3.6069-18.2717,6.3268-27.0598,7.7733-20.79,3.4208-64.8337.9238-85.6526-22.8342-11.9106-13.5907-11.594-29.2877,8.5413-31.6844,11.21-.8994,16.696,1.1627,21.5527,1.2538,12.5574-.1703,15.1348-12.7302,12.5481-18.4104-2.1523-5.44-7.1558-12.0189-14.1924-17.736-6.4959-4.6204-2.9827-9.4533,1.2417-9.3372,40.3049,2.2963,78.835,9.2725,93.3691,57.6503.5569,1.8107,1.5415,7.9257,3.0803,10.2082,3.1199,4.627,8.5466,8.1025,14.5237,13.3129,14.6294,12.7547,27.7542,35.4958-16.7236,104.5928Zm52.354-29.9145c7.0779-14.8022,16.6882-4.8751,21.2717,11.3748,5.824,20.6421,6.6619,53.8534,4.2061,70.981-3.2043,22.3419-13.7083,17.8666-19.3276,9.9205-8.8716-12.5473-18.4734-29.2503-25.1653-40.7126-.2046-.35-.3965-.7033-.5725-1.0683-3.1101-6.4445-3.5781-11.5521-.3179-16.3378,3.3547-5.1443,16.6538-27.3542,19.9055-34.1575Z" fill="#000000" stroke-width="0"/>
</svg>