<svg id="Layer_1" data-name="Layer 1" xmlns="http://www.w3.org/2000/svg" width="434" height="80" viewBox="0 0 434 80">
  <defs>
    <style>
      .cls-1, .cls-2 {
        fill: #466ea5;
      }

      .cls-2, .cls-3, .cls-4, .cls-5 {
        fill-rule: evenodd;
      }

      .cls-3 {
        fill: #6390c6;
      }

      .cls-4 {
        fill: #6e8f82;
      }

      .cls-5 {
        fill: #e77c22;
      }
    </style>
  </defs>
  <title>Artboard 3</title>
  <path class="cls-1" d="M426.7,28.8a3.6,3.6,0,0,1,.7-1,2.6,2.6,0,0,1,1.1-.7,3,3,0,0,1,2.6,0,2.6,2.6,0,0,1,1.1.7,3.6,3.6,0,0,1,.7,1,3.1,3.1,0,0,1,.3,1.3,3.2,3.2,0,0,1-.3,1.4,4.1,4.1,0,0,1-.7,1.1,4.1,4.1,0,0,1-1.1.7l-1.3.2-1.3-.2a4.1,4.1,0,0,1-1.1-.7,4.1,4.1,0,0,1-.7-1.1,3.2,3.2,0,0,1-.3-1.4A3.1,3.1,0,0,1,426.7,28.8Zm.5,2.5.6.9a2.4,2.4,0,0,0,.9.6,3.1,3.1,0,0,0,2.2,0,2.4,2.4,0,0,0,.9-.6l.6-.9a4.3,4.3,0,0,0,.2-1.2,4.3,4.3,0,0,0-.2-1.1l-.6-.9-.9-.6-1.1-.2-1.1.2-.9.6-.6.9a4.3,4.3,0,0,0-.2,1.1A4.3,4.3,0,0,0,427.2,31.3Zm2.8-3.1a1.8,1.8,0,0,1,1.1.3,1.2,1.2,0,0,1,0,1.6,1.1,1.1,0,0,1-.7.3l1.1,1.7h-.7l-1-1.7h-.7v1.7h-.6V28.2Zm-.3,1.7h.8l.2-.2v-.4a.4.4,0,0,0-.1-.3.2.2,0,0,0-.2-.2h-1.4v1.2Z"/>
  <g>
    <path class="cls-1" d="M111.3,27.3l10,26.5,10-26.5H137V58.8h-4V32.6h-.1l-9.8,26.2h-3.6l-9.9-26.2h0V58.8h-4V27.3Z"/>
    <path class="cls-1" d="M162.9,58.8a6.8,6.8,0,0,1-2.7.5,3.2,3.2,0,0,1-2.4-.8,3.8,3.8,0,0,1-.8-2.7,9,9,0,0,1-3.6,2.7,11.2,11.2,0,0,1-4.5.8A13.6,13.6,0,0,1,146,59a8.8,8.8,0,0,1-2.4-1.1,5.3,5.3,0,0,1-1.6-2,6.5,6.5,0,0,1-.6-2.9,7.3,7.3,0,0,1,.6-3.2,7,7,0,0,1,1.8-2,9,9,0,0,1,2.4-1.2l2.9-.7,2.9-.4a13.7,13.7,0,0,0,2.5-.5,3.8,3.8,0,0,0,1.7-.8,2.1,2.1,0,0,0,.6-1.6,3.7,3.7,0,0,0-.5-2,3.4,3.4,0,0,0-1.2-1.2l-1.6-.5h-1.8a8.2,8.2,0,0,0-4,.9,3.9,3.9,0,0,0-1.7,3.4h-3.8a9.5,9.5,0,0,1,.9-3.6,6.9,6.9,0,0,1,2.2-2.3,6.9,6.9,0,0,1,3-1.3,13.7,13.7,0,0,1,3.6-.4,15.6,15.6,0,0,1,3.1.2,7.1,7.1,0,0,1,2.8.9,5.2,5.2,0,0,1,2,1.9,6.1,6.1,0,0,1,.7,3.2V53.5a8.4,8.4,0,0,0,.2,1.9c.1.4.4.6,1,.6a3,3,0,0,0,1.2-.2ZM156.7,47a3.8,3.8,0,0,1-1.8.8l-2.4.4-2.6.4a8.6,8.6,0,0,0-2.3.6,4.8,4.8,0,0,0-1.6,1.2,3.9,3.9,0,0,0-.7,2.3,3.3,3.3,0,0,0,.4,1.5,3.6,3.6,0,0,0,1,1.1l1.4.5a4.7,4.7,0,0,0,1.7.2,9.1,9.1,0,0,0,3.1-.5,5.8,5.8,0,0,0,2.2-1.3,4.8,4.8,0,0,0,1.3-1.6,5.5,5.5,0,0,0,.3-1.7Z"/>
    <path class="cls-1" d="M169.9,36v3.6h.1c1.5-2.8,4-4.1,7.4-4.1a10.4,10.4,0,0,1,3.8.6,6.1,6.1,0,0,1,2.4,1.7,7.1,7.1,0,0,1,1.3,2.6,17.6,17.6,0,0,1,.4,3.4v15h-3.8V43.4a4.7,4.7,0,0,0-1.2-3.4,4.9,4.9,0,0,0-3.4-1.2,6.7,6.7,0,0,0-3,.5,5.7,5.7,0,0,0-2.1,1.5,6.5,6.5,0,0,0-1.3,2.3,8.2,8.2,0,0,0-.4,2.8V58.8h-3.8V36Z"/>
    <path class="cls-1" d="M194,36v3.1h.1a5.3,5.3,0,0,1,2.9-2.8,10.3,10.3,0,0,1,4.3-.8,11.3,11.3,0,0,1,4.7.9,9.4,9.4,0,0,1,3.2,2.7,9.9,9.9,0,0,1,2,3.8,17,17,0,0,1,.7,4.6,14.3,14.3,0,0,1-.7,4.6,10.5,10.5,0,0,1-1.9,3.8,10.3,10.3,0,0,1-3.3,2.5,10.8,10.8,0,0,1-4.6.9h-1.8l-2.1-.6a11.8,11.8,0,0,1-1.9-1.1,6.1,6.1,0,0,1-1.5-1.7H194V67.5h-3.8V36Zm13.5,8.1a8.4,8.4,0,0,0-1.3-2.7,5.7,5.7,0,0,0-2.2-1.9,7.7,7.7,0,0,0-6.4,0,7,7,0,0,0-2.2,2,10.3,10.3,0,0,0-1.2,2.8,15.5,15.5,0,0,0-.4,3.1,16.5,16.5,0,0,0,.4,3.2,8,8,0,0,0,1.3,2.8,7,7,0,0,0,8.8,1.9,5.8,5.8,0,0,0,2.1-2,8.6,8.6,0,0,0,1.1-2.8,12.4,12.4,0,0,0,.4-3.3A11,11,0,0,0,207.5,44.1Z"/>
    <path class="cls-1" d="M215.2,42.7a12.8,12.8,0,0,1,2.1-3.8,10.7,10.7,0,0,1,3.5-2.5,13.3,13.3,0,0,1,9.6,0,9.8,9.8,0,0,1,3.5,2.5,12.8,12.8,0,0,1,2.1,3.8,14.9,14.9,0,0,1,.7,4.7,14.1,14.1,0,0,1-.7,4.7,11.7,11.7,0,0,1-2.1,3.8,9.8,9.8,0,0,1-3.5,2.5,13.3,13.3,0,0,1-9.6,0,10.7,10.7,0,0,1-3.5-2.5,11.7,11.7,0,0,1-2.1-3.8,14.1,14.1,0,0,1-.7-4.7A14.9,14.9,0,0,1,215.2,42.7Zm3.8,8.4a7.9,7.9,0,0,0,3.8,4.4,6.8,6.8,0,0,0,5.6,0,9.1,9.1,0,0,0,2.3-1.7,8.7,8.7,0,0,0,1.5-2.7,13.2,13.2,0,0,0,.5-3.7,13.8,13.8,0,0,0-.5-3.7,11.7,11.7,0,0,0-1.5-2.7,9.1,9.1,0,0,0-2.3-1.7,8.1,8.1,0,0,0-5.6,0,7.2,7.2,0,0,0-2.2,1.7,9.2,9.2,0,0,0-1.6,2.7,13.8,13.8,0,0,0-.5,3.7A13.2,13.2,0,0,0,219,51.1Z"/>
    <path class="cls-1" d="M258.7,58.8,254,40.7h-.1l-4.5,18.1h-4.1L237.9,36h4.2l5.2,18.7h.1L252,36h4.1l4.7,18.7h.1L266.1,36H270l-7.3,22.8Z"/>
    <path class="cls-1" d="M288.2,57.4a10.4,10.4,0,0,1-6.5,1.9,11.3,11.3,0,0,1-4.7-.9,9.2,9.2,0,0,1-3.4-2.4,10.7,10.7,0,0,1-2-3.8,15.3,15.3,0,0,1-.8-4.9,11.3,11.3,0,0,1,6.4-11,10.3,10.3,0,0,1,4.3-.8,9.9,9.9,0,0,1,5.1,1.2,10.8,10.8,0,0,1,3.2,3.2,12.5,12.5,0,0,1,1.7,4.3,22.2,22.2,0,0,1,.4,4.3H274.8a9.2,9.2,0,0,0,.3,2.9,7,7,0,0,0,1.3,2.4,5.6,5.6,0,0,0,2.3,1.6,7.6,7.6,0,0,0,3.2.7,6.1,6.1,0,0,0,3.9-1.2,5.1,5.1,0,0,0,2-3.3h3.7A9.1,9.1,0,0,1,288.2,57.4Zm-.9-14.7a6,6,0,0,0-1.4-2.1,6.6,6.6,0,0,0-4.6-1.8,5.5,5.5,0,0,0-2.6.5,4.8,4.8,0,0,0-2,1.4,7.2,7.2,0,0,0-1.4,2,7,7,0,0,0-.5,2.5h13.1A10.2,10.2,0,0,0,287.3,42.7Z"/>
    <path class="cls-1" d="M299.3,36v4.8h0a11,11,0,0,1,3.4-4.1,7.9,7.9,0,0,1,5-1.2v3.9a8.9,8.9,0,0,0-3.8.7,6.1,6.1,0,0,0-2.6,1.8,7.8,7.8,0,0,0-1.4,2.9,15.1,15.1,0,0,0-.4,3.9V58.8h-3.8V36Z"/>
    <path class="cls-1" d="M330.6,58.5a14.9,14.9,0,0,1-5.5,1,14.5,14.5,0,0,1-6.3-1.3,12.6,12.6,0,0,1-4.7-3.5,14.4,14.4,0,0,1-3-5.1,17,17,0,0,1-1-5.9,23.9,23.9,0,0,1,.9-6.6,15.6,15.6,0,0,1,2.9-5.4,12.6,12.6,0,0,1,4.7-3.8,14.5,14.5,0,0,1,6.5-1.4,19.9,19.9,0,0,1,4.9.6,11.8,11.8,0,0,1,7,5.1,13.6,13.6,0,0,1,1.7,4.8h-4.2a7.7,7.7,0,0,0-1.2-3.1,7,7,0,0,0-2-2.2,13.9,13.9,0,0,0-2.8-1.2,12.7,12.7,0,0,0-3.4-.4,9.6,9.6,0,0,0-4.9,1.1,11,11,0,0,0-3.4,3,15.2,15.2,0,0,0-1.9,4.3,20.7,20.7,0,0,0-.6,5,14.9,14.9,0,0,0,.7,4.7,12.7,12.7,0,0,0,2.1,4,9.3,9.3,0,0,0,3.4,2.8,9.5,9.5,0,0,0,4.6,1.1,11.9,11.9,0,0,0,4.4-.8,10.7,10.7,0,0,0,3.2-2.2,10.1,10.1,0,0,0,2-3.3,10.7,10.7,0,0,0,.5-4h-10V42.2H339V58.8h-2.7l-1.1-3.9A10.2,10.2,0,0,1,330.6,58.5Z"/>
    <path class="cls-1" d="M347.6,36v4.8h.1a10,10,0,0,1,3.3-4.1,8.3,8.3,0,0,1,5.1-1.2v3.9a9.4,9.4,0,0,0-3.9.7,5.8,5.8,0,0,0-2.5,1.8,5.6,5.6,0,0,0-1.4,2.9,14.8,14.8,0,0,0-.5,3.9V58.8h-3.7V36Z"/>
    <path class="cls-1" d="M357.6,42.7a12.8,12.8,0,0,1,2.1-3.8,9.8,9.8,0,0,1,3.5-2.5,13.3,13.3,0,0,1,9.6,0,9.4,9.4,0,0,1,3.4,2.5,11.1,11.1,0,0,1,2.2,3.8,18.4,18.4,0,0,1,.7,4.7,17.2,17.2,0,0,1-.7,4.7,10.3,10.3,0,0,1-2.2,3.8,9.4,9.4,0,0,1-3.4,2.5,13.2,13.2,0,0,1-9.6,0,9.8,9.8,0,0,1-3.5-2.5,11.7,11.7,0,0,1-2.1-3.8,14.1,14.1,0,0,1-.7-4.7A14.9,14.9,0,0,1,357.6,42.7Zm3.8,8.4a8.7,8.7,0,0,0,1.5,2.7,7.6,7.6,0,0,0,2.3,1.7,6.7,6.7,0,0,0,2.8.6,6,6,0,0,0,2.7-.6,6.6,6.6,0,0,0,2.3-1.7,5.9,5.9,0,0,0,1.5-2.7,10.2,10.2,0,0,0,.6-3.7,10.6,10.6,0,0,0-.6-3.7A7.2,7.2,0,0,0,373,41a6.6,6.6,0,0,0-2.3-1.7,7.6,7.6,0,0,0-2.7-.5,8.7,8.7,0,0,0-2.8.5,7.6,7.6,0,0,0-2.3,1.7,11.7,11.7,0,0,0-1.5,2.7,10.7,10.7,0,0,0-.5,3.7A10.4,10.4,0,0,0,361.4,51.1Z"/>
    <path class="cls-1" d="M398.1,58.8V55.2h0a7.7,7.7,0,0,1-3.1,3.1,8.7,8.7,0,0,1-4.4,1,9.9,9.9,0,0,1-3.7-.6,6.2,6.2,0,0,1-2.5-1.7,7.1,7.1,0,0,1-1.3-2.6,17.2,17.2,0,0,1-.3-3.4V36h3.7V51.5a4.5,4.5,0,0,0,1.2,3.3,5,5,0,0,0,3.5,1.3,6.5,6.5,0,0,0,2.9-.6,4.1,4.1,0,0,0,2.1-1.5,5.8,5.8,0,0,0,1.3-2.3,8.2,8.2,0,0,0,.4-2.8V36h3.8V58.8Z"/>
    <path class="cls-1" d="M410.3,36v3.1h.1a5.7,5.7,0,0,1,2.9-2.8,12.3,12.3,0,0,1,9,.1,9.8,9.8,0,0,1,3.3,2.7,11.5,11.5,0,0,1,2,3.8,17,17,0,0,1,.6,4.6,17.6,17.6,0,0,1-.6,4.6,12.3,12.3,0,0,1-1.9,3.8,10.3,10.3,0,0,1-3.3,2.5,10.8,10.8,0,0,1-4.6.9h-1.9l-2-.6a11.8,11.8,0,0,1-1.9-1.1,6.5,6.5,0,0,1-1.6-1.7h-.1V67.5h-3.7V36Zm13.5,8.1a8.3,8.3,0,0,0-1.2-2.7,5.7,5.7,0,0,0-2.2-1.9,6.6,6.6,0,0,0-3.2-.7,6.3,6.3,0,0,0-3.2.7,7,7,0,0,0-2.2,2,6.5,6.5,0,0,0-1.2,2.8,10.6,10.6,0,0,0-.4,3.1,11.2,11.2,0,0,0,.4,3.2,8,8,0,0,0,1.3,2.8,5.9,5.9,0,0,0,2.2,1.9,7.2,7.2,0,0,0,6.6,0,8,8,0,0,0,2.1-2,8.6,8.6,0,0,0,1.1-2.8,12.4,12.4,0,0,0,.4-3.3A11.2,11.2,0,0,0,423.8,44.1Z"/>
  </g>
  <g>
    <path class="cls-2" d="M9.8,48.3a4.4,4.4,0,0,1-5.7,2.6,4.3,4.3,0,0,1-2.6-5.6l8.9-24.6a4.4,4.4,0,0,1,5.7-2.6,4.3,4.3,0,0,1,2.6,5.6L9.8,48.3Z"/>
    <path class="cls-3" d="M25,54.7a5.8,5.8,0,0,1-7.4,3.5,5.8,5.8,0,0,1-3.4-7.5L26.3,17.4a5.8,5.8,0,0,1,10.9,4L25,54.7Z"/>
    <path class="cls-4" d="M44.3,62.5a7.8,7.8,0,1,1-14.6-5.3L45.6,13.5a7.8,7.8,0,1,1,14.6,5.3L44.3,62.5Z"/>
    <path class="cls-5" d="M68.4,72.3a10.3,10.3,0,1,1-19.3-7L69.8,8.4a10.3,10.3,0,1,1,19.3,7L68.4,72.3Z"/>
  </g>
</svg>
