<svg fill="none" height="70" viewBox="0 0 700 70" width="700" xmlns="http://www.w3.org/2000/svg"><path d="M125.409 0.966776H85.0453C79.188 0.966776 73.9307 3.83211 70.996 8.07611C68.0813 3.83211 62.884 0.966776 56.8587 0.966776H0V69.7388H26.2067V19.2841C26.2067 16.8454 28.344 14.8601 31.144 14.8601H54.2667C57.0053 14.8601 59.1813 16.8454 59.1813 19.2841V69.7388H82.736V19.2841C82.736 16.8454 84.984 14.8601 87.6547 14.8601H110.776C113.599 14.8601 115.796 16.8454 115.796 19.2841V69.7388H141.863V15.9068C141.863 7.68677 134.509 0.966776 125.409 0.966776Z" fill="#000000"></path><path d="M532.812 51.3859C532.812 53.9513 530.618 55.9753 527.831 55.9753H471.216C468.411 55.9753 466.148 53.9513 466.148 51.3859V0.967264H437.339V54.8726C437.339 63.0739 444.827 69.7393 453.886 69.7393H545.151C554.203 69.7393 561.678 63.0739 561.678 54.8726V0.967264H532.812V51.3859Z" fill="#000000"></path><path d="M613.54 14.9776H699.733V0.966903H594.87C585.762 0.966903 578.394 7.6869 578.394 15.9069V25.7616C578.394 33.9722 585.762 40.6842 594.87 40.6842H664.002C667.605 40.6842 670.612 43.3269 670.612 46.6789V48.2042C670.612 51.5322 667.605 54.2122 664.002 54.2122H577.282V68.1709H682.545C691.657 68.1709 699.137 61.4842 699.137 53.1469V41.6576C699.137 33.4216 691.657 26.6896 682.545 26.6896H613.54C609.813 26.6896 606.88 24.0602 606.88 20.8229V20.9482V20.6842V20.8229C606.88 17.6056 609.813 14.9776 613.54 14.9776Z" fill="#000000"></path><path d="M189.184 29.0318V19.2838C189.184 16.8465 191.513 14.8598 194.249 14.8598H250.92C253.717 14.8598 255.879 16.8465 255.879 19.2838V29.0318H189.184ZM255.879 69.3491H285.245V15.5518C285.245 7.31846 277.896 0.549127 268.753 0.549127H176.376C167.185 0.549127 159.901 7.31846 159.901 15.5518V69.3491H189.184V42.7038H255.879V69.3491Z" fill="#000000"></path><path d="M328.722 69.5684L361.05 40.5017L393.419 69.5684H424.284L383.415 33.4217L423.294 0.813688H393.419L361.05 26.3884L328.722 0.813688H298.716L338.65 33.4217L297.919 69.5684H328.722Z" fill="#000000"></path></svg>