<svg xmlns="http://www.w3.org/2000/svg" viewBox="30 5 308.5 308.5"><path fill="#041428" d="M325.2 143.1c-6-50.1-45.4-83.8-93.9-95.4-15.4-3.7-31.3-5.2-47.1-5.2s-31.7 1.5-47.1 5.2C88.7 59.3 49.2 93 43.2 143.1c-.6 4.8-.8 8.8-.8 14.9s.2 10.1.8 14.9c6 50.1 45.4 83.8 93.9 95.4 15.4 3.7 31.2 5.1 47.1 5.1s31.7-1.5 47.1-5.1c48.4-11.6 87.9-45.3 93.9-95.4.6-4.8.8-8.8.8-14.9s-.2-10.1-.8-14.9m-242.6-43c0-.2.2-.4.3-.5 12.3-18.3 35.7-33.5 61.7-40.1 12.9-3.3 26.3-4.6 39.6-4.6s26.6 1.3 39.6 4.6c26 6.6 49.4 21.8 61.7 40.1.1.1.2.4.3.5 0 .2 0 .3-.1.4-.1 0-.3.2-.5.2-3.8 1.9-10.9 5.4-15.9 7.9-30.5 15.1-52 26-56.7 30.2-5.8 5.1-14.4 18-28.5 39.1-14.1-21.1-22.7-33.9-28.5-39.1-4.7-4.1-26.2-15.1-56.7-30.2-5-2.5-12.1-6-15.9-7.9-.1 0-.3-.2-.4-.2-.2-.1-.2-.3-.1-.4zm220.3 71.3c-5 44.8-38.2 74.9-79 85.3-12.9 3.3-26.3 4.6-39.6 4.6s-26.6-1.3-39.6-4.6c-40.8-10.4-74-40.5-79-85.3-.5-4.3-.7-7.9-.7-13.4s.2-8.4.6-12.3c.7-5.6 2.1-12.8 3.8-16.6 0-.1.1-.2.2-.3 0-.2.2-.2.4-.2.1 0 .3.1.4.2 3.3 1.4 8.8 3.6 17.1 7.2 38.5 16.7 61.3 27.8 66.8 32.4 4.7 3.9 16.1 19.9 28.1 36.6h3.9c11.9-16.7 23.3-32.6 28.1-36.6 5.5-4.6 28.3-15.6 66.8-32.4 8.3-3.6 13.8-5.9 17.1-7.2.1 0 .3-.1.4-.2.1 0 .3 0 .4.2 0 0 .1.2.2.3 1.6 3.8 3.1 11 3.8 16.6.5 3.8.6 6.9.6 12.3s-.2 9-.6 13.4z"/></svg>