<?xml version="1.0" standalone="no"?>
<!DOCTYPE svg PUBLIC "-//W3C//DTD SVG 20010904//EN"
 "http://www.w3.org/TR/2001/REC-SVG-20010904/DTD/svg10.dtd">
<svg version="1.0" xmlns="http://www.w3.org/2000/svg"
 width="70.000000pt" height="70.000000pt" viewBox="0 0 70.000000 70.000000"
 preserveAspectRatio="xMidYMid meet">
<metadata>
Created by potrace 1.11, written by Peter Selinger 2001-2013
</metadata>
<g transform="translate(0.000000,70.000000) scale(0.100000,-0.100000)"
fill="#000000" stroke="none">
<path d="M190 590 c-8 -5 -10 -10 -5 -10 6 0 17 5 25 10 8 5 11 10 5 10 -5 0
-17 -5 -25 -10z"/>
<path d="M458 593 c7 -3 16 -2 19 1 4 3 -2 6 -13 5 -11 0 -14 -3 -6 -6z"/>
<path d="M490 595 c0 -2 23 -16 50 -30 49 -25 65 -45 35 -45 -8 0 -15 3 -15 8
0 9 -52 36 -99 51 -18 6 -79 9 -135 7 -99 -3 -141 -15 -193 -52 -13 -10 -23
-11 -27 -5 -4 6 10 19 31 30 21 11 34 20 30 21 -15 0 -62 -29 -83 -52 -26 -28
-57 -88 -50 -95 3 -3 13 13 22 36 17 42 28 51 37 28 5 -14 107 -70 114 -64 2
3 -18 14 -44 27 -42 20 -45 23 -27 33 10 6 25 17 32 24 34 33 79 47 164 50 94
3 155 -15 200 -57 24 -22 34 -25 43 -10 3 6 12 10 18 10 7 -1 -1 -12 -18 -26
-16 -15 -23 -23 -15 -19 8 5 23 15 33 23 9 8 17 13 18 11 5 -27 2 -56 -6 -55
-5 1 -46 -12 -90 -29 -58 -21 -92 -41 -122 -71 -28 -29 -40 -36 -38 -23 2 10
0 18 -4 16 -4 -1 -20 13 -36 31 -27 32 -82 68 -91 59 -3 -2 9 -10 26 -17 29
-12 80 -66 80 -85 0 -4 -17 8 -39 28 -21 19 -56 40 -77 47 -22 7 -59 22 -83
33 -43 20 -44 20 -57 2 -14 -18 -18 -59 -14 -120 3 -46 26 -92 52 -106 12 -7
39 -25 58 -40 39 -31 92 -45 160 -43 25 1 60 2 79 3 71 2 20 12 -80 15 -123 3
-157 17 -194 81 -26 43 -46 165 -29 165 20 0 139 -42 153 -53 12 -9 13 -9 7 0
-5 9 -2 11 8 7 9 -3 14 -9 12 -13 -2 -3 7 -20 21 -36 24 -27 24 -28 10 -3 -16
25 -16 27 3 25 10 -1 17 -3 15 -6 -3 -2 0 -10 6 -18 9 -10 8 -17 -1 -28 -10
-12 -10 -19 -2 -27 8 -8 16 0 29 28 22 47 80 87 154 108 30 9 59 16 64 16 4 0
5 -25 2 -55 -6 -58 -26 -125 -38 -125 -4 0 -10 -8 -13 -18 -4 -9 14 4 39 30
25 27 45 53 45 60 0 6 3 9 6 5 4 -3 -3 -26 -15 -51 -44 -89 -133 -128 -284
-122 -51 2 -109 9 -130 15 -36 12 -133 95 -156 136 -11 18 -11 18 -5 -5 27
-105 144 -170 304 -170 208 1 319 86 328 253 4 57 0 75 -23 122 -14 30 -30 53
-35 50 -4 -3 -10 4 -13 14 -4 17 -107 80 -107 66z m-370 -96 c0 -14 -17 -10
-23 5 -4 10 -1 13 9 9 7 -3 14 -9 14 -14z"/>
<path d="M515 450 c-16 -7 -17 -9 -3 -9 9 -1 20 4 23 9 7 11 7 11 -20 0z"/>
<path d="M440 421 c-37 -20 -90 -71 -74 -71 5 0 15 9 22 20 6 11 33 31 59 44
27 14 44 25 38 25 -5 0 -26 -8 -45 -18z"/>
<path d="M24 406 c-3 -8 -4 -23 -2 -33 3 -11 6 -6 9 15 6 34 2 42 -7 18z"/>
<path d="M21 334 c0 -11 3 -14 6 -6 3 7 2 16 -1 19 -3 4 -6 -2 -5 -13z"/>
<path d="M494 166 c-10 -8 -23 -14 -29 -14 -5 0 -11 -6 -14 -13 -3 -9 22 1 68
29 2 1 2 4 0 7 -3 2 -14 -2 -25 -9z"/>
</g>
</svg>
