<?xml version="1.0" encoding="UTF-8"?><svg id="a" xmlns="http://www.w3.org/2000/svg" viewBox="0 0 157.95 128.73"><path d="M145.06,71.8c-2.793,24.964-21.308,41.722-44.02,47.508-7.218,1.838-14.655,2.562-22.065,2.562s-14.846-.724-22.065-2.562c-22.711-5.786-41.227-22.545-44.02-47.508-.269-2.404-.359-4.396-.359-7.436,0-2.98.085-4.707.34-6.847.37-3.116,1.193-7.123,2.099-9.223l.09-.185c.049-.088.138-.114.217-.088.067.022.166.059.234.087,1.854.761,4.875,2.017,9.518,4.034,21.453,9.322,34.144,15.47,37.23,18.032,2.63,2.183,8.981,11.078,15.632,20.368h2.167c6.65-9.29,13.002-18.185,15.632-20.368,3.086-2.562,15.777-8.71,37.23-18.032,4.642-2.017,7.664-3.273,9.517-4.034.069-.028.168-.064.234-.087.079-.026.169,0,.217.088l.091.185c.907,2.1,1.729,6.106,2.1,9.223.253,2.14.339,3.867.339,6.847,0,3.04-.09,5.032-.359,7.436h.001ZM22.351,32.061c.046-.088.116-.21.17-.291,6.844-10.209,19.9-18.664,34.389-22.35,7.218-1.836,14.655-2.562,22.065-2.562s14.846.726,22.065,2.562c14.489,3.686,27.545,12.141,34.389,22.35.054.08.124.203.17.291.044.083.038.167-.064.228-.069.041-.173.098-.249.136-2.127,1.058-6.057,3.003-8.853,4.385-16.999,8.408-28.992,14.51-31.59,16.814-3.225,2.861-8.001,10.029-15.868,21.767-7.867-11.738-12.642-18.906-15.868-21.767-2.598-2.304-14.59-8.406-31.59-16.814-2.796-1.383-6.726-3.327-8.853-4.385-.077-.038-.18-.096-.249-.136-.103-.06-.108-.145-.064-.228h0ZM157.523,56.041c-3.318-27.941-25.321-46.698-52.314-53.173C96.628.809,87.782,0,78.975,0s-17.652.809-26.233,2.869C25.748,9.343,3.746,28.1.427,56.041.107,58.732,0,60.961,0,64.365s.107,5.632.427,8.323c3.318,27.941,25.321,46.698,52.314,53.173,8.581,2.06,17.411,2.869,26.233,2.869s17.653-.809,26.234-2.869c26.993-6.475,48.996-25.232,52.314-53.173.319-2.691.427-4.92.427-8.323s-.108-5.633-.427-8.324h0Z" fill="#000" stroke-width="0"/></svg>