<svg xmlns="http://www.w3.org/2000/svg" width="48" height="48" viewBox="0 0 96 96" fill="none" class="logo-token" data-v-2800bbac=""><g clip-path="url(#clip0_cw0t37qf7_1772456590076)" data-v-2800bbac=""><path d="M8.3155 96C8.3155 96 0 96 0 87.6845V8.3155C0 8.3155 0 0 8.3155 0H87.6845C87.6845 0 96 0 96 8.3155V87.6845C96 87.6845 96 96 87.6845 96H8.3155Z" fill="white" data-v-2800bbac=""></path><path class="static" d="M61.9464 19.7287C56.3156 19.7287 51.2905 27.2319 48.007 38.9686C44.7234 27.2388 39.6983 19.7287 34.0675 19.7287C24.1687 19.7287 16.1423 44.6958 16.1423 75.4935H24.1137C24.1137 46.8986 28.5743 23.7143 34.0744 23.7143C39.5744 23.7143 44.0351 45.1157 44.0351 71.5147H51.9995C51.9995 45.1157 56.4601 23.7143 61.9602 23.7143C67.4603 23.7143 71.9209 46.8986 71.9209 75.4935H79.8853C79.8853 44.6958 71.859 19.7287 61.9602 19.7287H61.9464Z" fill="#FFBC0D" data-v-2800bbac=""></path><!----><!----></g><defs data-v-2800bbac=""><clipPath id="clip0_cw0t37qf7_1772456590076" data-v-2800bbac=""><rect width="96" height="96" fill="white" data-v-2800bbac=""></rect></clipPath></defs></svg>