<svg aria-label="MEGGLE Group" class="group-[.scroll-top]:lg:h-[70px] h-[44px] transition-[height] duration-300 ease-in-out lg:will-change-[height,width]" height="70.263" viewBox="0 0 151.951 70.263" width="151.951" xmlns="http://www.w3.org/2000/svg"><path d="m0 40.442c0-17.564 30.741-26.735 60.14-29.148a5.906 5.906 0 0 1 5.892-4.752h.176a7.188 7.188 0 0 1 -.05-.852 5.789 5.789 0 0 1 5.887-5.69 6.294 6.294 0 0 1 1.235.127c.309.062.61.142.936.226a6.631 6.631 0 0 0 1.765.241 6.63 6.63 0 0 0 1.766-.24c.323-.085.625-.165.936-.226a6.265 6.265 0 0 1 1.235-.128 5.786 5.786 0 0 1 5.882 5.692 7.756 7.756 0 0 1 -.046.852h.174a5.907 5.907 0 0 1 5.896 4.756c29.388 2.428 60.128 11.6 60.128 29.141 0 20.78-43.1 29.82-76.022 29.82s-75.93-9.04-75.93-29.819" fill="#fff"></path><path d="m75.654 61.081c-40.114 0-73.767-12.14-73.884-26.472 3.9 12.883 34.686 22.608 73.884 22.608s69.891-9.726 73.791-22.608c-.12 14.332-33.681 26.472-73.791 26.472" fill="#009639" transform="translate(.373 7.298)"></path><path d="m75.654 61.081c-40.114 0-73.767-12.14-73.884-26.472 3.9 12.883 34.686 22.608 73.884 22.608s69.891-9.726 73.791-22.608c-.119 14.332-33.68 26.472-73.791 26.472z" fill="none" stroke="#009639" stroke-linejoin="round" stroke-width=".207" transform="translate(.373 7.298)"></path><path d="m75.654 10.322c-40.114 0-73.767 12.143-73.884 26.478 3.9-12.883 34.686-22.6 73.884-22.6s69.891 9.722 73.791 22.6c-.12-14.331-33.681-26.474-73.791-26.474" fill="#009639" transform="translate(.373 2.177)"></path><path d="m75.654 10.322c-40.114 0-73.767 12.143-73.884 26.478 3.9-12.883 34.686-22.6 73.884-22.6s69.891 9.722 73.791 22.6c-.119-14.335-33.68-26.478-73.791-26.478z" fill="none" stroke="#009639" stroke-linejoin="round" stroke-width=".207" transform="translate(.373 2.177)"></path><g fill="#0b4396"><path d="m20.621 23.931-2.853 21.746h5.615c.441-3.154.677-6.34 1.234-9.495l3.76 9.525h.442l3.849-9.371 1.265 9.4h5.758l-2.969-21.774h-4.463l-3.531 9.711-3.7-9.743z" transform="translate(3.747 5.047)"></path><path d="m38.767 24.005v21.77h11.043l1.469-5.657-7.049.017v-2.741h4.611v-5.533h-4.553v-2.443h6.843l-1.085-5.413z" transform="translate(8.175 5.062)"></path><path d="m85.083 23.979v21.771h11.427l1.647-5.61h-6.993v-16.161z" transform="translate(17.942 5.057)"></path><path d="m97.584 24.005v21.77h11.046l1.468-5.657-7.05.017v-2.741h4.61v-5.533h-4.552v-2.443h6.844l-1.086-5.413z" transform="translate(20.579 5.062)"></path><path d="m66.289 31.006a8.138 8.138 0 0 0 -4.845-1.638 5.287 5.287 0 0 0 -5.2 5.506c0 3.309 1.966 5.812 5.2 5.812a8.582 8.582 0 0 0 2-.277v-3.376h-2.117v-2.933h7.665v10.6a17.093 17.093 0 0 1 -7.313 1.515c-6.318 0-10.928-4.205-10.928-11.007 0-6.556 4.64-11.565 10.87-11.565a13.931 13.931 0 0 1 6.9 1.856z" transform="translate(10.703 4.987)"></path><path d="m82.718 31.006a8.142 8.142 0 0 0 -4.847-1.638 5.286 5.286 0 0 0 -5.2 5.506c0 3.309 1.969 5.812 5.2 5.812a8.585 8.585 0 0 0 2-.277v-3.376h-2.117v-2.933h7.67v10.6a17.113 17.113 0 0 1 -7.316 1.515c-6.316 0-10.927-4.205-10.927-11.007 0-6.556 4.641-11.565 10.869-11.565a13.947 13.947 0 0 1 6.9 1.856z" transform="translate(14.167 4.987)"></path></g><path d="m81.375 9.381a5.949 5.949 0 0 1 .071.941 6.728 6.728 0 0 1 -.14 1.429c-.075.356-.173.662-.27.98a4.215 4.215 0 0 0 -.243 1.506 4.691 4.691 0 0 0 .23 1.595c.094.3.184.586.254.908a6.2 6.2 0 0 1 .139 1.348 5.935 5.935 0 0 1 -5.978 5.912 7.184 7.184 0 0 1 -5.082-2.583c-.409-.427-.8-.875-1.172-1.309.153 1.686.488 3.829.488 3.829h-8.295s.329-2.143.482-3.829c-.371.434-.762.882-1.171 1.309a7.19 7.19 0 0 1 -5.088 2.583 5.936 5.936 0 0 1 -5.976-5.914 6.038 6.038 0 0 1 .142-1.348c.069-.322.159-.605.252-.908a4.672 4.672 0 0 0 .234-1.595 4.208 4.208 0 0 0 -.246-1.506c-.1-.317-.195-.624-.27-.98a6.711 6.711 0 0 1 -.143-1.429 6.094 6.094 0 0 1 .074-.941z" fill="#fff" transform="translate(10.459 1.978)"></path><path d="m81.375 9.381a5.949 5.949 0 0 1 .071.941 6.728 6.728 0 0 1 -.14 1.429c-.075.356-.173.662-.27.98a4.215 4.215 0 0 0 -.243 1.506 4.691 4.691 0 0 0 .23 1.595c.094.3.184.586.254.908a6.2 6.2 0 0 1 .139 1.348 5.935 5.935 0 0 1 -5.978 5.912 7.184 7.184 0 0 1 -5.082-2.583c-.409-.427-.8-.875-1.172-1.309.153 1.686.488 3.829.488 3.829h-8.295s.329-2.143.482-3.829c-.371.434-.762.882-1.171 1.309a7.19 7.19 0 0 1 -5.088 2.583 5.936 5.936 0 0 1 -5.976-5.914 6.038 6.038 0 0 1 .142-1.348c.069-.322.159-.605.252-.908a4.672 4.672 0 0 0 .234-1.595 4.208 4.208 0 0 0 -.246-1.506c-.1-.317-.195-.624-.27-.98a6.711 6.711 0 0 1 -.143-1.429 6.094 6.094 0 0 1 .074-.941z" fill="none" stroke="#fff" stroke-miterlimit="3.864" stroke-width=".243" transform="translate(10.459 1.978)"></path><path d="m65.2 2.117c-1.916 0-2.683-.6-3.937-.6a3.944 3.944 0 0 0 -4.042 3.851 4.278 4.278 0 0 0 1.509 3.388l3.945 3.693c.638.6.027 1.325-.618.69l-3.957-3.916a3.592 3.592 0 0 0 -2.848-1.16 4 4 0 0 0 -4.135 3.916c0 1.69.66 1.943.66 3.914 0 2.1-.63 2.318-.63 3.852a4.092 4.092 0 0 0 4.135 4.067c2.974 0 4.856-3.69 6.576-5.069 1.24-.993 1.6.031 1.6 1.722a24.254 24.254 0 0 1 -.248 3.285h3.99a24.253 24.253 0 0 1 -.248-3.285c0-1.69.354-2.715 1.595-1.722 1.721 1.379 3.6 5.069 6.575 5.069a4.091 4.091 0 0 0 4.136-4.067c0-1.534-.627-1.752-.627-3.852 0-1.97.658-2.223.658-3.914a4 4 0 0 0 -4.134-3.916 3.607 3.607 0 0 0 -2.855 1.16l-3.955 3.916c-.644.636-1.253-.093-.616-.69l3.945-3.693a4.277 4.277 0 0 0 1.505-3.384 3.945 3.945 0 0 0 -4.041-3.851c-1.251 0-2.021.6-3.935.6" fill="#0b4396" transform="translate(10.78 .321)"></path></svg>