<?xml version="1.0" encoding="UTF-8"?>
<svg id="Layer_2" data-name="Layer 2" xmlns="http://www.w3.org/2000/svg" viewBox="0 0 554.28 417.48">
  <defs>
    <style>
      .cls-1 {
        fill: #fff;
      }
    </style>
  </defs>
  <g id="Layer_1-2" data-name="Layer 1">
    <g>
      <g>
        <path class="cls-1" d="M547.18.09h-29.12c-2.32,0-4.38,1.18-5.61,2.98l-55.89,88.88c-1.1,1.74-3.64,1.74-4.73,0L396.62,3.89c-1.3-2.19-3.41-3.8-6.06-3.8h-28.87c-3.74,0-6.79,3.06-6.79,6.79v212.52c0,3.74,3.06,6.79,6.79,6.79h28.87c3.74,0,6.79-3.06,6.79-6.79V89.09c0-2.89,3.78-3.98,5.32-1.53l34.55,54.96c1.83,2.92,5.04,4.69,8.48,4.69h17.03c3.43,0,6.63-1.76,8.46-4.66l35.02-55.34c1.54-2.44,5.31-1.35,5.31,1.54v130.66c0,3.74,3.06,6.79,6.79,6.79h28.87c3.74,0,6.79-3.06,6.79-6.79V6.89c0-3.74-3.06-6.79-6.79-6.79Z"/>
        <path class="cls-1" d="M107.94,91.95l33.73-53.64c1.14-1.81,3.94-1,3.94,1.14v61.19c0,3.59-1.02,7.11-2.94,10.14l-20.1,31.76c-1.84,2.92-5.02,4.67-8.45,4.67h-17.04c-3.45,0-6.65-1.77-8.49-4.69l-34.54-54.95c-1.53-2.45-5.3-1.37-5.3,1.53v130.32c0,3.74-3.06,6.79-6.79,6.79H13.08c-3.74,0-6.79-3.06-6.79-6.79V6.88C6.28,3.15,9.34.09,13.08.09h28.87c2.65,0,4.75,1.61,6.06,3.8l55.19,88.06c1.1,1.75,3.63,1.75,4.73,0Z"/>
        <rect class="cls-1" x="162.95" y="0" width="42.45" height="226.11" rx="6.79" ry="6.79"/>
        <rect class="cls-1" x="222.69" y=".08" width="114.79" height="42.45" rx="6.79" ry="6.79"/>
        <rect class="cls-1" x="222.69" y="78.96" width="114.79" height="42.45" rx="6.79" ry="6.79"/>
      </g>
      <g>
        <path class="cls-1" d="M7.14,330.24c-.38-.38-.58-.84-.58-1.38v-58.21c0-.53.19-.99.58-1.38s.84-.58,1.38-.58h10.74c.71,0,1.26.16,1.64.49.38.33.69.78.93,1.38l17.39,43.75c.18.36.42.53.71.53s.53-.18.71-.53l17.39-43.75c.23-.59.53-1.05.88-1.38.36-.33.89-.49,1.6-.49h10.83c.59,0,1.06.19,1.42.58.36.38.54.84.54,1.38v58.21c0,.53-.18.99-.54,1.38-.35.39-.83.58-1.42.58h-6.75c-.53,0-.99-.19-1.38-.58-.38-.38-.58-.84-.58-1.38v-39.67c0-.41-.19-.65-.58-.71-.38-.06-.67.12-.84.53l-15.97,39.67c-.3.77-.62,1.32-.98,1.64-.35.33-.8.49-1.33.49h-6.03c-.59,0-1.05-.16-1.38-.49-.33-.32-.64-.87-.93-1.64l-16.06-39.67c-.18-.42-.46-.59-.84-.53-.38.06-.58.29-.58.71v39.67c0,.53-.19.99-.58,1.38-.39.39-.84.58-1.38.58h-6.66c-.53,0-.99-.19-1.38-.58Z"/>
        <path class="cls-1" d="M89.72,329.35c-3.32-1.98-5.84-4.81-7.59-8.47-1.74-3.67-2.61-7.9-2.61-12.69s.87-8.92,2.61-12.56c1.75-3.64,4.26-6.48,7.55-8.52,3.28-2.04,7.2-3.06,11.76-3.06s8.28.88,11.54,2.66c3.25,1.78,5.77,4.31,7.54,7.59,1.77,3.28,2.66,7.21,2.66,11.76v3.19c0,.77-.22,1.38-.67,1.82-.44.44-.99.67-1.64.67h-29.55c-.29,0-.53.08-.71.22-.18.15-.26.34-.26.58.12,2.37.69,4.39,1.73,6.08,1.03,1.69,2.39,2.96,4.08,3.82,1.69.86,3.54,1.29,5.55,1.29,2.25,0,4.14-.43,5.68-1.29,1.54-.86,2.78-2.08,3.73-3.68.35-.59.69-1.02,1.02-1.29.33-.27.72-.4,1.2-.4h6.83c.53,0,.97.21,1.33.62.35.42.44.95.26,1.6-1.12,3.91-3.45,7.06-6.97,9.45-3.52,2.4-7.88,3.59-13.09,3.59-4.67,0-8.67-.99-11.98-2.97ZM112.48,303.31c.15-.18.22-.38.22-.62,0-1.83-.46-3.54-1.38-5.1-.92-1.57-2.22-2.83-3.91-3.77-1.69-.94-3.66-1.42-5.9-1.42-3.25,0-5.89.99-7.9,2.97-2.01,1.98-3.11,4.42-3.28,7.32,0,.24.08.44.26.62.18.18.42.27.71.27h20.5c.29,0,.52-.09.67-.27Z"/>
        <path class="cls-1" d="M129.65,330.28c-.35-.35-.53-.77-.53-1.24v-41.71c0-.47.18-.89.53-1.24s.77-.53,1.24-.53h4.62c.59,0,1.06.13,1.42.4.35.26.68.58.97.93.29.42.59.74.89.98.29.24.65.35,1.06.35.47,0,.92-.12,1.33-.35.41-.24.83-.53,1.24-.89,1.3-.89,2.65-1.6,4.04-2.13,1.39-.53,3.32-.8,5.81-.8,3.37,0,6.39.74,9.05,2.22,2.66,1.48,4.75,3.64,6.26,6.48,1.51,2.84,2.27,6.21,2.27,10.12v26.18c0,.47-.18.89-.53,1.24-.36.36-.77.53-1.24.53h-6.66c-.47,0-.88-.18-1.24-.53-.35-.35-.53-.77-.53-1.24v-24.49c0-3.31-.92-5.89-2.75-7.72-1.83-1.83-4.29-2.75-7.36-2.75s-5.56.92-7.45,2.75c-1.89,1.83-2.84,4.41-2.84,7.72v24.49c0,.47-.18.89-.53,1.24-.36.36-.77.53-1.24.53h-6.57c-.47,0-.89-.18-1.24-.53Z"/>
        <path class="cls-1" d="M184.98,330.64c-3.11-1.12-5.51-2.81-7.23-5.06-1.72-2.25-2.64-4.94-2.75-8.08-.06-.53.07-.96.4-1.29.33-.32.81-.49,1.47-.49h6.57c.59,0,1.03.16,1.33.49.29.33.53.76.71,1.29.17,1.48.71,2.69,1.6,3.64.89.95,2.09,1.67,3.59,2.17,1.51.5,3.3.76,5.37.76,3.14,0,5.53-.55,7.19-1.64,1.65-1.09,2.48-2.53,2.48-4.31,0-1.42-.43-2.53-1.29-3.33-.86-.8-2.38-1.38-4.57-1.73l-10.03-1.6c-4.56-.71-7.9-2.17-10.03-4.39-2.13-2.22-3.19-5.1-3.19-8.65,0-2.9.81-5.43,2.44-7.59,1.63-2.16,3.91-3.83,6.83-5.01,2.93-1.18,6.31-1.77,10.16-1.77,3.61,0,6.83.53,9.67,1.6,2.84,1.07,5.08,2.63,6.74,4.71,1.66,2.07,2.57,4.53,2.75,7.36.06.53-.09.96-.44,1.29-.36.33-.86.49-1.51.49h-6.21c-.53,0-.97-.15-1.29-.44-.33-.29-.55-.74-.67-1.33-.42-1.77-1.39-3.12-2.93-4.04-1.54-.92-3.61-1.37-6.21-1.37-2.84,0-5.03.49-6.57,1.46-1.54.98-2.31,2.32-2.31,4.04,0,1.42.53,2.52,1.6,3.28,1.06.77,2.93,1.33,5.59,1.68l8.87,1.33c4.67.77,8.02,2.23,10.03,4.39,2.01,2.16,3.02,5.08,3.02,8.74,0,3.02-.78,5.67-2.35,7.94-1.57,2.28-3.86,4.04-6.88,5.28-3.02,1.24-6.68,1.86-11.01,1.86s-7.86-.56-10.96-1.69Z"/>
        <path class="cls-1" d="M234.99,330.55c-2.9-1.18-5.33-2.93-7.28-5.24-1.77-2.13-3.14-4.63-4.08-7.5-.95-2.87-1.42-6.08-1.42-9.63,0-2.37.22-4.58.67-6.66.44-2.07,1.06-3.98,1.86-5.72.8-1.74,1.79-3.33,2.97-4.75,1.95-2.31,4.38-4.05,7.28-5.24,2.9-1.18,6.15-1.77,9.76-1.77s6.98.66,9.94,2c2.96,1.33,5.32,3.26,7.1,5.77,1.78,2.52,2.84,5.4,3.19,8.65.06.53-.07.96-.4,1.29s-.72.49-1.2.49h-6.92c-.42,0-.79-.12-1.11-.35-.33-.24-.55-.59-.67-1.07-.59-1.95-1.7-3.56-3.33-4.83-1.63-1.27-3.86-1.91-6.7-1.91-1.95,0-3.7.34-5.23,1.02-1.54.68-2.81,1.7-3.82,3.06-1.01,1.18-1.76,2.62-2.27,4.31-.5,1.68-.76,3.59-.76,5.72s.25,4.04.76,5.72c.5,1.68,1.26,3.12,2.27,4.3,1.01,1.36,2.27,2.38,3.82,3.06,1.54.68,3.28,1.02,5.23,1.02,2.66,0,4.87-.63,6.61-1.91,1.74-1.27,2.88-2.88,3.42-4.84.12-.47.34-.83.67-1.06.32-.24.69-.36,1.11-.36h6.92c.47,0,.87.18,1.2.53s.46.77.4,1.24c-.35,3.25-1.45,6.12-3.28,8.61-1.84,2.48-4.23,4.41-7.19,5.77-2.96,1.36-6.21,2.04-9.76,2.04s-6.86-.59-9.76-1.77Z"/>
        <path class="cls-1" d="M273.32,330.28c-.35-.35-.53-.77-.53-1.24v-60.34c0-.47.18-.89.53-1.24.35-.36.77-.53,1.24-.53h6.57c.47,0,.88.18,1.24.53.35.35.53.77.53,1.24v16.77c0,.59.13,1.03.4,1.33.27.3.63.44,1.11.44.35,0,.74-.09,1.15-.27.41-.18.8-.38,1.15-.62,1.01-.71,2.19-1.27,3.55-1.68,1.36-.42,3.23-.62,5.59-.62,3.43,0,6.47.75,9.14,2.26,2.66,1.51,4.75,3.73,6.26,6.66,1.51,2.93,2.27,6.4,2.27,10.42v25.65c0,.47-.18.89-.53,1.24-.36.36-.77.53-1.24.53h-6.66c-.47,0-.88-.18-1.24-.53-.35-.35-.53-.77-.53-1.24v-24.05c0-3.43-.92-6.11-2.75-8.03-1.83-1.92-4.29-2.88-7.36-2.88s-5.56.96-7.45,2.88c-1.89,1.93-2.84,4.6-2.84,8.03v24.05c0,.47-.18.89-.53,1.24-.36.36-.77.53-1.24.53h-6.57c-.47,0-.89-.18-1.24-.53Z"/>
        <path class="cls-1" d="M329.77,329.35c-3.32-1.98-5.84-4.81-7.59-8.47-1.74-3.67-2.61-7.9-2.61-12.69s.87-8.92,2.61-12.56c1.75-3.64,4.26-6.48,7.55-8.52,3.28-2.04,7.2-3.06,11.76-3.06s8.28.88,11.54,2.66c3.25,1.78,5.77,4.31,7.54,7.59,1.77,3.28,2.66,7.21,2.66,11.76v3.19c0,.77-.22,1.38-.67,1.82-.44.44-.99.67-1.64.67h-29.55c-.29,0-.53.08-.71.22s-.26.34-.26.58c.12,2.37.69,4.39,1.73,6.08,1.03,1.69,2.39,2.96,4.08,3.82,1.69.86,3.54,1.29,5.55,1.29,2.25,0,4.14-.43,5.68-1.29,1.54-.86,2.78-2.08,3.73-3.68.35-.59.69-1.02,1.02-1.29.33-.27.72-.4,1.2-.4h6.83c.53,0,.97.21,1.33.62.35.42.44.95.26,1.6-1.12,3.91-3.45,7.06-6.97,9.45-3.52,2.4-7.88,3.59-13.09,3.59-4.67,0-8.67-.99-11.98-2.97ZM352.53,303.31c.15-.18.22-.38.22-.62,0-1.83-.46-3.54-1.38-5.1-.92-1.57-2.22-2.83-3.91-3.77-1.69-.94-3.66-1.42-5.9-1.42-3.25,0-5.89.99-7.9,2.97-2.01,1.98-3.11,4.42-3.28,7.32,0,.24.08.44.26.62s.42.27.71.27h20.5c.29,0,.52-.09.67-.27Z"/>
        <path class="cls-1" d="M369.7,330.28c-.35-.35-.53-.77-.53-1.24v-41.71c0-.47.18-.89.53-1.24.35-.36.77-.53,1.24-.53h4.62c.59,0,1.06.13,1.42.4.35.26.68.58.97.93.29.42.59.74.89.98.29.24.65.35,1.06.35.47,0,.92-.12,1.33-.35.41-.24.83-.53,1.24-.89,1.3-.89,2.65-1.6,4.04-2.13,1.39-.53,3.32-.8,5.81-.8,3.37,0,6.39.74,9.05,2.22,2.66,1.48,4.75,3.64,6.26,6.48,1.51,2.84,2.27,6.21,2.27,10.12v26.18c0,.47-.18.89-.53,1.24-.36.36-.77.53-1.24.53h-6.66c-.47,0-.88-.18-1.24-.53-.35-.35-.53-.77-.53-1.24v-24.49c0-3.31-.92-5.89-2.75-7.72-1.83-1.83-4.29-2.75-7.36-2.75s-5.56.92-7.45,2.75c-1.89,1.83-2.84,4.41-2.84,7.72v24.49c0,.47-.18.89-.53,1.24-.36.36-.77.53-1.24.53h-6.57c-.47,0-.89-.18-1.24-.53Z"/>
        <path class="cls-1" d="M12.33,415.44c-.35-.36-.53-.77-.53-1.24v-32.92c0-.59-.29-.89-.88-.89H1.77c-.47,0-.89-.18-1.24-.53-.36-.36-.53-.77-.53-1.24v-6.12c0-.47.17-.89.53-1.24.35-.36.77-.53,1.24-.53h9.14c.29,0,.51-.09.66-.27.15-.18.22-.38.22-.62v-3.64c0-4.2,1.34-7.6,4.04-10.21,2.69-2.6,6.2-3.91,10.51-3.91h7.28c.47,0,.88.18,1.24.53.35.36.53.77.53,1.24v6.12c0,.3-.19.59-.58.89-.38.3-.79.44-1.2.44h-6.48c-1.6,0-2.87.46-3.82,1.37-.95.92-1.42,2.21-1.42,3.86v3.28c0,.59.29.89.89.89h11.71c.47,0,.89.18,1.25.53.35.35.53.77.53,1.24v6.12c0,.48-.18.89-.53,1.24-.36.36-.77.53-1.25.53h-11.71c-.24,0-.44.07-.62.22-.18.15-.27.37-.27.67v32.92c0,.48-.17.89-.53,1.24-.35.36-.77.53-1.24.53h-6.57c-.47,0-.88-.18-1.24-.53Z"/>
        <path class="cls-1" d="M49.91,415.31c-2.57-1.45-4.6-3.58-6.08-6.39-1.48-2.81-2.22-6.14-2.22-9.98v-26.45c0-.47.18-.89.53-1.24.35-.36.77-.53,1.24-.53h6.57c.47,0,.88.18,1.24.53.35.35.53.77.53,1.24v24.76c0,3.19.89,5.7,2.66,7.5,1.77,1.81,4.14,2.71,7.1,2.71s5.32-.9,7.1-2.71c1.77-1.8,2.66-4.3,2.66-7.5v-24.76c0-.47.18-.89.53-1.24.36-.36.77-.53,1.25-.53h6.65c.47,0,.89.18,1.24.53.36.35.53.77.53,1.24v41.71c0,.48-.17.89-.53,1.24-.35.36-.77.53-1.24.53h-4.71c-.53,0-.97-.1-1.33-.31-.36-.21-.68-.49-.98-.84-.29-.41-.58-.71-.84-.89-.26-.18-.67-.27-1.2-.27-.35,0-.74.11-1.15.31-.42.21-.83.43-1.24.67-1.18.89-2.47,1.58-3.86,2.08-1.39.5-3.27.76-5.63.76-3.32,0-6.26-.73-8.83-2.17ZM48.4,363.66c-.26-.27-.4-.61-.4-1.02v-8.25c0-.36.13-.68.4-.98.27-.29.61-.44,1.02-.44h7.27c.42,0,.76.15,1.02.44.26.29.4.62.4.98v8.25c0,.41-.13.75-.4,1.02-.27.27-.61.4-1.02.4h-7.27c-.42,0-.76-.13-1.02-.4ZM65.18,363.66c-.27-.27-.4-.61-.4-1.02v-8.25c0-.36.13-.68.4-.98.26-.29.6-.44,1.02-.44h7.37c.41,0,.76.15,1.02.44.27.29.4.62.4.98v8.25c0,.41-.13.75-.4,1.02-.26.27-.61.4-1.02.4h-7.37c-.42,0-.76-.13-1.02-.4Z"/>
        <path class="cls-1" d="M90.74,415.44c-.38-.36-.58-.77-.58-1.24v-41.71c0-.47.19-.89.58-1.24.38-.36.81-.53,1.29-.53h4.53c.53,0,.96.13,1.29.4.32.27.55.73.67,1.38.24,1.06.49,1.85.76,2.35.26.5.69.76,1.29.76.35,0,.74-.13,1.15-.4.41-.27.86-.58,1.33-.93,1.24-1.06,2.56-1.92,3.95-2.57,1.39-.65,3.27-.97,5.64-.97h4.53c.47,0,.88.18,1.24.53.35.35.53.77.53,1.24v7.01c0,.47-.18.89-.53,1.24-.36.36-.77.53-1.24.53h-5.06c-3.37,0-6.18.99-8.43,2.97-2.25,1.98-3.37,5.1-3.37,9.36v20.59c0,.48-.18.89-.53,1.24-.36.36-.77.53-1.24.53h-6.48c-.47,0-.9-.18-1.29-.53Z"/>
        <path class="cls-1" d="M153.3,415.4c-.38-.38-.58-.84-.58-1.38v-58.22c0-.53.19-.99.58-1.38.38-.38.84-.58,1.38-.58h10.74c.71,0,1.26.17,1.64.49.38.33.69.78.93,1.37l17.39,43.75c.18.35.42.53.71.53s.53-.18.71-.53l17.39-43.75c.23-.59.53-1.05.88-1.37.36-.32.89-.49,1.6-.49h10.83c.59,0,1.06.19,1.42.58.36.39.54.84.54,1.38v58.22c0,.53-.18.99-.54,1.38-.35.38-.83.58-1.42.58h-6.75c-.53,0-.99-.19-1.38-.58s-.58-.84-.58-1.38v-39.67c0-.41-.19-.65-.58-.71-.38-.06-.67.12-.84.53l-15.97,39.67c-.3.77-.62,1.32-.98,1.64-.35.33-.8.49-1.33.49h-6.03c-.59,0-1.05-.16-1.38-.49-.33-.32-.64-.87-.93-1.64l-16.06-39.67c-.18-.41-.46-.59-.84-.53-.38.06-.58.3-.58.71v39.67c0,.53-.19.99-.58,1.38-.39.38-.84.58-1.38.58h-6.66c-.53,0-.99-.19-1.38-.58Z"/>
        <path class="cls-1" d="M235.87,414.51c-3.32-1.98-5.84-4.81-7.59-8.48-1.74-3.67-2.61-7.9-2.61-12.69s.87-8.92,2.61-12.56c1.75-3.64,4.26-6.48,7.55-8.52,3.28-2.04,7.2-3.06,11.76-3.06s8.28.89,11.54,2.66c3.25,1.77,5.77,4.3,7.54,7.59,1.77,3.28,2.66,7.2,2.66,11.76v3.19c0,.77-.22,1.38-.67,1.82-.44.44-.99.67-1.64.67h-29.55c-.29,0-.53.07-.71.22-.18.15-.26.34-.26.58.12,2.37.69,4.39,1.73,6.08,1.03,1.68,2.39,2.96,4.08,3.82,1.69.86,3.54,1.29,5.55,1.29,2.25,0,4.14-.43,5.68-1.29,1.54-.86,2.78-2.09,3.73-3.68.35-.59.69-1.02,1.02-1.29.33-.27.72-.4,1.2-.4h6.83c.53,0,.97.21,1.33.62.35.42.44.95.26,1.6-1.12,3.91-3.45,7.06-6.97,9.45-3.52,2.39-7.88,3.59-13.09,3.59-4.67,0-8.67-.99-11.98-2.97ZM258.64,388.46c.15-.18.22-.38.22-.62,0-1.83-.46-3.53-1.38-5.1-.92-1.57-2.22-2.82-3.91-3.77-1.69-.95-3.66-1.42-5.9-1.42-3.25,0-5.89.99-7.9,2.97-2.01,1.98-3.11,4.42-3.28,7.32,0,.24.08.44.26.62s.42.27.71.27h20.5c.29,0,.52-.09.67-.27Z"/>
        <path class="cls-1" d="M275.81,415.44c-.35-.36-.53-.77-.53-1.24v-41.71c0-.47.18-.89.53-1.24.35-.36.77-.53,1.24-.53h4.62c.59,0,1.06.13,1.42.4.35.27.68.58.97.93.29.41.59.74.89.97.29.24.65.36,1.06.36.47,0,.92-.12,1.33-.36.41-.23.83-.53,1.24-.89,1.3-.89,2.65-1.6,4.04-2.13,1.39-.53,3.32-.8,5.81-.8,3.37,0,6.39.74,9.05,2.22,2.66,1.48,4.75,3.64,6.26,6.48,1.51,2.84,2.27,6.21,2.27,10.12v26.18c0,.48-.18.89-.53,1.24-.36.36-.77.53-1.24.53h-6.66c-.47,0-.88-.18-1.24-.53-.35-.36-.53-.77-.53-1.24v-24.49c0-3.31-.92-5.88-2.75-7.72-1.83-1.83-4.29-2.75-7.36-2.75s-5.56.92-7.45,2.75c-1.89,1.84-2.84,4.41-2.84,7.72v24.49c0,.48-.18.89-.53,1.24-.36.36-.77.53-1.24.53h-6.57c-.47,0-.89-.18-1.24-.53Z"/>
        <path class="cls-1" d="M331.14,415.8c-3.11-1.12-5.51-2.81-7.23-5.06-1.72-2.25-2.64-4.94-2.75-8.07-.06-.53.07-.96.4-1.29.33-.33.81-.49,1.47-.49h6.57c.59,0,1.03.16,1.33.49.29.32.53.75.71,1.29.17,1.48.71,2.69,1.6,3.64.89.95,2.09,1.67,3.59,2.17,1.51.5,3.3.75,5.37.75,3.14,0,5.53-.55,7.19-1.64,1.65-1.09,2.48-2.53,2.48-4.3,0-1.42-.43-2.53-1.29-3.33-.86-.8-2.38-1.38-4.57-1.73l-10.03-1.6c-4.56-.71-7.9-2.17-10.03-4.39-2.13-2.22-3.19-5.1-3.19-8.65,0-2.9.81-5.43,2.44-7.59,1.63-2.16,3.91-3.83,6.83-5.02,2.93-1.18,6.31-1.77,10.16-1.77,3.61,0,6.83.53,9.67,1.6,2.84,1.06,5.08,2.63,6.74,4.7,1.66,2.07,2.57,4.53,2.75,7.37.06.53-.09.96-.44,1.29-.36.32-.86.49-1.51.49h-6.21c-.53,0-.97-.15-1.29-.44-.33-.29-.55-.74-.67-1.33-.42-1.78-1.39-3.12-2.93-4.04-1.54-.92-3.61-1.38-6.21-1.38-2.84,0-5.03.49-6.57,1.47-1.54.97-2.31,2.32-2.31,4.04,0,1.42.53,2.52,1.6,3.28,1.06.77,2.93,1.33,5.59,1.69l8.87,1.33c4.67.77,8.02,2.23,10.03,4.39,2.01,2.16,3.02,5.07,3.02,8.74,0,3.02-.78,5.67-2.35,7.94-1.57,2.28-3.86,4.04-6.88,5.28-3.02,1.24-6.68,1.87-11.01,1.87s-7.86-.56-10.96-1.69Z"/>
        <path class="cls-1" d="M381.15,415.71c-2.9-1.18-5.33-2.93-7.28-5.23-1.77-2.13-3.14-4.63-4.08-7.5-.95-2.87-1.42-6.08-1.42-9.63,0-2.36.22-4.58.67-6.65.44-2.07,1.06-3.98,1.86-5.72.8-1.75,1.79-3.33,2.97-4.75,1.95-2.31,4.38-4.05,7.28-5.24,2.9-1.18,6.15-1.77,9.76-1.77s6.98.67,9.94,2c2.96,1.33,5.32,3.25,7.1,5.77,1.78,2.52,2.84,5.4,3.19,8.65.06.53-.07.97-.4,1.29-.33.33-.72.49-1.2.49h-6.92c-.42,0-.79-.12-1.11-.36-.33-.23-.55-.59-.67-1.06-.59-1.95-1.7-3.57-3.33-4.84-1.63-1.27-3.86-1.91-6.7-1.91-1.95,0-3.7.34-5.23,1.02-1.54.68-2.81,1.7-3.82,3.06-1.01,1.18-1.76,2.62-2.27,4.3-.5,1.69-.76,3.59-.76,5.72s.25,4.04.76,5.72c.5,1.69,1.26,3.12,2.27,4.31,1.01,1.36,2.27,2.38,3.82,3.06,1.54.68,3.28,1.02,5.23,1.02,2.66,0,4.87-.63,6.61-1.91,1.74-1.27,2.88-2.88,3.42-4.83.12-.47.34-.83.67-1.07.32-.23.69-.35,1.11-.35h6.92c.47,0,.87.18,1.2.53.33.36.46.77.4,1.24-.35,3.26-1.45,6.12-3.28,8.61-1.84,2.48-4.23,4.41-7.19,5.77-2.96,1.36-6.21,2.04-9.76,2.04s-6.86-.59-9.76-1.78Z"/>
        <path class="cls-1" d="M417.71,415.44c-.35-.36-.53-.77-.53-1.24v-60.35c0-.47.18-.89.53-1.24.35-.35.77-.53,1.24-.53h6.57c.47,0,.88.18,1.24.53.35.36.53.77.53,1.24v16.77c0,.59.13,1.04.4,1.33.27.29.63.44,1.11.44.35,0,.74-.09,1.15-.27.41-.18.8-.38,1.15-.62,1.01-.71,2.19-1.27,3.55-1.69,1.36-.41,3.23-.62,5.59-.62,3.43,0,6.47.76,9.14,2.26,2.66,1.51,4.75,3.73,6.26,6.66,1.51,2.93,2.27,6.41,2.27,10.43v25.65c0,.48-.18.89-.53,1.24-.36.36-.77.53-1.24.53h-6.66c-.47,0-.88-.18-1.24-.53-.35-.36-.53-.77-.53-1.24v-24.05c0-3.43-.92-6.11-2.75-8.03-1.83-1.92-4.29-2.88-7.36-2.88s-5.56.96-7.45,2.88c-1.89,1.92-2.84,4.6-2.84,8.03v24.05c0,.48-.18.89-.53,1.24-.36.36-.77.53-1.24.53h-6.57c-.47,0-.89-.18-1.24-.53Z"/>
        <path class="cls-1" d="M474.15,414.51c-3.32-1.98-5.84-4.81-7.59-8.48-1.74-3.67-2.61-7.9-2.61-12.69s.87-8.92,2.61-12.56c1.75-3.64,4.26-6.48,7.55-8.52,3.28-2.04,7.2-3.06,11.76-3.06s8.28.89,11.54,2.66c3.25,1.77,5.77,4.3,7.54,7.59,1.77,3.28,2.66,7.2,2.66,11.76v3.19c0,.77-.22,1.38-.67,1.82-.44.44-.99.67-1.64.67h-29.55c-.29,0-.53.07-.71.22-.18.15-.26.34-.26.58.12,2.37.69,4.39,1.73,6.08,1.03,1.68,2.39,2.96,4.08,3.82,1.69.86,3.54,1.29,5.55,1.29,2.25,0,4.14-.43,5.68-1.29,1.54-.86,2.78-2.09,3.73-3.68.35-.59.69-1.02,1.02-1.29.33-.27.72-.4,1.2-.4h6.83c.53,0,.97.21,1.33.62.35.42.44.95.26,1.6-1.12,3.91-3.45,7.06-6.97,9.45-3.52,2.39-7.88,3.59-13.09,3.59-4.67,0-8.67-.99-11.98-2.97ZM496.91,388.46c.15-.18.22-.38.22-.62,0-1.83-.46-3.53-1.38-5.1-.92-1.57-2.22-2.82-3.91-3.77-1.69-.95-3.66-1.42-5.9-1.42-3.25,0-5.89.99-7.9,2.97-2.01,1.98-3.11,4.42-3.28,7.32,0,.24.08.44.26.62.18.18.42.27.71.27h20.5c.29,0,.52-.09.67-.27Z"/>
        <path class="cls-1" d="M514.08,415.44c-.35-.36-.53-.77-.53-1.24v-41.71c0-.47.18-.89.53-1.24.35-.36.77-.53,1.24-.53h4.62c.59,0,1.06.13,1.42.4.35.27.68.58.97.93.29.41.59.74.89.97.29.24.65.36,1.06.36.47,0,.92-.12,1.33-.36.41-.23.83-.53,1.24-.89,1.3-.89,2.65-1.6,4.04-2.13,1.39-.53,3.32-.8,5.81-.8,3.37,0,6.39.74,9.05,2.22,2.66,1.48,4.75,3.64,6.26,6.48,1.51,2.84,2.27,6.21,2.27,10.12v26.18c0,.48-.18.89-.53,1.24-.36.36-.77.53-1.24.53h-6.66c-.47,0-.88-.18-1.24-.53-.35-.36-.53-.77-.53-1.24v-24.49c0-3.31-.92-5.88-2.75-7.72-1.83-1.83-4.29-2.75-7.36-2.75s-5.56.92-7.45,2.75c-1.89,1.84-2.84,4.41-2.84,7.72v24.49c0,.48-.18.89-.53,1.24-.36.36-.77.53-1.24.53h-6.57c-.47,0-.89-.18-1.24-.53Z"/>
      </g>
    </g>
  </g>
</svg>