<svg class="header__img" fill="none" height="59" viewBox="0 0 84 59" width="84" xmlns="http://www.w3.org/2000/svg">
<title>MITSUBISHI ELECTRIC AUTOMOTIVE CZECH s.r.o.</title>
<path d="M14.2566 41.94c-.3781-.054-.7021 0-.8911 0-.621 0-1.188.324-1.755.999-.5941.621-.8641 1.2151-.9181 1.8361-.054.243.054.486.135.675.162.189.351.297.594.297.3241 0 .7021-.189 1.0801-.594.297-.27.513-.648.702-1.026h.108l-.513 1.512h1.269l1.0801-3.7531c-.216 0-.459.054-.891.054Zm-.7561 1.215c-.054.108-.243.405-.621.8101-.378.432-.621.675-.756.675-.108 0-.135-.054-.135-.189.027-.378.189-.702.378-1.1071.27-.459.567-.702.837-.702.162 0 .297.054.432.135l-.135.378ZM23.0318 41.94c-.378-.054-.837 0-.837 0-.621 0-1.1881.27-1.7551.891-.54.621-.81 1.188-.918 1.8631 0 .243.054.459.189.648.162.216.351.297.567.297.621 0 1.1881-.513 1.7551-1.5121h.162c-.108.2701-.189.5671-.297.8371-.135.432-.27.729-.432.918-.189.27-.4051.432-.7021.432-.432 0-.945-.162-1.512-.432l.081 1.08c.351.0541.729.1081 1.188.1081 1.2961 0 2.1061-.5671 2.4301-1.6741l.945-3.4561h-.864Zm-.756 1.215c-.054.162-.243.432-.621.81-.324.3781-.5941.5941-.7021.5941-.108 0-.108-.054-.108-.216 0-.3241.162-.6481.4051-1.0261.216-.432.459-.675.756-.675.135 0 .27.054.432.108l-.162.405ZM25.7859 44.9641c-.405 0-.594-.189-.567-.567.54 0 .9991-.135 1.5391-.4321.513-.324.783-.756.837-1.215.054-.297-.054-.486-.243-.621-.135-.162-.378-.189-.594-.189-.729 0-1.2961.216-1.8631.756-.567.513-.864 1.134-.945 1.8091-.054.432.081.702.378.945.27.189.621.297.999.297.5131 0 1.1341-.162 1.8901-.405l.297-.891c-.675.324-1.242.513-1.7281.513Zm-.405-1.2691c.027-.243.189-.432.324-.621.1351-.243.3241-.324.5131-.324s.243.081.243.27c-.054.432-.432.675-1.0801.675ZM31.4561 42.021l-.243.756c-.297-.081-.567-.135-.756-.135-.351 0-.54.108-.54.324-.027.108.054.243.243.378.243.297.432.4321.486.4861.135.243.243.486.189.675 0 .432-.243.756-.621.945-.324.189-.702.297-1.1341.297-.351 0-.756-.108-1.296-.189l.243-.864c.486.189.864.27 1.08.27.162 0 .2431 0 .2971-.081.108-.054.135-.135.135-.243.054-.135-.027-.297-.189-.486-.1351-.135-.2701-.324-.4321-.4591-.189-.243-.216-.432-.216-.675.027-.378.27-.702.6481-.891.297-.162.675-.243 1.107-.243.081 0 .378.054.999.135ZM37.8554 40.5089l-.243.81c-.27-.162-.567-.243-.8101-.243-.216 0-.405.081-.513.27-.054.108-.135.2971-.243.6211h.9451l-.1891.783h-.945l-1.08 3.7531h-1.2961l1.3231-4.5361c.216-.459.432-.8911.81-1.1881.378-.27.81-.432 1.3501-.432.324 0 .594.054.891.162ZM40.6094 42.21c-.297-.189-.621-.27-.999-.27-.675 0-1.269.216-1.8361.756-.594.513-.864 1.134-.972 1.8091-.027.432.108.702.378.945.297.189.621.297.9991.297.675 0 1.296-.243 1.863-.783.567-.567.8641-1.1341.9451-1.8361.054-.378-.081-.729-.3781-.918Zm-1.242 2.1871c-.216.378-.513.567-.837.567-.162 0-.297-.081-.351-.216-.081-.108-.081-.243-.081-.432.054-.3781.135-.7291.324-1.0531.243-.378.513-.567.864-.567.135 0 .27.054.324.189.108.135.108.27.108.459-.054.405-.162.729-.351 1.0531ZM45.0376 41.94l-.405 1.188c-.081-.108-.324-.108-.405-.108-.189 0-.54.189-.918.567-.3781.378-.5671.7291-.6481.9181l-.351 1.134h-1.269l1.08-3.6991h1.2961l-.5671 1.62h.081c.1891-.405.4861-.783.7561-1.053.378-.378.729-.567 1.053-.567.135 0 .189-.054.297 0ZM49.9518 41.967l-.189.783h-.5941c-.108.27-.189.594-.297.891-.135.378-.189.6751-.243.9451 0 .243.108.351.297.351.081 0 .243-.054.3781-.162l-.2431.81c-.378.108-.702.162-.945.162s-.486-.054-.621-.189c-.189-.108-.243-.351-.243-.594.054-.27.135-.648.297-1.1341.081-.378.702-2.43.702-2.43l1.3231-.1891-.216.7561M56.324 44.9641c-.432 0-.621-.189-.567-.567.513 0 .999-.135 1.4851-.4321.567-.324.837-.756.891-1.215.054-.297-.054-.486-.243-.621-.189-.162-.378-.189-.648-.189-.6751 0-1.2961.216-1.8091.756-.567.513-.918 1.134-.945 1.8091-.054.432.081.702.378.945.216.189.567.297.999.297.513 0 1.1341-.162 1.8901-.405l.27-.891c-.648.324-1.215.513-1.7011.513Zm-.432-1.2691c.054-.243.162-.432.297-.621.189-.243.378-.324.5671-.324.135 0 .243.081.243.27-.054.432-.4321.675-1.1071.675ZM68.6364 44.9641c-.432 0-.675-.189-.621-.567.513 0 1.026-.135 1.5121-.4321.513-.324.81-.756.864-1.215.027-.297-.054-.486-.243-.621-.135-.162-.378-.189-.621-.189-.6751 0-1.2961.216-1.8631.756-.567.513-.837 1.134-.945 1.8091-.054.432.108.702.378.945.297.189.621.297.999.297.54 0 1.1341-.162 1.9171-.405l.27-.891c-.675.324-1.2421.513-1.6471.513Zm-.486-1.2691c.081-.243.189-.432.324-.621.162-.243.351-.324.54-.324.1891 0 .2161.081.2161.27-.027.432-.4051.675-1.0801.675ZM73.5506 41.94l-.189.702h-.594c-.108.324-.189.702-.297.999-.135.378-.189.6751-.243.9451 0 .243.108.351.297.351.081 0 .243-.054.378-.162l-.243.81c-.378.108-.702.162-.945.162-.2431 0-.4861-.054-.6211-.189-.189-.108-.243-.351-.243-.594.054-.27.135-.648.297-1.1341.081-.378.7021-2.43.7021-2.43l1.323-.1891-.189.7291M76.2778 41.94l-.1891.702h-.621c-.108.324-.243.702-.351.999-.081.378-.135.6751-.189.9451 0 .243.054.351.243.351.162 0 .297-.054.432-.162l-.243.81c-.378.108-.702.162-.945.162-.27 0-.459-.054-.621-.189-.189-.108-.27-.351-.243-.594.054-.27.108-.648.243-1.1341.162-.378.756-2.43.756-2.43l1.35-.1891-.243.7291M78.0868 44.9641c-.432 0-.675-.189-.621-.567.513 0 1.026-.135 1.512-.4321.5131-.324.8101-.756.8641-1.215.027-.297-.054-.486-.243-.621-.162-.162-.378-.189-.6211-.189-.675 0-1.296.216-1.863.756-.567.513-.8371 1.134-.9451 1.8091-.054.432.108.702.3781.945.297.189.621.297.999.297.54 0 1.134-.162 1.8901-.405l.297-.891c-.6751.324-1.2421.513-1.6471.513Zm-.486-1.2691c.081-.243.189-.432.324-.621.162-.243.351-.324.54-.324.189 0 .216.081.216.27-.027.432-.405.675-1.08.675ZM.107997 43.641c-.1350045 1.4851.756027 2.3221 2.430083 2.3221.94504 0 1.83607-.135 2.7001-.324 0-.081.18901-.675.24301-.891-.054 0-.16201.027-.16201.027-.59402.189-1.37705.378-1.94407.378-1.02603 0-1.64705-.702-1.56605-1.7011.162-1.512 1.37705-3.1321 2.9431-3.1321.62103 0 1.24205.135 1.91707.378.027-.135.21601-.81.27001-.999-.62102-.135-1.26904-.243-1.94407-.243-2.9431 0-4.752168 2.4301-4.887173 4.1851ZM60.8871 45.7471h3.0242c.729 0 2.187-.432 2.295-1.809.081-.8101-.567-1.2421-1.296-1.4311.864-.243 1.8631-.918 1.9441-1.8091.108-1.242-1.2691-1.188-2.1601-1.188h-1.9711m1.3501.837c.081-.027.27-.027.432-.027.378 0 .891.027.837.513-.081.8641-.945 1.1881-1.269 1.1881h-.5401l.5401-1.6741Zm-.8101 2.6731c.6481 0 1.4581.135 1.4311.9451-.108.783-.783.999-1.4311.999-.189 0-.378-.027-.567-.081l.567-1.8631ZM84 41.967l-.432 1.161c-.081-.054-.27-.108-.378-.108-.216 0-.5131.189-.9451.567-.378.378-.567.7291-.648.9181l-.351 1.134h-1.215l1.026-3.6991h1.296l-.567 1.62h.081c.189-.405.486-.783.7561-1.053.378-.378.729-.567 1.053-.567.135 0 .243 0 .324.027ZM18.4417 45.6391h-1.2421s.6751-2.0521.7021-2.4841c0 0 .054-.135-.027-.081-.108 0-.3781.27-.7291.675-.324.3781-.513.6481-.567.7561l-.324 1.134h-1.296l1.107-3.6991h1.242l-.54 1.62h.108c.189-.405.432-.783.7021-1.053.378-.378.756-.567 1.107-.567.189 0 .378.027.459.189.108.081.243.324.108.756M8.37031 45.6391s.67502-2.0791.70202-2.4841c0 0 .054-.135-.027-.081-.108.054-.37801.27-.72903.675-.32401.378-.51301.648-.56702.7561l-.32401 1.134H6.18323l1.48505-5.1842h1.26905c-.27001.999-.62103 2.0521-.99904 3.1051h.108c.18901-.405.45902-.783.75603-1.053.37801-.378.70203-.621 1.02604-.621.24304 0 .40504.081.54004.243.054.081.189.324.054.756l-.78305 2.7541M52.1119 45.6391s.648-2.0791.756-2.4841c0 0 0-.135-.108-.081-.081.054-.378.27-.7021.675-.324.378-.54.648-.567.7561l-.351 1.134h-1.215l1.512-5.1842h1.2421c-.297.999-.6211 2.0521-.9991 3.1051h.081c.243-.405.4861-.783.7561-1.053.378-.378.729-.621 1.053-.621.243 0 .378.081.513.243.108.081.189.324.108.756l-.81 2.7541" fill="#666"></path>
<path d="M9.36934 36.2847H0l4.72517-8.1273h9.34233M18.7117 36.2847h9.3693l-4.6711-8.1273h-9.3424M18.7117 20.0031l-4.6442-8.0732-4.69818 8.0732 4.69818 8.1543" fill="red"></path>
<path d="M32.2932 32.8017h3.7531v-1.3771h-3.7531v-1.6741h4.2391v-1.323h-5.8052v7.8573h5.8862v-1.3771h-4.3201M32.2122 21.2452l1.647 5.8592h1.5391l1.647-5.8592v5.8592h1.4851v-7.8573h-2.2951l-1.62 5.5082-1.6471-5.5082h-2.2411v7.8573h1.4851M68.2855 19.2471h-1.5661v7.8573h1.5661v-7.8573ZM69.5815 28.4275h-1.566v7.8573h1.566v-7.8573ZM83.919 19.2471h-1.566v7.8573h1.566v-7.8573ZM40.7445 19.2471h-1.5931v7.8573h1.5931v-7.8573ZM80.1119 22.2982h-3.1321v-3.0511h-1.5661v7.8573h1.5661v-3.4291h3.1321v3.4291h1.5661v-7.8573h-1.5661M43.0665 27.1044h1.6201v-6.4802h1.9171v-1.3771h-5.4272v1.3771h1.89M57.4581 36.2848h1.62v-6.5343h1.9441v-1.323H55.568v1.323h1.8901M56.432 27.3474c1.9711 0 3.0782-.972 3.0782-2.6731v-5.4272h-1.5661v5.5622c0 .675-.567 1.2421-1.5121 1.2421-1.188 0-1.566-.6751-1.566-1.2421v-5.5622h-1.5661v5.4272c0 1.8631 1.1881 2.6731 3.1321 2.6731ZM44.4436 32.8017h3.7532v-1.3771h-3.7532v-1.6741h4.2392v-1.323h-5.8052v7.8573h5.8862v-1.3771h-4.3202M63.6413 20.4892c.432 0 .891.432.891.945 0 .486-.324.999-.999.999h-1.8901v-1.944m1.8631 5.4272h-1.8631v-2.2951h1.8631c.648 0 1.215.378 1.215 1.134 0 .675-.513 1.1611-1.215 1.1611Zm-1.7551 1.188h2.2141c1.4851 0 2.3761-.864 2.3761-2.1061 0-1.053-.702-1.89-1.5121-2.0791.6481-.162 1.2421-.864 1.2421-1.728 0-1.1881-.864-1.9441-2.4301-1.9441h-3.5641v7.8573h1.674ZM62.9663 31.9106v-2.16h1.917c.6481 0 1.0801.486 1.0801 1.107 0 .432-.378 1.053-1.0531 1.053m1.2421.6211c.675-.243 1.377-.8101 1.377-1.9171 0-1.4311-.945-2.2411-2.5651-2.2411h-3.5641v7.9113h1.5661v-3.1591h1.377c.81 0 1.2421.432 1.3771.999.162.621.108 1.5391.297 2.1601h1.566c-.135-.621-.243-1.4311-.297-2.1061-.027-1.053-.621-1.458-1.134-1.647ZM38.7194 28.4275h-1.566v7.8573h5.2651v-1.3771h-3.6991M49.2498 23.7563c1.296.243 1.998.486 1.998 1.2421 0 .54-.513.999-1.566.999s-1.6201-.621-1.6201-1.323h-1.512c0 1.377.891 2.6191 3.2131 2.6191 2.1871 0 3.1321-1.1341 3.1321-2.4841 0-1.2421-.783-2.0521-2.2681-2.3221-1.377-.243-2.3221-.324-2.3221-1.1881 0-.621.5131-.945 1.3771-.945s1.431.405 1.431 1.188h1.5661c0-1.242-.945-2.538-3.0511-2.538-1.4311 0-2.9431.81-2.9431 2.376 0 1.2961.945 2.1061 2.5651 2.3761ZM71.3906 23.7563c1.215.243 1.9711.486 1.9711 1.2421 0 .54-.5131.999-1.5661.999s-1.5931-.621-1.5931-1.323h-1.539c0 1.377.918 2.6191 3.1861 2.6191s3.1321-1.1341 3.1321-2.4841c0-1.2421-.81-2.0521-2.2141-2.3221-1.431-.243-2.3761-.324-2.3761-1.1881 0-.621.5671-.945 1.4041-.945.918 0 1.431.405 1.431 1.188h1.5121c0-1.242-.891-2.538-2.9701-2.538-1.4851 0-2.9431.81-2.9431 2.376 0 1.2961.945 2.1061 2.5651 2.3761Z" fill="#000"></path>
<path d="M52.3819 35.0427c-1.2691 0-2.0251-1.242-2.0251-2.7001 0-1.539.702-2.7811 2.0251-2.7811.945 0 1.485.594 1.674 1.3501h1.6471c-.27-1.5391-1.458-2.6731-3.3751-2.6731-2.4031 0-3.5911 1.809-3.5911 4.1041 0 2.2951 1.215 4.0772 3.5911 4.0772 1.863 0 3.1321-1.0801 3.3751-2.7541h-1.6471c-.189.81-.729 1.377-1.674 1.377ZM73.6047 35.0427c-1.2691 0-1.9981-1.242-1.9981-2.7001 0-1.539.729-2.7811 1.9981-2.7811.999 0 1.485.594 1.728 1.3501h1.5931c-.216-1.5391-1.4581-2.6731-3.3751-2.6731-2.3491 0-3.5912 1.809-3.5912 4.1041 0 2.2951 1.2691 4.0772 3.5912 4.0772 1.917 0 3.1861-1.0801 3.3751-2.7541h-1.5931c-.243.81-.783 1.377-1.728 1.377Z" fill="#000"></path>
</svg>