<svg fill="none" height="25" viewBox="0 0 159 25" width="159" xmlns="http://www.w3.org/2000/svg">
<path clip-rule="evenodd" d="M7.3 18.5v1H0v-1c.5 0 1 0 1.1-.2.2-.1.3-.4.3-.7V8.8L0 8v-.7l5.2-1.5h.9L6 8.4a5.3 5.3 0 0 1 4.5-2.6c2 0 3.1.9 3.5 2.6a5.3 5.3 0 0 1 4.5-2.6c1.2 0 2 .4 2.7 1 .6.7 1 1.7 1 3v7.8c0 .3 0 .6.2.7l1.1.2v1h-7.2v-1c.5 0 .8 0 1-.2.2-.1.2-.4.2-.7v-7.4c0-.6 0-1-.3-1.3-.2-.2-.6-.4-1.2-.4-.5 0-1.1.2-2 .6v8.5c0 .3.1.6.3.7l1 .2v1h-7v-1c.4 0 .8 0 1-.2l.2-.7v-7.4c0-.6-.2-1-.4-1.3-.2-.2-.6-.4-1.1-.4-.6 0-1.3.2-2 .6v8.5c0 .3 0 .6.2.7l1 .2Zm22.2 5.7c-.6.5-1.3.8-2 .8-1.1 0-1.8-.3-2.2-1v-1.8c.9.2 1.5.2 2 .2.7 0 1.2 0 1.6-.3.4-.2.7-.6 1-1.1l.3-.9-5.7-12c0-.3-.2-.5-.4-.7l-.8-.4V6h8v1l-1.4.3-.3.6c0 .1 0 .4.2.7l2.6 6.4 2.5-6.4.2-.7c0-.2-.1-.4-.4-.6L33.4 7V6H38v1a3 3 0 0 0-.9.4l-.4.6L31 21.7a9 9 0 0 1-1.5 2.5Z" fill="#002D6B" fill-rule="evenodd"></path>
<path clip-rule="evenodd" d="M87.5 18.5v1h-8v-1c.6 0 1 0 1.1-.2.2-.1.3-.4.3-.7V7.4h-1.8v-1L81 6v-.5c0-1.8.6-3.2 1.7-4.1C83.6.4 85 0 86.8 0c2.5 0 3.8.8 3.8 2.4 0 .7-.3 1.3-.9 1.6h-2.3V2.8c0-1.1-.2-1.7-.8-1.7-.7 0-1 .6-1 1.7v3.3h2.8v1.3h-2.9v9.8c0 .5.2.8.4 1l1.6.3Zm-26 1.2c1.5 0 2.7-.4 3.7-1.2 1-.8 1.6-1.9 2-3.3l-.5-.3a4.4 4.4 0 0 1-3.7 1.8c-1.1 0-2-.4-2.8-1.3-.7-.9-1-2-1-3.5H67v-.6c0-1.7-.5-3-1.4-4-1-1-2.3-1.5-4-1.5-2 0-3.5.7-4.8 2a7.3 7.3 0 0 0-2 5.3c0 2 .7 3.7 1.9 4.9a6.4 6.4 0 0 0 4.7 1.7Zm-15.1 4.1v1h-8v-1c.6 0 1-.1 1.1-.2.2-.1.3-.4.3-.8v-14L38.5 8v-.7l5.2-1.5h.8v2.4c.4-.6 1-1.2 1.6-1.7.7-.4 1.6-.7 2.5-.7 1.6 0 2.8.6 3.7 1.6 1 1 1.4 2.6 1.4 4.6a8 8 0 0 1-2 5.7c-1.3 1.4-3 2-5 2-1.1 0-1.8-.1-2.3-.5v3.5c0 .4.2.7.4.8l1.6.3Zm-2-7.8c0 1.7.6 2.6 1.8 2.6.9 0 1.6-.5 2-1.5.5-1 .8-2.2.8-3.8 0-1.6-.3-2.8-.8-3.6a2.6 2.6 0 0 0-2.3-1.2 3 3 0 0 0-1.5.5v7Zm14.8-5.2h4c0-2.6-.7-4-1.9-4-1.3 0-2 1.4-2.1 4ZM76 19.5v-1a5 5 0 0 1-1.6-.3c-.3-.2-.4-.5-.4-1v-6.6a4 4 0 0 1 1.7-.7l2.4-.2h.6V6.3c-.3-.3-.7-.5-1.2-.5-.8 0-1.5.3-2 .9-.5.5-1 1.5-1.5 3l.1-3.9h-.8L68 7.3V8l1.4.8v8.8c0 .3 0 .6-.3.7l-1 .2v1H76Zm19.3.2c1.5 0 2.8-.4 3.7-1.2 1-.8 1.7-1.9 2-3.3l-.5-.3a4.4 4.4 0 0 1-3.7 1.8c-1.1 0-2-.4-2.8-1.3-.7-.9-1-2-1-3.5h8v-.6c0-1.7-.6-3-1.5-4-1-1-2.3-1.5-4-1.5-1.9 0-3.5.7-4.8 2a7.3 7.3 0 0 0-2 5.3c0 2 .7 3.7 2 4.9a6.4 6.4 0 0 0 4.6 1.7Zm-2.3-9h4c0-2.5-.6-3.8-1.8-3.8-1.4 0-2 1.3-2.2 3.9Zm15.3 9c3 0 4.8-1.4 5.6-4.4l-.5-.3a3.8 3.8 0 0 1-3.3 1.6c-1.3 0-2.2-.4-3-1.3-.6-1-1-2.2-1-3.8a7 7 0 0 1 .7-3.3c.4-.8 1-1.3 1.8-1.3 1 0 1.6.9 1.6 2.5l-.1 1.4h2.4c.7-.3 1-1 1-1.8 0-1-.4-1.8-1.2-2.4-.9-.5-2-.8-3.3-.8-2 0-3.7.7-5 2.1a7.6 7.6 0 0 0-1.8 5.3c0 2 .5 3.6 1.7 4.8a5.9 5.9 0 0 0 4.4 1.7Zm15.7-2.4a4.8 4.8 0 0 1-4.4 2.4 4 4 0 0 1-2.8-1c-.7-.6-1-1.6-1-3V7.4h-1.5v-.8c2-.7 3.7-2 5-4h1v3.5h3v1.3h-3v8.3c0 1.1.5 1.7 1.5 1.7.6 0 1.2-.2 1.8-.6l.4.5Z" fill="#FF3D3C" fill-rule="evenodd"></path>
<path clip-rule="evenodd" d="M140 18.1a10 10 0 0 1-6 1.6c-3 0-5.2-.7-6.8-2.2a8 8 0 0 1-2.5-6.3 9 9 0 0 1 9.4-9.4c2.3 0 4.1.5 5.6 1.4v4.4h-1.2c-.6-3-2-4.6-4.2-4.6-1.5 0-2.6.7-3.3 2-.8 1.5-1.1 3.3-1.1 5.5 0 2.4.4 4.3 1.2 5.7.8 1.5 2 2.2 3.4 2.2 2.2 0 3.8-1.7 4.7-5.2h1.2l-.4 5ZM157.5 4l-6.4 15.6h-1.4L142.5 4l-.6-.7-.9-.2V2h8.9v1c-.8 0-1.2 0-1.5.2-.2.2-.3.5-.3.8 0 .3 0 .7.2 1l3.8 8.3 3.3-8.2.2-1c0-.4 0-.7-.3-.9l-1.5-.2V2h5.2v1c-.8 0-1.3.4-1.5.9Z" fill="#002D6B" fill-rule="evenodd"></path>
</svg>