<svg fill="none" height="39" preserveaspectratio="xMidYMid meet" viewBox="0 0 145 39" width="150" xmlns="http://www.w3.org/2000/svg">
<path d="M49.1094 9.92456H52.5235L58.0756 18.5539L63.6289 9.92456H67.043V28.1712H63.8365V15.0865L58.0756 23.6887H57.9724L52.2637 15.1376V28.1712H49.1094V9.92456Z" fill="black"></path>
<path d="M121.359 18.9702C123.652 18.9702 125.112 17.7713 125.112 15.9213V15.8692C125.112 13.9137 123.704 12.8453 121.333 12.8453H116.667V18.9702H121.359ZM113.461 9.9257H121.593C123.887 9.9257 125.686 10.6028 126.859 11.7507C127.823 12.7409 128.371 14.0963 128.371 15.6865V15.7387C128.371 18.7354 126.572 20.5343 124.017 21.2648L128.945 28.1723H125.164L120.682 21.8115H116.667V28.1723H113.461V9.92456V9.9257Z" fill="black"></path>
<path d="M131.525 9.92456H145.054V12.7931H134.732V17.5365H143.881V20.4039H134.732V25.305H145.184V28.1712H131.525V9.92456Z" fill="black"></path>
<path d="M86.2376 19.1475C86.2376 22.835 83.436 25.6162 79.7202 25.6162C75.9148 25.6162 73.1529 22.8951 73.1529 19.1475C73.1529 15.4 75.9148 12.6789 79.7202 12.6789C83.436 12.6789 86.2376 15.4601 86.2376 19.1475ZM89.46 19.1475C89.46 13.7871 85.2735 9.74463 79.7213 9.74463C74.1397 9.74463 69.9316 13.7871 69.9316 19.1475C69.9316 24.508 74.1397 28.5505 79.7213 28.5505C85.2735 28.5505 89.46 24.508 89.46 19.1475Z" fill="black"></path>
<path d="M107.536 19.1475C107.536 22.835 104.735 25.6162 101.019 25.6162C97.2136 25.6162 94.4517 22.8951 94.4517 19.1475C94.4517 15.4 97.2136 12.6789 101.019 12.6789C104.735 12.6789 107.536 15.4601 107.536 19.1475ZM110.759 19.1475C110.759 13.7871 106.572 9.74463 101.02 9.74463C95.4385 9.74463 91.2305 13.7871 91.2305 19.1475C91.2305 24.508 95.4385 28.5505 101.02 28.5505C106.572 28.5505 110.759 24.508 110.759 19.1475Z" fill="black"></path>
<path d="M39.5008 0L20.002 19.4989L39.5008 39V0Z" fill="#00AEEF"></path>
<path d="M0.5 0V39L20 19.4989L0.5 0Z" fill="#00AEEF"></path>
<path d="M0.5 39H39.5L20 19.5L0.5 39Z" fill="black"></path>
</svg>