<?xml version="1.0" encoding="UTF-8"?>
<svg width="215px" height="41px" viewBox="0 0 215 41" version="1.1" xmlns="http://www.w3.org/2000/svg" xmlns:xlink="http://www.w3.org/1999/xlink">
    <!-- Generator: Sketch 42 (36781) - http://www.bohemiancoding.com/sketch -->
    <title>Group</title>
    <desc>Created with Sketch.</desc>
    <defs></defs>
    <g id="Page-1" stroke="none" stroke-width="1" fill="none" fill-rule="evenodd">
        <g id="Group" fill-rule="nonzero">
            <path d="M20.812,31.032 C8.078,31.032 0.475,25.252 0.475,15.57 C0.475,4.166 10.759,0.1 20.383,0.1 C25.264,0.1 33.758,1.021 37.967,6.92 L37.967,0.61 L59.55,0.61 C63.134,0.61 68.474,0.61 71.74,3.69 L71.74,0.61 L94.514,0.61 C97.13,0.61 102.925,1.052 105.357,4.764 L105.357,0.61 L118.147,0.61 L118.147,30.53 L105.357,30.53 L105.357,27.602 C102.215,30.162 97.243,30.529 92.718,30.529 L63.008,30.529 L62.888,30.401 L51.82,18.698 L50.97,18.698 L50.97,30.529 L37.967,30.529 L37.967,24.245 C34.087,29.815 26.602,31.032 20.812,31.032 L20.812,31.032 Z M20.382,0.915 C11.153,0.915 1.29,4.765 1.29,15.57 C1.29,28.791 14.942,30.218 20.813,30.218 C26.788,30.218 34.624,28.9 38.018,22.614 L38.783,21.198 L38.783,29.715 L50.158,29.715 L50.158,17.883 L52.173,17.883 L52.293,18.012 L63.36,29.715 L92.718,29.715 C97.425,29.715 102.621,29.321 105.473,26.395 L106.173,25.68 L106.173,29.715 L117.333,29.715 L117.333,1.425 L106.173,1.425 L106.173,18.047 L105.493,17.447 C104.225,16.321 102.266,15.511 99.67,15.037 L97.818,14.699 L99.643,14.242 C101.829,13.695 104.596,12.478 105.375,9.79 L105.822,8.237 L105.375,6.722 C103.96,1.941 97.307,1.425 94.514,1.425 L72.554,1.425 L72.554,5.582 L71.875,4.972 C71.8300954,4.92969741 71.788631,4.88388593 71.751,4.835 C71.7298742,4.80527098 71.7057473,4.77779313 71.679,4.753 L71.557,4.661 C68.588,1.423 63.148,1.423 59.55,1.423 L38.783,1.425 L38.783,9.909 L38.02,8.526 C34.366,1.905 25.402,0.916 20.383,0.916 L20.382,0.915 Z M101.342,14.57 C102.969,14.994 104.312,15.573 105.356,16.305 L105.356,11.698 C104.507,12.93 103.152,13.901 101.341,14.57 L101.342,14.57 Z M72.553,26.391 L63.423,17.017 L64.187,16.887 C66.661,16.464 69.769,15.655 71.831,13.157 L72.553,12.285 L72.553,26.391 Z M65.079,17.551 L71.739,24.389 L71.739,14.454 C69.785,16.332 67.268,17.119 65.079,17.552 L65.079,17.551 Z M90.279,24.291 L83.778,24.291 L83.778,17.6 L90.208,17.6 C91.708,17.6 96.274,17.6 96.274,20.87 C96.274,23.14 94.256,24.29 90.278,24.29 L90.279,24.291 Z M84.593,23.476 L90.278,23.476 C93.766,23.476 95.46,22.624 95.46,20.869 C95.46,18.668 92.463,18.414 90.207,18.414 L84.593,18.414 L84.593,23.476 Z M20.31,23.43 C15.841,23.43 13.38,20.51 13.38,15.208 C13.38,9.938 15.88,6.916 20.24,6.916 C24.689,6.916 27.24,9.809 27.24,14.851 C27.24,20.543 24.909,23.431 20.31,23.431 L20.31,23.43 Z M20.24,7.73 C14.979,7.73 14.194,12.415 14.194,15.208 C14.194,18.588 15.254,22.616 20.31,22.616 C24.483,22.616 26.426,20.149 26.426,14.851 C26.426,12.191 25.622,7.731 20.24,7.731 L20.24,7.73 Z M55.225,13.25 L50.157,13.25 L50.157,6.483 L55.365,6.483 C57.052,6.483 61.007,6.483 61.007,9.831 C61.007,12.915 56.963,13.249 55.225,13.249 L55.225,13.25 Z M50.971,12.435 L55.225,12.435 C56.719,12.435 60.192,12.181 60.192,9.831 C60.192,7.605 57.872,7.297 55.365,7.297 L50.97,7.297 L50.97,12.435 L50.971,12.435 Z M89.349,12.819 L83.779,12.819 L83.779,6.484 L89.419,6.484 C90.743,6.484 94.775,6.484 94.775,9.617 C94.775,12.82 90.973,12.82 89.349,12.82 L89.349,12.819 Z M84.594,12.004 L89.349,12.004 C91.744,12.004 93.96,11.716 93.96,9.616 C93.96,8.035 92.519,7.297 89.419,7.297 L84.594,7.297 L84.594,12.004 Z" id="Shape" fill="#1A1918"></path>
            <path d="M106.17,1.424 L106.17,18.047 L105.492,17.447 C104.225,16.322 102.264,15.511 99.669,15.037 L97.817,14.699 L99.641,14.242 C101.827,13.695 104.595,12.479 105.373,9.792 L105.821,8.237 L105.373,6.722 C103.958,1.94 97.306,1.424 94.512,1.424 L72.553,1.424 L72.553,5.582 L71.873,4.972 C71.8284668,4.92897907 71.7870302,4.88286416 71.749,4.834 C71.7284659,4.80439585 71.7050153,4.77692512 71.679,4.752 L71.556,4.662 C68.586,1.423 63.148,1.423 59.55,1.423 L38.783,1.424 L38.783,9.908 L38.019,8.525 C34.366,1.904 25.401,0.916 20.383,0.916 C11.152,0.916 1.289,4.766 1.289,15.569 C1.289,28.791 14.942,30.217 20.811,30.217 C26.787,30.217 34.623,28.899 38.017,22.614 L38.783,21.199 L38.783,29.714 L50.156,29.714 L50.156,17.884 L52.172,17.884 L52.292,18.011 L63.359,29.714 L92.718,29.714 C97.424,29.714 102.621,29.32 105.473,26.396 L106.17,25.68 L106.17,29.714 L117.333,29.714 L117.333,1.424 L106.17,1.424 Z M20.311,23.431 C15.841,23.431 13.379,20.511 13.379,15.209 C13.379,9.939 15.879,6.918 20.239,6.918 C24.689,6.918 27.241,9.81 27.241,14.851 C27.241,20.544 24.908,23.431 20.311,23.431 Z M55.225,13.25 L50.156,13.25 L50.156,6.484 L55.366,6.484 C57.053,6.484 61.008,6.484 61.008,9.831 C61.008,12.917 56.963,13.249 55.225,13.249 L55.225,13.25 Z M72.553,26.39 L63.425,17.018 L64.188,16.887 C66.662,16.463 69.769,15.656 71.832,13.158 L72.553,12.285 L72.553,26.39 L72.553,26.39 Z M83.78,6.484 L89.42,6.484 C90.742,6.484 94.775,6.484 94.775,9.618 C94.775,12.82 90.973,12.82 89.349,12.82 L83.779,12.82 L83.779,6.484 L83.78,6.484 Z M90.28,24.291 L83.78,24.291 L83.78,17.6 L90.208,17.6 C91.708,17.6 96.275,17.6 96.275,20.87 C96.275,23.14 94.258,24.291 90.279,24.291 L90.28,24.291 Z" id="Shape" fill="#B11C33"></path>
            <path d="M178.226,2.295 C175.421,1.045 172.187,0.323 168.736,0.323 C165.283,0.323 162.048,1.045 159.242,2.295 L178.226,2.295 Z M156.885,3.555 C155.954442,4.1204453 155.075392,4.76659902 154.258,5.486 L183.21,5.486 C182.392608,4.76659902 181.513558,4.1204453 180.583,3.555 L156.885,3.555 L156.885,3.555 Z M184.432,6.705 L153.036,6.705 C152.49,7.305 151.989,7.933 151.557,8.595 L185.911,8.595 C185.467897,7.92723305 184.973042,7.2952908 184.431,6.705 L184.432,6.705 Z M173.083,11.662 L187.393,11.662 C187.183916,11.0212915 186.925475,10.3977566 186.62,9.797 L171.427,9.797 C172.079,10.273 172.64,10.913 173.083,11.662 L173.083,11.662 Z M164.203,11.662 C164.648,10.912 165.208,10.272 165.862,9.797 L150.849,9.797 C150.543484,10.3978654 150.284718,11.0213773 150.075,11.662 L164.203,11.662 L164.203,11.662 Z M163.217,14.821 C163.282,14.152 163.399,13.502 163.611,12.906 L149.72,12.906 C149.58,13.532 149.5,14.173 149.456,14.821 L163.217,14.821 L163.217,14.821 Z M188.012,14.821 C187.973307,14.1767756 187.884708,13.5365225 187.747,12.906 L173.675,12.906 C173.886,13.502 174.003,14.152 174.069,14.821 L188.012,14.821 L188.012,14.821 Z M187.786,17.913 C187.906,17.306 187.998,16.693 188.024,16.064 L174.098,16.064 C174.057149,16.6917293 173.943383,17.3125719 173.759,17.914 L187.786,17.914 L187.786,17.913 Z M163.526,17.913 C163.341044,17.3120113 163.226937,16.6914713 163.186,16.064 L149.444,16.064 C149.47,16.692 149.561,17.306 149.681,17.914 L163.526,17.914 L163.526,17.913 Z M186.693,21.097 C187.003,20.473 187.277,19.834 187.483,19.173 L173.296,19.173 C172.93364,19.8992744 172.439213,20.5517273 171.838,21.097 L186.693,21.097 L186.693,21.097 Z M165.451,21.097 C164.848566,20.5523649 164.353376,19.8997996 163.991,19.173 L149.985,19.173 C150.189,19.834 150.465,20.473 150.775,21.097 L165.451,21.097 L165.451,21.097 Z M152.983,24.32 L184.485,24.32 C185.046063,23.7045209 185.555139,23.0435911 186.007,22.344 L168.95,22.344 C168.847,22.351 168.748,22.381 168.643,22.381 C168.539,22.381 168.443,22.351 168.337,22.344 L151.46,22.344 C151.9,23.037 152.42,23.692 152.984,24.321 L152.983,24.32 Z M180.797,27.405 C181.668665,26.8612043 182.493517,26.245743 183.263,25.565 L154.206,25.565 C154.97501,26.2463237 155.799912,26.8618225 156.672,27.405 L180.797,27.405 L180.797,27.405 Z M158.972,28.674 C161.84,30.002 165.169,30.777 168.735,30.777 C172.301,30.777 175.629,30.002 178.497,28.674 L158.972,28.674 Z M128.103,28.676 C130.97,30.004 134.297,30.778 137.861,30.778 C142.475,30.778 145.772,30.332 148.578,28.676 L128.103,28.676 L128.103,28.676 Z M147.395,2.31 C144.582,1.05 141.332,0.322 137.86,0.322 C134.395,0.322 131.15,1.052 128.338,2.31 L147.395,2.31 Z M150.784,5.475 L151.652,4.881 C151.059,4.404 150.412,3.971 149.743,3.561 L125.977,3.561 C125.073917,4.12411882 124.221388,4.76451955 123.429,5.475 L150.784,5.475 L150.784,5.475 Z M146.257,8.571 L148.958,6.725 L122.135,6.725 C121.611704,7.30275515 121.133627,7.91990911 120.705,8.571 L146.257,8.571 L146.257,8.571 Z M134.922,21.092 C134.282526,20.558838 133.749806,19.9093953 133.352,19.178 L119.116,19.178 C119.321,19.836 119.593,20.471 119.902,21.092 L134.922,21.092 L134.922,21.092 Z M143.323,21.092 L142.438,20.552 C142.25,20.752 142.038,20.92 141.829,21.092 L143.323,21.092 Z M122.119,24.327 L148.61,24.327 L145.368,22.343 L138.722,22.343 C138.608,22.351 138.501,22.381 138.384,22.381 C138.274,22.381 138.17,22.35 138.06,22.343 L120.589,22.343 C121.03,23.039 121.553,23.697 122.119,24.327 L122.119,24.327 Z M119.995,9.82 C119.685,10.419 119.41,11.03 119.198,11.665 L133.568,11.665 C134.024673,10.937939 134.62327,10.3104325 135.328,9.82 L119.995,9.82 L119.995,9.82 Z M141.412,9.82 C141.892,10.147 142.345,10.524 142.725,10.987 L144.432,9.82 L141.412,9.82 L141.412,9.82 Z M118.872,12.914 C118.726606,13.5445232 118.630978,14.1854957 118.586,14.831 L132.508,14.831 C132.581335,14.1739937 132.740699,13.5294748 132.982,12.914 L118.872,12.914 L118.872,12.914 Z M118.57,16.079 C118.604,16.704 118.678,17.32 118.799,17.925 L132.821,17.925 C132.634438,17.3254316 132.520294,16.7056925 132.481,16.079 L118.57,16.079 L118.57,16.079 Z M150.354,27.426 C150.794,27.052 151.227,26.643 151.652,26.188 L150.656,25.578 L123.348,25.578 C124.122928,26.2623017 124.953835,26.8804645 125.832,27.426 L150.354,27.426 Z" id="Shape" fill="#1A1918"></path>
            <path d="M212.253,34.884 C208.462,36.638 200.863,38.604 198.686,39.147 L198.686,26.465 L213.573,26.465 L213.573,32.322 C213.572,32.343 213.491,34.312 212.253,34.884 L212.253,34.884 Z M187.975,14.296 C188.019,14.709 188.056,15.125 188.056,15.548 C188.056,19.398 186.23,22.903 183.241,25.584 L197.806,25.584 L197.806,14.296 L187.976,14.296 L187.975,14.296 Z" id="Shape" fill="#FFFFFF"></path>
            <path d="M187.845,13.416 C187.897,13.708 187.946,13.999 187.975,14.296 L197.806,14.296 L197.806,25.585 L183.241,25.585 C182.737862,26.0345115 182.209684,26.4551843 181.659,26.845 L181.656,31.633 C181.648,31.74 181.491,34.241 183.296,35.301 C188.055,38.093 197.682,40.077 198.089,40.161 L198.185,40.18 L198.282,40.156 C198.681,40.059 208.114,37.77 212.622,35.683 C214.357,34.881 214.45,32.453 214.454,32.336 L214.454,13.416 L187.845,13.416 L187.845,13.416 Z M197.806,39.199 C195.826,38.769 187.806,36.926 183.741,34.543 C182.411,33.762 182.534,31.715 182.536,31.664 L182.54,26.464 L197.806,26.464 L197.806,39.2 L197.806,39.199 Z M213.573,32.323 C213.573,32.342 213.491,34.311 212.253,34.883 C208.462,36.639 200.862,38.603 198.686,39.148 L198.686,26.465 L213.573,26.465 L213.573,32.323 Z M198.684,25.585 L213.574,25.585 L213.574,14.295 L198.684,14.295 L198.684,25.585 L198.684,25.585 Z" id="Shape" fill="#000000"></path>
            <path d="M198.685,25.584 L213.574,25.584 L213.574,14.295 L198.685,14.295 L198.685,25.584 Z M182.536,31.664 L182.54,26.465 L197.806,26.465 L197.806,39.2 C195.826,38.768 187.806,36.927 183.742,34.544 C182.412,33.763 182.534,31.716 182.536,31.665 L182.536,31.664 Z" id="Shape" fill="#B11C33"></path>
        </g>
    </g>
</svg>