<?xml version="1.0" encoding="UTF-8"?>
<svg width="188px" height="56px" viewBox="0 0 188 56" version="1.1" xmlns="http://www.w3.org/2000/svg" xmlns:xlink="http://www.w3.org/1999/xlink">
    <title>Patheon Pharma Services - Logo - Header@2x</title>
    <g id="Brand-Update---Patheon-Header-/-Footer" stroke="none" stroke-width="1" fill="none" fill-rule="evenodd">
        <g id="F4---PATH-18001---Header-Nav-&amp;-Footer---Brand-Update---Spec---071122" transform="translate(-390.000000, -130.000000)" fill-rule="nonzero">
            <g id="1---Header-/-Nav---102121" transform="translate(0.000000, 50.000000)">
                <g id="Patheon-Pharma-Services---Logo---Header" transform="translate(390.125906, 80.000000)">
                    <g id="Group-31" fill="#58595B">
                        <path d="M0,7.35363504 L3.0155504,7.35363504 L3.0155504,9.29651108 L3.07155347,9.29651108 C3.46955207,8.50555747 4.12629235,7.87466113 4.93257886,7.50872049 C5.7446194,7.1425239 6.62658631,6.95731085 7.51733634,6.96592142 C8.53615143,6.94245036 9.54732684,7.14704044 10.4768837,7.56472357 C11.2928337,7.94172195 12.0107807,8.50192699 12.5748452,9.20173664 C13.134547,9.92639416 13.5512138,10.7509559 13.802605,11.6314087 C14.0897025,12.596074 14.2348221,13.5973997 14.2334162,14.6038798 C14.2351659,15.5513019 14.1090988,16.4946315 13.858608,17.4083416 C13.6246148,18.2750292 13.2332676,19.0913093 12.704083,19.816474 C12.1952451,20.5099948 11.5352669,21.0786367 10.7741308,21.4793347 C9.92467049,21.9146525 8.97991278,22.130851 8.02567198,22.1082923 C7.5588678,22.1080176 7.0930807,22.0647557 6.63421087,21.9790545 C6.17632578,21.8981411 5.72954203,21.7636722 5.30306077,21.578417 C4.88088555,21.3946042 4.48416029,21.1571482 4.12268818,20.8719167 C3.76410578,20.5884251 3.45792806,20.2443397 3.21802307,19.8552454 L3.16201999,19.8552454 L3.16201999,27.0193315 L0,27.0193315 L0,7.35363504 Z M11.0498382,14.5478767 C11.0519899,13.9105314 10.9679417,13.2758224 10.7999783,12.6610037 C10.6494278,12.0777754 10.3955534,11.5262552 10.0503987,11.0326065 C9.7206674,10.5714424 9.29432815,10.1877371 8.80109923,9.90823702 C8.27466422,9.61540719 7.68023132,9.46679896 7.07792757,9.4774441 C5.90231042,9.40251677 4.76824767,9.92580573 4.06237718,10.8689052 C3.33807112,11.95928 2.9831837,13.2534864 3.05001383,14.5608005 C3.04384274,15.2403457 3.13228583,15.9174428 3.31279751,16.5726034 C3.46829722,17.152689 3.73775678,17.6960015 4.10545647,18.1708451 C4.44660992,18.6081699 4.87686799,18.967942 5.36767971,19.2262877 C5.90110647,19.4962128 6.49321824,19.6294379 7.09085136,19.6140014 C7.73030581,19.6392867 8.36461791,19.4903871 8.92602917,19.1832084 C9.41715283,18.8946205 9.83915411,18.502027 10.1624048,18.0329914 C10.4923853,17.5440718 10.7276517,16.9975523 10.8559814,16.4218259 C10.9917976,15.806604 11.0568387,15.1778727 11.0498382,14.5478767 L11.0498382,14.5478767 Z" id="Shape"></path>
                        <path d="M28.148009,18.5240953 C28.1284847,18.8094572 28.1803017,19.0951912 28.2987865,19.3555256 C28.4390755,19.5402486 28.66761,19.6356084 28.8975887,19.6053855 L29.2206833,19.6053855 C29.3659177,19.6028088 29.5104104,19.5840247 29.6514763,19.5493824 L29.6514763,21.7464263 L29.2206833,21.8713562 L28.6778843,21.9962862 C28.4926433,22.0307496 28.3074024,22.0609051 28.1221614,22.0781368 C27.9369205,22.0953685 27.7775271,22.1082923 27.6482892,22.1082923 C27.085428,22.1280176 26.528002,21.9923872 26.0371237,21.7162708 C25.5762321,21.4040193 25.2730297,20.9075843 25.2056934,20.3549652 C24.5516299,20.9798297 23.7566419,21.4379083 22.8880275,21.6904232 C22.0292975,21.9630408 21.1352137,22.1081843 20.2343432,22.1212545 C19.6042976,22.1233888 18.9773213,22.0334061 18.3733178,21.8541245 C17.8083265,21.6918381 17.2771616,21.4291742 16.8052316,21.0786973 C16.3503302,20.7354995 15.9791604,20.2936308 15.7196334,19.7863185 C15.4422598,19.2104834 15.3049791,18.5772207 15.318996,17.9382169 C15.2881109,17.1898304 15.4560758,16.4466229 15.805792,15.7842524 C16.1182871,15.2494957 16.5634141,14.8043687 17.0981707,14.4918736 C17.6470474,14.1478491 18.2499887,13.8988082 18.8816534,13.7552177 C19.5364586,13.617364 20.1998797,13.5096658 20.8676087,13.436431 C21.4089186,13.3298009 21.9552928,13.2507204 22.5046218,13.1994949 C22.969192,13.1644077 23.429354,13.0850694 23.8788512,12.9625588 C24.2351944,12.880216 24.5626563,12.7030889 24.8265956,12.4499152 C25.0797439,12.1642646 25.2057233,11.7878818 25.1755379,11.4073964 C25.1912294,11.0510063 25.0881976,10.6994859 24.8825987,10.4079568 C24.6942771,10.1546412 24.447442,9.95066967 24.1631745,9.81346257 C23.8555921,9.66896392 23.5269348,9.57443859 23.1895825,9.53344718 C22.8621601,9.49506467 22.5327295,9.47636337 22.2030668,9.4774441 C21.4337409,9.44623755 20.6719293,9.63930965 20.0103308,10.033167 C19.4254978,10.4156263 19.0625414,11.058027 19.0367389,11.7563386 L15.866103,11.7563386 C15.8891745,10.9438257 16.1189861,10.1506047 16.533832,9.45159653 C16.9073115,8.84765366 17.4161247,8.33884049 18.0200676,7.96536097 C18.6481481,7.58536592 19.3400326,7.32262496 20.062026,7.18993373 C20.8296476,7.03890807 21.610281,6.96387492 22.3926157,6.96588066 C23.0936986,6.96469632 23.792831,7.03980972 24.4776534,7.18993373 C25.1297163,7.32425802 25.7544922,7.56746915 26.325755,7.9093579 C26.8593867,8.23216412 27.3106724,8.67460105 27.6439813,9.20173664 C27.9912691,9.7842038 28.164665,10.4538708 28.1437011,11.1316889 L28.148009,18.5240953 Z M24.9816811,14.5177212 C24.4406472,14.8515454 23.8244249,15.0441149 23.1895825,15.077752 C22.4873901,15.1423709 21.7851976,15.2371454 21.0786973,15.3663832 C20.7505336,15.4229551 20.4266685,15.5021221 20.1094132,15.6033193 C19.8097715,15.7017369 19.527674,15.847148 19.273675,16.0341122 C19.0287922,16.2137805 18.8332057,16.4523367 18.7050283,16.7276888 C18.5587576,17.0552798 18.4880848,17.4115886 18.4982477,17.7702077 C18.4874561,18.0935887 18.596366,18.4095808 18.8041107,18.6576411 C19.0052934,18.8986035 19.2567125,19.0926814 19.5407666,19.2262877 C19.8393243,19.3692994 20.1571506,19.4679852 20.484203,19.5192269 C20.7916414,19.5716964 21.1028386,19.5990702 21.4147157,19.6010776 C21.7978183,19.5984613 22.1793758,19.5522119 22.552009,19.4632238 C22.9609281,19.3718471 23.3513334,19.2116061 23.706534,18.9893516 C24.0625234,18.7668889 24.3689844,18.4736248 24.6068912,18.1277658 C24.8568077,17.7537332 24.9833484,17.3108408 24.9687573,16.8612346 L24.9816811,14.5177212 Z" id="Shape"></path>
                        <path d="M56.8818963,15.3534594 C56.879601,15.8993598 56.9594741,16.4424972 57.1188324,16.9646249 C57.2637572,17.4599429 57.5037205,17.9223112 57.8253328,18.3259306 C58.1504877,18.7211803 58.5595939,19.039047 59.0229371,19.2564432 C59.5643916,19.4985384 60.1531912,19.6162983 60.7461088,19.6010776 C61.5349669,19.6392765 62.3162184,19.4315449 62.981924,19.0065834 C63.5778282,18.5614267 64.0192519,17.9407218 64.2441472,17.2317165 L67.2596976,17.2317165 C66.9604237,18.6882855 66.1276605,19.9804513 64.9248,20.854685 C64.3408358,21.2783292 63.6878509,21.5975339 62.9948478,21.7981214 C61.2638238,22.2937613 59.4174654,22.2028823 57.7434822,21.5396457 C56.9031115,21.1892821 56.1500987,20.6583492 55.5378224,19.9844833 C54.9212347,19.2919236 54.4574022,18.4772809 54.1765168,17.5935826 C53.8605147,16.6066778 53.7048878,15.5754676 53.7155684,14.5392608 C53.7123029,13.5490677 53.8783982,12.5656084 54.2066723,11.6314087 C54.5136368,10.7451486 54.9857887,9.92509546 55.5981334,9.21466042 C56.8698297,7.74843569 58.72813,6.92427873 60.668566,6.96592142 C61.7161594,6.95348377 62.751068,7.19594809 63.6841164,7.67242179 C64.5581225,8.12695219 65.3214339,8.76819253 65.9199317,9.5506789 C66.5222805,10.3504585 66.9614108,11.2609219 67.2123104,12.2302108 C67.4800241,13.2485411 67.5502155,14.3087233 67.419091,15.3534594 L56.8818963,15.3534594 Z M64.2699948,13.2684217 C64.2334015,12.7745842 64.1260423,12.2885663 63.951208,11.8252655 C63.78615,11.3821281 63.5408052,10.97322 63.2274759,10.6190453 C62.9156302,10.2718367 62.5397115,9.98806927 62.1203382,9.78330707 C61.6657139,9.57304996 61.1693763,9.46848032 60.668566,9.4774441 C60.1498253,9.47083936 59.6352268,9.57053364 59.1564829,9.77038328 C58.714886,9.9535925 58.3170306,10.2281274 57.9890341,10.575966 C57.6596151,10.9285927 57.3955863,11.3370351 57.2092989,11.7821862 C57.0142809,12.2588337 56.9063102,12.766588 56.8905122,13.2813455 L64.2699948,13.2684217 Z" id="Shape"></path>
                        <path d="M76.0047938,22.1039844 C74.9548554,22.123755 73.9116925,21.9318247 72.9375482,21.5396457 C72.0742775,21.1863821 71.2970749,20.6515961 70.6586537,19.9715595 C70.0261992,19.2826452 69.5435882,18.4699812 69.241345,17.5849667 C68.9096224,16.5998193 68.7465034,15.5657612 68.758857,14.5263371 C68.74913,13.5011856 68.9122437,12.4817256 69.241345,11.5107867 C69.5436214,10.6245043 70.026194,9.81043802 70.6586537,9.11988598 C71.2982095,8.44117104 72.0751066,7.90659537 72.9375482,7.55179978 C74.9135862,6.79362861 77.1003092,6.79362861 79.0763472,7.55179978 C79.9337736,7.90329709 80.7073838,8.43175943 81.3466259,9.10265427 C81.9806089,9.79207499 82.4633818,10.6064792 82.7639346,11.4935549 C83.0944997,12.4642424 83.2590707,13.4837089 83.2507306,14.5091053 C83.2616969,15.5487747 83.0971204,16.5828392 82.7639346,17.567735 C82.464391,18.456556 81.9815353,19.2725675 81.3466259,19.9629436 C80.7111151,20.6445711 79.9369971,21.1821939 79.0763472,21.5396457 C78.1006982,21.9318264 77.0561292,22.1237458 76.0047938,22.1039844 L76.0047938,22.1039844 Z M76.0047938,19.6010776 C76.6437746,19.6215164 77.2768279,19.4729123 77.8399716,19.1702847 C78.3537238,18.8841782 78.7956653,18.4849577 79.1323503,18.0028359 C79.469327,17.5068101 79.7131154,16.9535418 79.8517745,16.3701307 C80.0110121,15.767066 80.0906668,15.1457598 80.0887458,14.5220291 C80.0881657,13.9041301 80.0085402,13.2888415 79.8517745,12.6911592 C79.7102374,12.1083921 79.4603404,11.5574496 79.1151186,11.06707 C78.7760651,10.5904409 78.3344352,10.1959182 77.8227399,9.91254495 C76.6723971,9.32064745 75.307035,9.32064745 74.1566922,9.91254495 C73.6452517,10.1962771 73.2036949,10.5907345 72.8643134,11.06707 C72.5225429,11.5594163 72.2729478,12.1096932 72.1276575,12.6911592 C71.9743806,13.28942 71.8962361,13.9044465 71.89501,14.5220291 C71.8935943,15.1454534 71.9717692,15.7665094 72.1276575,16.3701307 C72.2763535,16.9504042 72.5256836,17.5000969 72.8643134,17.99422 C73.2009984,18.4763418 73.64294,18.8755624 74.1566922,19.1616688 C74.7225276,19.4703008 75.3606002,19.6220104 76.0047938,19.6010776 Z" id="Shape"></path>
                        <path d="M84.7025027,7.35363504 L87.7180531,7.35363504 L87.7180531,9.4774441 L87.7740562,9.53344718 C88.2339426,8.75890993 88.8832495,8.11405037 89.6609291,7.65949801 C90.445968,7.2051243 91.3386783,6.97004393 92.2456866,6.9788452 C93.8195167,6.9788452 95.0602003,7.38666249 95.9677374,8.20229708 C96.8724025,9.01649568 97.329043,10.2356396 97.329043,11.8683448 L97.329043,21.7119629 L94.1627151,21.7119629 L94.1627151,12.6868513 C94.1225077,11.5581739 93.8812637,10.7382314 93.438983,10.2270238 C92.8860728,9.677381 92.1170484,9.40261663 91.3410215,9.4774441 C90.8430344,9.46935226 90.34921,9.56929292 89.8935573,9.77038328 C89.4783424,9.95624789 89.1091657,10.2312919 88.8122671,10.575966 C88.506884,10.9305668 88.2715323,11.3398742 88.1186905,11.7821862 C87.9502116,12.2549845 87.865653,12.7535883 87.8688306,13.255498 L87.8688306,21.7119629 L84.7025027,21.7119629 L84.7025027,7.35363504 Z" id="Path"></path>
                        <path d="M49.1103922,21.7507342 L52.2939518,21.7507342 L52.2939518,11.8424972 C52.2939518,8.60724242 50.3123044,6.93145798 47.1847478,6.93145798 C45.4516611,6.90538933 43.8259419,7.76864623 42.8768187,9.21896835 L42.8208156,9.21896835 L42.8208156,3.22663892 L42.8208156,3.22663892 L42.8208156,0.245551961 L42.8208156,0.245551961 L42.8208156,0 L39.6157163,1.63701307 L39.6157163,2.61922092 L39.6157163,2.61922092 L39.6157163,4.19592298 L39.6157163,4.19592298 L39.6157163,4.75595377 L39.6157163,4.75595377 L39.6157163,21.7507342 L42.7949681,21.7507342 L42.7949681,13.2382662 C42.7949681,11.1187651 44.1648895,9.44298067 46.2843907,9.44298067 C48.1540319,9.44298067 49.0457732,10.4208806 49.1017763,12.6782355 L49.1017763,21.7507342 L49.1103922,21.7507342 Z" id="Path"></path>
                        <path d="M35.9065894,21.8885879 C36.6044739,21.8885879 37.2722029,21.7765818 37.9700874,21.7205787 L37.9700874,19.2650591 C37.5302686,19.360929 37.0801914,19.4014504 36.6303215,19.3856811 C35.2087048,19.3856811 35.0966987,18.7179521 35.0966987,17.4040337 L35.0966987,9.69284056 L37.9700874,9.69284056 L37.9700874,7.32347953 L35.0966987,7.32347953 L35.0966987,3.70051113 L31.917447,5.34183213 L31.917447,7.32347953 L29.5136225,7.32347953 L29.5136225,9.69284056 L31.917447,9.69284056 L31.917447,18.2053085 C31.9734501,20.6048251 32.585176,21.8885879 35.9065894,21.8885879 L35.9065894,21.8885879 Z" id="Path"></path>
                    </g>
                    <g id="pharma-services" transform="translate(0.289294, 30.619332)" fill="#555759">
                        <path d="M0,5.35894613 L0,24.7817255 L2.31223564,24.7817255 L2.31223564,17.5457881 L2.36664118,17.5457881 C2.62053372,17.9628973 2.9333656,18.3119995 3.30513682,18.5930948 C3.67690804,18.8741901 4.07134824,19.0963461 4.48845742,19.2595627 C4.90556659,19.4227794 5.32720956,19.540658 5.75338632,19.6131988 C6.17956309,19.6857395 6.56493569,19.7220099 6.90950414,19.7220099 C7.97947985,19.7220099 8.91797549,19.5315904 9.72499107,19.1507516 C10.5320066,18.7699128 11.2030084,18.2485264 11.7379962,17.5865922 C12.2729841,16.9246581 12.6719581,16.1493791 12.9349182,15.2607552 C13.1978783,14.3721313 13.3293584,13.4291019 13.3293584,12.4316669 C13.3293584,11.4342319 13.1933445,10.4912025 12.9213168,9.60257859 C12.6492891,8.7139547 12.2457813,7.9296081 11.7107934,7.24953879 C11.1758056,6.56946949 10.5048039,6.02994784 9.69778829,5.63097385 C8.89077272,5.23199986 7.94320949,5.03251286 6.8550986,5.03251286 C5.8757988,5.03251286 4.97810731,5.20933088 4.16202415,5.56296692 C3.34594098,5.91660296 2.74747999,6.48332738 2.36664118,7.26314018 L2.31223564,7.26314018 L2.31223564,5.35894613 L0,5.35894613 Z M10.8811089,12.2684503 C10.8811089,12.9575872 10.8085682,13.6285889 10.6634867,14.2814554 C10.5184053,14.9343219 10.2826479,15.5146478 9.95621463,16.0224328 C9.62978136,16.5302179 9.1990708,16.9382595 8.66408295,17.2465576 C8.1290951,17.5548557 7.46262718,17.7090047 6.66467919,17.7090047 C5.86673121,17.7090047 5.1866619,17.5593895 4.62447128,17.260159 C4.06228065,16.9609285 3.60436732,16.5664883 3.25073128,16.0768384 C2.89709524,15.5871885 2.6386689,15.0204641 2.47545227,14.3766651 C2.31223564,13.7328662 2.23062732,13.0663983 2.23062732,12.3772614 C2.23062732,11.7243948 2.30770184,11.0805959 2.46185089,10.4458645 C2.61599993,9.81113318 2.86535867,9.24440876 3.20992712,8.74569127 C3.55449557,8.24697378 3.99880752,7.84346599 4.54286296,7.5351679 C5.0869184,7.22686982 5.74885253,7.07272078 6.52866533,7.07272078 C7.27220777,7.07272078 7.92054051,7.21780223 8.47366354,7.50796513 C9.02678658,7.79812803 9.48016612,8.18803444 9.83380216,8.67768434 C10.1874382,9.16733424 10.4503983,9.72499107 10.6226825,10.3506548 C10.7949668,10.9763186 10.8811089,11.6155837 10.8811089,12.2684503 Z" id="Shape"></path>
                        <path d="M14.4769753,0 L14.4769753,19.4227794 L16.789211,19.4227794 L16.789211,11.4795699 C16.789211,10.8448385 16.8753531,10.2599789 17.0476373,9.72499107 C17.2199215,9.19000321 17.4783479,8.72302229 17.8229163,8.3240483 C18.1674848,7.9250743 18.5981953,7.61677622 19.115048,7.39915404 C19.6319007,7.18153186 20.243963,7.07272078 20.9512351,7.07272078 C21.839859,7.07272078 22.5380635,7.32661332 23.0458486,7.8343984 C23.5536337,8.34218348 23.8075262,9.03132037 23.8075262,9.90180909 L23.8075262,19.4227794 L26.1197618,19.4227794 L26.1197618,10.1738368 C26.1197618,9.41215919 26.0426873,8.71848849 25.8885383,8.09282473 C25.7343892,7.46716097 25.4668953,6.92763932 25.0860565,6.47425979 C24.7052177,6.02088025 24.2065002,5.66724421 23.589904,5.41335167 C22.9733079,5.15945913 22.2025626,5.03251286 21.2776684,5.03251286 C20.8605592,5.03251286 20.4298487,5.07785081 19.9855367,5.16852672 C19.5412248,5.25920263 19.115048,5.39975028 18.7070064,5.59016969 C18.2989648,5.7805891 17.9317274,6.02541405 17.6052941,6.32464454 C17.2788609,6.62387503 17.0249683,6.99111246 16.8436165,7.42635681 L16.789211,7.42635681 L16.789211,0 L14.4769753,0 Z" id="Path"></path>
                        <path d="M40.4879261,19.3683738 C40.0889521,19.6041312 39.5358291,19.7220099 38.828557,19.7220099 C38.230096,19.7220099 37.7540475,19.5542594 37.4004114,19.2187586 C37.0467754,18.8832577 36.8699574,18.3346685 36.8699574,17.5729908 C36.235226,18.3346685 35.4962174,18.8832577 34.6529315,19.2187586 C33.8096455,19.5542594 32.8983526,19.7220099 31.9190528,19.7220099 C31.2843215,19.7220099 30.6813267,19.6494691 30.1100685,19.5043877 C29.5388103,19.3593062 29.0446266,19.1326165 28.6275174,18.8243184 C28.2104082,18.5160203 27.8794412,18.1125125 27.6346162,17.613795 C27.3897913,17.1150775 27.2673788,16.5120827 27.2673788,15.8048107 C27.2673788,15.0068627 27.4033927,14.3539961 27.6754204,13.8462111 C27.9474481,13.338426 28.3056179,12.9258506 28.7499299,12.6084849 C29.1942418,12.2911192 29.7020269,12.0508281 30.2732851,11.8876115 C30.8445433,11.7243948 31.4294029,11.588381 32.0278639,11.4795699 C32.6625953,11.3526236 33.2655901,11.2574139 33.8368483,11.1939408 C34.4081065,11.1304676 34.9113578,11.0397917 35.3466021,10.921913 C35.7818465,10.8040344 36.1264149,10.6317501 36.3803075,10.4050604 C36.6342,10.1783706 36.7611463,9.84740354 36.7611463,9.41215919 C36.7611463,8.9043741 36.6659366,8.49633252 36.4755172,8.18803444 C36.2850978,7.87973635 36.0402728,7.64397899 35.7410423,7.48076236 C35.4418118,7.31754573 35.106311,7.20873464 34.7345398,7.15432909 C34.3627685,7.09992355 33.9955311,7.07272078 33.6328275,7.07272078 C32.6535277,7.07272078 31.8374445,7.25860639 31.184578,7.63037761 C30.5317115,8.00214883 30.1780754,8.70488711 30.1236699,9.73859245 L27.8114342,9.73859245 C27.8477046,8.86810374 28.0290564,8.13362889 28.3554897,7.5351679 C28.681923,6.93670691 29.1171673,6.45159081 29.6612228,6.07981959 C30.2052782,5.70804837 30.8264082,5.44055444 31.5246126,5.27733781 C32.2228171,5.11412118 32.9708934,5.03251286 33.7688414,5.03251286 C34.4035727,5.03251286 35.0337703,5.07785081 35.659434,5.16852672 C36.2850978,5.25920263 36.8518222,5.44508824 37.3596073,5.72618355 C37.8673924,6.00727886 38.275434,6.40171906 38.583732,6.90950414 C38.8920301,7.41728922 39.0461792,8.07922335 39.0461792,8.89530651 L39.0461792,16.1312439 C39.0461792,16.6752994 39.0779157,17.0742734 39.1413889,17.3281659 C39.204862,17.5820584 39.4179504,17.7090047 39.780654,17.7090047 C39.980141,17.7090047 40.2158984,17.6636668 40.4879261,17.5729908 L40.4879261,19.3683738 Z M36.7339435,12.1596392 C36.4437806,12.3772614 36.0629418,12.5359442 35.5914271,12.6356877 C35.1199124,12.7354312 34.6257287,12.8170395 34.108876,12.8805126 C33.5920233,12.9439858 33.0706369,13.0165265 32.5447166,13.0981348 C32.0187963,13.1797431 31.5472816,13.3112232 31.1301725,13.492575 C30.7130633,13.6739268 30.3730286,13.9323532 30.1100685,14.267854 C29.8471084,14.6033549 29.7156283,15.0612682 29.7156283,15.641594 C29.7156283,16.0224328 29.7927028,16.3443323 29.9468519,16.6072924 C30.1010009,16.8702526 30.3004879,17.0833409 30.5453128,17.2465576 C30.7901378,17.4097742 31.0757669,17.5276529 31.4022002,17.6001936 C31.7286334,17.6727343 32.0732019,17.7090047 32.4359055,17.7090047 C33.1975831,17.7090047 33.8504497,17.6047274 34.3945051,17.3961728 C34.9385606,17.1876182 35.3828725,16.9246581 35.727441,16.6072924 C36.0720094,16.2899268 36.3259019,15.9453583 36.4891186,15.5735871 C36.6523352,15.2018159 36.7339435,14.8527136 36.7339435,14.5262804 L36.7339435,12.1596392 Z" id="Shape"></path>
                        <path d="M41.635543,5.35894613 L41.635543,19.4227794 L43.9477787,19.4227794 L43.9477787,13.1661418 C43.9477787,12.2593827 44.0384546,11.4569009 44.2198064,10.7586964 C44.4011582,10.0604919 44.6913211,9.46656473 45.0902951,8.97691483 C45.4892691,8.48726493 46.0151894,8.11549371 46.6680559,7.86160117 C47.3209224,7.60770863 48.1098028,7.48076236 49.0346971,7.48076236 L49.0346971,5.03251286 C47.7833696,4.9962425 46.7496642,5.25013504 45.9335811,5.79419048 C45.1174979,6.33824593 44.428361,7.18153186 43.8661704,8.3240483 L43.8117648,8.3240483 L43.8117648,5.35894613 L41.635543,5.35894613 Z" id="Path"></path>
                        <path d="M50.182314,5.35894613 L50.182314,19.4227794 L52.4945497,19.4227794 L52.4945497,10.6634867 C52.4945497,10.391459 52.5625566,10.0514243 52.6985705,9.64338275 C52.8345843,9.23534117 53.0522065,8.84090097 53.351437,8.46006216 C53.6506675,8.07922335 54.0405739,7.75279008 54.5211562,7.48076236 C55.0017385,7.20873464 55.5775305,7.07272078 56.2485322,7.07272078 C56.7744525,7.07272078 57.2051631,7.1497953 57.5406639,7.30394434 C57.8761648,7.45809338 58.1436587,7.67571556 58.3431457,7.95681087 C58.5426327,8.23790619 58.6831804,8.56887325 58.7647887,8.94971206 C58.846397,9.33055087 58.8872011,9.74766004 58.8872011,10.2010396 L58.8872011,19.4227794 L61.1994368,19.4227794 L61.1994368,10.6634867 C61.1994368,9.57537582 61.5258701,8.70488711 62.1787366,8.05202058 C62.8316031,7.39915404 63.7292946,7.07272078 64.871811,7.07272078 C65.4340017,7.07272078 65.891915,7.15432909 66.245551,7.31754573 C66.5991871,7.48076236 66.8757486,7.70291833 67.0752356,7.98401364 C67.2747226,8.26510896 67.4107364,8.59607602 67.4832772,8.97691483 C67.5558179,9.35775364 67.5920883,9.76579522 67.5920883,10.2010396 L67.5920883,19.4227794 L69.9043239,19.4227794 L69.9043239,9.11292869 C69.9043239,8.38752143 69.790979,7.76639147 69.5642892,7.24953879 C69.3375995,6.73268612 69.0202338,6.31104315 68.6121922,5.98460989 C68.2041506,5.65817662 67.7145007,5.41788547 67.1432425,5.26373642 C66.5719843,5.10958738 65.9327192,5.03251286 65.2254471,5.03251286 C64.3005528,5.03251286 63.4527331,5.24106745 62.6819879,5.65817662 C61.9112427,6.07528579 61.2901127,6.66467919 60.818598,7.42635681 C60.5284351,6.5558681 60.0297176,5.93927193 59.3224455,5.5765683 C58.6151734,5.21386467 57.826293,5.03251286 56.9558043,5.03251286 C54.9790695,5.03251286 53.4647819,5.83046084 52.4129414,7.42635681 L52.3585358,7.42635681 L52.3585358,5.35894613 L50.182314,5.35894613 Z" id="Path"></path>
                        <path d="M84.2724881,19.3683738 C83.8735142,19.6041312 83.3203911,19.7220099 82.613119,19.7220099 C82.014658,19.7220099 81.5386095,19.5542594 81.1849735,19.2187586 C80.8313375,18.8832577 80.6545194,18.3346685 80.6545194,17.5729908 C80.0197881,18.3346685 79.2807794,18.8832577 78.4374935,19.2187586 C77.5942076,19.5542594 76.6829147,19.7220099 75.7036149,19.7220099 C75.0688835,19.7220099 74.4658888,19.6494691 73.8946305,19.5043877 C73.3233723,19.3593062 72.8291886,19.1326165 72.4120795,18.8243184 C71.9949703,18.5160203 71.6640032,18.1125125 71.4191783,17.613795 C71.1743533,17.1150775 71.0519408,16.5120827 71.0519408,15.8048107 C71.0519408,15.0068627 71.1879547,14.3539961 71.4599824,13.8462111 C71.7320102,13.338426 72.09018,12.9258506 72.5344919,12.6084849 C72.9788039,12.2911192 73.486589,12.0508281 74.0578472,11.8876115 C74.6291054,11.7243948 75.213965,11.588381 75.812426,11.4795699 C76.4471573,11.3526236 77.0501521,11.2574139 77.6214103,11.1939408 C78.1926686,11.1304676 78.6959198,11.0397917 79.1311642,10.921913 C79.5664086,10.8040344 79.910977,10.6317501 80.1648695,10.4050604 C80.4187621,10.1783706 80.5457083,9.84740354 80.5457083,9.41215919 C80.5457083,8.9043741 80.4504986,8.49633252 80.2600792,8.18803444 C80.0696598,7.87973635 79.8248349,7.64397899 79.5256044,7.48076236 C79.2263739,7.31754573 78.890873,7.20873464 78.5191018,7.15432909 C78.1473306,7.09992355 77.7800932,7.07272078 77.4173895,7.07272078 C76.4380897,7.07272078 75.6220066,7.25860639 74.96914,7.63037761 C74.3162735,8.00214883 73.9626375,8.70488711 73.9082319,9.73859245 L71.5959963,9.73859245 C71.6322667,8.86810374 71.8136185,8.13362889 72.1400517,7.5351679 C72.466485,6.93670691 72.9017294,6.45159081 73.4457848,6.07981959 C73.9898402,5.70804837 74.6109702,5.44055444 75.3091747,5.27733781 C76.0073792,5.11412118 76.7554554,5.03251286 77.5534034,5.03251286 C78.1881348,5.03251286 78.8183323,5.07785081 79.4439961,5.16852672 C80.0696598,5.25920263 80.6363843,5.44508824 81.1441693,5.72618355 C81.6519544,6.00727886 82.059996,6.40171906 82.3682941,6.90950414 C82.6765922,7.41728922 82.8307412,8.07922335 82.8307412,8.89530651 L82.8307412,16.1312439 C82.8307412,16.6752994 82.8624778,17.0742734 82.9259509,17.3281659 C82.9894241,17.5820584 83.2025124,17.7090047 83.5652161,17.7090047 C83.7647031,17.7090047 84.0004604,17.6636668 84.2724881,17.5729908 L84.2724881,19.3683738 Z M80.5185056,12.1596392 C80.2283427,12.3772614 79.8475039,12.5359442 79.3759891,12.6356877 C78.9044744,12.7354312 78.4102907,12.8170395 77.8934381,12.8805126 C77.3765854,12.9439858 76.8551989,13.0165265 76.3292787,13.0981348 C75.8033584,13.1797431 75.3318437,13.3112232 74.9147345,13.492575 C74.4976253,13.6739268 74.1575907,13.9323532 73.8946305,14.267854 C73.6316704,14.6033549 73.5001903,15.0612682 73.5001903,15.641594 C73.5001903,16.0224328 73.5772649,16.3443323 73.7314139,16.6072924 C73.885563,16.8702526 74.0850499,17.0833409 74.3298749,17.2465576 C74.5746998,17.4097742 74.860329,17.5276529 75.1867622,17.6001936 C75.5131955,17.6727343 75.8577639,17.7090047 76.2204676,17.7090047 C76.9821452,17.7090047 77.6350117,17.6047274 78.1790672,17.3961728 C78.7231226,17.1876182 79.1674346,16.9246581 79.512003,16.6072924 C79.8565715,16.2899268 80.110464,15.9453583 80.2736806,15.5735871 C80.4368973,15.2018159 80.5185056,14.8527136 80.5185056,14.5262804 L80.5185056,12.1596392 Z" id="Shape"></path>
                        <path d="M95.7852114,14.9887275 L93.4729758,14.9887275 C93.5092461,15.8592162 93.6905979,16.5982248 94.0170312,17.2057534 C94.3434645,17.813282 94.7787088,18.3029319 95.3227643,18.6747031 C95.8668197,19.0464743 96.4924835,19.3139683 97.1997556,19.4771849 C97.9070276,19.6404015 98.6505701,19.7220099 99.4303829,19.7220099 C100.137655,19.7220099 100.849461,19.6540029 101.5658,19.5179891 C102.28214,19.3819752 102.925939,19.141684 103.497197,18.7971156 C104.068456,18.4525472 104.530903,17.9991676 104.884539,17.436977 C105.238175,16.8747864 105.414993,16.1675143 105.414993,15.3151608 C105.414993,14.644159 105.283513,14.0819684 105.020553,13.6285889 C104.757592,13.1752093 104.413024,12.7989043 103.986847,12.4996738 C103.56067,12.2004433 103.071021,11.9601522 102.517898,11.7788004 C101.964774,11.5974486 101.39805,11.4432995 100.817724,11.3163532 C100.273669,11.189407 99.7296134,11.0669945 99.1855579,10.9491158 C98.6415025,10.8312371 98.1518526,10.6861557 97.7166082,10.5138715 C97.2813639,10.3415872 96.923194,10.1239651 96.6420987,9.86100493 C96.3610034,9.5980448 96.2204558,9.26707773 96.2204558,8.86810374 C96.2204558,8.50540011 96.3111317,8.21070341 96.4924835,7.98401364 C96.6738353,7.75732388 96.9095926,7.57597206 97.1997556,7.4399582 C97.4899185,7.30394434 97.8118179,7.20873464 98.165454,7.15432909 C98.51909,7.09992355 98.8681922,7.07272078 99.2127607,7.07272078 C99.5935995,7.07272078 99.9699045,7.11352493 100.341676,7.19513325 C100.713447,7.27674157 101.053482,7.40822163 101.36178,7.58957345 C101.670078,7.77092526 101.92397,8.01121642 102.123457,8.31044691 C102.322944,8.60967741 102.440823,8.98598242 102.477093,9.43936196 L104.789329,9.43936196 C104.734923,8.58700843 104.553572,7.87520256 104.245274,7.30394434 C103.936975,6.73268612 103.5244,6.27930659 103.007547,5.94380573 C102.490695,5.60830487 101.896768,5.37254751 101.225766,5.23653365 C100.554764,5.10051979 99.8202893,5.03251286 99.0223413,5.03251286 C98.4057451,5.03251286 97.7846152,5.10958738 97.1589514,5.26373642 C96.5332876,5.41788547 95.971097,5.65364282 95.4723795,5.9710085 C94.973662,6.28837418 94.5656204,6.70094956 94.2482548,7.20873464 C93.9308891,7.71651972 93.7722063,8.3240483 93.7722063,9.03132037 C93.7722063,9.93807945 93.998896,10.6453515 94.4522756,11.1531366 C94.9056551,11.6609217 95.4723795,12.0553619 96.1524488,12.3364572 C96.8325181,12.6175525 97.5715268,12.8351747 98.3694748,12.9893237 C99.1674227,13.1434728 99.9064314,13.315757 100.586501,13.5061764 C101.26657,13.6965958 101.833294,13.9459546 102.286674,14.2542526 C102.740053,14.5625507 102.966743,15.0159303 102.966743,15.6143913 C102.966743,16.0496356 102.857932,16.4078054 102.64031,16.6889008 C102.422688,16.9699961 102.146126,17.1830844 101.810625,17.3281659 C101.475125,17.4732474 101.107887,17.5729908 100.708913,17.6273964 C100.309939,17.6818019 99.9291004,17.7090047 99.5663967,17.7090047 C99.094882,17.7090047 98.6369687,17.6636668 98.1926567,17.5729908 C97.7483448,17.4823149 97.3493708,17.3326997 96.9957348,17.1241451 C96.6420987,16.9155905 96.3564696,16.6344952 96.1388474,16.2808592 C95.9212253,15.9272231 95.8033466,15.4965126 95.7852114,14.9887275 Z" id="Path"></path>
                        <path d="M117.090083,11.0443255 L109.010859,11.0443255 C109.04713,10.5002701 109.165008,9.9879512 109.364495,9.50736889 C109.563982,9.02678658 109.83601,8.60514361 110.180578,8.24243998 C110.525147,7.87973635 110.937722,7.59410724 111.418305,7.38555266 C111.898887,7.17699807 112.438409,7.07272078 113.036869,7.07272078 C113.617195,7.07272078 114.147649,7.17699807 114.628232,7.38555266 C115.108814,7.59410724 115.525923,7.87520256 115.879559,8.22883859 C116.233195,8.58247463 116.514291,9.0041176 116.722845,9.4937675 C116.9314,9.9834174 117.053812,10.5002701 117.090083,11.0443255 Z M119.32071,14.9615247 L117.035677,14.9615247 C116.83619,15.886419 116.423615,16.5755559 115.797951,17.0289354 C115.172287,17.4823149 114.369805,17.7090047 113.390506,17.7090047 C112.628828,17.7090047 111.966894,17.5820584 111.404703,17.3281659 C110.842513,17.0742734 110.380065,16.7342387 110.017362,16.3080619 C109.654658,15.8818852 109.391698,15.3922353 109.228481,14.8391122 C109.065265,14.2859892 108.992724,13.7011296 109.010859,13.0845334 L119.538332,13.0845334 C119.574602,12.2321799 119.497528,11.3344884 119.307108,10.391459 C119.116689,9.44842955 118.772121,8.57794084 118.273403,7.77999285 C117.774686,6.98204487 117.112752,6.32464454 116.287601,5.80779187 C115.46245,5.2909392 114.424211,5.03251286 113.172883,5.03251286 C112.211719,5.03251286 111.327629,5.21386467 110.520613,5.5765683 C109.713597,5.93927193 109.015393,6.44705701 108.426,7.09992355 C107.836606,7.75279008 107.378693,8.52353529 107.05226,9.41215919 C106.725826,10.3007831 106.56261,11.2800829 106.56261,12.3500586 C106.59888,13.4200343 106.757563,14.4084017 107.038658,15.3151608 C107.319754,16.2219198 107.741397,17.0017326 108.303587,17.6545992 C108.865778,18.3074657 109.559448,18.8152508 110.384599,19.1779544 C111.20975,19.540658 112.184516,19.7220099 113.308897,19.7220099 C114.904793,19.7220099 116.228661,19.3230359 117.280502,18.5250879 C118.332342,17.7271399 119.012412,16.5392855 119.32071,14.9615247 Z" id="Shape"></path>
                        <path d="M120.694654,5.35894613 L120.694654,19.4227794 L123.00689,19.4227794 L123.00689,13.1661418 C123.00689,12.2593827 123.097565,11.4569009 123.278917,10.7586964 C123.460269,10.0604919 123.750432,9.46656473 124.149406,8.97691483 C124.54838,8.48726493 125.0743,8.11549371 125.727167,7.86160117 C126.380033,7.60770863 127.168914,7.48076236 128.093808,7.48076236 L128.093808,5.03251286 C126.84248,4.9962425 125.808775,5.25013504 124.992692,5.79419048 C124.176609,6.33824593 123.487472,7.18153186 122.925281,8.3240483 L122.870876,8.3240483 L122.870876,5.35894613 L120.694654,5.35894613 Z" id="Path"></path>
                        <polygon id="Path" points="136.939809 19.4227794 142.081133 5.35894613 139.660087 5.35894613 135.824496 17.0833409 135.77009 17.0833409 131.825688 5.35894613 129.241425 5.35894613 134.464357 19.4227794"></polygon>
                        <path d="M145.540986,2.82908831 L145.540986,0 L143.22875,0 L143.22875,2.82908831 L145.540986,2.82908831 Z M143.22875,5.35894613 L143.22875,19.4227794 L145.540986,19.4227794 L145.540986,5.35894613 L143.22875,5.35894613 Z" id="Shape"></path>
                        <path d="M156.998454,9.87460631 L159.392298,9.87460631 C159.301622,9.04038797 159.083999,8.3195145 158.739431,7.71198592 C158.394863,7.10445734 157.955084,6.60120606 157.420097,6.20223206 C156.885109,5.80325807 156.268513,5.50856137 155.570308,5.31814197 C154.872104,5.12772256 154.124027,5.03251286 153.326079,5.03251286 C152.219833,5.03251286 151.249601,5.22746606 150.415383,5.61737246 C149.581164,6.00727886 148.887494,6.54226672 148.334371,7.22233602 C147.781248,7.90240533 147.368672,8.70035331 147.096645,9.61617998 C146.824617,10.5320066 146.688603,11.5158402 146.688603,12.5676808 C146.688603,13.6195213 146.829151,14.5852197 147.110246,15.464776 C147.391341,16.3443323 147.80845,17.1014761 148.361573,17.7362075 C148.914696,18.3709388 149.603833,18.8605887 150.428984,19.2051572 C151.254135,19.5497256 152.201698,19.7220099 153.271674,19.7220099 C155.067057,19.7220099 156.486135,19.2504951 157.528908,18.3074657 C158.571681,17.3644363 159.220013,16.0224328 159.473906,14.2814554 L157.107265,14.2814554 C156.962183,15.3695663 156.567743,16.2128522 155.923944,16.8113132 C155.280145,17.4097742 154.386987,17.7090047 153.244471,17.7090047 C152.519064,17.7090047 151.8934,17.5639233 151.36748,17.2737604 C150.841559,16.9835975 150.415383,16.5982248 150.088949,16.1176425 C149.762516,15.6370602 149.522225,15.088471 149.368076,14.4718748 C149.213927,13.8552786 149.136852,13.2205473 149.136852,12.5676808 C149.136852,11.8604087 149.209393,11.1758056 149.354475,10.5138715 C149.499556,9.85193734 149.739847,9.26707773 150.075348,8.75929265 C150.410849,8.25150757 150.859695,7.84346599 151.421885,7.5351679 C151.984076,7.22686982 152.68228,7.07272078 153.516499,7.07272078 C154.495799,7.07272078 155.275611,7.31754573 155.855937,7.80719563 C156.436263,8.29684553 156.817102,8.98598242 156.998454,9.87460631 Z" id="Path"></path>
                        <path d="M171.148996,11.0443255 L163.069772,11.0443255 C163.106043,10.5002701 163.223921,9.9879512 163.423408,9.50736889 C163.622895,9.02678658 163.894923,8.60514361 164.239492,8.24243998 C164.58406,7.87973635 164.996635,7.59410724 165.477218,7.38555266 C165.9578,7.17699807 166.497322,7.07272078 167.095783,7.07272078 C167.676108,7.07272078 168.206562,7.17699807 168.687145,7.38555266 C169.167727,7.59410724 169.584836,7.87520256 169.938472,8.22883859 C170.292108,8.58247463 170.573204,9.0041176 170.781758,9.4937675 C170.990313,9.9834174 171.112725,10.5002701 171.148996,11.0443255 Z M173.379623,14.9615247 L171.09459,14.9615247 C170.895103,15.886419 170.482528,16.5755559 169.856864,17.0289354 C169.2312,17.4823149 168.428718,17.7090047 167.449419,17.7090047 C166.687741,17.7090047 166.025807,17.5820584 165.463616,17.3281659 C164.901426,17.0742734 164.438979,16.7342387 164.076275,16.3080619 C163.713571,15.8818852 163.450611,15.3922353 163.287394,14.8391122 C163.124178,14.2859892 163.051637,13.7011296 163.069772,13.0845334 L173.597245,13.0845334 C173.633516,12.2321799 173.556441,11.3344884 173.366022,10.391459 C173.175602,9.44842955 172.831034,8.57794084 172.332316,7.77999285 C171.833599,6.98204487 171.171665,6.32464454 170.346514,5.80779187 C169.521363,5.2909392 168.483124,5.03251286 167.231796,5.03251286 C166.270632,5.03251286 165.386542,5.21386467 164.579526,5.5765683 C163.772511,5.93927193 163.074306,6.44705701 162.484913,7.09992355 C161.895519,7.75279008 161.437606,8.52353529 161.111173,9.41215919 C160.784739,10.3007831 160.621523,11.2800829 160.621523,12.3500586 C160.657793,13.4200343 160.816476,14.4084017 161.097571,15.3151608 C161.378667,16.2219198 161.80031,17.0017326 162.3625,17.6545992 C162.924691,18.3074657 163.618362,18.8152508 164.443512,19.1779544 C165.268663,19.540658 166.243429,19.7220099 167.36781,19.7220099 C168.963706,19.7220099 170.287575,19.3230359 171.339415,18.5250879 C172.391256,17.7271399 173.071325,16.5392855 173.379623,14.9615247 Z" id="Shape"></path>
                        <path d="M177.065803,14.9887275 L174.753567,14.9887275 C174.789837,15.8592162 174.971189,16.5982248 175.297622,17.2057534 C175.624056,17.813282 176.0593,18.3029319 176.603356,18.6747031 C177.147411,19.0464743 177.773075,19.3139683 178.480347,19.4771849 C179.187619,19.6404015 179.931161,19.7220099 180.710974,19.7220099 C181.418246,19.7220099 182.130052,19.6540029 182.846392,19.5179891 C183.562731,19.3819752 184.20653,19.141684 184.777789,18.7971156 C185.349047,18.4525472 185.811494,17.9991676 186.16513,17.436977 C186.518766,16.8747864 186.695584,16.1675143 186.695584,15.3151608 C186.695584,14.644159 186.564104,14.0819684 186.301144,13.6285889 C186.038184,13.1752093 185.693615,12.7989043 185.267438,12.4996738 C184.841262,12.2004433 184.351612,11.9601522 183.798489,11.7788004 C183.245366,11.5974486 182.678641,11.4432995 182.098315,11.3163532 C181.55426,11.189407 181.010205,11.0669945 180.466149,10.9491158 C179.922094,10.8312371 179.432444,10.6861557 178.997199,10.5138715 C178.561955,10.3415872 178.203785,10.1239651 177.92269,9.86100493 C177.641595,9.5980448 177.501047,9.26707773 177.501047,8.86810374 C177.501047,8.50540011 177.591723,8.21070341 177.773075,7.98401364 C177.954427,7.75732388 178.190184,7.57597206 178.480347,7.4399582 C178.77051,7.30394434 179.092409,7.20873464 179.446045,7.15432909 C179.799681,7.09992355 180.148783,7.07272078 180.493352,7.07272078 C180.874191,7.07272078 181.250496,7.11352493 181.622267,7.19513325 C181.994038,7.27674157 182.334073,7.40822163 182.642371,7.58957345 C182.950669,7.77092526 183.204562,8.01121642 183.404049,8.31044691 C183.603536,8.60967741 183.721414,8.98598242 183.757685,9.43936196 L186.06992,9.43936196 C186.015515,8.58700843 185.834163,7.87520256 185.525865,7.30394434 C185.217567,6.73268612 184.804991,6.27930659 184.288139,5.94380573 C183.771286,5.60830487 183.177359,5.37254751 182.506357,5.23653365 C181.835355,5.10051979 181.100881,5.03251286 180.302933,5.03251286 C179.686336,5.03251286 179.065206,5.10958738 178.439543,5.26373642 C177.813879,5.41788547 177.251688,5.65364282 176.752971,5.9710085 C176.254253,6.28837418 175.846212,6.70094956 175.528846,7.20873464 C175.21148,7.71651972 175.052797,8.3240483 175.052797,9.03132037 C175.052797,9.93807945 175.279487,10.6453515 175.732867,11.1531366 C176.186246,11.6609217 176.752971,12.0553619 177.43304,12.3364572 C178.113109,12.6175525 178.852118,12.8351747 179.650066,12.9893237 C180.448014,13.1434728 181.187023,13.315757 181.867092,13.5061764 C182.547161,13.6965958 183.113886,13.9459546 183.567265,14.2542526 C184.020645,14.5625507 184.247335,15.0159303 184.247335,15.6143913 C184.247335,16.0496356 184.138523,16.4078054 183.920901,16.6889008 C183.703279,16.9699961 183.426718,17.1830844 183.091217,17.3281659 C182.755716,17.4732474 182.388478,17.5729908 181.989504,17.6273964 C181.59053,17.6818019 181.209692,17.7090047 180.846988,17.7090047 C180.375473,17.7090047 179.91756,17.6636668 179.473248,17.5729908 C179.028936,17.4823149 178.629962,17.3326997 178.276326,17.1241451 C177.92269,16.9155905 177.637061,16.6344952 177.419439,16.2808592 C177.201816,15.9272231 177.083938,15.4965126 177.065803,14.9887275 Z" id="Path"></path>
                    </g>
                </g>
            </g>
        </g>
    </g>
</svg>