<?xml version="1.0" encoding="UTF-8"?>
<svg xmlns="http://www.w3.org/2000/svg" xmlns:xlink="http://www.w3.org/1999/xlink" width="1205" height="317">
  <defs>
    <path id="a" d="M0 0h1204.96v316.96H0z"></path>
    <path id="c" d="M0 0h1204.957v316.96H0z"></path>
    <path id="e" d="M0 0h130.865v146.317H0z"></path>
    <path id="g" d="M0 0h90.013v110.095H0z"></path>
    <path id="i" d="M0 0h126.419v127.569H0z"></path>
    <path id="k" d="M0 0h220.124v136.332H0z"></path>
    <path id="m" d="M0 0h117.805v144.541H0z"></path>
  </defs>
  <g fill="none" fill-rule="evenodd" transform="translate(0 1)">
    <mask id="b" fill="#000000">
      <use xlink:href="#a"></use>
    </mask>
    <g mask="url(#b)">
      <mask id="d" fill="#000000">
        <use xlink:href="#c"></use>
      </mask>
      <g mask="url(#d)">
        <g opacity=".8">
          <mask id="f" fill="#000000">
            <use xlink:href="#e"></use>
          </mask>
          <g fill="#000000" fill-rule="nonzero" mask="url(#f)">
            <path d="M121.782 146.3a33.093 33.093 0 0 1 9.089-14.013L58 53.497a139.591 139.591 0 0 1 63.125-33.344L116.416 0C61.374 12.913 17.166 53.798 0 107.665l121.765 38.652v-.02"></path>
          </g>
        </g>
        <g opacity=".6" transform="translate(121.137 16.566)">
          <mask id="h" fill="#000000">
            <use xlink:href="#g"></use>
          </mask>
          <g fill="#000000" fill-rule="nonzero" mask="url(#h)">
            <path d="M31.566 0A140.24 140.24 0 0 0 .003 3.586l24.46 104.4a32.9 32.9 0 0 1 20.968 2.095l44.582-97.327A139.38 139.38 0 0 0 31.566-.011"></path>
          </g>
        </g>
        <g opacity=".6" transform="translate(12.807 156.27)">
          <mask id="j" fill="#000000">
            <use xlink:href="#i"></use>
          </mask>
          <g fill="#000000" fill-rule="nonzero" mask="url(#j)">
            <path d="M107.308.33V0L-.008.098V.26c.002 54.831 32.042 104.604 81.951 127.31l44.473-97.387A32.873 32.873 0 0 1 107.308.33"></path>
          </g>
        </g>
        <g opacity=".65" transform="translate(86.222 180.628)">
          <mask id="l" fill="#000000">
            <use xlink:href="#k"></use>
          </mask>
          <g fill="#000000" fill-rule="nonzero" mask="url(#l)">
            <path d="M200.323 16.455a139.974 139.974 0 0 1-39.104 62.212L89.209.014a32.772 32.772 0 0 1-15.23 8.047l24.399 104.02a136.494 136.494 0 0 1-86.775-7.463c-1.034-.447-2.042-.922-3.056-1.397L.011 121.896a160.537 160.537 0 0 0 220.102-99.389l-19.79-6.052Z"></path>
          </g>
        </g>
        <path fill="#000000" fill-rule="nonzero" d="M184.542 165.833a32.68 32.68 0 0 1-9.126 14.804l72.01 78.652a139.756 139.756 0 0 0 39.12-62.212l-102.004-31.244Z"></path>
        <g opacity=".8" transform="translate(174.746 52.531)">
          <mask id="n" fill="#000000">
            <use xlink:href="#m"></use>
          </mask>
          <g fill="#000000" fill-rule="nonzero" mask="url(#n)">
            <path d="M71.6 0-.003 79.443a32.853 32.853 0 0 1 9.796 33.867l102.003 31.24c15.705-51.9.047-108.203-40.199-144.542"></path>
          </g>
        </g>
        <path fill="#000000" fill-rule="nonzero" d="M145.6 124.57 121.136 20.155A139.563 139.563 0 0 0 58.01 53.5l72.854 78.787a32.8 32.8 0 0 1 14.734-7.717M160.19 188.675a33.186 33.186 0 0 1-20.962-2.234l-44.473 97.398c1.017.472 2.025.946 3.059 1.396a136.494 136.494 0 0 0 86.775 7.464l-24.398-104.024ZM627.328 69.125V52.531h-58.327c-5.49 0-9.94 4.45-9.94 9.94v83.832h9.725c5.49 0 9.94-4.45 9.94-9.94V107.21h38.49V90.912h-38.49V69.125h48.602ZM547.971 52.531h-24.873l-37.917 42.33v-42.33h-9.743c-5.49 0-9.94 4.45-9.94 9.94v83.832h9.753c5.49 0 9.941-4.45 9.941-9.94V104.24l39.194 42.062h25.803l-44.392-46.886 42.174-46.886ZM444.965 60.587c-6.486-5.282-15.935-8.056-27.84-8.056h-27.554c-5.49 0-9.94 4.45-9.94 9.94v83.832h9.577c5.49-.001 9.94-4.451 9.94-9.94v-21.905h17.975c11.907 0 21.356-2.81 27.842-8.128a28.28 28.28 0 0 0 9.947-22.904 28.08 28.08 0 0 0-9.95-22.837M431.2 94.426c-3.072 2.433-7.82 3.745-14.664 3.745h-17.384V68.676h17.387c6.827 0 11.6 1.382 14.659 3.885a13.362 13.362 0 0 1 4.488 11.008 12.971 12.971 0 0 1-4.469 10.854M374.021 176.844a6.106 6.106 0 0 1 6.338-6.067h5.933l49.347 74.558v-68.491a6.106 6.106 0 0 1 6.337-6.067h5.933v87.904a6.106 6.106 0 0 1-6.338 6.066h-5.932l-49.347-74.826v68.76a6.106 6.106 0 0 1-6.338 6.066h-5.933v-87.903ZM481.885 261.234c-11.055-6.338-17.798-18.335-17.798-33.572a41.674 41.674 0 0 1 4.584-20.088c6.066-11.452 17.527-17.932 31.953-17.932a36.624 36.624 0 0 1 18.606 4.583c10.784 6.067 16.854 17.257 16.854 30.74a72.376 72.376 0 0 1-.405 7.412h-59.053c.944 14.561 11.055 23.184 23.998 23.184 10.65 0 17.933-5.394 20.762-13.617h13.212c-3.91 14.156-16.312 23.996-33.976 23.996a37.557 37.557 0 0 1-18.74-4.718m41.524-38.825c.099-4.252-.974-8.45-3.1-12.133a22.837 22.837 0 0 0-20.223-10.245c-12.405 0-22.111 8.36-23.323 22.378h46.646ZM543.502 190.865h12.539l16.988 62.009 18.337-62.009h12.539l17.932 62.154 16.717-62.154h12.133l-23.055 73.882H614.96l-17.798-58.656-17.798 58.656H566.69zM694.64 255.041l45.568-73.614H695.18v-4.583a6.106 6.106 0 0 1 6.334-6.067h53.255v9.706l-45.57 73.614h45.838v4.584a6.106 6.106 0 0 1-6.332 6.066H694.64v-9.706ZM778.097 261.234c-11.055-6.338-17.795-18.335-17.795-33.572a41.663 41.663 0 0 1 4.584-20.088c6.067-11.452 17.527-17.932 31.954-17.932a36.632 36.632 0 0 1 18.605 4.583c10.784 6.067 16.851 17.257 16.851 30.74a72.424 72.424 0 0 1-.405 7.412h-59.05c.944 14.561 11.055 23.184 23.999 23.184 10.65 0 17.932-5.394 20.761-13.617h13.212c-3.91 14.156-16.312 23.996-33.976 23.996a37.557 37.557 0 0 1-18.74-4.718m41.526-38.825c.1-4.252-.973-8.45-3.1-12.133a22.84 22.84 0 0 0-20.225-10.245c-12.405 0-22.111 8.36-23.323 22.378h46.648ZM844.161 242.1c-.134-14.021 11.327-25.616 33.705-26.426 10.112-.28 19.273-.134 19.273-7.01 0-6.743-8.628-8.897-16.178-8.897-7.416 0-17.527 2.966-20.898 12.134h-12.27c3.776-16.72 20.225-22.38 32.76-22.38 14.159 0 31.144 6.336 31.144 25.617v43.545a6.106 6.106 0 0 1-6.337 6.067h-5.928v-9.977a32.96 32.96 0 0 1-26.02 11.326c-14.964-.134-29.122-9.706-29.256-23.996m55.276-9.977v-9.307c-4.854 3.776-9.843 3.506-19.683 3.631-12.94.134-23.183 5.394-23.183 14.022 0 7.279 7.416 15.1 20.36 14.829 11.594-.28 22.515-6.338 22.515-23.183M931.8 171.045a6.106 6.106 0 0 1 6.335-6.067h5.932v93.703a6.106 6.106 0 0 1-6.335 6.066H931.8v-93.702ZM960.65 242.1c-.134-14.021 11.327-25.616 33.705-26.426 10.112-.28 19.273-.134 19.273-7.01 0-6.743-8.628-8.897-16.178-8.897-7.416 0-17.527 2.966-20.898 12.134h-12.268c3.777-16.72 20.223-22.38 32.761-22.38 14.159 0 31.144 6.336 31.144 25.617v43.545a6.106 6.106 0 0 1-6.335 6.067h-5.913v-9.977a32.96 32.96 0 0 1-26.021 11.326c-14.963-.134-29.122-9.706-29.256-23.996m55.277-9.977v-9.307c-4.855 3.776-9.84 3.506-19.683 3.631-12.944.134-23.184 5.394-23.184 14.022 0 7.279 7.416 15.1 20.36 14.829 11.594-.28 22.515-6.338 22.515-23.183M1048.289 196.932a6.106 6.106 0 0 1 6.337-6.067h5.933v10.517c4.855-7.542 13.75-11.866 24.404-11.866a32.78 32.78 0 0 1 15.1 3.506c9.033 4.851 14.426 14.56 14.426 28.177v37.484a6.106 6.106 0 0 1-6.337 6.067h-5.93v-41.797c0-14.695-7.687-22.786-20.494-22.786-12.943 0-21.166 8.223-21.166 23.741v34.775a6.106 6.106 0 0 1-6.338 6.067h-5.933l-.002-67.818ZM1147.25 261.108c-10.787-6.472-17.256-18.605-17.256-33.571a41.487 41.487 0 0 1 4.584-19.952 33.697 33.697 0 0 1 30.605-17.932 32.493 32.493 0 0 1 27.501 14.427v-33.035a6.109 6.109 0 0 1 6.338-6.067h5.932v93.703a6.106 6.106 0 0 1-6.337 6.066h-5.933V250.86a30.786 30.786 0 0 1-27.652 15.1 33.261 33.261 0 0 1-17.796-4.852m32.896-9.304c7.541-4.316 12.404-12.944 12.404-24.133a29.77 29.77 0 0 0-3.371-14.56 24.108 24.108 0 0 0-21.706-12.81 24.823 24.823 0 0 0-12.539 3.237c-7.541 4.315-12.404 12.81-12.404 23.999a29.937 29.937 0 0 0 3.371 14.695 23.781 23.781 0 0 0 21.572 12.943 24.451 24.451 0 0 0 12.673-3.371"></path>
      </g>
    </g>
  </g>
</svg>
