<?xml version="1.0" standalone="no"?>
<!DOCTYPE svg PUBLIC "-//W3C//DTD SVG 20010904//EN"
 "http://www.w3.org/TR/2001/REC-SVG-20010904/DTD/svg10.dtd">
<svg version="1.0" xmlns="http://www.w3.org/2000/svg"
 width="260.000000pt" height="260.000000pt" viewBox="0 0 260.000000 260.000000"
 preserveAspectRatio="xMidYMid meet">
<metadata>
Created by potrace 1.11, written by Peter Selinger 2001-2013
</metadata>
<g transform="translate(0.000000,260.000000) scale(0.100000,-0.100000)"
fill="#000000" stroke="none">
<path d="M1022 2436 c-28 -15 -50 -47 -182 -271 -99 -168 -147 -250 -225 -390
-73 -131 -224 -433 -229 -460 -4 -19 -1 -46 9 -70 21 -50 132 -269 179 -353
20 -35 36 -66 36 -68 0 -4 55 -100 155 -274 17 -30 43 -73 56 -95 14 -22 28
-47 32 -55 25 -56 147 -237 166 -247 17 -8 104 -11 290 -11 217 0 269 3 288
15 18 12 193 282 193 297 0 4 52 92 110 186 18 29 103 186 128 235 14 28 28
52 31 55 19 17 171 340 171 363 0 28 -127 291 -214 446 -25 44 -46 82 -46 85
0 2 -49 88 -110 191 -60 103 -110 192 -110 196 0 5 -4 9 -10 9 -5 0 -10 5 -10
11 0 6 -13 31 -30 56 -16 24 -30 46 -30 49 0 16 -58 88 -80 99 -34 18 -535 19
-568 1z m367 -756 c85 -167 172 -355 175 -378 4 -23 -9 -53 -140 -321 l-115
-234 -18 29 c-27 46 -208 417 -230 471 l-19 49 39 90 c81 183 223 454 231 441
5 -6 39 -73 77 -147z"/>
</g>
</svg>
