<svg aria-labelledby="title-2136456472" class="web" id="Capa_1" version="1.1" viewBox="0 0 300 115" width="120" xmlns="http://www.w3.org/2000/svg"> <!-- Generator: Adobe Illustrator 29.2.1, SVG Export Plug-In . SVG Version: 2.1.0 Build 116)  --> <defs> <style>      .st3 {        fill: #fff;      }    </style> </defs> <path class="st3" d="M48.02,6.5l15.68,15.68-31.32,31.32c-2.45,2.45-3.68,4.47-3.71,6.06-.03,1.6,3.45,5.88,5.76,8.19l.81.81-15.29,15.29-6.5-6.5c-5.71-5.71-8.5-11.83-8.36-18.36.14-6.53,3.17-12.75,9.09-18.67L48.02,6.5Z"></path> <path class="st3" d="M69.14,83.96c5.92-5.92,8.95-12.14,9.09-18.67.14-6.53-2.65-12.65-8.36-18.36l-6.5-6.5-15.29,15.29.81.81c2.32,2.32,5.79,6.6,5.76,8.19-.03,1.6-1.26,3.62-3.71,6.06l-22.03,22.03,15.68,15.68,24.54-24.54Z"></path> <path class="st3" d="M122.76,44.38h-5.33v-2.57h8.17v11.3c-.24.13-.6.26-1.07.39-.47.13-1.01.26-1.62.38-.61.12-1.25.21-1.95.28-.69.07-1.38.11-2.05.11-2,0-3.77-.27-5.3-.82-1.53-.55-2.82-1.32-3.85-2.32-1.04-1-1.82-2.22-2.36-3.65-.54-1.43-.8-3.03-.8-4.79,0-1.91.29-3.64.88-5.21.59-1.56,1.44-2.89,2.55-4,1.11-1.11,2.46-1.96,4.04-2.56,1.58-.6,3.32-.9,5.21-.9.51,0,1.02.02,1.54.06.51.04,1,.1,1.47.17.47.08.9.17,1.29.27.4.1.73.22,1,.33v2.52c-.7-.23-1.5-.43-2.41-.58-.91-.16-1.82-.24-2.72-.24-1.33,0-2.59.2-3.8.6-1.21.4-2.27,1.01-3.19,1.83-.92.82-1.65,1.84-2.2,3.07-.55,1.23-.82,2.67-.82,4.32s.23,3.02.68,4.19c.45,1.18,1.1,2.15,1.93,2.92.83.77,1.84,1.34,3.03,1.7,1.19.37,2.5.55,3.96.55.67,0,1.34-.04,1.99-.11.65-.07,1.24-.17,1.74-.3v-6.95Z"></path> <path class="st3" d="M140.12,39.44h-.21c-.64,0-1.27.06-1.89.17-.62.12-1.2.29-1.74.53-.54.24-1.03.53-1.47.88-.44.35-.8.76-1.09,1.24v11.56h-2.71v-16.59h2.1l.52,2.64h.05c.27-.43.6-.83.99-1.21.39-.37.83-.7,1.32-.98.49-.28,1.02-.5,1.61-.66.58-.16,1.19-.24,1.83-.24.12,0,.24,0,.36,0,.12,0,.23.01.32.03v2.6Z"></path> <path class="st3" d="M149.59,54.27c-.86,0-1.64-.09-2.32-.28-.69-.19-1.29-.45-1.81-.79-.52-.34-.96-.74-1.32-1.21-.36-.47-.65-.99-.86-1.55-.16-.42-.28-.88-.35-1.38-.07-.5-.11-1.05-.11-1.64v-10.18h2.71v10.17c0,.92.12,1.69.37,2.31.28.7.73,1.25,1.35,1.65.62.4,1.42.6,2.38.6,1.02,0,1.85-.22,2.47-.66.62-.44,1.07-1.04,1.34-1.78.2-.57.3-1.28.3-2.11v-10.17h2.71v10.2c0,.56-.03,1.08-.1,1.56-.06.48-.17.93-.31,1.34-.21.57-.5,1.1-.86,1.58-.37.48-.82.9-1.35,1.25-.54.35-1.16.62-1.86.81-.7.19-1.5.29-2.38.29"></path> <path class="st3" d="M176.23,45.34c0,1.15-.11,2.17-.34,3.07-.23.89-.53,1.67-.9,2.33-.37.66-.81,1.22-1.32,1.67-.5.45-1.02.81-1.56,1.08-.54.27-1.08.47-1.64.59-.56.12-1.08.18-1.57.18-1.02,0-1.9-.17-2.65-.5-.75-.33-1.42-.82-2.02-1.48h-.05v9.66h-2.66v-24.72h2.04l.58,1.89h.05c.15-.23.35-.46.58-.68.24-.22.56-.46.96-.71.4-.25.89-.47,1.45-.66.56-.19,1.18-.28,1.84-.28.93,0,1.83.16,2.7.47.87.31,1.63.82,2.3,1.5s1.2,1.57,1.6,2.65c.4,1.08.6,2.38.6,3.92M173.4,45.38c0-.97-.1-1.83-.31-2.6-.2-.77-.51-1.42-.92-1.97-.41-.54-.91-.96-1.51-1.25s-1.29-.44-2.07-.44c-.56,0-1.07.08-1.54.23-.46.15-.88.34-1.26.58-.37.23-.7.48-.97.75-.27.27-.49.51-.65.72v8.68c.57.58,1.23,1.04,1.96,1.38.73.34,1.52.51,2.36.51.52,0,1.06-.1,1.63-.29.57-.19,1.1-.54,1.59-1.03.49-.49.89-1.17,1.2-2.02.32-.85.47-1.93.47-3.25"></path> <path class="st3" d="M195.3,45.55c0,1.3-.19,2.49-.56,3.56-.37,1.07-.9,1.99-1.58,2.75-.68.76-1.51,1.35-2.47,1.77-.97.42-2.05.63-3.25.63s-2.34-.21-3.31-.63c-.97-.42-1.8-1.01-2.48-1.77-.68-.76-1.2-1.68-1.56-2.75-.36-1.07-.54-2.26-.54-3.56s.19-2.51.56-3.58c.37-1.07.9-1.99,1.58-2.76.68-.77,1.51-1.36,2.48-1.78.97-.42,2.06-.63,3.26-.63s2.32.21,3.3.63c.98.42,1.8,1.01,2.48,1.78.68.77,1.19,1.69,1.55,2.76.36,1.07.54,2.27.54,3.58M192.47,45.55c0-1.02-.13-1.94-.38-2.73-.25-.8-.6-1.47-1.05-2.03-.45-.55-.98-.97-1.6-1.26-.62-.29-1.29-.43-2.03-.43s-1.41.14-2.03.43c-.62.29-1.15.7-1.6,1.26-.45.55-.8,1.23-1.05,2.03-.25.8-.38,1.71-.38,2.73s.13,1.92.38,2.72.6,1.47,1.06,2.02c.45.55.99.96,1.61,1.25s1.29.43,2.03.43,1.41-.14,2.02-.43c.61-.29,1.14-.7,1.59-1.25.45-.55.8-1.22,1.05-2.02.25-.8.38-1.7.38-2.72"></path> <polygon class="st3" points="114.46 63.78 114.46 88.19 127.95 88.19 127.95 92.61 109.18 92.61 109.18 63.78 114.46 63.78"></polygon> <path class="st3" d="M143.01,89.03c.99,0,2.03-.1,3.1-.3,1.08-.2,2.17-.49,3.27-.86v4.07c-.66.29-1.67.56-3.04.82-1.36.26-2.78.39-4.24.39s-2.88-.19-4.21-.57c-1.33-.38-2.49-.99-3.48-1.84-.99-.85-1.78-1.95-2.36-3.3-.58-1.35-.87-2.99-.87-4.91s.27-3.55.82-4.98c.55-1.42,1.28-2.6,2.2-3.53.92-.93,1.97-1.63,3.16-2.1,1.18-.47,2.41-.7,3.67-.7s2.54.2,3.65.6c1.11.4,2.08,1.03,2.89,1.9.81.86,1.44,1.97,1.9,3.33.45,1.36.68,2.96.68,4.81-.01.72-.04,1.33-.06,1.83h-13.68c.07.96.29,1.78.65,2.47.36.68.83,1.23,1.41,1.66.58.42,1.26.73,2.04.93.78.19,1.62.29,2.52.29M140.96,75.2c-.65,0-1.22.12-1.72.36s-.94.56-1.3.97c-.37.41-.66.89-.87,1.43-.22.55-.36,1.13-.43,1.75h8.21c0-.62-.08-1.2-.25-1.75-.17-.55-.41-1.02-.73-1.43-.32-.41-.73-.73-1.21-.97-.48-.24-1.04-.36-1.69-.36"></path> <path class="st3" d="M174.78,82.18c0,1.64-.24,3.13-.73,4.48-.49,1.35-1.19,2.51-2.1,3.47-.91.96-2.01,1.71-3.31,2.23-1.29.52-2.74.79-4.33.79s-3.11-.26-4.41-.79c-1.3-.52-2.4-1.27-3.31-2.23-.9-.96-1.6-2.12-2.08-3.47-.48-1.35-.72-2.84-.72-4.48s.24-3.13.73-4.48c.49-1.35,1.19-2.51,2.1-3.47.91-.96,2.01-1.71,3.31-2.23,1.29-.52,2.74-.79,4.33-.79s3.11.26,4.41.79c1.3.52,2.4,1.27,3.31,2.23.9.96,1.6,2.12,2.08,3.47.48,1.35.72,2.84.72,4.48M169.5,82.18c0-1.11-.13-2.08-.39-2.93-.26-.85-.62-1.56-1.08-2.13-.46-.57-1.01-1.01-1.66-1.29-.65-.29-1.35-.43-2.11-.43s-1.44.14-2.08.43c-.64.29-1.19.72-1.65,1.29-.46.57-.82,1.29-1.08,2.13-.26.85-.39,1.82-.39,2.93s.13,2.08.39,2.93c.26.85.62,1.55,1.09,2.12.47.57,1.02,1,1.66,1.29.64.29,1.34.44,2.1.44s1.46-.15,2.09-.44c.63-.29,1.18-.73,1.64-1.29.46-.57.82-1.27,1.08-2.12.26-.85.39-1.82.39-2.93"></path> <path class="st3" d="M206.19,79.89c0-.45-.01-.86-.04-1.25-.03-.39-.08-.73-.15-1.01-.16-.63-.47-1.14-.93-1.53-.46-.39-1.11-.59-1.94-.6-.45,0-.9.06-1.38.19-.47.13-.94.31-1.41.55-.47.24-.91.52-1.34.86-.42.34-.81.71-1.15,1.13v14.37h-5.11v-12.71c0-.45-.01-.86-.04-1.25-.03-.39-.08-.73-.15-1.01-.16-.63-.46-1.14-.92-1.53-.45-.39-1.1-.59-1.95-.6-.45,0-.9.06-1.38.19-.47.13-.94.31-1.41.55-.47.24-.91.52-1.34.86-.42.34-.81.71-1.15,1.13v14.37h-5.11v-20.87h4.22l.47,2.91h.09c.3-.43.68-.85,1.14-1.27.46-.42.98-.78,1.56-1.1.58-.32,1.22-.57,1.92-.77.7-.19,1.43-.29,2.21-.29,1.38,0,2.62.31,3.72.92,1.1.61,1.94,1.56,2.51,2.85h.09c.4-.56.85-1.07,1.35-1.53.5-.46,1.05-.85,1.65-1.18.6-.33,1.25-.59,1.95-.78.7-.19,1.44-.28,2.23-.28,1.49.01,2.75.33,3.76.94,1.01.61,1.79,1.45,2.34,2.51.14.27.27.57.37.89.1.32.18.69.25,1.09.06.4.11.85.14,1.34.03.49.04,1.05.04,1.68v12.95h-5.11v-12.71Z"></path> <path class="st3" d="M236.8,82.18c0,1.64-.24,3.13-.73,4.48-.49,1.35-1.19,2.51-2.1,3.47-.91.96-2.01,1.71-3.31,2.23-1.29.52-2.74.79-4.33.79s-3.11-.26-4.41-.79c-1.3-.52-2.4-1.27-3.31-2.23-.9-.96-1.6-2.12-2.08-3.47-.48-1.35-.72-2.84-.72-4.48s.24-3.13.73-4.48c.49-1.35,1.19-2.51,2.1-3.47.91-.96,2.01-1.71,3.31-2.23,1.29-.52,2.74-.79,4.33-.79s3.11.26,4.41.79c1.3.52,2.4,1.27,3.31,2.23.9.96,1.6,2.12,2.08,3.47.48,1.35.72,2.84.72,4.48M231.52,82.18c0-1.11-.13-2.08-.39-2.93-.26-.85-.62-1.56-1.08-2.13-.46-.57-1.01-1.01-1.66-1.29-.65-.29-1.35-.43-2.11-.43s-1.44.14-2.08.43c-.64.29-1.19.72-1.65,1.29-.46.57-.82,1.29-1.08,2.13-.26.85-.39,1.82-.39,2.93s.13,2.08.39,2.93c.26.85.62,1.55,1.09,2.12.47.57,1.02,1,1.66,1.29.64.29,1.34.44,2.1.44s1.46-.15,2.09-.44c.63-.29,1.18-.73,1.64-1.29.46-.57.82-1.27,1.08-2.12.26-.85.39-1.82.39-2.93"></path> <path class="st3" d="M254.08,92.58c-.57.17-1.26.31-2.06.41-.8.1-1.54.15-2.23.15-1.75,0-3.18-.28-4.3-.85-1.11-.57-1.9-1.38-2.36-2.45-.33-.76-.5-1.8-.5-3.1v-10.81h-3.9v-4.2h3.9v-5.84h5.11v5.84h6.03v4.2h-6.03v10.15c0,.8.12,1.4.37,1.79.43.66,1.29.99,2.56.99.59,0,1.17-.05,1.76-.14.58-.09,1.13-.21,1.65-.36v4.22Z"></path> <path class="st3" d="M277.97,82.18c0,1.64-.24,3.13-.73,4.48-.49,1.35-1.19,2.51-2.1,3.47-.91.96-2.01,1.71-3.31,2.23-1.29.52-2.74.79-4.33.79s-3.11-.26-4.41-.79c-1.3-.52-2.4-1.27-3.31-2.23-.9-.96-1.6-2.12-2.08-3.47-.48-1.35-.72-2.84-.72-4.48s.24-3.13.73-4.48c.49-1.35,1.19-2.51,2.1-3.47.91-.96,2.01-1.71,3.31-2.23,1.29-.52,2.74-.79,4.33-.79s3.11.26,4.41.79c1.3.52,2.4,1.27,3.31,2.23.9.96,1.6,2.12,2.08,3.47.48,1.35.72,2.84.72,4.48M272.69,82.18c0-1.11-.13-2.08-.39-2.93-.26-.85-.62-1.56-1.08-2.13-.46-.57-1.01-1.01-1.66-1.29-.65-.29-1.35-.43-2.11-.43s-1.44.14-2.08.43c-.64.29-1.19.72-1.65,1.29-.46.57-.82,1.29-1.08,2.13-.26.85-.39,1.82-.39,2.93s.13,2.08.39,2.93c.26.85.62,1.55,1.09,2.12.47.57,1.02,1,1.66,1.29.64.29,1.34.44,2.1.44s1.46-.15,2.09-.44c.63-.29,1.18-.73,1.64-1.29.46-.57.82-1.27,1.08-2.12.26-.85.39-1.82.39-2.93"></path> <path class="st3" d="M294.9,75.78h-.43c-1.57,0-2.94.23-4.13.7-1.18.47-2.1,1.18-2.75,2.14v13.98h-5.11v-20.87h4.22l.47,2.91h.09c.6-1.06,1.43-1.9,2.49-2.51,1.06-.61,2.32-.92,3.8-.92.52,0,.96.03,1.34.09v4.48Z"></path><title id="title-2136456472">Leomotor</title></svg>