<?xml version="1.0" encoding="utf-8"?>
<!-- Generator: Adobe Illustrator 27.7.0, SVG Export Plug-In . SVG Version: 6.00 Build 0)  -->
<svg version="1.1" id="Capa_1" xmlns="http://www.w3.org/2000/svg" xmlns:xlink="http://www.w3.org/1999/xlink" x="0px" y="0px"
	 viewBox="0 0 680 157.9" style="enable-background:new 0 0 680 157.9;" xml:space="preserve">
<style type="text/css">
	.st0{fill:#E62D31;}
</style>
<g>
	<g>
		<g>
			<g>
				<g>
					<path id="SVGID_1_" class="st0" d="M50.3,104.8c-4.9,0-10.6-1.1-12.5-6.2c-0.6-1.5-1-3.5-1-5.6H16.1L3.3,80.3l11.4-11.4
						c3.3,12,16.4,15.2,28,18.5C57.3,91.6,61,92.8,61,97.2C61.1,103.4,54.6,104.8,50.3,104.8z M63.4,69.8c6.6,1.8,13.2,4.3,17.7,8.8
						V62.3H59c0.5-3.2-1-5.4-3.1-6.8c-2.1-1.6-5.1-2.1-7.7-2.1c-3.6,0-9.4,1-9.4,5.7C39.2,65.2,51.4,66.5,63.4,69.8z M80.7,2.9
						L49,34.6c14.1,0.1,26.8,4.5,32.1,15.9V36.6h26.2v63.2H135l21.3-21.3L80.7,2.9z M81.2,112c-7.5,8.5-20.6,11.6-33.1,11.6
						c-0.4,0-0.9,0-1.4,0L79,155.9l34.3-34.3H81.2V112z"/>
				</g>
			</g>
		</g>
		<g>
			<g>
				<g>
					<path id="SVGID_00000105387140458238774030000004873098312919742904_" class="st0" d="M248.6,60.3h-12.9l-17.6,38.2h11.1
						l2.9-6.7h20.2l3.1,6.7h11.1L248.6,60.3z M235.8,83.5l6.3-14.3l6.5,14.3H235.8z M662.3,59.9h-15.9c-9,0-14.3,2.6-14.3,13.8v11.4
						c0,11.2,5.3,13.8,14.3,13.8h15.9c9,0,14.3-2.6,14.3-13.8V73.7C676.6,62.5,671.3,59.9,662.3,59.9z M664.1,89.1h-19.4V69.7h19.4
						V89.1z M360.3,60.3h-9.9v38.2h32.3v-9.8h-22.4V60.3z M402.9,59.9h16c9,0,14.3,2.6,14.3,13.8v11.4c0,11.2-5.3,13.8-14.3,13.8
						h-16c-9,0-14.3-2.6-14.3-13.8V73.7C388.6,62.5,393.9,59.9,402.9,59.9z M401.1,89.1h19.4V69.7h-19.4V89.1z M306.6,88L306.6,88
						l-18.8-27.7h-15.4v38.2h9.9V70.8h0.1l18.7,27.7h15.4V60.3h-9.9L306.6,88L306.6,88z M193.6,74.8c-10.7,0.1-11.9-0.1-11.9-3.4
						c0-2.1,1.5-3,3.8-3h11c4.6,0,4.8,1.2,4.8,4h9.9v-1.2c0-6.7-1.1-11.3-12.5-11.3h-13.9c-12.5,0-13.1,5.3-13.1,12.2
						c0,9.4,1.7,11.5,16.7,11.5c12.8,0,14,0.2,14,3.5c0,3-2.1,3.2-4.3,3.2H186c-2.9,0-4.3-0.3-4.3-4.4h-9.9v2.6
						c0,8.3,3.6,10.3,12.7,10.3h12.1c13.2,0,16.2-1.7,16.2-12C212.7,75.8,209.1,74.7,193.6,74.8z M601.5,89.2l23.2-19.7v-9.2h-37.3
						v9.2H610v0.1l-23.2,19.7v9.2h38.5v-9.2h-23.7L601.5,89.2L601.5,89.2z M569.2,88L569.2,88l-18.8-27.7H535v38.2h9.9V70.8h0.1
						l18.7,27.7h15.4V60.3h-9.9V88z M471.6,60.3c7.7,0,9.7,4.5,9.7,11.3V74c0,5.1-1,8.1-5.6,9.4v0.1c3,0.6,5.4,2.2,5.4,8.4v6.5h-9.9
						v-4.6c0-4-1-5.3-4.1-5.3h-15.6v9.9h-9.9V60.3H471.6z M471.6,73.8c0-3.4-1.4-4-4.6-4h-15.5v9.3h16.4c2.7,0,3.7-1.3,3.7-4V73.8z
						 M500.4,83.2h24.2v-7.9h-24.2v-6.1h25.5v-8.9h-35.5v38.2h36.1v-9.2h-26.1L500.4,83.2L500.4,83.2z"/>
				</g>
			</g>
		</g>
	</g>
	<g>
		<g>
			<path class="st0" d="M184.3,47.8c0,4.3-1.4,5.2-5.4,5.2c-4.4,0-5.3-1.4-5.3-6.7c0-4.6,0.7-6.8,5.3-6.8c3.5,0,5.4,0.6,5.4,4.8
				h-2.8c0-2-0.6-2.4-2.6-2.4c-2.4,0-2.5,1-2.5,4.3s0,4.3,2.5,4.3c2.3,0,2.6-0.5,2.6-2.8h2.8V47.8z"/>
			<path class="st0" d="M254.4,48.6c0,4.1-2.1,4.3-5.5,4.3c-4.5,0-5.5-1.6-5.5-6.7c0-4.7,0.7-6.8,5.5-6.8c4.9,0,5.5,1.6,5.5,7.3
				h-8.2c0,2.8,0.1,3.7,2.6,3.7c1.6,0,2.7,0,2.7-1.9h2.9V48.6z M251.5,44.8c0-2.7-0.4-2.9-2.7-2.9c-2.5,0-2.6,0.6-2.6,2.9H251.5z"/>
			<path class="st0" d="M316.8,39.7l-0.1,1.7h0.1c0.6-1.5,1.8-1.9,3.2-1.9c2.5,0,3.1,1.7,3.1,4.1v1.1h-2.7V44c0-1.3-0.1-2.1-1.4-2.1
				c-1.7,0-2.2,1.1-2.1,2.8v8.1H314V39.7H316.8z"/>
			<path class="st0" d="M390.5,36.2l-4.4,2.2l-0.6-1.3l4-2.9L390.5,36.2z M384.7,48.8c0,1.9,0.7,2,2.6,2c1.5,0,2.6-0.2,2.6-2
				s-1.2-1.9-2.6-1.9C385.8,46.9,384.7,46.9,384.7,48.8z M390,51.2L390,51.2c-0.6,1.8-2.4,1.8-3.8,1.8c-2.7,0-4.4-0.6-4.4-4.2
				c0-3.2,1.5-4,4.4-4c1.4,0,2.9,0,3.6,1.5h0.1v-1.7c0-2.1-0.2-2.9-2.5-2.9c-1.2,0-2.2,0.1-2.2,1.8h-2.9c0-3.8,2.4-4,5.1-4
				c3.8,0,5.4,0.7,5.4,5.1v8.3H390L390,51.2z"/>
			<path class="st0" d="M455.8,39.7v1.9h0.1c0.6-1.7,2.2-2.1,3.7-2.1s3.2,0.4,3.5,2.3h0.1c0.5-1.8,2.2-2.3,3.8-2.3
				c3.1,0,4.1,1.2,4.1,4.4v8.9h-2.8v-8.6c-0.1-1.7-0.4-2.3-2-2.3c-2.3,0-2.8,1.2-2.8,3.5v7.4h-2.9v-8.6c-0.1-1.7-0.4-2.3-2-2.3
				c-2.3,0-2.8,1.2-2.8,3.5v7.4H453V39.7H455.8z"/>
			<path class="st0" d="M534.1,52.8h-2.8V39.7h2.8V52.8z M534.1,36.7h-2.8V34h2.8V36.7z"/>
			<path class="st0" d="M604.5,47.8c0,4.3-1.4,5.2-5.4,5.2c-4.4,0-5.3-1.4-5.3-6.7c0-4.6,0.7-6.8,5.3-6.8c3.5,0,5.4,0.6,5.4,4.8
				h-2.8c0-2-0.6-2.4-2.6-2.4c-2.4,0-2.5,1-2.5,4.3s0,4.3,2.5,4.3c2.3,0,2.6-0.5,2.6-2.8h2.8V47.8z"/>
			<path class="st0" d="M671.8,51.2L671.8,51.2c-0.6,1.8-2.4,1.8-3.8,1.8c-2.7,0-4.4-0.6-4.4-4.2c0-3.2,1.5-4,4.4-4
				c1.4,0,2.9,0,3.5,1.5h0.1v-1.7c0-2.1-0.2-2.9-2.5-2.9c-1.2,0-2.2,0.1-2.2,1.8h-2.8c0-3.8,2.4-4,5.1-4c3.8,0,5.4,0.7,5.4,5.1v8.3
				h-2.8V51.2z M666.5,48.8c0,1.9,0.7,2,2.6,2c1.5,0,2.6-0.2,2.6-2s-1.2-1.9-2.6-1.9C667.6,46.9,666.5,46.9,666.5,48.8z"/>
		</g>
	</g>
</g>
</svg>
