<?xml version="1.0" encoding="utf-8"?>
<!-- Generator: Adobe Illustrator 23.0.4, SVG Export Plug-In . SVG Version: 6.00 Build 0)  -->
<svg version="1.1" id="Layer_2" xmlns="http://www.w3.org/2000/svg" xmlns:xlink="http://www.w3.org/1999/xlink" x="0px" y="0px"
	 viewBox="0 0 200 117.8" style="enable-background:new 0 0 200 117.8;" xml:space="preserve">
<style type="text/css">
	.st0{fill:#00013A;}
</style>
<g>
	<path class="st0" d="M61.3,78.3c-2,9.2-7.7,17.6-24,17.8v0H1.7c-1.1,0-1.9-1-1.7-2.1l2.6-11.8c0.2-0.8,0.9-1.4,1.7-1.4h33
		c5.3,0,6.8-1.2,7.3-3.1c0.4-1.7-0.2-3.3-4.4-5l-17.1-7C16.6,63.2,7.7,58,10.2,46.7c2-8.9,8.3-17.3,24.1-17.4l33.2,0
		c1.1,0,1.9,1,1.7,2.1l-2.6,11.8c-0.2,0.8-0.9,1.4-1.7,1.4l-32.1,0c-4.3,0-5.5,1.4-5.7,2.9c-0.3,1.6,1.5,2.9,6,4.9l15.6,6.5
		C56.6,62.2,63.8,66.7,61.3,78.3z M99.9,0H86.5c-0.8,0-1.5,0.6-1.7,1.4L64.6,94c-0.2,1.1,0.6,2.1,1.7,2.1h13.4
		c0.8,0,1.5-0.6,1.7-1.4l20.2-92.7C101.8,1,101,0,99.9,0z M198.3,29.4h-15.2c-0.5,0-1,0.2-1.3,0.6l-24.5,27.7l-16.4-27.4
		c-0.3-0.5-0.9-0.8-1.5-0.8h-5.9h-8.9h-6.3c-0.5,0-1,0.2-1.3,0.6L88.5,62.2l19.8,33.1c0.3,0.5,0.9,0.8,1.5,0.8h15.8
		c1.3,0,2.2-1.5,1.5-2.6l-18.7-31.3L127.9,40l19.5,32.7l-9.4,43.1c-0.2,1.1,0.6,2.1,1.7,2.1h12.9c0.8,0,1.5-0.6,1.7-1.4l9.6-43.9
		l35.7-40.4C200.5,31.1,199.8,29.4,198.3,29.4z"/>
</g>
</svg>