<svg viewBox="0 0 157 70" xmlns="http://www.w3.org/2000/svg"><path d="M138.31 61.674a19.541 19.541 0 00-2 2.213c-.233.479.484.918.484.918l.723.268s-3.945.592-4.445.522c0 0-2.376-.045-2.063 3.412-.66-1.642-3.628-3.223-3.628-3.223a6.5 6.5 0 01-3.846 4.195c-.434.165-.766-.673-.428-.936a4.925 4.925 0 003.341-3.753 6.029 6.029 0 00-5.034.058c2.633-2.653 1.326-3.649 1.326-3.649-.3-.4-3.359-3.558-3.359-3.558l.731.235s.834.1.947-.424a19.706 19.706 0 00-.217-2.979s1.151 1.218 1.8 1.32c.529.08.682-.5.967-.988.156 1.188 1.691 3.217 2.508 3.455.383.111.846.364.945-.162.2-1.072.641-3.876.626-4.383s.04-1.315.018-1.507c0 0 .873 1.517 1.406 1.545 1.138.063 2.713-2.767 2.713-2.767s-.5 3.2.438 3.861c.438.307 2.059-.347 2.059-.347-.132.14-.589.8-.913 1.2s-1.58 3.053-2.082 4.019c-.243.475.247.721.645.713 1.231-.025 3.095.126 3.946-.713-.072.561-.307 1.115.156 1.377a5.243 5.243 0 002.236.078zM31.107 42.92a6.915 6.915 0 00-2.524-4.055 11.452 11.452 0 00-5.13-1.608 43.688 43.688 0 00-5.777-.061c-2.822.167-6.024-1.168-5.726-4 .325-2.836 4.151-7.634 9.416-10.821 0 0 6-3.189 8-2.727 2.036.494-.924 4.772-.924 4.772s-2.438 3.275-1.3 5.343c1.166 2.046 2.5 1.825 2.5 1.825s.568.061 1.056-1.2l4.777-7.141s1.656-2.8-.352-4.658a6.472 6.472 0 00-3.774-1.389 14.374 14.374 0 00-3.389-.03 22.438 22.438 0 00-6.487 2.182 40.5 40.5 0 00-9.142 6.86 27.3 27.3 0 00-6.162 9 10.765 10.765 0 00-.516 3.863s.381 3.521 5.374 4.476a31.107 31.107 0 006.891.079c4.724-.271 5.861.243 7.163 1.419a3.636 3.636 0 011.2 2.747 17.953 17.953 0 01-3.5 8.781 30.962 30.962 0 01-6.513 6.538S7.879 69.06 3.375 65.978c0 0-1.9-.95.544-4.9s8-7.172 8-7.172 1.872-.976 2.658-1.306c.761-.3 2.334-.765 2.281-1.932S14.446 49.6 14.446 49.6a15.043 15.043 0 00-9.226 3.6C1.1 56.8.038 63.77.038 63.77a4.9 4.9 0 004.479 5.613c5.235.813 9.9-2.2 9.9-2.2A33.835 33.835 0 0026.6 56.468c5.484-7.684 4.507-13.548 4.507-13.548zm47.944-29.239s2.954 1.962 4.967-2.669C86 6.32 82.606 5.585 82.606 5.585 80.053 5.177 78.86 7.9 78.86 7.9c-1.928 4.333.191 5.781.191 5.781zM157 21.093v.3c-.161 1.306-2.519 1.629-2.519 1.629a57.013 57.013 0 00-6.815 1.689 15.237 15.237 0 01-7.7 11.7 12.159 12.159 0 01-1.633.461c-2.008.433-5.072.543-4.475-3.188.46-2.887 2.578-5.211 4.475-6.734a19.713 19.713 0 013.175-2.066l-.024-4.718-3.151 3.873-7 8.555s-1.461 2.669-2.523 1.521c-1.081-1.145.491-2.533.491-2.533l9.032-11.472 2.769-3.485c4.017-5.344 6.9-8.915 6.9-8.915.481-.71 1.698-.41 1.698-.41 1.113.655.217 2.238-.815 4.308a13.5 13.5 0 00-.841 5.369l-.08 4.719s8.411-2.727 8.982-.877a1.049 1.049 0 01.054.274zm-15.923 6.431a14.892 14.892 0 00-2.744 1.907 11.425 11.425 0 00-1.922 2.042c-2.2 3.6.7 3.52.7 3.52a3.34 3.34 0 001.221-.653c2.414-1.912 2.745-6.816 2.745-6.816zm-1.356-14.389c.757.245 1.381-.655 1.381-.655a20.726 20.726 0 004.845-11.273c0-.532-.774-1.461-2.756-1.074s-3.168 1.15-3.071 2.486c.107 1.469 1.333 2.786-.325 8.529-.075.259-.861 1.714-.074 1.987zm8.024 26.417h.984v2.727h.557v-2.727h.984v-.463h-2.525zm4.83 1.9l-.893-2.364h-.87v3.19h.557V39.7h.028l.989 2.582h.378l.989-2.582h.028v2.582h.557v-3.19h-.871zm-9.545 3.216c-.76 2.939-3.473 2.314-11.4 2.535-5.862.163-12.1.7-12.1.7l-4.8 9.183c-2.171 4.15-7.167 5.549-8.032 4.991-.607-.392.3-1.963.3-1.963l5.889-11.689c-2.334.193-10.611 1.359-16.847 2.265-4.128.561-7.382 1.056-7.382 1.056C61.5 56.739 49.8 61.4 49.8 61.4l-16.6 5.318s-3.688.95-5.751-.061a1.2 1.2 0 01-.57-.484v-.251c.246-.763 2.467-1.438 2.467-1.438s7.491-3.631 29.934-9.466c11.42-2.966 25.584-5.47 36.761-7.22 10.773-1.659 18.72-2.645 18.72-2.645l5.532-10.925-4.256 2.918a5.411 5.411 0 01-3.825 1.117c-2.007-.384-.951-4.366-.951-4.366l.951-3.46a2.607 2.607 0 00.109-.653l-1.2 1.337s-10.04 11.859-13.243 10.25c-3.2-1.581-.025-8.8-.025-8.8l-.272-.192-1.545 1.739-3.937 4.4s-6.835 7.161-9.9 6.478c-3.064-.706-1.352-6.891-1.352-6.891l-.331-.382-4.426 4.624s-5.07 5.29-7.377 4.937c-2.309-.382-1.057-5.229-1.057-5.229l-.326-.3-7.275 8.419a1.982 1.982 0 01-2.929.464c-1.978-1.2.786-8.833.976-9.345.166-.524-.08-.494-.08-.494-1.112.791-7.571 9.979-8.845 12.212-1.277 2.263-2.821 1.66-2.821 1.66-2.825-.876-1.874-4.527-.787-7.142 1.112-2.614 4.394-9.676 4.394-9.676-4.749 4.2-13.621 17.964-13.621 17.964s-1.112 1.911-2.5 1.741A2.549 2.549 0 0132 55.9a6.291 6.291 0 01.869-4.768c1.52-2.7 5.455-11.287 5.943-12.212.461-.956 2.9-6.869 2.9-6.869s.761-1.518 2.877.332c2.115 1.82-.191 7.062-.191 7.062l1.277-1.207s6.156-6.428 9.14-5.966c2.984.494 1.742 4.25 1.742 4.25s-.951 2.1.081.951c1.056-1.116 5.017-4.331 5.017-4.331a4.764 4.764 0 013.365-.951c2.554.866.977 4.06.977 4.06l-1.466 3.189-1 2.172c-1.032 2.213 1.086-.322 1.086-.322 1.247-1.419 2.849-3.652 3.881-4.989s3.175-4.5 4.636-6.729a3.76 3.76 0 013.934-1.64c1.953.543.842 2.4.351 3.379s-3.874 8.752-3.874 8.752c-.6 1.549-.191 1.227-.191 1.227s.241.111.811-.464c.57-.522 2.633-2.947 2.633-2.947 2.469-2.886 9.493-14.111 9.493-14.111l2.985-5.835-22.923 4.819a5.719 5.719 0 01-1.521.061l-1.142-.252c-1.137-.271 0-.76 0-.76l9.2-2.619s16.278-3.866 16.984-4a5.006 5.006 0 001.272-.465L94.7 7.139A8.045 8.045 0 0196.036 5.1 7.661 7.661 0 0197.8 3.679s2.2-1.473 3.826-1.227c1.656.271-.891 4.17-.891 4.17l-3.56 6.978 10.906-2.208 3.936-7.548a9.318 9.318 0 012.764-2.59C117.524-.3 118.475.029 118.475.029c1.492.462.192 2.315.192 2.315l-3.856 7.629 10.665-1.964s1.733-.3 1.788.793c.084 1.087-1.518 1.254-1.518 1.254L113.4 12.7l-5.153 10.6-5.673 11.772c-1.062 2.073.41.876.41.876s1.922-1.64 4.636-4.225A87.281 87.281 0 00114.891 23c.541-.714 2.905-4.366 3.474-5.322a4.665 4.665 0 011.547-1.471 5.012 5.012 0 013.77-.568s.923.433-.324 2.614c-1.248 2.152-4.562 9.323-4.562 9.323l-1.272 3.239c-1.277 2.6.571.905.571.905l2.112-1.88c3.992-3.3 9.907-12.624 10.4-13.6a5.012 5.012 0 011.492-1.692 8.432 8.432 0 013.691-.493c1.437.356.243 2.347.243 2.347l-14.79 28.071 18.886-1.307c2.36-.026 3.171.445 2.901 1.503zM101.351 24.2s3.526-6.3 5.183-9.95l-10.72 2.206s-7.891 16.625-9.088 19.516a20.042 20.042 0 00-1.166 3.185S85.48 40 86.672 39a70.736 70.736 0 009.308-8.2.1.1 0 01.056-.079 62.86 62.86 0 005.315-6.521z" fill="#ea1c24"></path></svg>