<svg fill="none" viewBox="0 0 213 50" xmlns="http://www.w3.org/2000/svg">
<g clip-path="url(#clip0_8159_8617)">
<path d="M202.688 41.8795C202.901 42.1279 203.011 42.4491 202.998 42.7774V42.9166H200.605C200.637 42.5479 200.779 42.1978 201.013 41.9132C201.118 41.7974 201.247 41.706 201.39 41.6454C201.534 41.5848 201.688 41.5564 201.844 41.5621C201.999 41.5523 202.154 41.5755 202.3 41.6303C202.445 41.6851 202.578 41.7703 202.689 41.8803L202.688 41.8795ZM203.505 46.6063C203.924 46.418 204.286 46.12 204.554 45.7429L203.708 44.7851C203.526 45.0237 203.29 45.2146 203.019 45.3415C202.749 45.4684 202.453 45.5276 202.155 45.5142C201.765 45.5283 201.384 45.3906 201.092 45.1294C200.808 44.861 200.63 44.4971 200.591 44.1057H204.692V43.3943C204.747 42.5292 204.476 41.6751 203.933 41.0043C203.667 40.7196 203.344 40.4966 202.985 40.3509C202.625 40.2052 202.239 40.1402 201.853 40.1604C201.301 40.1511 200.758 40.2972 200.283 40.5823C199.821 40.8651 199.452 41.2792 199.221 41.7731C198.963 42.3213 198.835 42.9224 198.846 43.5293V43.6981C198.826 44.1295 198.895 44.5604 199.048 44.9635C199.201 45.3666 199.436 45.7331 199.736 46.04C200.043 46.3353 200.405 46.5653 200.801 46.7164C201.198 46.8674 201.62 46.9365 202.043 46.9194C202.548 46.9261 203.048 46.82 203.507 46.6088L203.505 46.6063ZM194.474 45.0737C194.236 44.6312 194.13 44.1284 194.17 43.6264V43.4466C194.132 42.9471 194.238 42.4471 194.476 42.0077C194.575 41.8808 194.699 41.7762 194.84 41.7005C194.982 41.6247 195.137 41.5795 195.296 41.5678C195.456 41.556 195.616 41.578 195.766 41.6322C195.917 41.6865 196.055 41.7718 196.171 41.8828C196.374 42.1083 196.484 42.4039 196.479 42.709H198.094C198.105 42.3651 198.045 42.0225 197.917 41.7035C197.79 41.3844 197.598 41.096 197.353 40.8566C196.822 40.3764 196.126 40.1266 195.415 40.1612C195.01 40.141 194.606 40.2109 194.231 40.3661C193.856 40.5213 193.52 40.7579 193.245 41.0591C192.692 41.7305 192.41 42.5882 192.454 43.461V43.5757C192.403 44.4664 192.687 45.3437 193.251 46.0299C193.529 46.3288 193.868 46.563 194.244 46.7163C194.62 46.8696 195.025 46.9383 195.43 46.9177C195.897 46.9235 196.358 46.8192 196.778 46.613C197.171 46.4236 197.504 46.1276 197.74 45.7581C197.972 45.3967 198.096 44.9754 198.097 44.5446H196.483C196.484 44.6774 196.457 44.809 196.404 44.9304C196.351 45.0518 196.272 45.1603 196.174 45.2484C195.958 45.4318 195.682 45.5263 195.4 45.5134C195.222 45.5255 195.043 45.4914 194.882 45.4143C194.72 45.3372 194.581 45.2197 194.477 45.0729L194.474 45.0737ZM185.858 40.2811V46.7953H187.578V42.2043C187.683 42.0079 187.84 41.8451 188.032 41.7345C188.224 41.6238 188.442 41.5696 188.663 41.5782C188.805 41.5646 188.948 41.5801 189.085 41.6236C189.221 41.667 189.347 41.7377 189.456 41.8313C189.634 42.0588 189.719 42.3466 189.693 42.6356V46.8021H191.414V42.5934C191.454 41.9459 191.274 41.3041 190.902 40.7756C190.71 40.5636 190.473 40.3985 190.209 40.2929C189.945 40.1873 189.661 40.144 189.378 40.1663C189.023 40.1537 188.671 40.2264 188.349 40.3782C188.027 40.53 187.746 40.7567 187.527 41.0398L187.474 40.2878L185.858 40.2811ZM182.917 41.8845C183.129 42.1333 183.24 42.4543 183.226 42.7824V42.9217H180.834C180.865 42.5529 181.007 42.2027 181.241 41.9183C181.347 41.8019 181.476 41.7103 181.62 41.6496C181.764 41.589 181.92 41.5609 182.076 41.5672C182.231 41.5573 182.386 41.5805 182.532 41.6353C182.678 41.6901 182.81 41.7753 182.922 41.8854L182.917 41.8845ZM183.736 46.6113C184.155 46.423 184.517 46.125 184.785 45.748L183.94 44.7902C183.757 45.0289 183.521 45.2198 183.25 45.3467C182.98 45.4736 182.683 45.5328 182.385 45.5193C181.995 45.5332 181.615 45.3955 181.322 45.1345C181.038 44.8662 180.86 44.5022 180.821 44.1108H184.922V43.3994C184.978 42.5343 184.707 41.6803 184.164 41.0094C183.898 40.7245 183.575 40.5015 183.215 40.3558C182.856 40.2101 182.47 40.1451 182.083 40.1654C181.532 40.1564 180.988 40.3025 180.514 40.5874C180.052 40.8702 179.683 41.2843 179.452 41.7782C179.195 42.3266 179.067 42.9276 179.077 43.5344V43.7032C179.057 44.1346 179.126 44.5654 179.279 44.9685C179.432 45.3716 179.667 45.7382 179.967 46.0451C180.274 46.3403 180.636 46.5703 181.032 46.7213C181.429 46.8724 181.851 46.9414 182.274 46.9244C182.779 46.9313 183.279 46.8252 183.738 46.6139L183.736 46.6113ZM178.619 40.2473C178.446 40.1939 178.266 40.1672 178.085 40.168C177.786 40.1669 177.494 40.2504 177.24 40.4092C176.986 40.5679 176.782 40.7954 176.65 41.0659L176.602 40.2887H174.977V46.8029H176.697V42.5402C176.817 42.3099 177.005 42.1224 177.233 42.0029C177.462 41.8835 177.722 41.8377 177.977 41.8719C178.184 41.874 178.391 41.8901 178.596 41.92L178.619 40.2473ZM172 41.8896C172.212 42.1384 172.323 42.4594 172.309 42.7875V42.9268H169.917C169.948 42.558 170.09 42.2078 170.324 41.9233C170.43 41.807 170.559 41.7153 170.703 41.6547C170.847 41.5941 171.003 41.5659 171.158 41.5723C171.314 41.5624 171.469 41.5856 171.615 41.6404C171.761 41.6952 171.893 41.7804 172.005 41.8904L172 41.8896ZM172.821 46.6164C173.239 46.4275 173.6 46.1296 173.868 45.7531L173.022 44.7952C172.84 45.034 172.604 45.225 172.333 45.3519C172.063 45.4788 171.766 45.538 171.468 45.5244C171.078 45.5386 170.698 45.4008 170.406 45.1395C170.121 44.8715 169.943 44.5074 169.905 44.1159H174.006V43.4044C174.061 42.5394 173.79 41.6853 173.248 41.0144C172.982 40.7296 172.658 40.5066 172.299 40.3608C171.94 40.2151 171.553 40.1502 171.167 40.1705C170.615 40.1613 170.072 40.3074 169.597 40.5925C169.132 40.869 168.757 41.2781 168.519 41.7689C168.262 42.3173 168.134 42.9183 168.144 43.5251V43.6939C168.124 44.1253 168.193 44.5562 168.346 44.9593C168.499 45.3624 168.734 45.7289 169.034 46.0358C169.341 46.331 169.703 46.561 170.1 46.712C170.496 46.8631 170.918 46.9321 171.341 46.9151C171.846 46.9218 172.346 46.8157 172.806 46.6046L172.821 46.6164ZM166.347 46.7945V41.5562H167.627V40.2802H166.35V39.757C166.35 39.1426 166.673 38.8354 167.32 38.8354C167.496 38.8323 167.672 38.8504 167.843 38.8894L167.862 37.5391C167.575 37.4669 167.282 37.4267 166.987 37.4193C166.35 37.3796 165.724 37.5969 165.245 38.0236C165.031 38.2481 164.865 38.5152 164.758 38.8081C164.651 39.101 164.605 39.4132 164.624 39.7249V40.2785H163.666V41.5545H164.624V46.7928L166.347 46.7945ZM161.978 46.7945V41.5562H163.257V40.2802H161.978V39.757C161.978 39.1426 162.301 38.8354 162.948 38.8354C163.124 38.8323 163.3 38.8504 163.471 38.8894L163.49 37.5391C163.203 37.4669 162.91 37.4267 162.614 37.4193C161.978 37.3796 161.352 37.5969 160.873 38.0236C160.658 38.2481 160.492 38.5152 160.385 38.8081C160.278 39.101 160.233 39.4132 160.251 39.7249V40.2785H159.294V41.5545H160.251V46.7928L161.978 46.7945ZM156.805 39.2439C157.002 39.4072 157.249 39.4965 157.504 39.4965C157.759 39.4965 158.007 39.4072 158.204 39.2439C158.373 39.0716 158.467 38.839 158.467 38.5966C158.467 38.3542 158.373 38.1215 158.204 37.9493C158.005 37.7859 157.756 37.6966 157.5 37.6966C157.244 37.6966 156.995 37.7859 156.796 37.9493C156.63 38.1234 156.538 38.356 156.539 38.5978C156.54 38.8396 156.635 39.0713 156.802 39.2439H156.805ZM158.365 40.2794H156.639V46.7936H158.365V40.2794ZM151.406 39.4903C151.708 39.4707 152.01 39.5229 152.288 39.6426C152.566 39.7623 152.812 39.9463 153.007 40.1798C153.411 40.7727 153.604 41.4868 153.555 42.2052V42.6677C153.593 43.3738 153.394 44.0722 152.99 44.6492C152.795 44.8828 152.548 45.067 152.27 45.1871C151.992 45.3073 151.69 45.36 151.388 45.3412H150.525V39.4886L151.406 39.4903ZM151.423 46.7945C152.138 46.802 152.842 46.6195 153.465 46.2653C154.063 45.9207 154.55 45.408 154.866 44.7893C155.208 44.1178 155.38 43.3712 155.367 42.6162V42.2119C155.38 41.4534 155.206 40.7035 154.861 40.0296C154.542 39.4093 154.053 38.8952 153.453 38.5485C152.829 38.1957 152.124 38.0161 151.409 38.0278H148.739V46.7936L151.423 46.7945ZM141.271 46.6586C141.161 46.9611 141.012 47.2472 140.826 47.5093C140.624 47.8064 140.401 48.0884 140.159 48.3532C139.945 48.5925 139.708 48.8094 139.451 49.0005C139.286 49.1438 139.083 49.2341 138.867 49.2596C138.816 49.2625 138.766 49.2507 138.722 49.2256C138.677 49.2005 138.641 49.1631 138.617 49.1178C138.56 49.014 138.509 48.9069 138.464 48.7971C138.418 48.6811 138.354 48.5729 138.276 48.4764C138.23 48.4265 138.174 48.3878 138.112 48.3632C138.05 48.3386 137.983 48.3288 137.916 48.3346C137.832 48.3315 137.747 48.3469 137.669 48.3799C137.592 48.4128 137.522 48.4625 137.465 48.5254C137.348 48.6644 137.289 48.843 137.298 49.025C137.296 49.1549 137.322 49.2837 137.373 49.4027C137.425 49.5218 137.501 49.6284 137.596 49.7153C137.82 49.913 138.111 50.0147 138.407 49.9989C138.946 49.9676 139.461 49.7623 139.877 49.4132C140.526 48.8926 141.103 48.2847 141.59 47.6063C142.016 47.0518 142.411 46.4734 142.772 45.8738C143.155 45.2447 143.492 44.6281 143.784 44.0239C144.055 43.4742 144.291 42.9079 144.492 42.3284C144.649 41.9142 144.74 41.4771 144.76 41.0338C144.765 40.8151 144.715 40.5988 144.614 40.4051C144.571 40.3195 144.505 40.2484 144.422 40.2003C144.34 40.1523 144.246 40.1293 144.151 40.1342C143.976 40.1398 143.809 40.2154 143.688 40.3444C143.609 40.4321 143.549 40.5354 143.511 40.6478C143.473 40.7602 143.459 40.8792 143.469 40.9975C143.469 41.0718 143.474 41.1663 143.481 41.287C143.489 41.4077 143.5 41.5326 143.512 41.6634C143.525 41.7942 143.535 41.925 143.543 42.0516C143.55 42.1782 143.555 42.2845 143.555 42.3664C143.552 42.6362 143.511 42.9041 143.434 43.1622C143.351 43.45 143.245 43.7304 143.117 44.0002C142.989 44.2723 142.844 44.5359 142.684 44.7893C142.539 45.0224 142.382 45.2478 142.214 45.4644H142.165L141.748 43.4787C141.637 42.92 141.521 42.4246 141.401 41.9925C141.284 41.5613 141.176 41.2144 141.078 40.9503C141.008 40.7172 140.895 40.4996 140.744 40.3089C140.694 40.2544 140.632 40.2112 140.564 40.1822C140.496 40.1531 140.422 40.1388 140.348 40.1401C140.154 40.1459 139.966 40.2129 139.812 40.3317C139.613 40.4812 139.442 40.6649 139.306 40.8743C139.133 41.1363 138.986 41.415 138.867 41.7064C138.728 42.045 138.62 42.3959 138.544 42.7546L138.996 42.8778C139.082 42.4926 139.211 42.1184 139.379 41.7621C139.506 41.5281 139.645 41.4111 139.797 41.4111C139.948 41.4111 140.087 41.5405 140.214 41.7993C140.404 42.2467 140.537 42.7169 140.61 43.1985L141.271 46.6586ZM133.639 45.2771C133.642 44.9527 133.683 44.6297 133.761 44.315C133.844 43.9713 133.956 43.6351 134.094 43.3099C134.234 42.9821 134.397 42.6648 134.582 42.3605C134.752 42.0786 134.944 41.8106 135.155 41.5588C135.331 41.3454 135.537 41.1585 135.765 41.0035C135.935 40.8808 136.136 40.8101 136.344 40.8001C136.441 40.8025 136.535 40.8298 136.618 40.8794C136.701 40.929 136.771 40.9993 136.82 41.0836C136.956 41.296 137.025 41.546 137.015 41.7993C137.012 42.126 136.969 42.4512 136.887 42.7673C136.801 43.1129 136.69 43.4515 136.553 43.78C136.417 44.1113 136.254 44.4308 136.066 44.7353C135.895 45.0194 135.7 45.2877 135.482 45.537C135.301 45.7485 135.092 45.9331 134.86 46.0856C134.685 46.2096 134.477 46.2802 134.263 46.289C133.849 46.289 133.641 45.9514 133.641 45.2762L133.639 45.2771ZM136.177 36.5703L133.837 36.6817L133.727 37.0514C134.354 37.0514 134.666 37.1957 134.666 37.4826C134.659 37.5972 134.639 37.7106 134.605 37.8202C134.565 37.9729 134.522 38.1223 134.483 38.27L133.008 43.0804C132.837 43.6227 132.707 44.0891 132.618 44.4796C132.541 44.7761 132.496 45.0799 132.483 45.386C132.476 45.5913 132.512 45.7959 132.588 45.9862C132.665 46.1765 132.781 46.3482 132.928 46.4898C133.238 46.777 133.648 46.9287 134.068 46.9118C134.409 46.9084 134.747 46.8373 135.061 46.7025C135.407 46.5581 135.732 46.3652 136.024 46.1294C136.34 45.8774 136.628 45.5922 136.884 45.2788C137.151 44.9558 137.386 44.6067 137.585 44.2365C137.784 43.869 137.941 43.4801 138.054 43.077C138.165 42.693 138.221 42.2953 138.221 41.8955C138.247 41.4325 138.104 40.976 137.819 40.6127C137.675 40.4534 137.497 40.3286 137.299 40.2476C137.1 40.1666 136.887 40.1313 136.674 40.1443C136.276 40.1442 135.886 40.253 135.545 40.4591C135.185 40.6767 134.882 40.9793 134.662 41.341L134.625 41.3165L136.177 36.5703ZM124.367 41.736C124.509 41.532 124.698 41.3672 124.919 41.2566C125.14 41.146 125.384 41.0932 125.631 41.103C125.945 41.0912 126.255 41.172 126.525 41.3357C126.794 41.4993 127.011 41.7387 127.148 42.0246V45.0172C127.016 45.3118 126.799 45.5597 126.527 45.7291C126.254 45.8986 125.938 45.9818 125.618 45.9683C125.374 45.9775 125.132 45.9251 124.914 45.8158C124.695 45.7064 124.507 45.5436 124.366 45.3421C124.038 44.8274 123.879 44.2203 123.914 43.6086C123.87 42.9524 124.028 42.2985 124.366 41.7368L124.367 41.736ZM122.813 43.5665C122.773 44.4305 123.022 45.2829 123.519 45.9868C123.726 46.2792 124 46.5165 124.318 46.6781C124.635 46.8398 124.987 46.9211 125.343 46.9151C125.69 46.9323 126.037 46.8673 126.356 46.7252C126.675 46.5831 126.956 46.3678 127.178 46.0965L127.232 46.7945H128.244V37.545H127.142V40.9385C126.909 40.6809 126.623 40.4776 126.305 40.3426C125.986 40.2075 125.642 40.1439 125.297 40.1562C124.952 40.1685 124.613 40.2563 124.305 40.4137C123.996 40.571 123.725 40.7941 123.51 41.0676C123.014 41.7682 122.766 42.6184 122.808 43.4795L122.813 43.5665ZM120.253 41.541C120.546 41.9154 120.705 42.3791 120.705 42.8567V42.9411H117.479C117.517 42.4338 117.713 41.9518 118.039 41.5647C118.18 41.4067 118.353 41.2813 118.546 41.1969C118.739 41.1124 118.948 41.0709 119.158 41.0752C119.363 41.0656 119.568 41.1024 119.758 41.183C119.947 41.2636 120.116 41.3859 120.253 41.541ZM121.723 45.656L121.051 45.1269C120.858 45.3834 120.617 45.5997 120.343 45.764C120.041 45.9327 119.699 46.0161 119.354 46.0054C119.1 46.0124 118.847 45.9632 118.613 45.8611C118.379 45.7591 118.17 45.6068 118 45.4147C117.632 44.9822 117.434 44.4275 117.444 43.8568H121.807V43.3935C121.863 42.5364 121.616 41.6873 121.11 40.9975C120.869 40.7168 120.568 40.4955 120.23 40.3504C119.892 40.2053 119.525 40.1403 119.158 40.1604C118.651 40.1593 118.155 40.309 117.731 40.5908C117.287 40.8841 116.931 41.2966 116.704 41.7824C116.452 42.3232 116.327 42.9155 116.337 43.5133V43.7184C116.316 44.1418 116.378 44.5652 116.519 44.9644C116.66 45.3636 116.878 45.7308 117.159 46.0451C117.434 46.3337 117.766 46.5603 118.133 46.7101C118.5 46.8599 118.895 46.9295 119.291 46.9143C119.77 46.9414 120.247 46.839 120.674 46.6178C121.101 46.3965 121.462 46.0642 121.72 45.6552L121.723 45.656ZM115.721 40.2431C115.566 40.1784 115.399 40.1496 115.232 40.1587C114.921 40.1501 114.615 40.2269 114.344 40.3807C114.074 40.5345 113.85 40.7597 113.696 41.0322L113.678 40.2802H112.607V46.7945H113.708V42.1706C113.821 41.8757 114.025 41.6256 114.29 41.4574C114.555 41.2892 114.866 41.212 115.178 41.2372C115.36 41.2363 115.541 41.2507 115.721 41.2803V40.2431ZM109.778 41.5402C110.072 41.9144 110.232 42.3781 110.232 42.8559V42.9403H107.005C107.042 42.433 107.238 41.9509 107.564 41.5638C107.705 41.4059 107.878 41.2805 108.071 41.196C108.264 41.1116 108.473 41.0701 108.683 41.0743C108.889 41.0648 109.093 41.1016 109.283 41.1822C109.472 41.2628 109.641 41.3851 109.778 41.5402ZM111.25 45.6552L110.577 45.126C110.383 45.3825 110.143 45.5989 109.868 45.7632C109.566 45.9319 109.224 46.0152 108.879 46.0046C108.625 46.0116 108.372 45.9623 108.138 45.8603C107.904 45.7583 107.695 45.6059 107.525 45.4138C107.157 44.9813 106.959 44.4266 106.97 43.8559H111.333V43.3926C111.388 42.5359 111.142 41.6869 110.637 40.9967C110.395 40.7163 110.094 40.4951 109.756 40.3501C109.417 40.205 109.05 40.1399 108.683 40.1595C108.177 40.1583 107.681 40.3079 107.258 40.5899C106.814 40.8836 106.46 41.2965 106.234 41.7824C105.983 42.3234 105.857 42.9155 105.867 43.5133V43.7184C105.847 44.1418 105.908 44.5652 106.05 44.9644C106.191 45.3636 106.408 45.7308 106.689 46.0451C106.964 46.3338 107.296 46.5606 107.663 46.7106C108.03 46.8607 108.424 46.9307 108.82 46.916C109.299 46.9429 109.777 46.8405 110.204 46.6192C110.631 46.3979 110.992 46.0658 111.25 45.6568V45.6552ZM101.159 40.2802H100.273L98.7709 45.1573L97.5027 40.2802H96.408L98.277 46.7945H99.1698L100.693 41.8567L102.26 46.7945H103.153L105.028 40.2802H103.927L102.688 45.2594L101.159 40.2802ZM91.3483 41.7318C91.4991 41.5235 91.6974 41.3551 91.9264 41.2409C92.1553 41.1267 92.4081 41.0702 92.6633 41.076C92.9224 41.0692 93.1793 41.1262 93.4119 41.242C93.6444 41.3579 93.8457 41.5291 93.9983 41.7411C94.3518 42.2477 94.528 42.8592 94.4989 43.4787C94.5381 44.1375 94.3648 44.7914 94.005 45.3421C93.8484 45.5486 93.647 45.716 93.4165 45.8314C93.1859 45.9469 92.9322 46.0074 92.6749 46.0082C92.4176 46.009 92.1636 45.9502 91.9323 45.8362C91.701 45.7221 91.4987 45.556 91.3408 45.3505C90.9868 44.8431 90.8105 44.2306 90.8401 43.6103C90.7982 42.9458 90.9742 42.2858 91.3408 41.7326L91.3483 41.7318ZM89.7338 43.5563C89.6911 44.4437 89.981 45.3147 90.5456 45.9953C90.8106 46.2973 91.1383 46.5365 91.5052 46.6956C91.8721 46.8548 92.2693 46.93 92.6683 46.916C93.2104 46.9263 93.7442 46.7799 94.2069 46.494C94.6566 46.2098 95.0147 45.7993 95.2373 45.3125C95.4845 44.7789 95.6081 44.1953 95.5986 43.6061V43.5285C95.6413 42.6382 95.3509 41.7644 94.7851 41.0811C94.5194 40.7783 94.1908 40.5387 93.8228 40.3794C93.4548 40.2201 93.0566 40.145 92.6566 40.1595C92.1232 40.1505 91.5981 40.2945 91.1422 40.5747C90.6925 40.8606 90.3329 41.2706 90.1059 41.7562C89.8521 42.2937 89.7247 42.8832 89.7338 43.4787V43.5563ZM83.7262 38.9738H85.8456C86.3378 38.957 86.8175 39.1323 87.1856 39.4633C87.3496 39.6258 87.478 39.8215 87.5621 40.0376C87.6462 40.2537 87.6842 40.4853 87.6737 40.7174C87.6889 40.9516 87.6531 41.1864 87.5688 41.4052C87.4844 41.6239 87.3536 41.8213 87.1856 41.9832C86.7866 42.2987 86.2866 42.4541 85.7813 42.4196H83.7271L83.7262 38.9738ZM85.768 43.3622C86.5789 43.417 87.3818 43.172 88.0275 42.6727C88.2956 42.4254 88.5057 42.1205 88.6421 41.7804C88.7785 41.4403 88.8379 41.0736 88.816 40.7072C88.8299 40.3437 88.7648 39.9816 88.6254 39.6462C88.486 39.3109 88.2756 39.0105 88.0091 38.7662C87.3846 38.2453 86.5885 37.9827 85.7805 38.0312H82.584V46.797H83.7262V43.3656L85.768 43.3622Z" fill="#009EE3"></path>
<path d="M42.9539 15.6485C42.9065 15.4853 42.8508 15.3248 42.787 15.1674C42.6557 14.8405 42.4945 14.5266 42.3056 14.2298C42.1555 13.9951 41.9917 13.7696 41.815 13.5547C41.5623 13.2464 41.2891 12.956 40.9973 12.6855C40.7703 12.4734 40.527 12.2658 40.2672 12.0627C40.0074 11.8595 39.7321 11.6626 39.4411 11.4719L39.2659 11.3571C39.2153 11.3246 39.1581 11.3037 39.0986 11.2962C39.039 11.2886 38.9786 11.2945 38.9215 11.3134C38.8645 11.3322 38.8123 11.3637 38.7687 11.4054C38.7251 11.4471 38.6911 11.4981 38.6693 11.5546C38.0784 13.1847 37.312 14.7441 36.384 16.2046C36.249 16.4064 36.1772 16.6446 36.1779 16.8882C36.1779 19.6335 33.7023 22.0589 29.92 23.5198C29.2617 23.7729 28.5904 23.9904 27.9092 24.1713C26.8846 24.4423 25.8432 24.643 24.7919 24.7722C24.18 24.8487 23.5532 24.9032 22.9112 24.9359C22.4662 24.9584 22.0179 24.9699 21.5662 24.9705C18.1626 25.0298 14.7901 24.3058 11.7038 22.8531C11.6528 22.8285 11.5965 22.8174 11.5401 22.8209C11.4838 22.8243 11.4292 22.8422 11.3815 22.8728C11.3338 22.9034 11.2946 22.9458 11.2675 22.9959C11.2404 23.046 11.2263 23.1023 11.2266 23.1594C11.2341 23.479 11.2586 23.7979 11.3 24.1147C11.3521 24.5136 11.5265 24.8858 11.7988 25.1791C12.0711 25.4723 12.4275 25.6718 12.8177 25.7494C15.2206 26.2207 17.6577 26.4914 20.1044 26.5587C20.5878 26.5734 21.075 26.581 21.5662 26.5815C21.7676 26.5815 21.9684 26.5815 22.1686 26.5815C23.2925 26.5672 24.3948 26.5149 25.4686 26.4262C26.0365 26.3796 26.5961 26.3233 27.1474 26.2575C36.3498 25.1519 43.1274 21.3787 43.1274 16.8899C43.1269 16.4722 43.0685 16.0566 42.9539 15.6552" fill="#009EE3"></path>
<path d="M6.67508 17.9279C6.85606 17.6108 6.95077 17.2509 6.94959 16.8848V16.8797C6.94959 16.7402 6.95598 16.6015 6.96878 16.4637C6.98157 16.3258 7.00048 16.1888 7.02552 16.0527C7.08914 15.7097 7.18929 15.3746 7.32422 15.0535C7.37985 14.9235 7.43993 14.7944 7.50445 14.6661C7.53727 14.602 7.57148 14.5384 7.60708 14.4754C7.67828 14.3488 7.75476 14.2236 7.83653 14.0998C7.8777 14.0379 7.91997 13.9763 7.96336 13.915C8.23677 13.5334 8.54458 13.1783 8.88285 12.8542C8.94125 12.7979 9.00105 12.7417 9.06224 12.6854C9.51442 12.2789 9.99981 11.9119 10.5132 11.5883C10.59 11.5394 10.6676 11.491 10.746 11.4431C10.9034 11.3475 11.0648 11.2538 11.23 11.1621C11.8682 10.8118 12.5291 10.5056 13.2083 10.2456C13.8666 9.99247 14.5379 9.77499 15.2191 9.59411C16.2436 9.32302 17.2851 9.12226 18.3364 8.99323C18.9483 8.91728 19.5752 8.8627 20.2171 8.82951C20.6621 8.80701 21.1101 8.79547 21.5613 8.79491C24.8781 8.74174 28.1661 9.42535 31.1933 10.7975C31.2474 10.8243 31.3073 10.8369 31.3674 10.8339C31.4275 10.831 31.4859 10.8127 31.5371 10.7808C31.5884 10.7488 31.6308 10.7043 31.6604 10.6513C31.69 10.5983 31.7059 10.5386 31.7065 10.4777C31.714 9.89143 31.6504 9.30644 31.5171 8.73583C31.4822 8.59024 31.4074 8.45756 31.3013 8.35305C31.1951 8.24855 31.062 8.17646 30.9172 8.14509H30.9122C28.3175 7.59419 25.6791 7.28067 23.0289 7.20833C22.5455 7.19371 22.058 7.18611 21.5663 7.18555C21.3649 7.18555 21.1641 7.18555 20.9638 7.18555C19.8399 7.19989 18.7385 7.25222 17.6639 7.34083C17.0959 7.38752 16.5363 7.44379 15.9851 7.50961C14.6768 7.66658 13.4177 7.87756 12.2195 8.13665C11.9053 8.20473 11.5954 8.27618 11.29 8.35101C10.8317 8.46353 10.3836 8.58252 9.94585 8.70799C9.65437 8.79182 9.36762 8.87902 9.0856 8.9696C8.38138 9.19465 7.70943 9.43798 7.06974 9.6996C6.81442 9.80424 6.5641 9.91114 6.3188 10.0203C5.95278 10.1846 5.60039 10.3548 5.26164 10.5309C5.0358 10.6479 4.81608 10.7674 4.60248 10.8895C4.49567 10.9503 4.39054 11.0119 4.28708 11.0744C4.08015 11.1987 3.8799 11.3253 3.68633 11.4541C3.39596 11.6477 3.12062 11.8446 2.86029 12.0449C2.59996 12.2452 2.35632 12.4528 2.12937 12.6677C1.83752 12.9382 1.56432 13.2286 1.31168 13.5369C1.13491 13.7518 0.971077 13.9773 0.821064 14.2121C0.629358 14.5129 0.466206 14.8313 0.333786 15.1632C0.269937 15.3205 0.214236 15.481 0.16691 15.6442C0.0545969 16.0459 -0.00157345 16.4614 3.35259e-05 16.8789C3.35259e-05 19.0368 1.56867 21.0301 4.22116 22.6403C4.25786 22.6626 4.29897 22.6765 4.34156 22.6809C4.38415 22.6853 4.42718 22.6801 4.46757 22.6658C4.50797 22.6514 4.54474 22.6282 4.57527 22.5979C4.6058 22.5675 4.62933 22.5307 4.64419 22.4901C5.20781 20.9203 5.88666 19.3953 6.67508 17.9279Z" fill="#009EE3"></path>
<path d="M24.2587 5.64501L24.3546 5.61125C24.5123 5.55809 24.67 5.5083 24.8261 5.46104L24.9587 5.42221C25.0856 5.38565 25.2116 5.35104 25.3367 5.31841L25.4494 5.28888C25.6034 5.25062 25.7561 5.21573 25.9074 5.18423L26.0217 5.16144C26.1452 5.13669 26.2679 5.11446 26.3897 5.09477L26.5065 5.07536C26.6559 5.05258 26.8044 5.03232 26.9512 5.01629L27.0389 5.00785C27.1618 4.99547 27.2839 4.98562 27.4051 4.97831L27.5203 4.97156C27.6588 4.96481 27.7965 4.96059 27.9325 4.96059H27.99C28.1219 4.96059 28.2512 4.9665 28.3797 4.97325L28.4631 4.97747C28.5983 4.98647 28.7315 4.99913 28.8628 5.01544L28.9346 5.02557C29.0569 5.04245 29.1776 5.06214 29.2967 5.08465L29.3426 5.09308C29.4702 5.1184 29.5929 5.14963 29.7189 5.18254L29.7956 5.20364C29.9191 5.23908 30.046 5.27706 30.1611 5.3201L30.1736 5.32516C30.2888 5.36736 30.4014 5.41462 30.5115 5.46441L30.5791 5.49479C30.6904 5.54655 30.7983 5.60281 30.9029 5.66358L30.9563 5.6948C31.0519 5.75106 31.1454 5.81014 31.2366 5.87203L31.2825 5.90325C31.381 5.97161 31.4752 6.04503 31.5679 6.12183L31.6288 6.17331C31.7222 6.25348 31.8132 6.33618 31.9008 6.42649C32.2267 6.75895 32.5002 7.14007 32.7118 7.5565C32.8979 7.92025 33.0418 8.30454 33.1407 8.70171C33.3147 9.42155 33.38 10.1639 33.3343 10.9035C33.3159 11.2449 33.2806 11.5852 33.2283 11.923C33.2283 11.9483 33.2191 11.9736 33.2149 11.9989C33.1632 12.3221 33.0973 12.6504 33.0147 12.9855C33.0072 13.0142 32.9988 13.0437 32.9913 13.0699C32.3811 15.2868 31.3796 17.374 30.0351 19.2305C29.7664 19.6137 29.4828 19.9945 29.184 20.3732C29.0344 20.5622 28.8814 20.7507 28.7251 20.9386C28.2545 21.5012 27.7517 22.054 27.2166 22.5969C27.1951 22.6184 27.1813 22.6465 27.1772 22.6768C27.173 22.707 27.1789 22.7378 27.1938 22.7644C27.2087 22.791 27.2318 22.8119 27.2596 22.8239C27.2874 22.8358 27.3183 22.8382 27.3476 22.8307C27.7706 22.7218 28.3079 22.5775 28.867 22.4146C29.532 22.2214 30.1279 21.8385 30.5833 21.3116L30.59 21.3032C30.7073 21.167 30.8239 21.0306 30.9396 20.8939C31.631 20.0742 32.2779 19.251 32.8803 18.4246C33.0812 18.15 33.2758 17.8754 33.4644 17.6009C33.9773 16.8616 34.4518 16.1263 34.8879 15.3949C35.0909 15.0573 35.2856 14.7197 35.4719 14.3822C35.7011 13.9664 35.9172 13.554 36.1203 13.145C36.3817 12.6172 36.62 12.0968 36.8353 11.5837C36.9427 11.3272 37.0445 11.074 37.1407 10.8242C37.1885 10.6981 37.235 10.5727 37.28 10.4478C37.3009 10.3896 37.3201 10.3322 37.3409 10.2739C37.4077 10.0832 37.4719 9.89417 37.5312 9.70682C37.5718 9.57854 37.611 9.45111 37.6488 9.32452C37.7184 9.08879 37.7823 8.85586 37.8407 8.62575C37.9297 8.27187 38.0048 7.92501 38.066 7.58519C38.1066 7.36015 38.1408 7.13707 38.1686 6.91596C38.1965 6.69485 38.2179 6.47909 38.2329 6.26867C38.2474 6.05656 38.2557 5.8484 38.2579 5.64417C38.2602 5.43994 38.2554 5.23993 38.2437 5.04414C38.2376 4.94624 38.2301 4.84947 38.2212 4.75383C38.2029 4.56254 38.1778 4.37547 38.1461 4.19262C37.9947 3.16419 37.5298 2.2092 36.8161 1.46083C36.756 1.40007 36.6946 1.34156 36.6317 1.2853C36.6109 1.26589 36.5883 1.24901 36.5666 1.2296C36.5241 1.19331 36.4832 1.15618 36.4381 1.12073C36.4114 1.09963 36.3839 1.08022 36.3547 1.05913C36.3147 1.02874 36.2713 0.997519 36.2329 0.967981C36.1945 0.938444 36.1737 0.928317 36.1436 0.908063C36.1136 0.887809 36.0602 0.853208 36.021 0.82367C35.9817 0.794133 35.9567 0.785694 35.925 0.766283C35.8933 0.746873 35.8416 0.717336 35.8007 0.693706L35.6989 0.639695C35.6572 0.617753 35.6154 0.595811 35.5721 0.575557C35.5287 0.555302 35.5003 0.542643 35.4644 0.525765C35.4285 0.508887 35.381 0.486944 35.3351 0.468378L35.2208 0.421962C35.1766 0.40424 35.1323 0.387361 35.0873 0.371327L34.9721 0.332506L34.8353 0.287778L34.7143 0.253177L34.5741 0.215201L34.4498 0.184819L34.3055 0.151906L34.1778 0.126589L34.0293 0.100427L33.8991 0.0801728L33.7473 0.0590747L33.6138 0.0430401L33.4577 0.0286934L33.3201 0.0177224L33.1599 0.00928317L33.0197 0H32.8528H32.7218C32.5916 0 32.4598 0.00309439 32.3263 0.00928317L32.2429 0.0143467C32.1316 0.0205355 32.017 0.0286934 31.8991 0.0388205L31.8007 0.0472598C31.6627 0.0601999 31.5236 0.0759532 31.3835 0.0945195L31.3042 0.105491C31.1829 0.122369 31.0608 0.141217 30.9379 0.162034L30.8311 0.1806C30.6859 0.205918 30.5399 0.234611 30.3922 0.264992L30.3238 0.280183C30.1942 0.308314 30.0635 0.338414 29.9316 0.370483L29.8165 0.399176C29.6646 0.437153 29.5128 0.476817 29.3584 0.520701L29.3075 0.535892C29.1674 0.575838 29.0263 0.618034 28.8845 0.662481L28.7643 0.699613C28.6066 0.750249 28.4481 0.801728 28.2888 0.857427L28.2646 0.865867C28.1116 0.922128 27.9575 0.97839 27.8023 1.03465L27.6755 1.08276C27.517 1.14352 27.3576 1.20597 27.1974 1.27095L27.1824 1.27686C27.0155 1.34437 26.8486 1.41442 26.6859 1.48699L26.5557 1.54438C26.4033 1.6119 26.2501 1.68138 26.096 1.75283L26.0484 1.77477C25.8816 1.85326 25.7147 1.93512 25.5428 2.01782L25.4126 2.08281C25.2636 2.15763 25.1137 2.23415 24.9629 2.31235L24.8903 2.35033C24.7201 2.43979 24.5493 2.53149 24.378 2.62545L24.2479 2.69718C24.0999 2.77932 23.9516 2.86372 23.8031 2.95036L23.7138 3.00184C23.5414 3.10199 23.3684 3.20438 23.1949 3.30903L23.0689 3.38583C22.9215 3.47584 22.7738 3.56727 22.6258 3.6601L22.5215 3.72508C22.3474 3.83761 22.1727 3.95013 21.9975 4.06265L21.8774 4.14283C21.73 4.24072 21.5826 4.34002 21.4352 4.44073L21.3192 4.52006C21.1439 4.64102 20.9685 4.76395 20.7927 4.88885L20.6809 4.97325C20.5323 5.07958 20.3838 5.1876 20.2353 5.29731L20.111 5.3893C19.9352 5.52039 19.7592 5.65345 19.5828 5.78848L19.5703 5.79861C21.1707 5.78595 23.2416 5.74375 24.0468 5.72687L24.2612 5.65092" fill="#009EE3"></path>
<path d="M19.5686 27.9944C19.3281 27.995 19.0893 28.0355 18.8618 28.1143L18.7784 28.143C18.6176 28.1992 18.458 28.2502 18.2995 28.2957L18.1777 28.3312C18.0458 28.3694 17.9148 28.4054 17.7847 28.4392L17.6829 28.4654C17.5266 28.5042 17.3716 28.5396 17.2181 28.5717L17.113 28.5928C16.9856 28.6181 16.8593 28.6409 16.7342 28.6611L16.624 28.6789C16.4733 28.7019 16.3239 28.7216 16.176 28.7379L16.0925 28.7455C15.9668 28.7579 15.8425 28.768 15.7196 28.7759L15.6078 28.7827C15.4684 28.7894 15.3307 28.7936 15.1906 28.7936H15.133C15.0012 28.7936 14.8718 28.7877 14.7433 28.781L14.6599 28.7759C14.5253 28.7669 14.3923 28.7543 14.2611 28.7379L14.1868 28.7278C14.0655 28.7115 13.946 28.6918 13.828 28.6687L13.7788 28.6595C13.652 28.6341 13.5285 28.6038 13.405 28.5708L13.3257 28.5489C13.2022 28.5135 13.0813 28.4755 12.9628 28.4324L12.9469 28.4265C12.8326 28.3843 12.7216 28.3421 12.6132 28.289L12.5439 28.2577C12.4338 28.2063 12.3261 28.1514 12.221 28.089L12.1668 28.0569C12.0711 28.0006 11.9779 27.9418 11.8873 27.8805L11.8405 27.8493C11.7429 27.7809 11.6478 27.7075 11.5552 27.6307L11.4943 27.5792C11.4008 27.4991 11.3099 27.4164 11.2223 27.3261C10.8964 26.9935 10.6229 26.6124 10.4112 26.196C10.2251 25.8323 10.0812 25.448 9.98237 25.0508C9.95567 24.9437 9.92813 24.8365 9.90727 24.7259C9.84913 24.4258 9.81066 24.1222 9.79213 23.817C9.77368 23.4943 9.77368 23.1709 9.79213 22.8482C9.81043 22.5068 9.84579 22.1665 9.89809 21.8287C9.89809 21.8034 9.90727 21.7781 9.91144 21.7528C9.96318 21.4296 10.0291 21.1004 10.1109 20.7662C10.1175 20.7375 10.1267 20.708 10.1342 20.6818C10.2177 20.3493 10.3153 20.0126 10.4288 19.6691C10.6212 19.0931 10.844 18.528 11.0963 17.9762C11.2698 17.5953 11.4595 17.2125 11.6653 16.8276C11.8711 16.4428 12.0936 16.058 12.3328 15.6731C12.5703 15.2883 12.8234 14.904 13.0921 14.5203C13.3608 14.1366 13.6447 13.7594 13.944 13.3886C14.5588 12.6113 15.2159 11.8692 15.9123 11.1657C15.9261 11.1516 15.935 11.1333 15.9377 11.1137C15.9405 11.094 15.937 11.074 15.9276 11.0565C15.9183 11.039 15.9037 11.0251 15.8859 11.0166C15.8681 11.0082 15.8481 11.0057 15.8289 11.0096C15.5786 11.0721 15.3091 11.1421 15.0295 11.2206C13.7769 11.5684 12.6595 12.2955 11.8272 13.3042C10.5079 14.8976 9.30862 16.5888 8.23935 18.3636C8.03631 18.7011 7.84163 19.0387 7.65528 19.3763L7.63275 19.4159C7.48534 19.6838 7.3435 19.9504 7.20722 20.216C7.07094 20.4815 6.94022 20.7451 6.81506 21.0067C6.6899 21.2689 6.57059 21.5291 6.45711 21.7874C6.34363 22.0456 6.236 22.3019 6.1342 22.5562C6.03241 22.8105 5.93674 23.0637 5.84718 23.3157C5.82632 23.374 5.80713 23.4313 5.78627 23.4896C5.67502 23.8103 5.57239 24.127 5.47838 24.4398C5.27459 25.1205 5.11681 25.8144 5.00612 26.5167C4.97164 26.7418 4.94382 26.9612 4.92268 27.175C4.90155 27.3888 4.88681 27.6009 4.87846 27.8113C4.87457 27.9154 4.87206 28.0184 4.87095 28.1202C4.86984 28.222 4.86984 28.323 4.87095 28.4232C4.87596 28.6229 4.88764 28.8198 4.906 29.0139C4.93226 29.2934 4.97517 29.5709 5.03449 29.8452C5.14213 30.357 5.32286 30.8502 5.571 31.3094C5.69085 31.5287 5.82843 31.7375 5.98235 31.9339C6.08489 32.0644 6.19465 32.1889 6.31109 32.3069C6.3695 32.366 6.42958 32.4222 6.49132 32.4757C6.51301 32.4951 6.53554 32.5128 6.55723 32.5322C6.59895 32.5685 6.64068 32.6048 6.6849 32.6394C6.7116 32.6605 6.73913 32.6808 6.76833 32.701C6.80838 32.7314 6.85177 32.7626 6.89015 32.7922C6.92854 32.8217 6.95023 32.8327 6.97943 32.8529C7.00863 32.8732 7.06287 32.9078 7.10125 32.9373C7.13963 32.9668 7.1655 32.9761 7.19804 32.9955C7.23058 33.015 7.28148 33.0445 7.32153 33.0673C7.36158 33.0901 7.38995 33.1036 7.42416 33.1213C7.45837 33.139 7.5076 33.1652 7.55015 33.1854L7.65778 33.2352C7.70034 33.2546 7.74122 33.274 7.78711 33.2926L7.89892 33.3373C7.94314 33.3551 7.98736 33.3719 8.03159 33.388L8.1484 33.4285L8.2844 33.4732L8.40455 33.5086L8.54473 33.5466L8.66905 33.577L8.8134 33.6091L8.94106 33.6344L9.08958 33.6606L9.22058 33.6808L9.37243 33.7011L9.50677 33.7171L9.6628 33.7314L9.79964 33.7424L9.95984 33.7509L10.0992 33.7568H10.2661H10.3987C10.5289 33.7568 10.6607 33.7537 10.7942 33.7475L10.8777 33.7424C10.9889 33.7362 11.1032 33.7281 11.2206 33.7179L11.3199 33.7095C11.4573 33.6966 11.5963 33.6808 11.7371 33.6622L11.8155 33.6513C11.9368 33.6344 12.0589 33.6155 12.1818 33.5947L12.2894 33.5762C12.4338 33.5508 12.5798 33.523 12.7275 33.4918L12.7967 33.4766C12.9263 33.4484 13.0568 33.4183 13.1881 33.3863L13.304 33.3576C13.4551 33.3196 13.6078 33.2799 13.7613 33.2361L13.8138 33.2209C13.9535 33.1809 14.0942 33.1387 14.236 33.0943L14.3579 33.0563C14.5156 33.0057 14.6733 32.9542 14.8335 32.8985L14.861 32.8884C15.0128 32.8352 15.1664 32.7795 15.3199 32.7196L15.4467 32.6715C15.6053 32.6107 15.7646 32.5483 15.9248 32.4833L15.939 32.4774C16.1059 32.4099 16.2728 32.339 16.4396 32.2664L16.569 32.2098C16.7217 32.1423 16.8752 32.0731 17.0287 32.0014L17.0771 31.9795C17.244 31.9007 17.4125 31.8197 17.5827 31.7364L17.7129 31.6714C17.8625 31.5966 18.0127 31.5201 18.1635 31.4419L18.2352 31.4047C18.4054 31.3153 18.5762 31.2236 18.7475 31.1296L18.8777 31.0579C19.0251 30.9763 19.1728 30.8919 19.3208 30.8047L19.4125 30.7524C19.585 30.6522 19.7577 30.5498 19.9307 30.4452L20.0575 30.3676C20.2044 30.2781 20.3515 30.187 20.4989 30.0941L20.6049 30.0275C20.779 29.9149 20.9534 29.8024 21.128 29.6899L21.249 29.6055C21.3964 29.5076 21.5438 29.4083 21.6912 29.3076L21.8072 29.2283C21.9824 29.1079 22.1576 28.9849 22.3329 28.8595L22.4472 28.7751C22.5946 28.6693 22.7423 28.5618 22.8902 28.4527L23.0154 28.3599L23.229 28.1995C23.2517 28.1826 23.2684 28.1587 23.2767 28.1315C23.285 28.1042 23.2844 28.075 23.2751 28.0481C23.2658 28.0212 23.2481 27.998 23.2248 27.982C23.2015 27.9659 23.1737 27.9579 23.1456 27.959C21.9198 27.9767 20.287 27.9809 19.5619 27.9818" fill="#009EE3"></path>
<path d="M50.6179 24.2694L52.0004 22.1453C52.0543 22.0619 52.1241 21.9902 52.2057 21.9343C52.2872 21.8784 52.3789 21.8394 52.4755 21.8196C52.572 21.7998 52.6715 21.7996 52.7681 21.819C52.8648 21.8384 52.9566 21.877 53.0384 21.9326C54.9153 23.3014 57.1507 24.0778 59.4631 24.1639C61.5783 24.1639 62.8006 23.2584 62.8006 21.8187V21.7343C62.8006 20.0464 60.5228 19.4709 58.0004 18.6894C54.8298 17.7847 51.2878 16.4674 51.2878 12.3119V12.2275C51.2878 8.11335 54.6646 5.60352 58.9358 5.60352C61.4937 5.65057 63.9961 6.36511 66.2007 7.67788C66.3703 7.77774 66.4945 7.94078 66.5468 8.1321C66.599 8.32342 66.5751 8.52783 66.4802 8.70156L65.2429 10.9447C65.1476 11.1188 64.9882 11.2476 64.7993 11.3031C64.6104 11.3586 64.4075 11.3363 64.2349 11.2409C62.5887 10.2436 60.7274 9.66609 58.8114 9.55815C56.8999 9.55815 55.801 10.4637 55.801 11.7388V11.8232C55.801 13.387 58.1198 14.0453 60.6404 14.8681C63.7727 15.8555 67.3155 17.2961 67.3155 21.2043V21.2811C67.3155 25.8484 63.8169 28.111 59.3421 28.111C56.278 28.0713 53.2986 27.0884 50.8006 25.2931C50.6448 25.1793 50.5386 25.0088 50.5042 24.8175C50.4698 24.6263 50.5099 24.4289 50.6162 24.2669" fill="#27348B"></path>
<path d="M71.1404 16.9636V16.8792C71.1962 13.8518 72.4216 10.9668 74.5543 8.84184C76.6869 6.71689 79.5573 5.52087 82.551 5.50984C85.5447 5.49881 88.4237 6.67364 90.5716 8.78282C92.7195 10.892 93.9656 13.7679 94.0432 16.7948V16.8792C94.0381 18.3917 93.7343 19.8879 93.1497 21.2801C92.5651 22.6722 91.7115 23.9323 90.639 24.9863C89.5664 26.0402 88.2965 26.867 86.9039 27.4179C85.5112 27.9688 84.0237 28.2329 82.5288 28.1945C81.0467 28.2325 79.5722 27.97 78.192 27.4226C76.8118 26.8751 75.5539 26.0538 74.4924 25.007C73.4309 23.9602 72.5873 22.7091 72.0113 21.3274C71.4354 19.9457 71.1386 18.4614 71.1387 16.9619L71.1404 16.9636ZM89.1196 16.9619V16.8775C89.1196 13.0511 86.3937 9.88306 82.528 9.88306C78.5822 9.88306 76.0599 13.0098 76.0599 16.7956V16.88C76.0599 20.665 78.7858 23.8745 82.6097 23.8745C86.5964 23.8745 89.1179 20.7064 89.1179 16.9619" fill="#27348B"></path>
<path d="M99.7928 5.97828H103.221C103.42 5.97828 103.611 6.0583 103.752 6.20074C103.893 6.34318 103.972 6.53637 103.972 6.73781V9.35398C104.662 8.17823 105.645 7.20615 106.823 6.53473C108.001 5.86332 109.332 5.51606 110.684 5.52762C115.523 5.52762 118.332 8.81893 118.332 13.8825V26.9456C118.332 27.147 118.253 27.3402 118.112 27.4827C117.971 27.6251 117.78 27.7051 117.581 27.7051H114.152C113.953 27.7051 113.762 27.6251 113.621 27.4827C113.481 27.3402 113.402 27.147 113.402 26.9456V15.3593C113.402 11.9836 111.733 10.0519 108.805 10.0519C105.957 10.0519 103.966 12.068 103.966 15.4421V26.9456C103.966 27.147 103.886 27.3402 103.746 27.4827C103.605 27.6251 103.414 27.7051 103.215 27.7051H99.7861C99.587 27.7051 99.3959 27.6251 99.2551 27.4827C99.1143 27.3402 99.0352 27.147 99.0352 26.9456V6.73359C99.0352 6.53215 99.1143 6.33896 99.2551 6.19652C99.3959 6.05408 99.587 5.97406 99.7861 5.97406" fill="#27348B"></path>
<path d="M123.087 16.9238V16.2925C123.081 14.8784 123.351 13.4771 123.883 12.1692C124.415 10.8613 125.197 9.67285 126.185 8.67218C127.173 7.67151 128.347 6.87846 129.639 6.33873C130.931 5.799 132.316 5.52326 133.715 5.52739C140.461 5.59744 143.875 10.9986 143.875 17.2124C143.875 17.4436 143.864 17.674 143.848 17.9103C143.835 18.1007 143.75 18.2789 143.612 18.4089C143.474 18.5389 143.292 18.611 143.103 18.6108H128.009C128.147 20.1551 128.865 21.5872 130.016 22.6127C131.166 23.6381 132.66 24.179 134.193 24.1241C136.182 24.1506 138.101 23.3821 139.533 21.9856C139.669 21.8636 139.845 21.7962 140.027 21.7962C140.209 21.7962 140.384 21.8636 140.521 21.9856L142.343 23.6211C142.417 23.6888 142.478 23.7709 142.521 23.8626C142.564 23.9543 142.588 24.0537 142.592 24.155C142.596 24.2563 142.58 24.3575 142.545 24.4524C142.51 24.5474 142.457 24.6344 142.388 24.7081C141.334 25.8525 140.051 26.7558 138.624 27.3574C137.197 27.959 135.659 28.2449 134.114 28.1961C127.89 28.1961 123.09 23.6287 123.09 16.9221L123.087 16.9238ZM138.995 15.3186C138.67 12.1117 136.798 9.59933 133.544 9.59933C130.534 9.59933 128.419 11.9446 127.971 15.3186H138.995Z" fill="#27348B"></path>
<path d="M149.584 5.97796H153.012C153.212 5.97796 153.403 6.05798 153.543 6.20042C153.684 6.34286 153.763 6.53605 153.763 6.73749V9.60683C154.536 8.3588 155.609 7.33005 156.883 6.61741C158.157 5.90477 159.589 5.53166 161.045 5.53321C166.131 5.53321 171.053 9.60683 171.053 16.8072V16.8916C171.053 24.092 166.171 28.1656 161.045 28.1656C159.615 28.1782 158.203 27.836 156.933 27.169C155.664 26.5019 154.575 25.5303 153.763 24.3392V33.5279C153.763 33.7293 153.684 33.9225 153.543 34.0649C153.403 34.2074 153.212 34.2874 153.012 34.2874H149.584C149.485 34.2874 149.388 34.2678 149.297 34.2296C149.205 34.1914 149.123 34.1355 149.053 34.0649C148.983 33.9944 148.928 33.9107 148.89 33.8185C148.852 33.7264 148.833 33.6276 148.833 33.5279V6.73411C148.833 6.63437 148.852 6.5356 148.89 6.44345C148.928 6.3513 148.983 6.26757 149.053 6.19704C149.123 6.12651 149.205 6.07057 149.297 6.0324C149.388 5.99423 149.485 5.97458 149.584 5.97458V5.97796ZM166.045 16.8781V16.7937C166.045 12.5969 163.238 9.83976 159.902 9.83976C156.566 9.83976 153.637 12.6374 153.637 16.7937V16.8781C153.637 21.0749 156.566 23.832 159.902 23.832C163.279 23.832 166.045 21.1576 166.045 16.8781Z" fill="#27348B"></path>
<path d="M189.232 26.9483V25.0292C188.384 26.0508 187.316 26.8634 186.111 27.4052C184.906 27.947 183.594 28.2038 182.276 28.1559C178.208 28.1559 174.628 25.8107 174.628 21.4493V21.3649C174.628 16.5545 178.33 14.2464 183.334 14.2464C185.35 14.2111 187.357 14.5172 189.273 15.1519V14.7401C189.273 11.7365 187.401 10.09 183.985 10.09C182.126 10.0863 180.284 10.4483 178.561 11.1559C178.467 11.192 178.368 11.2087 178.267 11.2049C178.167 11.201 178.069 11.1768 177.978 11.1336C177.887 11.0905 177.806 11.0292 177.739 10.9536C177.672 10.878 177.621 10.7895 177.589 10.6934L176.721 8.11525C176.662 7.93442 176.672 7.73754 176.749 7.56369C176.826 7.38985 176.965 7.25175 177.139 7.17681C179.515 6.1275 182.087 5.60576 184.68 5.64677C191.026 5.64677 194.117 9.02247 194.117 14.8219V26.9483C194.117 27.048 194.098 27.1468 194.06 27.2389C194.023 27.3311 193.967 27.4148 193.897 27.4853C193.828 27.5559 193.745 27.6118 193.654 27.65C193.563 27.6882 193.465 27.7078 193.366 27.7078H189.979C189.78 27.7078 189.589 27.6278 189.448 27.4853C189.307 27.3429 189.228 27.1497 189.228 26.9483H189.232ZM189.35 18.6103C187.773 18.0273 186.106 17.7346 184.427 17.7461C181.335 17.7461 179.504 19.0213 179.504 21.1218V21.2062C179.504 23.2637 181.335 24.4131 183.653 24.4131C186.908 24.4131 189.349 22.5616 189.349 19.8458L189.35 18.6103Z" fill="#27348B"></path>
<path d="M200.717 5.97844H204.145C204.344 5.97844 204.535 6.05846 204.676 6.2009C204.817 6.34334 204.896 6.53653 204.896 6.73797V10.8791C206.148 7.85533 208.379 5.72189 211.73 5.57083C211.83 5.56706 211.931 5.58396 212.025 5.62051C212.119 5.65705 212.205 5.71249 212.277 5.78347C212.349 5.85444 212.407 5.93949 212.445 6.03349C212.484 6.12748 212.504 6.22847 212.503 6.33036V10.1103C212.502 10.3017 212.429 10.4856 212.3 10.6251C212.17 10.7647 211.994 10.8497 211.805 10.8631C207.57 11.139 204.896 13.9746 204.896 19.4399V26.9508C204.896 27.0506 204.877 27.1493 204.839 27.2415C204.801 27.3336 204.746 27.4174 204.676 27.4879C204.606 27.5584 204.524 27.6144 204.433 27.6525C204.341 27.6907 204.244 27.7103 204.145 27.7103H200.717C200.618 27.7103 200.521 27.6907 200.429 27.6525C200.338 27.6144 200.256 27.5584 200.186 27.4879C200.116 27.4174 200.061 27.3336 200.023 27.2415C199.985 27.1493 199.966 27.0506 199.966 26.9508V6.73291C199.966 6.53147 200.045 6.33828 200.186 6.19584C200.327 6.0534 200.518 5.97338 200.717 5.97338" fill="#27348B"></path>
</g>
<defs>
<clippath id="clip0_8159_8617">
<rect fill="white" height="50" width="212.5"></rect>
</clippath>
</defs>
</svg>