<svg class="logo-svg" fill="none" viewBox="0 0 160 29" width="100%" xmlns="http://www.w3.org/2000/svg"><path class="logo-letter" d="M135.711 4.23613V0.255724C135.711 0.255724 135.711 0 135.45 0H131.229C131.229 0 130.969 0 130.969 0.255724V4.23984H135.707L135.711 4.23613ZM130.973 5.85942V27.1772C130.973 27.1772 130.973 27.4329 131.233 27.4329H135.454C135.454 27.4329 135.715 27.4329 135.715 27.1772V5.85942H130.976H130.973Z" fill="currentColor"></path><path d="M42.1587 18.722C42.1587 18.722 42.1398 18.7368 42.1323 18.7368C42.1209 18.7368 42.1134 18.7331 42.1096 18.722C40.7455 16.1054 38.1005 14.3561 34.6469 14.3561C30.0181 14.3561 26.2659 18.2327 26.2659 23.0878C26.2659 24.1626 26.4511 25.1966 26.7874 26.1491C26.7949 26.175 26.776 26.1936 26.7496 26.175C23.4169 24.1922 21.1875 20.601 21.1875 16.4946C21.1875 10.246 26.3491 5.17969 32.7198 5.17969C37.9494 5.17969 42.3703 8.58935 43.7835 13.2665C43.9082 13.6631 43.9913 14.0782 43.9913 14.5155C43.9913 15.6866 43.1336 17.5212 42.1549 18.7183" fill="#B7BA00"></path><path d="M44.4433 15.5741C43.7064 19.6768 39.9694 23.6609 34.9061 23.4571C31.6716 23.3422 30.3151 20.5848 30.3151 17.1641C30.3151 17.0862 30.2622 17.0343 30.2017 17.0343C30.1677 17.0343 30.1413 17.0492 30.1186 17.0677C28.6978 18.5353 27.9195 20.5181 27.825 22.6973C27.6663 26.3442 29.0001 28.0416 32.9525 28.0416C39.3346 28.0416 44.5075 22.9679 44.5075 16.7082C44.5075 16.3302 44.4999 15.9559 44.4622 15.5889C44.4622 15.5667 44.4395 15.5593 44.4395 15.5741" fill="#F8AD00"></path><path class="logo-letter" d="M154.654 6.02655C154.877 6.03026 159.294 6.03026 159.449 6.02655C159.634 6.01914 159.664 6.18592 159.581 6.30451C159.498 6.42311 152.746 16.4371 152.746 16.4371C152.746 16.4371 159.834 26.8996 159.952 27.0775C160.069 27.2554 159.952 27.3517 159.793 27.3554C159.638 27.3554 155.085 27.3592 154.937 27.3554C154.764 27.3517 154.65 27.3369 154.567 27.1924C154.492 27.0627 150.407 20.3026 150.35 20.2174C150.294 20.1322 150.233 20.0729 150.176 20.0766C150.12 20.0766 150.071 20.1396 150.029 20.2248C149.987 20.3101 145.914 27.0293 145.854 27.1331C145.786 27.248 145.695 27.3554 145.517 27.3592C145.362 27.3592 140.737 27.3592 140.571 27.3592C140.409 27.3592 140.356 27.1998 140.431 27.0923C140.507 26.9848 147.478 16.2185 147.478 16.2185C147.478 16.2185 144.255 11.7748 143.877 11.3782C143.277 10.7519 142.77 9.92542 140.983 9.93283C140.681 9.93283 139.94 9.92542 139.596 9.91801C139.419 9.91801 139.196 9.82906 139.196 9.49921C139.188 8.83952 139.094 7.37559 139.094 6.20074C139.094 5.9969 139.169 5.86719 139.479 5.86719C144.505 5.86719 146.118 7.00498 148.669 10.7704C149.016 11.2115 149.802 12.3604 149.901 12.4864C149.999 12.6124 150.018 12.6717 150.089 12.6717C150.161 12.6717 150.184 12.6087 150.271 12.4641C150.362 12.3196 154.182 6.33046 154.253 6.21927C154.337 6.09326 154.431 6.02655 154.654 6.03026V6.02655Z" fill="currentColor"></path><path class="logo-letter" d="M45.5152 4.26172C49.6226 4.08012 52.3318 5.9962 53.7752 10.9365C55.2073 15.7953 57.1382 22.4256 57.1382 22.4256C57.21 22.6702 57.2553 22.6702 57.2553 22.6702C57.3007 22.6702 57.3725 22.4256 57.3725 22.4256L62.1486 6.11479C62.2204 5.87019 62.4811 5.87019 62.4811 5.87019H67.057C67.3177 5.87019 67.2346 6.11109 67.2346 6.11109L59.9797 27.1657C59.8966 27.4066 59.6358 27.4066 59.6358 27.4066H54.6632C54.4025 27.4066 54.3194 27.1657 54.3194 27.1657C54.3194 27.1657 50.5521 14.6538 48.8253 9.99142C48.4852 9.22425 47.7106 8.70168 46.8037 8.70168C46.4637 8.70168 45.912 8.73875 45.81 8.75357C45.5114 8.77951 45.3452 8.59421 45.3452 8.30142C45.3452 8.00863 45.2356 5.68858 45.1676 4.64345C45.1676 4.64345 45.1034 4.28025 45.5228 4.25801" fill="currentColor"></path><path class="logo-letter" d="M18.2544 21.283C18.2544 17.0654 16.5427 15.4718 9.25756 14.9121C5.8795 14.6527 5.00286 13.7929 5.00286 11.9435C5.00286 10.0941 6.01175 9.27507 8.99684 9.27507C12.5525 9.27507 13.0777 10.739 13.0777 12.5031H17.5591C17.5591 12.5031 17.8199 12.5031 17.8199 12.2474C17.8199 7.33675 15.3184 5.39844 9.00062 5.39844C3.46497 5.40214 0.306066 7.4257 0.306066 11.9027C0.306066 15.8201 2.05934 17.625 8.38093 18.1439C12.7679 18.4886 13.516 19.3076 13.516 21.2867C13.516 23.0953 12.8586 23.9996 9.08375 23.9996C5.52809 23.9996 4.6968 23.1398 4.6968 20.816H0.260723C0.260723 20.816 0 20.816 0 21.0717C0 25.3783 1.93086 27.8762 9.08375 27.8762C17.5516 27.8762 18.2544 24.6927 18.2544 21.2904V21.283Z" fill="currentColor"></path><path class="logo-letter" d="M121.757 21.9112V9.87729H126.321L126.333 6.1452C126.333 6.1452 126.333 5.88577 126.072 5.88577H121.742V4.17353C121.742 4.17353 121.742 4.16982 121.742 4.16611V0.263537C121.742 0.263537 121.742 0.0078125 121.481 0.0078125H117.29C117.29 0.0078125 117.03 0.0078125 117.03 0.263537V5.88947H113.198C113.198 5.88947 112.938 5.88947 112.938 6.1489V7.85373V9.8847L117.033 9.87729V21.8667C117.033 25.8916 118.333 27.904 122.433 27.904C123.654 27.904 125.456 27.689 126.329 27.4333V23.9051C126.329 23.805 126.238 23.7235 126.076 23.7605C125.868 23.8087 124.783 24.0459 123.797 24.0459C122.312 24.0459 121.745 23.2343 121.745 21.9037L121.757 21.9112Z" fill="currentColor"></path><path class="logo-letter" d="M110.031 22.9476V13.3042C110.031 7.82285 108.327 5.55469 103.263 5.55469C100.354 5.55469 98.8349 6.24033 96.6093 7.4893V6.14767C96.6093 6.14767 96.6093 5.89195 96.3486 5.89195H92.1279C92.1279 5.89195 91.8672 5.89195 91.8672 6.14767V27.143C91.8672 27.143 91.8672 27.3987 92.1279 27.3987H96.3486C96.3486 27.3987 96.6093 27.3987 96.6093 27.143V11.7958C98.0905 10.5246 100.044 9.40908 101.605 9.40908C104.095 9.40908 105.315 10.2207 105.315 13.3042V19.475C105.304 19.5046 105.289 19.5269 105.289 19.5639V27.143C105.289 27.143 105.289 27.3987 105.549 27.3987H109.77C109.77 27.3987 110.031 27.3987 110.031 27.143V22.9476Z" fill="currentColor"></path><path class="logo-letter" d="M73.7656 15.0013H82.7209C82.9816 15.0013 82.9816 14.7455 82.9816 14.7455C82.9816 11.0394 82.6302 9.27527 78.5039 9.27527C74.3777 9.27527 73.7656 10.8689 73.7656 14.9976V15.0013ZM78.5039 23.9961C82.0596 23.9961 84.1643 23.7367 86.4088 23.3512C86.6657 23.3068 86.6657 23.5625 86.6657 23.5625V27.0944C84.3834 27.5244 81.882 27.869 78.81 27.869C72.3599 27.869 69.0234 25.8047 69.0234 17.7549V15.5164C69.0234 7.7261 72.3146 5.40234 78.5002 5.40234C84.6857 5.40234 87.7162 7.64086 87.7162 15.5164V18.2701H74.0225C73.7618 18.2701 73.7618 18.5258 73.7618 18.5258C73.7618 22.5766 74.816 23.9961 78.5002 23.9961H78.5039Z" fill="currentColor"></path></svg>