<?xml version="1.0" encoding="utf-8"?>
<!-- Generator: Adobe Illustrator 25.4.1, SVG Export Plug-In . SVG Version: 6.00 Build 0)  -->
<svg version="1.1" xmlns="http://www.w3.org/2000/svg" xmlns:xlink="http://www.w3.org/1999/xlink" x="0px" y="0px"
	 viewBox="0 0 186.74 81.46" style="enable-background:new 0 0 186.74 81.46;" xml:space="preserve">
<style type="text/css">
	.st0{fill:none;}
	.st1{fill:#0F1E5A;}
	.st2{fill:#FFFFFF;}
	.st3{fill:#CC0000;}
</style>
<g id="espace_x5F_protection">
	<rect x="-53.14" y="-27.3" class="st0" width="691.85" height="335.97"/>
</g>
<g id="Logo_x5F_Spie">
	<g>
		<path class="st1" d="M86.83,64.83c4.98,0,9.56-3.2,9.56-8.24c0-5.11-3.86-8.58-9.55-8.58h-3.25c-7.65,0-13.92,5.86-13.92,14.32
			v18.13H56.61V62.38c0-10.1,10.32-18.08,22.75-18.08h9.12c9.37,0,20.71,3.04,20.71,12.29c0,9.43-10.38,12.29-20.71,12.29H71.2
			v-4.05H86.83z"/>
		<rect x="118.8" y="44.3" class="st1" width="13.04" height="36.16"/>
		<path class="st1" d="M178.33,64.21h-22.55c0.91,6.86,6.3,11.99,12.65,11.99h16.92v4.1h-20.6c-12.44,0-22.77-7.98-22.77-18.08
			c0-10.1,10.32-18.08,22.76-18.08h20.6v4.01h-16.93c-6.38,0-11.79,5.18-12.66,12.08h22.56V64.21z"/>
		<path class="st1" d="M15.51,52.41c0,1.45,1.74,2.76,4.83,3.6c3.12,0.85,7.04,1.83,11.06,2.81c7.94,1.92,16.3,4.49,16.3,10.44
			c0,6.67-12.01,11.2-28.33,11.2c-5.98,0-11.67-0.58-17.44-2.23l1.84-3.25c5.25,1.93,12.73,2.3,18.25,2.3
			c6.69,0,12.12-2.13,12.12-5.23c0-1.78-1.77-3.29-4.73-4.07c-3.03-0.8-6.9-1.79-10.84-2.68c-7.78-1.75-15.99-4.04-15.99-10.3
			c0-6.01,8.69-10.71,24.73-10.71c5.05,0,12.42,0.66,17.14,2.54l-2.08,2.6c-4.88-1.39-10.42-1.91-15.48-1.91
			C18.45,47.51,15.51,49.88,15.51,52.41z"/>
	</g>
	<g>
		<g>
			
				<ellipse transform="matrix(0.1613 -0.9869 0.9869 0.1613 86.145 139.7857)" class="st2" cx="125.32" cy="19.21" rx="17.94" ry="17.94"/>
			<path class="st2" d="M125.32,19.21"/>
		</g>
		<path class="st3" d="M107.38,19.21c0-9.91,8.03-17.94,17.94-17.94c8.13,0,14.99,5.4,17.2,12.81c-1.41-2.09-3.05-4-4.89-5.7
			c-0.35,0.14-0.71,0.3-1.09,0.46c2.4,1.87,4.53,4.09,6.32,6.56c0.21,0.96,0.34,1.96,0.39,2.97c-2.35-3.36-5.57-6.36-8.96-8.48
			c-0.5,0.25-1.01,0.52-1.52,0.8c3.96,1.99,7.73,5.04,10.5,8.6c0,0.78-0.06,1.54-0.16,2.3c-3.39-4.19-7.89-7.43-13.05-9.28
			c-0.64,0.41-1.29,0.86-1.94,1.33c5.82,1.42,10.95,4.57,14.85,8.87c-0.13,0.68-0.29,1.34-0.49,1.99
			c-4.54-4.64-10.62-7.73-17.43-8.43c-0.74,0.65-1.47,1.33-2.19,2.07l0.29,0c7.31,0,13.97,2.77,19,7.32
			c-0.24,0.64-0.51,1.27-0.82,1.87c-4.69-3.8-10.65-6.07-17.15-6.07c-1.48,0-2.92,0.12-4.33,0.34c-0.7,0.91-1.37,1.87-2.01,2.88
			c2.34-0.66,4.82-1.01,7.37-1.01c5.79,0,11.14,1.81,15.55,4.9c-0.38,0.64-0.81,1.26-1.26,1.85c-3.89-2.3-8.42-3.62-13.26-3.62
			c-3.85,0-7.5,0.83-10.79,2.33c-0.5,1.11-0.96,2.27-1.38,3.48c3.87-2.28,8.38-3.6,13.19-3.6c4.03,0,7.85,0.92,11.26,2.56
			c-3.28,3.55-7.97,5.77-13.18,5.77C115.41,37.15,107.38,29.12,107.38,19.21z"/>
	</g>
</g>
</svg>
