<?xml version="1.0" encoding="UTF-8"?>
<svg id="Ebene_2" data-name="Ebene 2" xmlns="http://www.w3.org/2000/svg" viewBox="0 0 1193.3 474.9">
  <defs>
    <style>
      .cls-1 {
        fill: #003cb4;
      }

      .cls-1, .cls-2 {
        stroke-width: 0px;
      }

      .cls-2 {
        fill: none;
      }
    </style>
  </defs>
  <g id="Ebene_1-2" data-name="Ebene 1">
    <path class="cls-1" d="M0,474.9h278.8V196.2H0v278.7ZM267.4,463.5H11.4V207.5h256v256Z"/>
    <rect class="cls-2" x=".3" width="1193" height="474.7"/>
    <polyline class="cls-1" points="247.7 231.6 142.6 231.6 79 335.6 142.6 439.5 247.7 439.5 184.1 335.6 247.7 231.6"/>
    <polyline class="cls-1" points="360.7 312.4 408.8 243.2 362.3 243.2 362.3 231.5 424.1 231.5 424.1 243.5 376.1 312.6 424.9 312.6 424.9 324.4 360.7 324.4 360.7 312.4"/>
    <path class="cls-1" d="M498.3,324.4h-12.1v-10.8h-.3c-3.7,7.7-12.8,12.4-22.2,12.4-17.6,0-25.4-10.9-25.4-29.1v-40.3h12.5v35.1c0,15.8,3.5,23.5,14.4,24.2,14.2,0,20.6-11.4,20.6-27.9v-31.4h12.5v67.8M451.2,232.8h12.5v13.3h-12.5v-13.3ZM473.1,232.8h12.5v13.3h-12.5v-13.3Z"/>
    <path class="cls-1" d="M516.9,256.5h11.7v10.5h.3c3.3-7,10.5-12.1,17.7-12.1s5.6.4,8.2.9v11.2c-2.3-.9-4.8-1.2-6.9-1.2-11.2,0-18.5,10.6-18.5,27.7v30.9h-12.5v-67.9"/>
    <path class="cls-1" d="M609.1,268c-4.8-2-9.6-2.9-13.6-2.9-14,0-21.8,12.5-21.8,25.4s6.5,25.4,22.6,25.4,9.6-1.3,13.4-3.9l.9,11.2c-5.2,2.4-11.2,2.8-15.7,2.8-20.5,0-34.6-16.1-34.6-35.5s13.8-35.5,34.6-35.5,11.6,1.2,15.2,2.7l-1,10.3"/>
    <path class="cls-1" d="M622.4,224.6h12.5v41.6h.3c4.5-7.2,12.4-11.3,21.8-11.3,17.6,0,25.4,10.9,25.4,29.1v40.3h-12.5v-35.1c0-15.8-3.5-23.5-14.4-24.2-14.2,0-20.6,11.4-20.6,27.9v31.4h-12.5v-99.7"/>
    <path class="cls-1" d="M753,321.6c-4.8,1.7-10.3,4.4-21.4,4.4-24.1,0-35.1-14.6-35.1-36.7s12.6-34.3,31.8-34.3,29.9,16.5,29.9,38.3h-48.4c0,13.4,10.5,22.6,22.4,22.6s17.8-4.3,20.9-6.8v12.5M744.9,283.9c0-10.4-6.1-18.9-16.9-18.9s-17.3,10.1-18.2,18.9h35.1Z"/>
    <path class="cls-1" d="M772.3,256.5h11.7v10.5h.3c3.3-7,10.5-12.1,17.7-12.1s5.6.4,8.3.9v11.2c-2.3-.9-4.8-1.2-6.9-1.2-11.2,0-18.5,10.6-18.5,27.7v30.9h-12.5v-67.9"/>
    <polyline class="cls-1" points="360.9 346.8 374.2 346.8 374.2 387.6 413.9 346.8 431.6 346.8 387.9 390.7 435 439.6 415.6 439.6 374.2 394.1 374.2 439.6 360.9 439.6 360.9 346.8"/>
    <path class="cls-1" d="M448.1,376.6c6.2-3.7,13.7-6.4,22.3-6.4,19.4,0,27.3,9.6,27.3,28.1v28.1c0,7.7.3,11.3.5,13.3h-11.7v-8.8h-.3c-2.9,4.1-9.6,10.4-21,10.4s-24.9-6.4-24.9-21.1,18.6-22.3,31.5-22.3,8.4,0,13.3.3c0-11.7-4.2-17.7-16.7-17.7s-14.6,2.7-19.7,6.9l-.6-10.8M485.2,407.3c-2.7,0-5.3-.3-8-.3-6.8,0-23.5,1.1-23.5,13s6.9,11,12.6,11c12.4,0,18.9-7.7,18.9-17.8v-5.9Z"/>
    <path class="cls-1" d="M515.9,371.8h12.1v10.8h.3c3.7-7.7,12.8-12.4,22.2-12.4,17.6,0,25.4,10.9,25.4,29.1v40.3h-12.5v-35.1c0-15.8-3.5-23.5-14.4-24.2-14.2,0-20.6,11.4-20.6,27.9v31.4h-12.5v-67.8"/>
    <path class="cls-1" d="M630.3,381.9h-18v37.1c0,7.8,4.8,12.1,10.5,12.1s6.7-1.2,8.5-2.4v10.6c-2.8.8-6.6,1.9-10.6,1.9-12.9,0-20.9-6.1-20.9-19.7v-39.6h-15.3v-10.1h15.3v-15.7l12.5-4v19.7h18v10.1"/>
    <path class="cls-1" d="M673.1,370.2c20.6,0,34.4,14.9,34.4,35.5s-14.1,35.5-34.4,35.5-34.6-16.1-34.6-35.5,13.9-35.5,34.6-35.5M673.1,431.1c14.6,0,21.1-13.3,21.1-25.4s-7.9-25.4-21.1-25.4-21.3,12.5-21.3,25.4c0,12.1,6.5,25.4,21.3,25.4Z"/>
    <path class="cls-1" d="M721.4,371.8h12.1v10.8h.3c3.7-7.7,12.8-12.4,22.2-12.4,17.6,0,25.4,10.9,25.4,29.1v40.3h-12.5v-35.1c0-15.8-3.5-23.5-14.4-24.2-14.2,0-20.6,11.4-20.6,27.9v31.4h-12.5v-67.8"/>
    <path class="cls-1" d="M802.9,376.6c6.3-3.7,13.7-6.4,22.3-6.4,19.4,0,27.3,9.6,27.3,28.1v28.1c0,7.7.3,11.3.5,13.3h-11.7v-8.8h-.3c-2.9,4.1-9.6,10.4-21,10.4s-24.9-6.4-24.9-21.1,18.6-22.3,31.5-22.3,8.4,0,13.3.3c0-11.7-4.3-17.7-16.8-17.7s-14.6,2.7-19.7,6.9l-.5-10.8M840,407.3c-2.7,0-5.3-.3-8-.3-6.8,0-23.5,1.1-23.5,13s6.9,11,12.6,11c12.4,0,18.9-7.7,18.9-17.8v-5.9Z"/>
    <rect class="cls-1" x="872.3" y="339.9" width="12.5" height="99.7"/>
    <path class="cls-1" d="M904.8,339.9h12.5v41.2h.3c3.9-6.2,10.6-10.9,22.5-10.9,19.7,0,29.2,16.1,29.2,34.3s-8.6,36.7-29.1,36.7-19.8-6.1-23.1-11.2h-.3v9.6h-12v-99.7M937.4,380.3c-13.6,0-20.1,12.9-20.1,25.5s5.9,25.3,20,25.3,19-15,18.7-25.7c.3-12.2-5.1-25.1-18.6-25.1Z"/>
    <path class="cls-1" d="M986.3,376.6c6.2-3.7,13.7-6.4,22.3-6.4,19.4,0,27.3,9.6,27.3,28.1v28.1c0,7.7.3,11.3.5,13.3h-11.7v-8.8h-.3c-2.9,4.1-9.6,10.4-21,10.4s-24.9-6.4-24.9-21.1,18.6-22.3,31.5-22.3,8.4,0,13.3.3c0-11.7-4.2-17.7-16.7-17.7s-14.6,2.7-19.7,6.9l-.6-10.8M1023.4,407.3c-2.7,0-5.3-.3-8-.3-6.8,0-23.5,1.1-23.5,13s6.9,11,12.6,11c12.4,0,18.9-7.7,18.9-17.8v-5.9Z"/>
    <path class="cls-1" d="M1054.2,371.8h12.1v10.8h.3c3.7-7.7,12.8-12.4,22.2-12.4,17.6,0,25.4,10.9,25.4,29.1v40.3h-12.5v-35.1c0-15.8-3.5-23.5-14.4-24.2-14.2,0-20.6,11.4-20.6,27.9v31.4h-12.5v-67.8"/>
    <polyline class="cls-1" points="1132.5 339.9 1145 339.9 1145 399.3 1172.2 371.8 1189.3 371.8 1157.8 401.8 1193.3 439.6 1175.3 439.6 1145 404.8 1145 439.6 1132.5 439.6 1132.5 339.9"/>
    <g>
      <polyline class="cls-1" points=".4 54.3 10 54.3 10 82.2 41.9 82.2 41.9 54.3 51.5 54.3 51.5 121.1 41.9 121.1 41.9 90.6 10 90.6 10 121.1 .4 121.1 .4 54.3"/>
      <path class="cls-1" d="M71.2,75.7c4.5-2.7,9.9-4.6,16.1-4.6,14,0,19.6,6.9,19.6,20.2v20.2c0,5.6.2,8.1.4,9.6h-8.4v-6.3h-.2c-2.1,3-6.9,7.5-15.1,7.5s-17.9-4.6-17.9-15.2,13.4-16.1,22.7-16.1,6,0,9.6.2c0-8.4-3.1-12.7-12.1-12.7s-10.5,1.9-14.2,5l-.5-7.8M97.9,97.8c-1.9,0-3.8-.2-5.7-.2-4.9,0-16.9.8-16.9,9.4s5,7.9,9.1,7.9c8.9,0,13.6-5.6,13.6-12.8v-4.3h0Z"/>
      <path class="cls-1" d="M166.1,121.1h-8.7v-7.8h-.2c-2.7,5.6-9.2,8.9-16,8.9-12.6,0-18.3-7.9-18.3-21v-29h9v25.3c0,11.4,2.5,16.9,10.3,17.4,10.2,0,14.8-8.2,14.8-20.1v-22.6h9v48.9"/>
      <path class="cls-1" d="M182.2,72.3h8.6v6.9h.2c2.4-3.6,7.9-8,16.6-8,14.2,0,21.1,11.6,21.1,24.7s-6.2,26.4-21,26.4-13.5-3.4-16.3-7.9h-.2v26.8h-9v-68.9M205.7,78.4c-9.8,0-14.5,9.3-14.5,18.4s4.2,18.2,14.4,18.2,13.7-10.8,13.5-18.5c.2-8.8-3.7-18.1-13.4-18.1Z"/>
      <path class="cls-1" d="M267.4,79.5h-12.9v26.7c0,5.6,3.4,8.7,7.6,8.7s4.8-.9,6.1-1.7v7.7c-2,.6-4.8,1.3-7.7,1.3-9.3,0-15-4.4-15-14.2v-28.5h-11v-7.3h11v-11.3l9-2.9v14.2h12.9v7.3"/>
      <path class="cls-1" d="M280.3,111.5c3.5,2.3,8.6,3.4,11.2,3.4,4.1,0,9.2-1.7,9.2-7,0-8.9-21.2-8.1-21.2-21.8s7.6-15,17.2-15,7.7.9,11.2,1.9l-.8,7.9c-2-1.2-7.4-2.5-9.5-2.5-4.6,0-8.6,1.9-8.6,5.9,0,10,21.2,7.1,21.2,22.7s-8.3,15.2-17,15.2-9.3-.5-13.4-2.7l.5-8"/>
      <path class="cls-1" d="M322.7,72.3h8.6v6.9h.2c2.4-3.6,7.9-8,16.6-8,14.2,0,21.1,11.6,21.1,24.7s-6.2,26.4-21,26.4-13.5-3.4-16.3-7.9h-.2v26.8h-9v-68.9M346.2,78.4c-9.8,0-14.5,9.3-14.5,18.4s4.2,18.2,14.4,18.2,13.7-10.8,13.5-18.5c.2-8.8-3.6-18.1-13.4-18.1Z"/>
      <path class="cls-1" d="M406.3,71.1c14.8,0,24.8,10.7,24.8,25.6s-10.2,25.6-24.8,25.6-24.9-11.6-24.9-25.6,10-25.6,24.9-25.6M406.3,115c10.5,0,15.2-9.6,15.2-18.3s-5.6-18.3-15.2-18.3-15.3,9-15.3,18.3,4.7,18.3,15.3,18.3Z"/>
      <path class="cls-1" d="M445.5,72.3h8.7v7.8h.2c2.7-5.6,9.2-8.9,16-8.9,12.6,0,18.3,7.9,18.3,21v29h-9v-25.3c0-11.4-2.5-16.9-10.3-17.4-10.2,0-14.8,8.2-14.8,20.1v22.6h-9v-48.9"/>
      <path class="cls-1" d="M502.6,111.5c3.5,2.3,8.6,3.4,11.2,3.4,4.1,0,9.2-1.7,9.2-7,0-8.9-21.2-8.1-21.2-21.8s7.6-15,17.2-15,7.7.9,11.2,1.9l-.8,7.9c-2-1.2-7.4-2.5-9.5-2.5-4.6,0-8.6,1.9-8.6,5.9,0,10,21.2,7.1,21.2,22.7s-8.3,15.2-17,15.2-9.3-.5-13.4-2.7l.5-8"/>
      <path class="cls-1" d="M567.4,71.1c14.8,0,24.8,10.7,24.8,25.6s-10.1,25.6-24.8,25.6-24.9-11.6-24.9-25.6,10-25.6,24.9-25.6M567.4,115c10.5,0,15.2-9.6,15.2-18.3s-5.6-18.3-15.2-18.3-15.3,9-15.3,18.3,4.7,18.3,15.3,18.3Z"/>
      <path class="cls-1" d="M606.6,72.3h8.4v7.6h.2c2.4-5.1,7.6-8.7,12.7-8.7s4,.3,5.9.7v8c-1.6-.7-3.5-.9-5-.9-8,0-13.3,7.7-13.3,19.9v22.2h-9v-48.8"/>
      <path class="cls-1" d="M647.1,51.2h10.1v10.1h-10.1v-10.1ZM647.7,72.3h9v48.8h-9v-48.8Z"/>
      <path class="cls-1" d="M675.8,72.3h8.7v7.8h.2c2.7-5.6,9.2-8.9,16-8.9,12.6,0,18.3,7.9,18.3,21v29h-9v-25.3c0-11.4-2.5-16.9-10.3-17.4-10.2,0-14.8,8.2-14.8,20.1v22.6h-9v-48.9"/>
    </g>
  </g>
</svg>