<svg height="94.562" viewBox="0 0 330.319 94.562" width="330.319" xmlns="http://www.w3.org/2000/svg" xmlns:xlink="http://www.w3.org/1999/xlink">
<defs>
<clippath id="clip-path">
<rect data-name="Rechteck 3" fill="none" height="94.562" id="Rechteck_3" width="330.319"></rect>
</clippath>
</defs>
<g data-name="Gruppe 2" id="Gruppe_2" transform="translate(0 0)">
<g clip-path="url(#clip-path)" data-name="Gruppe 1" id="Gruppe_1" transform="translate(0 0)">
<path d="M63.185,45.093c3.339,18.249-8.111,38.123-22.67,49.4,10.823-4.054,22.523-10.9,33.593-20.188,28.07-23.553,41.448-53.82,29.882-67.6a17.645,17.645,0,0,0-7.577-5.165C79.991,7.856,59.928,27.3,63.185,45.093" data-name="Pfad 1" fill="#009a62" id="Pfad_1" transform="translate(1.819 0.069)"></path>
<path d="M48.654,46.7C48.825,30.9,67.268,9.849,91.469.137c-15.22-1.36-37.36,7.481-57.427,24.32C5.972,48.01-7.406,78.278,4.16,92.062c.083.1.177.184.261.28C19.314,93.524,48.368,73.375,48.654,46.7" data-name="Pfad 2" fill="#1e5faa" id="Pfad_2" transform="translate(0 0)"></path>
<path d="M135.84,61.218c-4.513,0-7.94-.96-10.865-3.928l3.761-3.761c1.881,1.88,4.429,2.507,7.188,2.507,3.426,0,5.265-1.295,5.265-3.678a3.314,3.314,0,0,0-.919-2.507,4.436,4.436,0,0,0-2.632-1.045l-3.594-.5a10.107,10.107,0,0,1-5.767-2.466,7.862,7.862,0,0,1-2.13-5.85c0-5.308,3.928-9.027,10.363-9.027,4.095,0,7.062,1,9.611,3.469l-3.677,3.635a8.279,8.279,0,0,0-6.1-2.047c-3.092,0-4.6,1.713-4.6,3.761a2.867,2.867,0,0,0,.877,2.131,5.118,5.118,0,0,0,2.759,1.171l3.51.5a9.834,9.834,0,0,1,5.683,2.3,8.332,8.332,0,0,1,2.3,6.31c0,5.767-4.805,9.026-11.032,9.026" data-name="Pfad 3" id="Pfad_3" transform="translate(5.61 1.39)"></path>
<path d="M174.708,49.758h-5.726v11.2h-5.809V31.2h11.535c6.142,0,9.819,4.22,9.819,9.278s-3.677,9.277-9.819,9.277m-.293-13.373h-5.433v8.149h5.433c2.632,0,4.3-1.63,4.3-4.053a3.962,3.962,0,0,0-4.3-4.1" data-name="Pfad 4" id="Pfad_4" transform="translate(7.325 1.401)"></path>
<rect data-name="Rechteck 1" height="29.754" id="Rechteck_1" transform="translate(209.284 32.605)" width="5.809"></rect>
<path d="M235.953,36.385V60.958h-5.81V36.385h-7.772V31.2h21.353v5.182Z" data-name="Pfad 5" id="Pfad_5" transform="translate(9.983 1.401)"></path>
<path d="M259.332,60.957V31.2h19.6v5.182H265.14v6.979h11.742v5.183H265.14v7.23H278.93v5.182Z" data-name="Pfad 6" id="Pfad_6" transform="translate(11.642 1.401)"></path>
<path d="M310.548,60.957l-5.768-10.364-5.724,10.364h-6.644L301.646,45.7,293,31.2h6.6l5.182,9.612L310,31.2h6.561l-8.65,14.5,9.277,15.253Z" data-name="Pfad 7" id="Pfad_7" transform="translate(13.127 1.401)"></path>
<rect data-name="Rechteck 2" height="0.836" id="Rechteck_2" transform="translate(131.817 24.261)" width="198.447"></rect>
<path d="M129.908,16.882a3.539,3.539,0,0,1-3.733-3.628V6.074h1.144v7.089a2.6,2.6,0,1,0,5.193,0V6.074h1.143v7.179a3.55,3.55,0,0,1-3.747,3.628M127.772,3.576h1.084v1.34h-1.084Zm3.19,0h1.084v1.34h-1.084Z" data-name="Pfad 8" id="Pfad_8" transform="translate(5.664 0.161)"></path>
<path d="M141.309,16.126a2.573,2.573,0,0,1-1.806.648,2.372,2.372,0,0,1-2.092-.978v.887h-1.084V5.968h1.084v4.169a2.38,2.38,0,0,1,2.092-.949,2.573,2.573,0,0,1,1.806.648,4.416,4.416,0,0,1,.9,3.145,4.416,4.416,0,0,1-.9,3.145m-2.031-5.975c-1.61,0-1.866,1.384-1.866,2.83s.256,2.83,1.866,2.83,1.85-1.384,1.85-2.83-.24-2.83-1.85-2.83" data-name="Pfad 9" id="Pfad_9" transform="translate(6.12 0.268)"></path>
<path d="M145.231,13.129c0,1.626.767,2.558,2.182,2.558a2.43,2.43,0,0,0,1.941-.842l.738.647a3.394,3.394,0,0,1-2.709,1.144c-1.957,0-3.235-1.174-3.235-3.793,0-2.393,1.158-3.794,3.04-3.794,1.911,0,3.041,1.386,3.041,3.583v.5Zm3.686-2.048a1.9,1.9,0,0,0-3.462,0,3.115,3.115,0,0,0-.225,1.235h3.913a3.132,3.132,0,0,0-.227-1.235" data-name="Pfad 10" id="Pfad_10" transform="translate(6.471 0.406)"></path>
<path d="M156.667,10.555a1.552,1.552,0,0,0-1.28-.542A1.809,1.809,0,0,0,153.611,12v4.545h-1.084V9.14h1.084v.9a2.488,2.488,0,0,1,2.077-.993,2.282,2.282,0,0,1,1.776.692Z" data-name="Pfad 11" id="Pfad_11" transform="translate(6.847 0.406)"></path>
<path d="M163.031,16.546v-.707a2.6,2.6,0,0,1-2.138.8,2.634,2.634,0,0,1-2.092-.678,2.128,2.128,0,0,1-.557-1.5c0-1.3.9-2.139,2.559-2.139h2.228v-.706c0-1.084-.542-1.626-1.9-1.626a1.945,1.945,0,0,0-1.867.843l-.738-.678a2.874,2.874,0,0,1,2.62-1.1c1.987,0,2.965.859,2.965,2.468v5.029Zm0-3.418h-2.077c-1.114,0-1.655.452-1.655,1.31s.527,1.264,1.7,1.264a2.163,2.163,0,0,0,1.656-.5,1.709,1.709,0,0,0,.376-1.28Z" data-name="Pfad 12" id="Pfad_12" transform="translate(7.104 0.406)"></path>
<path d="M168.592,16.683a1.765,1.765,0,0,1-1.882-1.972V5.967h1.084v8.7c0,.722.241,1.084.994,1.084h.587v.933Z" data-name="Pfad 13" id="Pfad_13" transform="translate(7.484 0.268)"></path>
<path d="M173.229,16.683a1.765,1.765,0,0,1-1.882-1.972V5.967h1.084v8.7c0,.722.241,1.084.994,1.084h.587v.933Z" data-name="Pfad 14" id="Pfad_14" transform="translate(7.692 0.268)"></path>
<path d="M181.313,10.153v6.532H180.23V10.153h-.948V9.325h.948v-1.4a1.8,1.8,0,0,1,1.882-1.986h.783v.933h-.587c-.693,0-.994.406-.994,1.084v1.37h1.581v.828Z" data-name="Pfad 15" id="Pfad_15" transform="translate(8.048 0.267)"></path>
<path d="M189.524,16.67v-.828a2.715,2.715,0,0,1-2.092.918,2.629,2.629,0,0,1-1.911-.693,2.76,2.76,0,0,1-.753-2.077V9.265h1.084v4.56c0,1.31.693,1.973,1.807,1.973a1.752,1.752,0,0,0,1.85-1.973V9.265h1.084V16.67Zm-4-10.4H186.6V7.61h-1.084Zm3.19,0h1.084V7.61h-1.084Z" data-name="Pfad 16" id="Pfad_16" transform="translate(8.295 0.282)"></path>
<path d="M197.432,10.555a1.549,1.549,0,0,0-1.28-.542A1.808,1.808,0,0,0,194.377,12v4.545h-1.084V9.14h1.084v.9a2.486,2.486,0,0,1,2.076-.993,2.282,2.282,0,0,1,1.777.692Z" data-name="Pfad 17" id="Pfad_17" transform="translate(8.677 0.406)"></path>
<path d="M207.886,16.546v-.707a2.6,2.6,0,0,1-2.138.8,2.634,2.634,0,0,1-2.092-.678,2.128,2.128,0,0,1-.557-1.5c0-1.3.9-2.139,2.559-2.139h2.228v-.706c0-1.084-.542-1.626-1.9-1.626a1.945,1.945,0,0,0-1.867.843l-.738-.678a2.874,2.874,0,0,1,2.62-1.1c1.987,0,2.965.859,2.965,2.468v5.029Zm0-3.418h-2.077c-1.114,0-1.655.452-1.655,1.31s.527,1.264,1.7,1.264a2.163,2.163,0,0,0,1.656-.5,1.709,1.709,0,0,0,.376-1.28Z" data-name="Pfad 18" id="Pfad_18" transform="translate(9.117 0.406)"></path>
<path d="M213.448,16.683a1.765,1.765,0,0,1-1.882-1.972V5.967h1.084v8.7c0,.722.241,1.084.994,1.084h.587v.933Z" data-name="Pfad 19" id="Pfad_19" transform="translate(9.497 0.268)"></path>
<path d="M218.084,16.683a1.765,1.765,0,0,1-1.882-1.972V5.967h1.084v8.7c0,.722.241,1.084.994,1.084h.587v.933Z" data-name="Pfad 20" id="Pfad_20" transform="translate(9.706 0.268)"></path>
<path d="M221.2,13.129c0,1.626.767,2.558,2.183,2.558a2.432,2.432,0,0,0,1.941-.842l.737.647a3.393,3.393,0,0,1-2.709,1.144c-1.956,0-3.235-1.174-3.235-3.793,0-2.393,1.159-3.794,3.041-3.794,1.911,0,3.04,1.386,3.04,3.583v.5Zm3.687-2.048a1.9,1.9,0,0,0-3.462,0,3.117,3.117,0,0,0-.226,1.235h3.913a3.133,3.133,0,0,0-.226-1.235" data-name="Pfad 21" id="Pfad_21" transform="translate(9.881 0.406)"></path>
<path d="M251.586,88.655l-3.825-6.772-1.923,2.3v4.473h-2.906V73.773h2.906v6.479l5.246-6.479h3.532l-4.932,5.915,5.287,8.967Z" data-name="Pfad 22" fill="#009a62" id="Pfad_22" transform="translate(10.906 3.312)"></path>
<path d="M264.947,80.567a1.817,1.817,0,0,0-3.2,1.358v6.564h-2.717V77.6h2.655v1.046a3.687,3.687,0,0,1,2.738-1.171A3.284,3.284,0,0,1,267,78.5Z" data-name="Pfad 23" fill="#009a62" id="Pfad_23" transform="translate(11.628 3.478)"></path>
<path d="M271.091,73.693h2.78v2.216h-2.78Zm.042,4.075h2.718v10.89h-2.718Z" data-name="Pfad 24" fill="#009a62" id="Pfad_24" transform="translate(12.17 3.308)"></path>
<path d="M281.787,83.891a2.249,2.249,0,0,0,2.383,2.424,3.013,3.013,0,0,0,2.466-1.024l1.651,1.609a5.182,5.182,0,0,1-4.138,1.715c-2.572,0-5.037-1.17-5.037-5.581,0-3.554,1.923-5.561,4.745-5.561,3.03,0,4.745,2.216,4.745,5.206v1.212Zm3.888-3.031a2.029,2.029,0,0,0-3.636,0,2.985,2.985,0,0,0-.252,1.171h4.139a3,3,0,0,0-.251-1.171" data-name="Pfad 25" fill="#009a62" id="Pfad_25" transform="translate(12.53 3.478)"></path>
<path d="M299.925,88.489V81.905a1.816,1.816,0,1,0-3.616,0v6.584h-2.718V77.6h2.655v1a3.728,3.728,0,0,1,2.718-1.129,3.536,3.536,0,0,1,2.57.961,4.032,4.032,0,0,1,1.109,3.093v6.961Z" data-name="Pfad 26" fill="#009a62" id="Pfad_26" transform="translate(13.18 3.478)"></path>
<path d="M311.671,88.615a5.916,5.916,0,0,1-4.639-1.567l1.776-1.777a3.954,3.954,0,0,0,2.9,1.024c.94,0,1.924-.313,1.924-1.128,0-.543-.293-.92-1.15-1L310.773,84c-1.964-.188-3.176-1.045-3.176-3.052,0-2.257,1.985-3.47,4.2-3.47a5.784,5.784,0,0,1,4.16,1.276l-1.672,1.693a3.788,3.788,0,0,0-2.53-.731c-1.087,0-1.546.5-1.546,1.046,0,.4.167.856,1.128.939l1.714.168c2.154.209,3.24,1.358,3.24,3.2,0,2.4-2.048,3.554-4.619,3.554" data-name="Pfad 27" fill="#009a62" id="Pfad_27" transform="translate(13.783 3.478)"></path>
</g>
</g>
</svg>