<svg xmlns="http://www.w3.org/2000/svg" width="40" height="28" viewBox="0 0 40 28" fill="none"><path d="M19.9994 0.952393C8.95377 0.952393 0 6.79443 0 14.0007C0 21.207 8.95377 27.0478 19.9994 27.0478C31.045 27.0478 40 21.2057 40 14.0007C40 6.79571 31.045 0.952393 19.9994 0.952393ZM19.9994 21.4467C18.3562 21.4467 17.0165 18.184 16.9305 14.0772C17.9202 14.1678 18.9528 14.2149 19.9994 14.2149C21.0459 14.2149 22.0786 14.1678 23.0695 14.0772C22.9823 18.184 21.6412 21.4467 19.9994 21.4467ZM17.1353 10.8196C17.5827 7.91643 18.6962 5.85986 19.9994 5.85986C21.3025 5.85986 22.4173 7.91643 22.8647 10.8196C21.9484 10.9025 20.989 10.9471 19.9994 10.9471C19.0097 10.9471 18.0516 10.8974 17.1353 10.8196ZM19.9994 2.84194C17.8507 2.84194 16.0255 6.08044 15.3506 10.599C11.2832 9.96153 8.44314 8.50293 8.44314 6.80973C8.44314 4.52239 13.6177 2.67364 19.9994 2.67364C26.381 2.67364 31.5556 4.52239 31.5556 6.80973C31.5556 8.50293 28.7168 9.95771 24.6494 10.599C23.9745 6.08044 22.1468 2.84194 19.9994 2.84194ZM2.86789 13.5111C2.86789 11.299 3.71094 9.22713 5.1809 7.44468C5.16404 7.57147 5.1556 7.69926 5.15562 7.82718C5.15562 10.6143 9.29883 12.9858 15.0776 13.8592C15.0776 14.0619 15.0776 14.2659 15.0776 14.4712C15.0776 19.663 16.521 24.0592 18.513 25.5509C9.74374 25.0129 2.86789 19.8224 2.86789 13.5111ZM21.487 25.5458C23.4803 24.0541 24.9237 19.6579 24.9237 14.4661C24.9237 14.2608 24.9237 14.0568 24.9237 13.8541C30.7024 12.9807 34.8456 10.6092 34.8456 7.82208C34.8459 7.69411 34.837 7.56628 34.8191 7.43958C36.2903 9.22458 37.1334 11.2939 37.1334 13.506C37.1321 19.8224 30.255 25.0129 21.487 25.5458Z" fill="#000000"></path></svg>