<svg aria-labelledby="toyotaLogoTitle" height="48" role="img" version="1.1" viewBox="0 0 347.1 250" width="67" xmlns="http://www.w3.org/2000/svg">
<title id="toyotaLogoTitle">Toyota logo</title>
<g fill="#000000">
<path d="M230.6,8.1C214.7,3,195,0,173.6,0c-21.4,0-41.2,3-57,8.1C74.3,21.7,45.4,49.9,45.4,82.4 c0,45.8,57.4,82.9,128.2,82.9c70.8,0,128.2-37.1,128.2-82.9C301.8,49.9,272.8,21.7,230.6,8.1 M173.6,129.7 c-10.6,0-19.2-20.8-19.7-46.9c6.4,0.6,12.9,0.9,19.7,0.9c6.8,0,13.3-0.3,19.7-0.9C192.8,108.9,184.1,129.7,173.6,129.7 M155.2,62.4 c2.9-18.3,10-31.3,18.4-31.3c8.3,0,15.5,13,18.4,31.3c-5.9,0.5-12,0.8-18.4,0.8C167.2,63.2,161.1,62.9,155.2,62.4 M203.2,61 c-4.3-28.8-15.9-49.4-29.6-49.4c-13.7,0-25.3,20.6-29.6,49.4c-26-4.1-44.3-13.3-44.3-24.1c0-14.5,33.1-26.3,73.9-26.3 c40.8,0,73.8,11.8,73.8,26.3C247.4,47.7,229.2,56.9,203.2,61 M64.1,79.4c0-14,5.4-27.2,14.8-38.5c-0.1,0.8-0.2,1.6-0.2,2.4 c0,17.7,26.5,32.7,63.5,38.2c0,1.3-0.1,2.7-0.1,4c0,32.8,9.1,60.7,21.7,70.3C108,152.3,64.1,119.4,64.1,79.4 M183.2,155.7 c12.6-9.6,21.7-37.4,21.7-70.3c0-1.3,0-2.7,0-4c37-5.5,63.5-20.5,63.5-38.2c0-0.8-0.1-1.6-0.2-2.4c9.4,11.3,14.8,24.5,14.8,38.5 C283.1,119.4,239.2,152.3,183.2,155.7"></path>
<g>
<polygon points="49.8,190.3 0,190.3 0,201.4 18.4,201.4 18.4,248.3 31.4,248.3 31.4,201.4 49.8,201.4"></polygon>
<path d="M83.4,188.6c-17,0-30.7,13.7-30.7,30.7c0,16.9,13.7,30.7,30.7,30.7c16.9,0,30.7-13.7,30.7-30.7 C114.1,202.4,100.3,188.6,83.4,188.6 M98.4,228.6c-2,5.1-6.5,8.9-12,9.8c-1,0.2-2,0.3-3,0.3c-1,0-2-0.1-3-0.3c-5.5-1-10-4.8-12-9.8 c-1.1-2.9-1.8-6-1.8-9.3c0-3.3,0.6-6.4,1.8-9.3c2-5.1,6.5-8.9,12-9.8c1-0.2,2-0.3,3-0.3c1,0,2,0.1,3,0.3c5.5,1,10,4.8,12,9.8 c1.1,2.9,1.7,6,1.7,9.3C100.2,222.6,99.5,225.7,98.4,228.6"></path>
<polygon points="114.3,190.3 129.6,190.3 143.9,215.2 158.3,190.3 173.6,190.3 150.5,226.8 150.5,248.3 137.4,248.3 137.4,226.8"></polygon>
<path d="M173.9,219.3c0-16.9,13.7-30.7,30.7-30.7c16.9,0,30.7,13.7,30.7,30.7c0,16.9-13.7,30.7-30.7,30.7 C187.6,250,173.9,236.2,173.9,219.3 M204.6,238.7c1,0,2-0.1,3-0.3c5.5-1,10-4.8,12-9.8c1.1-2.9,1.8-6,1.8-9.3 c0-3.3-0.6-6.4-1.8-9.3c-2-5.1-6.5-8.9-12-9.8c-1-0.2-2-0.3-3-0.3c-1,0-2,0.1-3,0.3c-5.5,1-10,4.8-12,9.8c-1.1,2.9-1.8,6-1.8,9.3 c0,3.3,0.6,6.4,1.8,9.3c2,5.1,6.5,8.9,12,9.8C202.5,238.6,203.5,238.7,204.6,238.7"></path>
<path d="M327.9,235.5l-24.6,0l-4.7,12.7H284l23.5-57.9h16.2l23.5,57.9h-14.5L327.9,235.5L327.9,235.5z M324.1,225.3l-8.5-22.9l-8.5,22.9H324.1z"></path>
<polygon points="287.8,190.3 238.1,190.3 238.1,201.4 256.4,201.4 256.4,248.3 269.5,248.3 269.5,201.4 287.8,201.4"></polygon>
</g>
</g>
</svg>