<?xml version="1.0" encoding="utf-8"?>
<!-- Generator: Adobe Illustrator 26.0.3, SVG Export Plug-In . SVG Version: 6.00 Build 0)  -->
<svg version="1.1" id="Layer_1" xmlns="http://www.w3.org/2000/svg" xmlns:xlink="http://www.w3.org/1999/xlink" x="0px" y="0px"
	 viewBox="0 0 553.79 77.65" style="enable-background:new 0 0 553.79 77.65;" xml:space="preserve">
<style type="text/css">
	.st0{fill:#FFFFFF;}
	.st1{fill:#FF0022;}
	.st2{fill:#231F20;}
</style>
<polygon class="st0" points="249.24,77.65 0,77.65 34.87,0 284.11,0 "/>
<polygon class="st1" points="123.69,74.86 5.23,74.86 37.59,2.79 156.06,2.79 "/>
<polygon points="246.53,74.86 128.06,74.86 160.43,2.79 278.9,2.79 "/>
<polygon class="st0" points="249.24,77.65 0,77.65 34.87,0 284.11,0 "/>
<polygon class="st1" points="123.69,74.86 5.23,74.86 37.59,2.79 156.06,2.79 "/>
<polygon points="246.53,74.86 128.06,74.86 160.43,2.79 278.9,2.79 "/>
<path class="st2" d="M289.95,45.37v-10.8h-2.79v-3.09h2.79v-5.54l3.62-0.49v6h5.42v3.09h-5.42v10.34c0,1.91,0.92,2.86,2.52,2.86
	c1.212-0.053,2.387-0.433,3.4-1.1l0.61,3c-1.422,0.949-3.101,1.44-4.81,1.41C292.05,51.09,289.95,49.22,289.95,45.37z"/>
<path class="st2" d="M301.85,41.09c0-5.8,4.2-10,10.23-10s10.32,4.2,10.32,10s-4.2,10-10.27,10S301.85,46.93,301.85,41.09z
	 M318.61,41.09c-0.055-3.595-3.014-6.464-6.609-6.409c-3.595,0.055-6.464,3.014-6.409,6.609c0.055,3.548,2.94,6.399,6.488,6.41
	c3.442,0.166,6.368-2.489,6.534-5.931C318.625,41.543,318.624,41.316,318.61,41.09L318.61,41.09z"/>
<path class="st2" d="M342.84,31.48l-8.74,21.83c-1.48,3.74-3.62,5.57-7.06,5.57c-0.907,0.004-1.808-0.137-2.67-0.42l0.5-3.21
	c0.501,0.179,1.028,0.27,1.56,0.27c2,0,3.29-0.73,4.39-3.32l1-2.37l-8.05-18.35h4l5.95,14.16l5.31-14.16H342.84z"/>
<path class="st2" d="M344.03,41.09c0-5.8,4.2-10,10.22-10s10.27,4.19,10.27,10s-4.2,10-10.27,10S344.03,46.93,344.03,41.09z
	 M360.78,41.09c-0.055-3.595-3.014-6.464-6.609-6.409c-3.595,0.055-6.464,3.014-6.409,6.609c0.055,3.548,2.94,6.399,6.488,6.41
	c3.442,0.166,6.368-2.489,6.534-5.931C360.795,41.543,360.794,41.316,360.78,41.09z"/>
<path class="st2" d="M370.09,45.37v-10.8h-2.78v-3.09h2.78v-5.54l3.63-0.49v6h5.42v3.09h-5.42v10.34c0,1.91,0.92,2.86,2.52,2.86
	c1.212-0.054,2.386-0.434,3.4-1.1l0.61,3c-1.429,0.971-3.123,1.477-4.85,1.45C372.19,51.09,370.09,49.22,370.09,45.37z"/>
<path class="st2" d="M399.29,38.69v12h-3.63v-3c-1.536,2.253-4.137,3.542-6.86,3.4c-4,0-6.42-2.17-6.42-5.68
	c0-4.43,3.86-6.15,13.28-6.22v-0.42c0-2.79-1.64-4.58-4.92-4.58c-2.225,0.056-4.374,0.816-6.14,2.17l-0.92-3
	c2.291-1.505,4.979-2.295,7.72-2.27C396.24,31.09,399.29,33.5,399.29,38.69z M395.66,43.23v-1.64c-7.21,0.08-9.5,1.15-9.5,3.63
	c0,1.87,1.3,3.09,3.74,3.09C392.54,48.31,395.66,46.82,395.66,43.23z"/>
<path class="st2" d="M423.87,22.01v28.74h-3.63V47.2c-1.381,2.545-4.109,4.062-7,3.89c-5.42,0-9.27-4.16-9.27-10s3.89-10,9.27-10
	c2.867-0.16,5.578,1.315,7,3.81V22L423.87,22.01z M420.4,41.09c0.133-3.532-2.623-6.503-6.155-6.636
	c-0.108-0.004-0.217-0.005-0.325-0.004c-3.67,0-6.22,2.68-6.22,6.68s2.48,6.6,6.18,6.6c3.551,0.052,6.471-2.785,6.523-6.336
	C420.404,41.293,420.403,41.191,420.4,41.09z"/>
<path class="st2" d="M428.68,41.09c0-5.8,4.2-10,10.23-10c6.03,0,10.26,4.19,10.26,10s-4.2,10-10.26,10S428.68,46.93,428.68,41.09z
	 M445.4,41.09c-0.055-3.595-3.014-6.464-6.609-6.409c-3.595,0.055-6.464,3.014-6.409,6.609c0.055,3.552,2.946,6.404,6.498,6.41
	c3.443,0.161,6.364-2.499,6.525-5.942C445.415,41.536,445.413,41.312,445.4,41.09z"/>
<path class="st2" d="M453.98,46.02v-24h3.63v23.43c0,1.72,0.69,2.41,1.83,2.41c0.649-0.016,1.287-0.173,1.87-0.46l0.5,3
	c-1.038,0.487-2.173,0.733-3.32,0.72C455.7,51.09,453.98,49.53,453.98,46.02z"/>
<path class="st2" d="M481.31,38.69v12h-3.63v-3c-1.547,2.241-4.151,3.515-6.87,3.36c-4,0-6.41-2.17-6.41-5.68
	c0-4.43,3.86-6.15,13.28-6.22v-0.42c0-2.79-1.64-4.58-4.92-4.58c-2.225,0.054-4.375,0.814-6.14,2.17l-0.92-3
	c2.29-1.487,4.969-2.263,7.7-2.23C478.25,31.09,481.31,33.5,481.31,38.69z M477.68,43.23v-1.64c-7.21,0.08-9.5,1.15-9.5,3.63
	c0,1.87,1.3,3.09,3.74,3.09C474.55,48.31,477.68,46.82,477.68,43.23L477.68,43.23z"/>
<path class="st2" d="M487.49,22.01h3.63v18.55l8.35-9.08h4.58l-8.65,9.08l9,10.15h-4.73l-8.55-9.92v9.92h-3.63V22.01z"/>
<path class="st2" d="M508.9,48.76c-0.017-1.331,1.049-2.423,2.38-2.44c0.02,0,0.04,0,0.06,0c1.348-0.006,2.444,1.082,2.45,2.43
	c0,0.003,0,0.007,0,0.01c-0.011,1.349-1.101,2.439-2.45,2.45c-1.348,0-2.44-1.092-2.44-2.44C508.9,48.767,508.9,48.763,508.9,48.76z
	"/>
<path class="st2" d="M518.67,41.17c0-6,4.12-10.07,9.93-10.07c2.318-0.02,4.59,0.656,6.52,1.94l-1.14,3.17
	c-1.497-1.127-3.316-1.743-5.19-1.76c-3.78,0-6.34,2.68-6.34,6.64s2.52,6.68,6.22,6.68c2.079-0.053,4.096-0.718,5.8-1.91l0.88,3.1
	c-2.055,1.421-4.502,2.166-7,2.13C522.72,51.09,518.67,47.09,518.67,41.17z"/>
<path class="st2" d="M538.18,49.09l10.22-14.52h-9.8v-3.09h15v1.68l-10,14.46h10.19v3.09h-15.6L538.18,49.09z"/>
</svg>
