<svg xmlns="http://www.w3.org/2000/svg" width="305" height="95" viewBox="0 0 305 95">
  <g id="Group_3" data-name="Group 3" transform="translate(-9.976 -6.569)">
    <g id="Group_1" data-name="Group 1" transform="translate(118.762 28.733)">
      <path id="Path_1" data-name="Path 1" d="M158.843,49.649V43.308c0-4.7,3.588-7.316,7.927-7.316,3.783,0,7.566,1.864,7.566,6.287v.612h-3.5v-.279c0-2.587-2.253-3.337-4.061-3.337-1.891,0-4.255,1-4.255,3.839v6.342c0,2.392,2.058,3.755,4.4,3.755,2.085,0,3.921-1,3.921-3.588v-.473h-5.118V45.811h8.623v4.144c0,4.422-3.643,6.537-7.426,6.537C162.6,56.492,158.843,54.072,158.843,49.649Z" transform="translate(-158.843 -35.992)" fill="#000000"/>
      <path id="Path_2" data-name="Path 2" d="M183.823,52.456V36.435h3.394V52.428A1.07,1.07,0,0,0,188.44,53.6,14.645,14.645,0,0,0,190,53.485v2.587a11.686,11.686,0,0,1-2.727.39C183.907,56.462,183.823,53.736,183.823,52.456Z" transform="translate(-164.991 -36.101)" fill="#000000"/>
      <path id="Path_3" data-name="Path 3" d="M193.6,52.754V49.5c0-3.867,3.282-5.98,6.424-5.98,3.449,0,6.537,2.28,6.537,5.925v2.921c0,3.866-3.283,5.98-6.425,5.98C196.688,58.345,193.6,56.4,193.6,52.754Zm9.512-.084V49.138c0-1.724-1.336-2.726-3.088-2.726a2.716,2.716,0,0,0-2.976,2.81v3.5a2.784,2.784,0,0,0,3.087,2.754A2.716,2.716,0,0,0,203.114,52.67Z" transform="translate(-167.398 -37.845)" fill="#000000"/>
      <path id="Path_4" data-name="Path 4" d="M217.417,54.848h-.084v1.419h-3.254V36.435h3.394v7.232h.027a4.866,4.866,0,0,1,3.922-1.919,5.3,5.3,0,0,1,5.619,5.619v3.449c0,3.867-2.837,5.786-6.007,5.786A4.6,4.6,0,0,1,217.417,54.848Zm6.175-3.922V47.394c0-1.724-1.335-2.726-3.087-2.726a2.943,2.943,0,0,0-3.032,3.032v3.282c0,1.725,1.39,2.754,3.142,2.754A2.716,2.716,0,0,0,223.592,50.927Z" transform="translate(-172.438 -36.101)" fill="#000000"/>
      <path id="Path_5" data-name="Path 5" d="M233.34,53.968c0-2.754,2.5-4.394,5.257-4.394h3.783V48.266c0-1.5-1-2.142-2.726-2.142-1.475,0-2.559.5-2.559,1.419v.5h-3.059v-.389c0-3.116,2.976-4.173,5.646-4.173,3.171,0,6.092,1.057,6.092,4.534v6.926a16.071,16.071,0,0,0,.25,3.06h-3.366c-.056-.222-.112-1.085-.139-1.307h-.056a4.911,4.911,0,0,1-4.172,1.585C235.342,58.28,233.34,56.666,233.34,53.968Zm9.04-1.224v-.7h-3.338c-1.446,0-2.393.5-2.393,1.752,0,1.2.974,1.809,2.559,1.809C241.934,55.61,242.38,54.274,242.38,52.745Z" transform="translate(-177.179 -37.835)" fill="#000000"/>
      <path id="Path_6" data-name="Path 6" d="M254.518,52.456V36.435h3.394V52.428a1.07,1.07,0,0,0,1.224,1.169,14.658,14.658,0,0,0,1.558-.112v2.587a11.681,11.681,0,0,1-2.727.39C254.6,56.462,254.518,53.736,254.518,52.456Z" transform="translate(-182.391 -36.101)" fill="#000000"/>
      <path id="Path_7" data-name="Path 7" d="M274.665,49.649V43.308c0-4.7,3.588-7.316,7.928-7.316,3.782,0,7.565,2.114,7.565,6.537v.612h-3.5v-.278c0-2.587-2.253-3.588-4.06-3.588-1.892,0-4.257,1-4.257,3.839v6.342c0,2.392,2.059,3.755,4.4,3.755,1.809,0,3.922-1,3.922-3.588v-.278h3.5v.612c0,4.422-3.644,6.537-7.427,6.537C278.419,56.492,274.665,54.072,274.665,49.649Z" transform="translate(-187.35 -35.992)" fill="#000000"/>
      <path id="Path_8" data-name="Path 8" d="M297.874,52.754V49.5c0-3.867,3.282-5.98,6.424-5.98,3.451,0,6.538,2.28,6.538,5.925v2.921c0,3.866-3.282,5.98-6.425,5.98C300.962,58.345,297.874,56.4,297.874,52.754Zm9.512-.084V49.138c0-1.724-1.334-2.726-3.088-2.726a2.716,2.716,0,0,0-2.976,2.81v3.5a2.785,2.785,0,0,0,3.088,2.754A2.715,2.715,0,0,0,307.386,52.67Z" transform="translate(-193.062 -37.845)" fill="#000000"/>
      <path id="Path_9" data-name="Path 9" d="M318.315,43.76H321.6v1.725h.056a4.841,4.841,0,0,1,4.033-2,4.489,4.489,0,0,1,4.06,2.114h.029a5.354,5.354,0,0,1,4.394-2.114,4.643,4.643,0,0,1,4.979,5.007V58h-3.394V49.713c0-1.919-.667-3.254-2.587-3.254s-2.726,1.474-2.726,3.337V58h-3.394V49.769c0-1.809-.528-3.31-2.587-3.31-1.2,0-2.754.807-2.754,3.171V58h-3.392Z" transform="translate(-198.093 -37.835)" fill="#000000"/>
      <path id="Path_10" data-name="Path 10" d="M350.786,43.76h3.31V45.4h.026a5.37,5.37,0,0,1,4.006-1.919,5.3,5.3,0,0,1,5.619,5.619V52.55c0,3.867-2.7,5.786-5.869,5.786a4.6,4.6,0,0,1-3.616-1.753h-.084V63.37h-3.392Zm9.512,8.9V49.129c0-1.724-1.335-2.726-3.087-2.726a2.92,2.92,0,0,0-3.032,3v3.31c0,1.725,1.392,2.754,3.144,2.754A2.716,2.716,0,0,0,360.3,52.661Z" transform="translate(-206.085 -37.835)" fill="#000000"/>
      <path id="Path_11" data-name="Path 11" d="M370.046,53.968c0-2.754,2.5-4.394,5.256-4.394h3.784V48.266c0-1.5-1-2.142-2.727-2.142-1.474,0-2.559.5-2.559,1.419v.5h-3.059v-.389c0-3.116,2.977-4.173,5.646-4.173,3.172,0,6.091,1.057,6.091,4.534v6.926a16.2,16.2,0,0,0,.25,3.06h-3.365c-.056-.222-.112-1.085-.139-1.307h-.057A4.911,4.911,0,0,1,375,58.28C372.048,58.28,370.046,56.666,370.046,53.968Zm9.04-1.224v-.7h-3.338c-1.447,0-2.393.5-2.393,1.752,0,1.2.974,1.809,2.559,1.809C378.64,55.61,379.086,54.274,379.086,52.745Z" transform="translate(-210.826 -37.835)" fill="#000000"/>
      <path id="Path_12" data-name="Path 12" d="M389.6,52.531V49.75c0-4.005,3-6.231,6.535-6.231,3.088,0,6.232,1.809,6.232,5.591v.278h-3.31V49.11a2.683,2.683,0,0,0-2.921-2.726,2.768,2.768,0,0,0-3,2.921v3.338a2.816,2.816,0,0,0,3.116,2.865,2.6,2.6,0,0,0,2.809-2.726v-.139h3.31v.139c0,3.783-3.031,5.564-6.119,5.564C392.744,58.345,389.6,56.314,389.6,52.531Z" transform="translate(-215.639 -37.845)" fill="#000000"/>
      <path id="Path_13" data-name="Path 13" d="M409.9,53.319V45.142h-1.919v-2.7H409.9V38.132h3.392v4.311h3.088v2.7h-3.088v7.371c0,1.056.557,1.362,1.336,1.362a9.1,9.1,0,0,0,1.752-.139v2.893a12.709,12.709,0,0,1-2.5.278C411.676,56.907,409.9,55.85,409.9,53.319Z" transform="translate(-220.161 -36.519)" fill="#000000"/>
    </g>
    <g id="Group_2" data-name="Group 2" transform="translate(119.513 61.063)">
      <path id="Path_14" data-name="Path 14" d="M159.84,79.385h1.807l10.765,16.8h.056v-16.8h1.668v19.86h-1.724L161.537,82.194h-.056V99.245H159.84Z" transform="translate(-159.84 -79.023)" fill="#000000"/>
      <path id="Path_15" data-name="Path 15" d="M182.9,95.877v-3c0-3.811,2.476-5.924,5.786-5.924,3.088,0,5.34,1.891,5.34,5.451v2.031H184.6v1.64c0,2.448,1.558,4.005,4.228,4.005a4.614,4.614,0,0,0,3.7-1.78l1.224.779a5.808,5.808,0,0,1-5.034,2.392C185.32,101.468,182.9,99.688,182.9,95.877Zm9.512-2.614v-.946c0-2.17-1.195-4.005-3.866-4.005a3.921,3.921,0,0,0-3.95,4.2v.751Z" transform="translate(-165.516 -80.885)" fill="#000000"/>
      <path id="Path_16" data-name="Path 16" d="M202.091,97.036V87.3h-2.586V85.965h2.586V81.6h1.641v4.366h4.117V87.3h-4.117v9.29c0,1.5.751,1.975,2.17,1.975a8.822,8.822,0,0,0,2.114-.306v1.419a9.7,9.7,0,0,1-2.587.362C203.7,100.04,202.091,99.372,202.091,97.036Z" transform="translate(-169.603 -79.568)" fill="#000000"/>
      <path id="Path_17" data-name="Path 17" d="M211.976,87.355H213.7l3.477,11.821h.028l3.671-11.821h1.586l3.532,11.793h.028l3.588-11.793h1.7l-4.478,13.907h-1.641l-3.533-11.793H221.6l-3.643,11.793h-1.641Z" transform="translate(-172.672 -80.985)" fill="#000000"/>
      <path id="Path_18" data-name="Path 18" d="M239.686,96.155V92.428c0-3.616,2.448-5.479,5.619-5.479,3.421,0,5.618,1.947,5.618,5.451v3.588c0,3.588-2.363,5.479-5.563,5.479C241.967,101.468,239.686,99.66,239.686,96.155Zm9.6-.139V92.262A3.611,3.611,0,0,0,245.3,88.34c-2.614,0-3.978,1.557-3.978,4.032V96.1c0,2.365,1.308,3.977,4.033,3.977C247.975,100.077,249.282,98.659,249.282,96.017Z" transform="translate(-179.492 -80.885)" fill="#000000"/>
      <path id="Path_19" data-name="Path 19" d="M258.431,87.291h1.585v2.948h.054a5.38,5.38,0,0,1,5.147-3.143,5.279,5.279,0,0,1,.973.084v1.53a7.39,7.39,0,0,0-1.28-.083,4.587,4.587,0,0,0-4.84,4.811v7.705h-1.64Z" transform="translate(-184.106 -80.921)" fill="#000000"/>
      <path id="Path_20" data-name="Path 20" d="M271.308,79.385h1.64V92.6l6.593-7.2h2l-4.756,5.089,5.2,8.762h-1.836l-4.507-7.594-2.7,2.837v4.757h-1.64Z" transform="translate(-187.275 -79.023)" fill="#000000"/>
      <path id="Path_21" data-name="Path 21" d="M296.14,92.924V85.831c0-4.06,3.087-6.926,7.371-6.926,4,0,6.926,2.281,6.926,5.674v1.085h-1.669v-.807c0-2.7-2.031-4.367-5.34-4.367a5.2,5.2,0,0,0-5.535,5.368v6.787c0,3.227,2.308,5.285,5.674,5.285,3.282,0,5.313-1.724,5.313-4.423V90.7h-5.563V89.113h7.231v4.645c0,3.533-2.782,5.73-6.981,5.73C299.394,99.488,296.14,97.235,296.14,92.924Z" transform="translate(-193.387 -78.905)" fill="#000000"/>
      <path id="Path_22" data-name="Path 22" d="M319.9,79.385h1.614v8.65h.082a5.15,5.15,0,0,1,4.7-2.976,4.04,4.04,0,0,1,4.311,4.366v9.819h-1.641V90.177c0-2.587-1.28-3.672-3.17-3.672a4.306,4.306,0,0,0-4.284,4.45v8.29H319.9Z" transform="translate(-199.235 -79.023)" fill="#000000"/>
      <path id="Path_23" data-name="Path 23" d="M337.761,97.453c0-3.115,2.863-4.144,5.144-4.144h4.061V91.168c0-2.17-1.446-2.921-3.533-2.921-1.724,0-3.561.612-3.561,2.42v.445h-1.5v-.417c0-2.754,2.559-3.783,5.146-3.783,2.7,0,5.09.973,5.09,3.977v6.731c0,.807.111,2.865.195,3.477h-1.613c-.055-.473-.111-1.781-.111-2.2h-.056a4.777,4.777,0,0,1-4.7,2.5C339.818,101.4,337.761,100.013,337.761,97.453Zm9.206-1.363V94.533h-3.727c-1.892,0-3.839.473-3.839,2.838,0,1.863,1.614,2.753,3.366,2.753C345.549,100.124,346.967,98.482,346.967,96.09Z" transform="translate(-203.631 -80.876)" fill="#000000"/>
      <path id="Path_24" data-name="Path 24" d="M356.651,87.246h1.558v2.642h.056a5.237,5.237,0,0,1,4.784-2.976,4.04,4.04,0,0,1,4.311,4.366V101.1h-1.641V92.03c0-2.587-1.28-3.672-3.17-3.672a4.306,4.306,0,0,0-4.284,4.45v8.29h-1.614Z" transform="translate(-208.281 -80.876)" fill="#000000"/>
      <path id="Path_25" data-name="Path 25" d="M374.511,97.453c0-3.115,2.865-4.144,5.146-4.144h4.061V91.168c0-2.17-1.447-2.921-3.533-2.921-1.726,0-3.561.612-3.561,2.42v.445h-1.5v-.417c0-2.754,2.559-3.783,5.144-3.783,2.7,0,5.09.973,5.09,3.977v6.731c0,.807.112,2.865.2,3.477H383.94c-.056-.473-.112-1.781-.112-2.2h-.054a4.78,4.78,0,0,1-4.7,2.5C376.569,101.4,374.511,100.013,374.511,97.453Zm9.207-1.363V94.533h-3.729c-1.891,0-3.837.473-3.837,2.838,0,1.863,1.613,2.753,3.365,2.753C382.3,100.124,383.718,98.482,383.718,96.09Z" transform="translate(-212.676 -80.876)" fill="#000000"/>
    </g>
    <path id="Path_26" data-name="Path 26" d="M74.178,58.933c-.19-.161-.26-.937-.26-.937a52.342,52.342,0,0,0-3.06-12.066,1.494,1.494,0,0,1-.143-.523c0-.2.1-.383.56-.62A17.414,17.414,0,0,0,76.232,41.4c.2-.2.351-.284.427-.27h.012c.077,0,.208.1.361.359a40.9,40.9,0,0,1,4.152,10.456,4.414,4.414,0,0,1,.152,1.007,1.781,1.781,0,0,1-.672,1.382,32.051,32.051,0,0,1-5.712,4.372c-.047.026-.609.367-.774.224m-1.962,4.649s.015-.71-.235-.875c-.225-.154-.792.074-.792.074a42.209,42.209,0,0,1-12.906,2.293c-.866.058-.818.259-.864.94-.034,4.023-.122,7.821-.227,11.263,0,0-.028.352.1.482.109.108.45.087.45.087a40.872,40.872,0,0,0,12.817-2.881c.586-.252.682-.6.847-1.258a42.608,42.608,0,0,0,.813-10.126M70.449,42.926a19.46,19.46,0,0,0,4.519-3.186.913.913,0,0,0,.32-.659,1.551,1.551,0,0,0-.349-.843,31.089,31.089,0,0,0-8.429-8.028A12.659,12.659,0,0,1,62.7,31.741a48.975,48.975,0,0,1,6.678,10.69c.187.4.311.626.448.66a.887.887,0,0,0,.623-.166M67.306,44.27c.231-.088.377-.15.454-.353a1.2,1.2,0,0,0-.106-.612,54.532,54.532,0,0,0-6.153-11.3,33.526,33.526,0,0,1-4.449.381c.13,4.35.237,8.667.3,12.831,0,.371.068.581.185.677a.747.747,0,0,0,.478.13,31.378,31.378,0,0,0,9.291-1.757m3.073,32.657a.073.073,0,0,0-.09-.08,2.794,2.794,0,0,0-.564.133A42.159,42.159,0,0,1,57.64,78.963c-.389.017-.495.127-.528.588l-.219,3.679a30.837,30.837,0,0,0,11.334-2.281,17.35,17.35,0,0,0,2.03-3.635,1.377,1.377,0,0,0,.122-.388m11.64-20.437c-.016-.1-.1-.006-.1-.006a28.041,28.041,0,0,1-6.6,4.565c-.921.477-1.017.817-1.031,1.612a33.566,33.566,0,0,1-1.5,11.114s-.084.212.185.073a29.426,29.426,0,0,0,7.277-5,6.518,6.518,0,0,0,1.866-3.862,31.166,31.166,0,0,0-.093-8.494m1.426-5.9a13.249,13.249,0,0,0,1.886-5.985,3.393,3.393,0,0,0-.03-.427,23.3,23.3,0,0,0-5.852-10.567,5.647,5.647,0,0,1,.069.937,8.787,8.787,0,0,1-.786,3.529,2.5,2.5,0,0,0-.266.94,1.394,1.394,0,0,0,.25.656,34.7,34.7,0,0,1,4.729,10.919M40.126,59.926a48.828,48.828,0,0,1,3.34-14.18.728.728,0,0,0,.057-.244c-.008-.144-.073-.225-.331-.348a16.7,16.7,0,0,1-6.634-4.936s-.091-.108,0-.191.184.021.184.021a19.861,19.861,0,0,0,6.9,4,.84.84,0,0,0,.28.069c.119,0,.216-.075.415-.492A50.761,50.761,0,0,1,51.512,31.71c-2.36-.572-4.77-1.839-5.369-3.235,0,0-.075-.154.031-.212.133-.067.231.084.231.084C49.03,31.19,56.649,31,56.649,31c3.183,0,9.79-1.114,9.79-3.785,0-2.426-3.5-3.691-9.87-3.773-19.264,0-29.578,16.667-29.578,29.9,0,15.973,13.573,29.893,29.24,29.893-.018-.257-.2-3.75-.2-3.75-.02-.387-.111-.512-.59-.567,0,0-6.837-.524-9.083-1.674-.087-.06-.038-.149.08-.12a62.272,62.272,0,0,0,8.994.792.477.477,0,0,0,.5-.527c0-.494-.2-11.337-.2-11.337-.032-.816-.158-.947-.942-1.014a40.1,40.1,0,0,1-13.43-2.917c-.108-.037-.161-.052-.213-.024-.09.042-.09.215-.09.215a61.127,61.127,0,0,0,.205,9.919c.021.084-.011.127-.09.13s-.111-.086-.111-.086a34.422,34.422,0,0,1-1.082-8.77c0-.228.021-1.5.021-1.5a.714.714,0,0,0-.445-.7,28.026,28.026,0,0,1-5.12-3.333.13.13,0,1,1,.149-.212,32.215,32.215,0,0,0,5.207,2.612l.21.012c.107-.072.106-.223.123-.463M77.083,36.494a6.507,6.507,0,0,0,.06-4.514,8.05,8.05,0,0,0-2.2-2.5A28.188,28.188,0,0,0,68.2,25.731a2.5,2.5,0,0,1,.379,1.3,3.591,3.591,0,0,1-1.031,2.315,33.136,33.136,0,0,1,8.631,7.088s.39.488.61.469c.165-.02.3-.41.3-.41m7.24,22.038a30.2,30.2,0,0,1-.59,5.969,23.969,23.969,0,0,0,3.007-11.829,25.442,25.442,0,0,0-.343-4.182,12.577,12.577,0,0,1-1.573,4.161,3.42,3.42,0,0,0-.681,2.11c.173,2,.18,3.772.18,3.772M71.432,77.221a21.6,21.6,0,0,1-1.823,3.088,32.9,32.9,0,0,0,10.345-8.768,31.15,31.15,0,0,1-7.282,4.34,2.877,2.877,0,0,0-1.24,1.34M55.8,48.728a.852.852,0,0,0-.853-.972,34.924,34.924,0,0,1-9.852-1.847,1.212,1.212,0,0,0-.321-.084c-.1.01-.17.044-.259.287A55.182,55.182,0,0,0,41.205,60.5c-.03.35.06.418.3.527a41.462,41.462,0,0,0,13.338,2.226s.518-.016.657-.151c.191-.189.212-.333.2-.932.023-3.689.093-13.439.093-13.439m-10.449-4.74c-.182.4-.1.519-.1.519a.352.352,0,0,0,.177.128A36.962,36.962,0,0,0,55,46.092a.926.926,0,0,0,.648-.175,1.1,1.1,0,0,0,.211-.772c.08-4.17.191-8.51.444-12.764a23.912,23.912,0,0,1-3.975-.475,52.581,52.581,0,0,0-6.976,12.082M58.1,63.194A42.338,42.338,0,0,0,70.93,60.626c.733-.281.9-.626.9-1.181a2.464,2.464,0,0,0-.032-.451,63.994,63.994,0,0,0-2.911-12.357c-.187-.536-.283-.626-.444-.626a1.4,1.4,0,0,0-.444.111,34.808,34.808,0,0,1-9.729,1.667.848.848,0,0,0-.87.961c.02,2.138.066,5.5.066,10.03,0,1.147,0,2.683,0,3.8a.861.861,0,0,0,.131.512.676.676,0,0,0,.5.105M12.474,73.716c2.265,6.056,7.932,6.561,11.739,10.254a9.78,9.78,0,0,0,2.223,1.8l.047-.056a14.388,14.388,0,0,1-2.5-3.205c-2.225-3.663-1.437-8.794-3.1-12.739a31.409,31.409,0,0,1,3.806,6.809c1.357,3.975,1.882,8.464,5.031,11.472C26.306,86.716,22.333,87,19.3,84.6c-3.187-2.519-6.216-6.433-6.829-10.887m31.714,17.4a2.3,2.3,0,0,0,.862-.164c-2.953-.656-5.438-1.194-7.964-3.3-3.34-2.779-5.887-5.6-9.567-7.885.454.293,2.562,4.581,4.322,7.161a8.382,8.382,0,0,0,4.927,3.241,10.775,10.775,0,0,1,1.8.524,1.188,1.188,0,0,1-.786.015,50.935,50.935,0,0,0-7.553-1.022c-10.556,0-13.288-4.029-13.288-4.029,3.12,5.661,9.564,7.767,13.794,7.767,6.016,0,10.555-2.309,13.448-2.309m38.732,2.309c4.221,0,10.666-2.106,13.789-7.767,0,0-2.728,4.029-13.288,4.029a50.838,50.838,0,0,0-7.537,1.022,1.233,1.233,0,0,1-.8-.015,10.906,10.906,0,0,1,1.815-.524,8.385,8.385,0,0,0,4.926-3.241c1.763-2.58,3.864-6.868,4.325-7.161-3.687,2.288-6.235,5.106-9.566,7.885-2.535,2.105-5.021,2.643-7.975,3.3a2.312,2.312,0,0,0,.864.164c2.893,0,7.43,2.309,13.448,2.309M17.382,76.552a37.624,37.624,0,0,1,3.556,3.411s-.241-.8-.481-1.792a25.815,25.815,0,0,0-1.562-5.5c-.774-1.641-4-6.991-4.622-9.924,0,0-2.29,9.208,3.109,13.81m66.565,11.5c3.405-1.337,7.368-1.051,10.4-3.449,3.19-2.519,6.221-6.433,6.835-10.887-2.269,6.056-7.939,6.561-11.745,10.254a9.725,9.725,0,0,1-2.218,1.8l-.047-.056a14.654,14.654,0,0,0,2.5-3.205c2.227-3.663,1.441-8.794,3.107-12.739a30.6,30.6,0,0,0-3.8,6.809c-1.356,3.975-1.883,8.464-5.027,11.472m-8.391,6.664c-5.248-2.138-10.718-4.848-17.049-3.56a11.006,11.006,0,0,1-1.928.283,10.775,10.775,0,0,1-1.915-.283c-6.343-1.288-11.809,1.422-17.056,3.56-3.922,1.435-9.053,1.206-12.5-1.019a14.466,14.466,0,0,0,6.343,4.072c4.382,1.63,9.583.518,13.209-1.847,3.1-1.636,5.786-4.85,9.876-3.636A39.6,39.6,0,0,0,43.111,99.9l2.157,1.667a31.293,31.293,0,0,1,11.311-8.705,31.27,31.27,0,0,1,11.315,8.705L70.058,99.9a39.7,39.7,0,0,0-11.432-7.617c4.093-1.214,6.771,2,9.875,3.636,3.634,2.365,8.832,3.477,13.213,1.847A14.5,14.5,0,0,0,88.057,93.7c-3.449,2.225-8.578,2.454-12.5,1.019M96.269,76.552c5.4-4.6,3.112-13.81,3.112-13.81-.62,2.932-3.85,8.283-4.622,9.924a25.548,25.548,0,0,0-1.565,5.5c-.238.992-.482,1.792-.482,1.792a37.3,37.3,0,0,1,3.558-3.411M10.934,50.437q2.392.214,4.781.424c1.275.115,1.922-.387,2.042-1.594a2.222,2.222,0,0,0-.217-1.362c-.293-.487-.731-.7-1.6-.8l-4.616-.513c-.176.328-.351.658-.525.988-.109-.011-.219-.022-.329-.035.107-1,.221-2,.342-3.006l.329.041c.1.365.19.729.288,1.093l4.4.513a2.525,2.525,0,0,1,2.168,1.267,3.733,3.733,0,0,1,.378,2.211c-.183,1.893-1.171,2.871-2.778,2.746l-4.8-.384c-.167.338-.329.675-.494,1.013-.111-.007-.219-.017-.33-.023q.136-1.818.306-3.631c.111.009.221.02.329.031l.323,1.022m2.568-9.4,5.169,1.69q.346-.388.693-.773c.1.035.21.071.315.1q-.43,1.287-.84,2.581c-.106-.032-.21-.066-.315-.1-.032-.356-.062-.717-.093-1.076q-3.049-.983-6.1-1.965c-.24.288-.476.575-.712.864l-.316-.1q.366-1.158.748-2.312,3.2-1.17,6.406-2.2L14.13,36.2c-.24.259-.479.521-.718.784-.1-.037-.209-.072-.313-.11q.468-1.335.959-2.66c.1.036.205.077.309.115.011.374.02.746.033,1.117l6.841,2.474c-.069.189-.137.38-.207.57q-3.769,1.18-7.533,2.544M24.737,27.125l1.787,1.3a10.675,10.675,0,0,1-1.181,2.382,3.667,3.667,0,0,1-5.561,1.019c-2.063-1.441-2.722-3.52-.935-5.976a12.885,12.885,0,0,1,1.738-1.826l.152-.132,1.579,1.139-.345.487L20.4,25.081a2.162,2.162,0,0,0-.534.5c-1.536,1.919-1.057,3.653.824,4.962,1.68,1.166,3.4.924,4.489-.637a1.327,1.327,0,0,0,.226-.49L23.847,28.3l-.929.573-.27-.183,2.045-2.8.274.179ZM28,26.257l-4.538-4.586-1,.4-.238-.234,2.522-2.459.236.22-.413,1,4.608,4.694,1.441-1.4-.5-1.545.353-.356,1.3,1.578s-1.977,1.881-3.953,3.915l-.23-.24Zm2.248-6.339a3.843,3.843,0,0,1,1.067-5.853,3.493,3.493,0,0,1,5.227,1.246c1.29,2.125.945,4.476-1.077,5.789a3.619,3.619,0,0,1-5.217-1.182M31.387,18.8c1.251,1.753,2.8,2.342,3.89,1.656,1.05-.667,1.092-2.345.02-4.153-1.026-1.722-2.51-2.465-3.817-1.633-1.4.893-1.309,2.422-.093,4.13m8.79-1.325-2.541-5.946L36.561,11.5l-.124-.3,3.591-1.5a2.531,2.531,0,0,1,1.955-.175,1.673,1.673,0,0,1,1.047,1c.4,1-.151,1.979-1.429,2.676,1.561-.558,2.616-.237,3.073.917a1.925,1.925,0,0,1-.194,1.792,3.61,3.61,0,0,1-1.868,1.271l-3.083,1.349-.117-.307Zm.034-3.917.48-.209a1.533,1.533,0,0,0,.923-2.082,1.348,1.348,0,0,0-1.951-.845L39,10.736ZM41.65,17.01l.42-.2a1.826,1.826,0,0,0,1.107-.827,1.539,1.539,0,0,0,.02-1.3,1.549,1.549,0,0,0-2.255-.871l-.547.246Zm6.166-4.582-.447,2.4.976.245.063.323-2.6.612-.054-.316.8-.554,1.778-7.86.58-.1,4.083,6.77.953.243.052.33-3.392.463-.06-.316.815-.578-1.169-2.112Zm.1-.6,1.995-.363L48.528,8.951ZM55.7,13.79l.064-6.431-.99-.429.008-.326c1.83-.06,3.512-.026,3.512-.026l0,.32-1,.408-.075,6.615,1.861.042.758-1.439.487,0-.2,2.049s-2.992-.131-5.435-.063l0-.322Zm13.342,1.966,1.02-1.391.51.139-.6,1.835-.191,0a8.743,8.743,0,0,1-2.4-.279,3.71,3.71,0,0,1-2.793-4.806c.553-2.471,2.3-3.635,5.284-2.944a8.683,8.683,0,0,1,2.256.98l-.515,1.881-.515-.114-.13-1.7a3.77,3.77,0,0,0-.611-.236c-2.541-.672-3.8.573-4.238,2.5-.459,2.006.356,3.519,2.152,4.011a3.376,3.376,0,0,0,.772.124m14.848,6.406,5.446-2.48,1.775,1.794-.217.249-1.036-.347-4.472,4.591.505.98-.229.249c-1.18-1.2-2.353-2.326-2.353-2.326l.213-.27.986.322L88.1,21.106l-5.992,2.7-.219-.2,1.8-6.34-3.276,4.1.451.943-.228.249-2.265-1.635.215-.245,1.023.325,4.1-4.95-.479-.965.225-.25,2.083,1.533Zm6.619,5.8L88.485,29.5l.252,1.044-.258.2c-1.015-1.368-2.118-2.758-2.118-2.758l.266-.2.9.512,5.032-3.935-.231-1.015.274-.2,2.075,2.7a3.539,3.539,0,0,1,.929,2.174,2,2,0,0,1-.871,1.67c-1.184.852-2.656.425-3.741-1.059Zm.641-.007a1.719,1.719,0,0,0,1.014.816,1.923,1.923,0,0,0,1.578-.324,1.864,1.864,0,0,0,.807-1.175,1.444,1.444,0,0,0-.38-1.208l-.469-.585-2.782,2.18Zm2.531,5.405-2.429.179.038.992-.309.148c-.609-1.12-1.341-2.308-1.341-2.308l.3-.169.771.638,8.05-.451.282.642-5.411,5.707.03.987-.3.142c-.651-1.609-1.291-3.087-1.291-3.087l.3-.147.771.619,1.628-1.725Zm.606-.073.886,1.816,2.048-2.014Zm1.179,11.673,1.734.181.137.5-1.9.4-.093-.16a9.262,9.262,0,0,1-.994-2.2c-.66-2.367.393-4.045,2.736-4.817,2.462-.816,4.487.445,5.188,3.041a10.027,10.027,0,0,1,.289,2.535l-1.918.5-.13-.507,1.389-.97a2.825,2.825,0,0,0-.109-.73c-.609-2.2-2.225-3.048-4.253-2.36-1.983.671-2.888,2-2.381,3.858a4.859,4.859,0,0,0,.287.692Zm7.4,5.594-6.516.483-.319,1.322-.321.025c-.07-2.112-.314-4.1-.314-4.1l.333-.025.505,1.26,6.514-.5-.149-1.656-1.676-.457-.035-.467,2.225-.17a56.092,56.092,0,0,1,.518,6.945l-2.211.169-.037-.481,1.585-.719Zm-30.156-36.9c1.093-2.353,3.267-3.222,5.6-2.012a3.456,3.456,0,0,1,1.558,5.123c-1.187,2.182-3.4,3.074-5.564,1.991a3.62,3.62,0,0,1-1.592-5.1m1.548.424c-.881,1.957-.6,3.589.527,4.187,1.1.575,2.578-.231,3.607-2.061.958-1.753.872-3.4-.515-4.126-1.466-.768-2.748.087-3.619,2" transform="translate(0 0)" fill="#000000"/>
  </g>
</svg>
