<svg fill="none" height="53" viewBox="0 0 257 53" width="257" xmlns="http://www.w3.org/2000/svg"> <path d="M0 11.2058C0 10.4895 0.399795 9.83402 1.03422 9.51012L19.2592 0.205473C19.7987 -0.0699374 20.4365 -0.0684046 20.9746 0.209597L38.9738 9.508C39.6038 9.83346 40 10.4865 40 11.1996V51.0988C40 52.1488 39.1548 53 38.1121 53H1.88791C0.845244 53 0 52.1488 0 51.0988V11.2058Z" fill="#FFCF55"></path> <path d="M8.31641 45.9335V45.0746C11.2633 44.0439 14.2126 44.6451 15.3189 45.0746V45.862C13.0431 46.6636 10.0306 46.3988 8.31641 45.9335Z" fill="#141464"></path> <path clip-rule="evenodd" d="M11.3667 43.9802C10.3932 44.0205 9.33996 44.1882 8.28549 44.5626L8 44.664V46.148L8.31521 46.2348C10.0481 46.7123 13.1039 46.9934 15.4517 46.1538L15.7363 46.0521V44.6748L15.4646 44.5677C14.8347 44.3195 13.6562 44.0225 12.2263 43.9764V12.4621C12.8757 12.2898 13.5747 12.1298 14.301 11.9995C16.4223 11.6189 18.7349 11.4989 20.7098 12.0317L20.9345 11.2052C18.7834 10.6249 16.3265 10.766 14.1487 11.1568C13.4801 11.2767 12.834 11.4209 12.2263 11.5769V9.46484H11.3667V11.812C10.3594 12.1045 9.49852 12.4149 8.87396 12.673L9.20337 13.464C9.75135 13.2375 10.4955 12.9667 11.3667 12.7051V43.9802ZM8.85959 45.2733V45.4902C10.4493 45.8677 12.9239 46.0432 14.8767 45.4424V45.2671C13.7381 44.8965 11.3173 44.4936 8.85959 45.2733Z" fill="#141464" fill-rule="evenodd"></path> <path d="M26.3012 17.5948L25.1094 11.6617C21.9686 10.7827 18.496 12.0279 17.1523 12.7604L17.5029 18.6569C19.4074 19.0232 23.8334 19.2942 26.3012 17.5948Z" fill="#141464"></path> <path clip-rule="evenodd" d="M17.4243 13.0857L17.7478 18.1886C18.718 18.3356 20.1537 18.4471 21.6454 18.3634C23.2152 18.2754 24.7908 17.974 25.9542 17.3164L24.8392 12.1122C23.3744 11.7804 21.8358 11.867 20.4767 12.1283C19.2053 12.3727 18.1148 12.7655 17.4243 13.0857ZM20.309 11.2911C21.8282 10.999 23.6113 10.9021 25.322 11.3509L25.5806 11.4188L26.9302 17.7185L26.6828 17.8782C25.3095 18.7649 23.4327 19.1178 21.6951 19.2152C19.9466 19.3133 18.2733 19.1559 17.2558 18.9725L16.9211 18.9121L16.5195 12.5794L16.7703 12.4513C17.5032 12.0766 18.7894 11.5832 20.309 11.2911Z" fill="#141464" fill-rule="evenodd"></path> <path d="M19.043 46.061L20.2147 42.9062H21.5668L19.8542 46.061H19.043Z" fill="#141464"></path> <path clip-rule="evenodd" d="M20.1579 42.9062H21.5668L19.9372 46.061H19.043L20.1579 42.9062ZM20.2694 43.0815L19.2784 45.8857H19.8422L21.2907 43.0815H20.2694Z" fill="#141464" fill-rule="evenodd"></path> <path d="M31.3438 46.061L30.172 42.9062H28.8199L30.5325 46.061H31.3438Z" fill="#141464"></path> <path d="M31.3475 42.9046H19.3594V34.3867H31.3475V42.9046Z" fill="#141464"></path> <path d="M29.9744 33.4501C29.7932 34.2982 28.858 34.8473 28.2059 34.9669C27.0009 35.1789 26.1401 34.7386 25.6237 33.9394C25.2105 33.3001 25.3263 32.1617 25.6237 31.8029C25.8584 31.4604 25.8393 31.144 25.7266 30.7918C25.5857 30.3514 25.4918 30.0742 25.7266 29.5849C25.8989 29.2257 25.9628 28.9217 25.9367 28.7205C25.728 28.5411 25.4359 28.1171 25.5141 27.7257C25.5701 27.4455 25.608 27.2418 25.6237 27.0896C25.5701 26.4164 25.5701 26.174 25.5701 25.9317C25.9367 26.174 26.1244 26.3558 26.4778 26.6167C26.7783 26.3688 27.3458 26.459 27.5441 26.5351C27.9581 26.174 28.0765 26.1134 28.3559 25.8711V27.0223C28.4341 27.1636 28.5437 27.9083 28.3559 28.3128C28.1681 28.7173 28.2776 29.0902 28.3559 29.2261C28.528 29.4762 28.9694 30.1068 29.3575 30.6287C29.8426 31.281 30.3086 31.8861 29.9744 33.4501Z" fill="#141464"></path> <g class="header__logo-text"> <path d="M64.1109 37.422C67.8431 37.422 71.063 36.2477 71.063 32.0642C71.063 29.789 69.5994 28.3945 67.587 27.8073C68.8676 27.1101 69.5994 25.7523 69.5994 24.0275C69.5994 21.0183 67.2577 19.4404 63.3791 19.4404H55V37.422H64.1109ZM60.1958 23H62.4278C63.8914 23 64.6598 23.4771 64.6598 24.7248C64.6598 26.0092 63.6718 26.5963 62.3912 26.5963H60.1958V23ZM60.1958 29.789H62.9035C64.4036 29.789 65.6477 30.1927 65.6477 31.844C65.6477 33.3119 64.4402 33.8991 62.94 33.8991H60.1958V29.789Z" fill="white"></path> <path d="M82.0824 37.9358C84.3144 37.9358 86.0341 37.0917 87.7904 35.3303H87.827L87.7904 37.422H93.0594V19.4771H87.7904L87.827 21.4954H87.7904C86.1073 19.7339 84.2778 19.0367 82.0458 19.0367C76.9963 19.0367 73.4471 23.2569 73.4471 28.4312C73.4471 33.6789 76.9598 37.9358 82.0824 37.9358ZM83.363 33.422C80.509 33.422 78.7893 31.2936 78.7893 28.4312C78.7893 25.6789 80.6188 23.5505 83.3996 23.5505C86.1805 23.5505 88.0465 25.6789 88.0465 28.4679C88.0465 31.2936 86.1805 33.422 83.363 33.422Z" fill="white"></path> <path d="M113.358 19.4771L108.272 30.5596L103.186 19.4771H99.4907L95.8682 37.422H101.064L102.711 27.6606H102.747L107.175 37.422H109.407L113.834 27.6606H113.871L115.517 37.422H120.713L117.127 19.4771H113.358Z" fill="white"></path> <path d="M125.767 43V37.422H138.244V43H142.781V32.9817H140V19.4404H126.426L125.547 26.156C124.999 30.4128 124.779 32.9817 121.779 32.9817H121.266V43H125.767ZM128.035 32.9817C129.536 31.7706 130.048 30.2661 130.45 26.9633L130.78 23.7706H134.841V32.9817H128.035Z" fill="white"></path> <path d="M154.576 37.9358C160.431 37.9358 164.529 34.0826 164.529 28.4679C164.529 22.8899 160.394 19 154.649 19C148.868 19 144.77 23 144.77 28.3578C144.77 34.0826 148.868 37.9358 154.576 37.9358ZM154.649 33.3853C151.868 33.3853 150.076 31.4404 150.076 28.4312C150.076 25.5688 151.905 23.5505 154.649 23.5505C157.43 23.5505 159.223 25.5688 159.223 28.4679C159.223 31.4404 157.394 33.3853 154.649 33.3853Z" fill="white"></path> <path d="M170.433 43V37.422H182.91V43H187.447V32.9817H184.666V19.4404H171.091L170.213 26.156C169.664 30.4128 169.445 32.9817 166.444 32.9817H165.932V43H170.433ZM172.701 32.9817C174.201 31.7706 174.714 30.2661 175.116 26.9633L175.445 23.7706H179.507V32.9817H172.701Z" fill="white"></path> <path d="M199.242 37.9358C205.096 37.9358 209.194 34.0826 209.194 28.4679C209.194 22.8899 205.06 19 199.315 19C193.534 19 189.436 23 189.436 28.3578C189.436 34.0826 193.534 37.9358 199.242 37.9358ZM199.315 33.3853C196.534 33.3853 194.741 31.4404 194.741 28.4312C194.741 25.5688 196.571 23.5505 199.315 23.5505C202.096 23.5505 203.889 25.5688 203.889 28.4679C203.889 31.4404 202.059 33.3853 199.315 33.3853Z" fill="white"></path> <path d="M228.417 19.4771L223.331 30.5596L218.245 19.4771H214.549L210.927 37.422H216.123L217.769 27.6606H217.806L222.233 37.422H224.465L228.893 27.6606H228.929L230.576 37.422H235.771L232.186 19.4771H228.417Z" fill="white"></path> <path d="M246.023 37.9358C248.255 37.9358 249.975 37.0917 251.731 35.3303H251.768L251.731 37.422H257V19.4771H251.731L251.768 21.4954H251.731C250.048 19.7339 248.218 19.0367 245.986 19.0367C240.937 19.0367 237.388 23.2569 237.388 28.4312C237.388 33.6789 240.9 37.9358 246.023 37.9358ZM247.304 33.422C244.45 33.422 242.73 31.2936 242.73 28.4312C242.73 25.6789 244.559 23.5505 247.34 23.5505C250.121 23.5505 251.987 25.6789 251.987 28.4679C251.987 31.2936 250.121 33.422 247.304 33.422Z" fill="white"></path> </g> </svg>