<svg xmlns="http://www.w3.org/2000/svg" class="svg svg-logo-text" height="33.234" viewBox="0 0 97.171 33.234" width="97.171">
<path d="M54.826 33.163h-9.885v-7.921h7.221c1.822-.07 3.367-1.543 3.367-3.296 0-1.823-1.545-3.295-3.437-3.295h-7.151V12.06h6.309c1.192 0 2.244-1.053 2.244-2.314 0-1.4-.91-2.384-2.244-2.384h-6.309V.14h10.375c3.788-.14 6.941 2.805 7.082 6.521.141 3.576-2.312 6.52-5.679 7.15 4.207 1.121 7.292 4.979 7.292 9.537 0 5.398-4.417 9.886-9.185 9.815zM0 .14h11.076l9.466 33.023H9.464L0 .14zm22.084 33.023l-4.627-16.614L22.084.14h9.255l-9.255 33.023zM33.021.14h10.166v33.023H33.021V.14zm32.742 0h9.956v33.023l-9.956-.069V.14zm21.313 20.404h-9.953V12.34h9.953V.14h10.095v33.023H87.076V20.544z" fill="#000000"></path>
</svg>