<?xml version="1.0" encoding="UTF-8"?>
<!DOCTYPE svg PUBLIC "-//W3C//DTD SVG 1.0//EN" "http://www.w3.org/TR/2001/REC-SVG-20010904/DTD/svg10.dtd">
<!-- Creator: CorelDRAW -->
<svg xmlns="http://www.w3.org/2000/svg" xml:space="preserve" width="32px" height="32px" version="1.0" style="shape-rendering:geometricPrecision; text-rendering:geometricPrecision; image-rendering:optimizeQuality; fill-rule:evenodd; clip-rule:evenodd"
viewBox="0 0 55.3 55.3"
 xmlns:xlink="http://www.w3.org/1999/xlink"
 xmlns:xodm="http://www.corel.com/coreldraw/odm/2003">
 <defs>
  <style type="text/css">
   <![CDATA[
    .fil0 {fill:none}
    .fil3 {fill:url(#id0)}
    .fil1 {fill:url(#id1)}
    .fil2 {fill:url(#id2)}
   ]]>
  </style>
  <linearGradient id="id0" gradientUnits="userSpaceOnUse" x1="31.7" y1="55.3" x2="31.7" y2="-2.1">
   <stop offset="0" style="stop-opacity:1; stop-color:#E50004"/>
   <stop offset="0.54902" style="stop-opacity:1; stop-color:#E60606"/>
   <stop offset="0.690196" style="stop-opacity:1; stop-color:#F09372"/>
   <stop offset="0.921569" style="stop-opacity:1; stop-color:#FEFDFC"/>
   <stop offset="1" style="stop-opacity:1; stop-color:#FEFEFE"/>
  </linearGradient>
  <linearGradient id="id1" gradientUnits="userSpaceOnUse" xlink:href="#id0" x1="23.5" y1="55.3" x2="23.5" y2="-2.1">
  </linearGradient>
  <linearGradient id="id2" gradientUnits="userSpaceOnUse" x1="27.6" y1="55.3" x2="27.6" y2="-2.1">
   <stop offset="0" style="stop-opacity:1; stop-color:#220E0D"/>
   <stop offset="0.188235" style="stop-opacity:1; stop-color:#220E0D"/>
   <stop offset="0.329412" style="stop-opacity:1; stop-color:#2F0E09"/>
   <stop offset="0.388235" style="stop-opacity:1; stop-color:#450E05"/>
   <stop offset="0.458824" style="stop-opacity:1; stop-color:#900002"/>
   <stop offset="0.580392" style="stop-opacity:1; stop-color:#E61A13"/>
   <stop offset="0.768627" style="stop-opacity:1; stop-color:#F4B79E"/>
   <stop offset="0.909804" style="stop-opacity:1; stop-color:#FEFCFB"/>
   <stop offset="0.960784" style="stop-opacity:1; stop-color:#FEFEFE"/>
   <stop offset="1" style="stop-opacity:1; stop-color:#FEFEFE"/>
  </linearGradient>
 </defs>
 <g id="Warstwa_x0020_1">
  <metadata id="CorelCorpID_0Corel-Layer"/>
  <rect class="fil0" width="55.3" height="55.3"/>
  <g id="_2407725534976">
   <path class="fil1" d="M21.1 55.3l1.5 0c0.5,-7.1 -3.3,-12.5 -0.7,-18.4 2.6,-6.1 2.5,-9.2 0.9,-15.4 -1.5,-5.6 -0.9,-7.3 1.7,-12.7 1.3,-2.7 3,-5.8 3.2,-8.8l-1.6 0c-0.2,4.9 -5.9,11.2 -5.7,17.2 0.2,5.6 4,9.6 0.5,18.1 -1.1,2.5 -1.5,3.2 -1.5,6.1 0,4.3 2,8.6 1.7,13.9z"/>
   <path class="fil2" d="M25.1 55.3l1.6 0c0.4,-7.2 -3.3,-12.5 -0.7,-18.4 2.6,-6.1 2.5,-9.2 0.9,-15.4 -1.5,-5.6 -0.9,-7.3 1.7,-12.7 1.3,-2.7 3,-5.8 3.2,-8.8l-1.6 0c-0.3,5.2 -6.2,11.3 -5.7,17.8 0.5,5.6 3.9,9.3 0.4,17.5 -0.8,2.1 -1.3,3 -1.4,5.4 -0.2,4.8 2,9.1 1.6,14.6z"/>
   <path class="fil3" d="M29.2 55.3l1.6 0c0.4,-7.1 -3.3,-12.5 -0.8,-18.4 2.6,-6.1 2.6,-9.2 1,-15.4 -1.6,-5.6 -0.9,-7.3 1.7,-12.7 1.3,-2.7 3,-5.8 3.2,-8.8l-1.6 0c-0.3,5 -5.9,11.1 -5.7,17.2 0.2,5.6 4,9.6 0.4,18.1 -1,2.5 -1.4,3.2 -1.4,6.1 0,4.4 1.9,8.6 1.6,13.9z"/>
  </g>
 </g>
</svg>
