<svg width="138" height="30" viewBox="0 0 138 30" fill="none" xmlns="http://www.w3.org/2000/svg">
<path d="M25.9994 6.22443C25.0165 6.63415 24.2361 7.0909 23.6598 7.59724C23.0846 8.10357 22.6701 8.58278 22.4175 9.03326C22.1648 9.4832 22.0098 9.751 21.9534 9.83452C21.9534 9.91911 21.8412 9.751 21.6167 9.32765C21.3912 8.90483 21.0112 8.42095 20.4782 7.87185C19.9437 7.32209 19.2274 6.80907 18.3281 6.3304C17.4286 5.85266 16.2907 5.61252 14.9136 5.61252C13.3398 5.61252 12.0406 5.85266 11.0153 6.3304C9.98907 6.80907 9.18205 7.33625 8.59168 7.91462C8.00077 8.49044 7.4678 9.24413 6.98965 10.1723L6.23169 6.16175H-0.0078125V28.1125H7.62232V17.983C7.62232 17.3629 7.65781 16.7026 7.72723 15.9978C7.79823 15.2948 7.959 14.639 8.21165 14.0351C8.46482 13.4306 8.85059 12.9311 9.37207 12.537C9.89093 12.1429 10.5998 11.9444 11.4998 11.9444C12.681 11.9444 13.5507 12.396 14.1129 13.2949C14.6746 14.1984 14.9564 15.3506 14.9564 16.7589V28.0718H14.9977V28.1125H22.5014V18.0232C22.5014 17.4046 22.5359 16.7427 22.6069 16.0412C22.6764 15.3375 22.8528 14.6825 23.1331 14.0768C23.414 13.4724 23.8216 12.9729 24.3561 12.5772C24.8892 12.1846 25.6059 11.9873 26.5068 11.9873C27.6865 11.9873 28.5562 12.4378 29.1189 13.3382C29.6817 14.2387 29.9624 15.3923 29.9624 16.7991L30.0048 28.0718V28.1125H37.4642V15.2801C37.4642 14.2674 37.423 13.1983 37.339 12.0709C37.2549 10.9459 36.9724 9.90454 36.4953 8.94813C36.0167 7.99132 35.253 7.19687 34.1986 6.56265C33.1441 5.9295 31.6486 5.61252 29.7099 5.61252C28.2195 5.61252 26.9834 5.81778 25.9994 6.22443ZM52.2776 23.0684C51.9545 22.7735 51.7661 22.2749 51.7097 21.5702V11.481H57.0205V6.11899H51.6257V0.208275L44.079 1.30714V6.11899H39.7798V11.481H44.079V21.4857C44.079 22.3872 44.185 23.1676 44.3959 23.8295C44.6073 24.4893 44.8876 25.0739 45.2389 25.5803C45.5908 26.0866 45.9901 26.5094 46.4406 26.8477C46.8894 27.1844 47.353 27.4663 47.8317 27.6918C48.9555 28.1981 50.2193 28.493 51.6257 28.5781C52.3549 28.5781 53.0362 28.5416 53.6688 28.4727C54.3009 28.4022 54.8553 28.3239 55.334 28.2404C55.8669 28.1282 56.3732 28.0159 56.8519 27.9021L56.936 23.1321C56.5988 23.2172 56.2464 23.2876 55.8815 23.3435C55.573 23.3999 55.2217 23.4427 54.8287 23.4703C54.4345 23.499 54.042 23.5121 53.6485 23.5121C53.0581 23.5121 52.6013 23.3643 52.2776 23.0684ZM75.2515 28.3041C76.1791 28.1198 77.0012 27.923 77.7164 27.7116C78.4341 27.5002 79.0084 27.3044 79.4443 27.1217C79.8801 26.938 80.0993 26.832 80.0993 26.8044V21.6538C79.5643 21.993 78.9327 22.3021 78.2019 22.5829C77.5833 22.8084 76.8316 23.0125 75.9468 23.1952C75.0621 23.3779 74.0859 23.4703 73.0173 23.4703C71.8648 23.4703 70.8886 23.3148 70.0873 23.0057C69.2876 22.6962 68.6335 22.323 68.1272 21.8876C67.6224 21.4517 67.2503 20.9856 67.0117 20.4939C66.7725 20.0016 66.6389 19.5851 66.6108 19.2484H81.7854V17.1374C81.7854 15.7864 81.6027 14.4292 81.2374 13.0642C80.8708 11.6991 80.2533 10.461 79.3816 9.34863C78.5114 8.23667 77.3448 7.33625 75.8842 6.64724C74.4226 5.9581 72.6102 5.61252 70.4465 5.61252C68.3386 5.61252 66.5482 5.9581 65.073 6.64724C63.5978 7.33625 62.4029 8.23667 61.4888 9.34863C60.5759 10.461 59.9161 11.6991 59.5084 13.0642C59.1007 14.4292 58.8977 15.7864 58.8977 17.1374C58.8977 18.4894 59.1007 19.8461 59.5084 21.21C59.9161 22.5767 60.6317 23.8002 61.6585 24.8834C62.6838 25.9681 64.0665 26.8545 65.81 27.5435C67.552 28.2336 69.7584 28.5781 72.4286 28.5781C73.3812 28.5781 74.3233 28.4857 75.2515 28.3041ZM66.6108 14.9424C66.6108 14.4632 66.6807 13.9568 66.8223 13.4228C66.9631 12.8878 67.1876 12.396 67.4956 11.9444C67.8035 11.4956 68.2263 11.1213 68.7614 10.8258C69.2939 10.5309 69.9542 10.3837 70.7414 10.3837C71.528 10.3837 72.1884 10.5309 72.7224 10.8258C73.2559 11.1213 73.6918 11.4956 74.0284 11.9444C74.3677 12.396 74.6053 12.8878 74.7461 13.4228C74.8846 13.9568 74.9566 14.4632 74.9566 14.9424H66.6108Z" fill="#ED1C24"/>
<path d="M89.8094 25.7894H92.1741V24.7235H89.8094V23.5683H92.0853L92.2707 22.5097H88.3086L88.3244 28.1149H92.3583V27.0563H89.8094V25.7894ZM98.698 24.298C98.613 24.0041 98.4956 23.7494 98.3494 23.537C98.2022 23.3229 98.0336 23.1455 97.843 23.0029C97.6541 22.8625 97.4567 22.7472 97.2505 22.6626C97.0443 22.5765 96.8356 22.5164 96.6215 22.4825C96.4076 22.447 96.2066 22.4303 96.0201 22.4303C95.8333 22.4303 95.635 22.447 95.4261 22.4825C95.2174 22.5164 95.0085 22.5765 94.8013 22.6626C94.5925 22.7472 94.3926 22.8625 94.1994 23.0029C94.0063 23.1455 93.8393 23.3229 93.6947 23.537C93.5495 23.7494 93.4348 24.0041 93.346 24.298C93.2573 24.593 93.2129 24.9317 93.2129 25.317C93.2129 25.7074 93.2573 26.0488 93.346 26.3427C93.4348 26.6366 93.5495 26.8908 93.6947 27.1048C93.8393 27.3189 94.0063 27.4963 94.1994 27.6373C94.3926 27.7798 94.5925 27.8915 94.8013 27.974C95.0085 28.0575 95.22 28.116 95.4303 28.1515C95.6417 28.1854 95.8385 28.2026 96.0201 28.2026C96.0839 28.2026 96.1178 28.1995 96.123 28.1943C96.1299 28.1943 96.1299 28.1922 96.123 28.1864L96.9818 29.125H98.6495L97.4306 27.8983C97.6133 27.8017 97.7882 27.6801 97.9553 27.5329C98.1249 27.3867 98.2737 27.2093 98.4016 27.0005C98.5295 26.7916 98.6328 26.5489 98.7095 26.2712C98.7878 25.993 98.8259 25.6746 98.8259 25.317C98.8259 24.9317 98.7826 24.593 98.698 24.298ZM94.8259 24.6306C94.8728 24.4139 94.9485 24.2244 95.0504 24.0616C95.151 23.8987 95.2826 23.7692 95.4418 23.6727C95.6036 23.5761 95.7958 23.5276 96.0201 23.5276C96.2447 23.5276 96.4363 23.5761 96.597 23.6727C96.7573 23.7692 96.8878 23.8987 96.9895 24.0616C97.0913 24.2244 97.167 24.4139 97.214 24.6306C97.2625 24.8472 97.2871 25.0753 97.2871 25.317C97.2871 25.5467 97.2625 25.7701 97.214 25.9867C97.167 26.2033 97.0913 26.3939 96.9895 26.5594C96.8878 26.7248 96.7573 26.8569 96.597 26.9561C96.4363 27.0553 96.2447 27.1048 96.0201 27.1048C95.7958 27.1048 95.6036 27.0553 95.4418 26.9561C95.2826 26.8569 95.151 26.7248 95.0504 26.5594C94.9485 26.3939 94.8728 26.2033 94.8259 25.9867C94.7763 25.7701 94.7528 25.5467 94.7528 25.317C94.7528 25.0753 94.7763 24.8472 94.8259 24.6306ZM103.266 28.0377C103.564 27.9296 103.823 27.7782 104.039 27.5851C104.256 27.393 104.426 27.1675 104.548 26.9075C104.671 26.6497 104.734 26.3704 104.734 26.0702V22.5097H103.233V25.9016C103.233 26.052 103.228 26.195 103.217 26.3349C103.207 26.4732 103.173 26.5975 103.113 26.7045C103.054 26.8099 102.961 26.896 102.832 26.9603C102.704 27.0239 102.52 27.0563 102.279 27.0563C102.039 27.0563 101.852 27.0265 101.721 26.9676C101.591 26.9091 101.494 26.8292 101.433 26.728C101.372 26.6262 101.335 26.5072 101.325 26.3714C101.314 26.2341 101.309 26.0922 101.309 25.9423V22.5097H99.8177V26.0702C99.8177 26.3704 99.8788 26.6497 100.001 26.9075C100.124 27.1675 100.296 27.393 100.516 27.5851C100.735 27.7782 100.995 27.9296 101.296 28.0377C101.599 28.1478 101.927 28.2026 102.279 28.2026C102.638 28.2026 102.967 28.1478 103.266 28.0377ZM106.031 28.1149H107.546V22.5097H106.031V28.1149ZM108.849 28.1149H110.341V26.159H110.935C111.191 26.159 111.452 26.1235 111.715 26.054C111.982 25.9851 112.219 25.8766 112.43 25.7294C112.642 25.5816 112.814 25.3937 112.947 25.164C113.08 24.9349 113.148 24.6593 113.148 24.3382C113.148 24.0068 113.08 23.7249 112.947 23.4926C112.814 23.2603 112.639 23.0708 112.423 22.9273C112.206 22.7827 111.958 22.6767 111.68 22.6104C111.402 22.5441 111.117 22.5097 110.823 22.5097H108.849V28.1149ZM110.349 25.1004V23.5761H110.662C110.807 23.5761 110.939 23.5865 111.059 23.6048C111.179 23.6231 111.284 23.6607 111.371 23.717C111.46 23.7729 111.53 23.8502 111.58 23.9493C111.631 24.0485 111.655 24.1775 111.655 24.3382C111.655 24.4938 111.631 24.6201 111.58 24.7193C111.53 24.8185 111.46 24.8957 111.371 24.9516C111.284 25.0074 111.179 25.0466 111.059 25.068C110.939 25.0899 110.807 25.1004 110.662 25.1004H110.349ZM118.806 22.5097L117.546 26.2383L116.344 22.5097H113.994V28.1149H115.479V23.8173L116.818 28.1149H118.18L119.616 23.8173V28.1149H121.067V22.5097H118.806ZM123.834 25.7894H126.2V24.7235H123.834V23.5683H126.112L126.295 22.5097H122.335L122.351 28.1149H126.384V27.0563H123.834V25.7894ZM132.682 22.5097H131.318V26.3192L129.449 22.5097H127.524V28.1149H128.847V24.2824L130.805 28.1149H132.682V22.5097ZM133.53 22.5097V23.6246H134.949V28.1149H136.44V23.6246H137.859V22.5097H133.53Z" fill="black"/>
<path d="M87.9336 15.1586V16.2736H89.3524V20.7639H90.8437V16.2736H92.2636V15.1586H87.9336ZM95.0433 15.1314C94.8292 15.1654 94.6204 15.2254 94.4143 15.3116C94.2081 15.396 94.0097 15.5115 93.8217 15.6518C93.6313 15.7944 93.4632 15.9719 93.3154 16.1859C93.1693 16.3983 93.0519 16.6531 92.9673 16.947C92.8821 17.2419 92.8378 17.5838 92.8378 17.9738C92.8378 18.561 92.9317 19.0428 93.1196 19.4171C93.3066 19.7903 93.5399 20.0837 93.8217 20.2941C94.101 20.5055 94.4054 20.6516 94.73 20.731C95.0564 20.8124 95.3617 20.8516 95.6451 20.8516C95.8314 20.8516 96.0324 20.8354 96.2465 20.8041C96.4604 20.7717 96.6718 20.7143 96.8807 20.6307C97.0885 20.5483 97.2879 20.436 97.4774 20.2941C97.6663 20.1531 97.8334 19.9756 97.9785 19.7616C98.1231 19.5476 98.2379 19.2934 98.323 18.9995C98.4076 18.7056 98.452 18.3637 98.452 17.9738C98.452 17.3902 98.3595 16.9125 98.1752 16.5382C97.99 16.164 97.7576 15.869 97.4774 15.6518C97.1965 15.4352 96.8911 15.2854 96.5623 15.2029C96.2334 15.121 95.928 15.0792 95.6451 15.0792C95.4582 15.0792 95.2573 15.0959 95.0433 15.1314ZM94.4507 17.2795C94.4978 17.0629 94.5734 16.8734 94.6752 16.7105C94.7771 16.5476 94.9075 16.4182 95.0668 16.3216C95.2286 16.225 95.4206 16.1765 95.6451 16.1765C95.8696 16.1765 96.0611 16.225 96.223 16.3216C96.3823 16.4182 96.5127 16.5476 96.6145 16.7105C96.7163 16.8734 96.792 17.0629 96.8389 17.2795C96.8886 17.4961 96.912 17.7242 96.912 17.9659C96.912 18.1956 96.8886 18.419 96.8389 18.6356C96.792 18.8523 96.7163 19.0428 96.6145 19.2083C96.5127 19.3738 96.3823 19.5058 96.223 19.605C96.0611 19.7042 95.8696 19.7538 95.6451 19.7538C95.4206 19.7538 95.2286 19.7042 95.0668 19.605C94.9075 19.5058 94.7771 19.3738 94.6752 19.2083C94.5734 19.0428 94.4978 18.8523 94.4507 18.6356C94.4028 18.419 94.3778 18.1956 94.3778 17.9659C94.3778 17.7242 94.4028 17.4961 94.4507 17.2795ZM101.493 15.1314C101.279 15.1654 101.067 15.2254 100.864 15.3116C100.657 15.396 100.459 15.5115 100.27 15.6518C100.081 15.7944 99.911 15.9719 99.7648 16.1859C99.616 16.3983 99.5011 16.6531 99.4167 16.947C99.3315 17.2419 99.2872 17.5838 99.2872 17.9738C99.2872 18.561 99.38 19.0428 99.569 19.4171C99.756 19.7903 99.9893 20.0837 100.27 20.2941C100.55 20.5055 100.853 20.6516 101.179 20.731C101.506 20.8124 101.81 20.8516 102.095 20.8516C102.281 20.8516 102.482 20.8354 102.696 20.8041C102.907 20.7717 103.121 20.7143 103.329 20.6307C103.538 20.5483 103.737 20.436 103.927 20.2941C104.115 20.1531 104.283 19.9756 104.428 19.7616C104.572 19.5476 104.687 19.2934 104.772 18.9995C104.857 18.7056 104.901 18.3637 104.901 17.9738C104.901 17.3902 104.807 16.9125 104.625 16.5382C104.439 16.164 104.207 15.869 103.927 15.6518C103.646 15.4352 103.341 15.2854 103.012 15.2029C102.683 15.121 102.377 15.0792 102.095 15.0792C101.905 15.0792 101.706 15.0959 101.493 15.1314ZM100.9 17.2795C100.947 17.0629 101.023 16.8734 101.125 16.7105C101.224 16.5476 101.357 16.4182 101.516 16.3216C101.678 16.225 101.87 16.1765 102.095 16.1765C102.319 16.1765 102.511 16.225 102.672 16.3216C102.832 16.4182 102.962 16.5476 103.064 16.7105C103.165 16.8734 103.241 17.0629 103.288 17.2795C103.337 17.4961 103.361 17.7242 103.361 17.9659C103.361 18.1956 103.337 18.419 103.288 18.6356C103.241 18.8523 103.165 19.0428 103.064 19.2083C102.962 19.3738 102.832 19.5058 102.672 19.605C102.511 19.7042 102.319 19.7538 102.095 19.7538C101.87 19.7538 101.678 19.7042 101.516 19.605C101.357 19.5058 101.224 19.3738 101.125 19.2083C101.023 19.0428 100.947 18.8523 100.9 18.6356C100.851 18.419 100.827 18.1956 100.827 17.9659C100.827 17.7242 100.851 17.4961 100.9 17.2795ZM109.729 19.6572H107.483V15.1586H105.977V20.7639H109.729V19.6572ZM114.446 15.7125C114.179 15.5151 113.888 15.3585 113.576 15.2437C113.264 15.1288 112.95 15.0714 112.634 15.0714C112.388 15.0714 112.149 15.1027 111.917 15.167C111.684 15.2306 111.479 15.3298 111.299 15.4639C111.12 15.597 110.977 15.7693 110.87 15.9807C110.763 16.1922 110.709 16.4443 110.709 16.7392C110.709 17.0383 110.758 17.2847 110.857 17.4805C110.957 17.6746 111.084 17.8365 111.243 17.9659C111.4 18.0938 111.578 18.1982 111.776 18.2781C111.974 18.3585 112.172 18.4305 112.368 18.4947C112.491 18.5375 112.611 18.5793 112.726 18.6184C112.841 18.6586 112.94 18.7072 113.026 18.7635C113.112 18.8194 113.18 18.8831 113.231 18.9551C113.282 19.0282 113.308 19.1117 113.308 19.2083C113.302 19.3738 113.232 19.4954 113.099 19.5721C112.965 19.6504 112.797 19.6896 112.593 19.6896C112.342 19.6896 112.071 19.6144 111.78 19.4656C111.489 19.3153 111.212 19.1065 110.95 18.8387L110.453 19.9224C110.742 20.2262 111.071 20.4569 111.444 20.6151C111.815 20.7733 112.187 20.8516 112.562 20.8516C112.818 20.8516 113.068 20.8187 113.311 20.7519C113.554 20.6845 113.77 20.5812 113.961 20.4392C114.151 20.2967 114.301 20.1176 114.414 19.901C114.526 19.6844 114.582 19.4275 114.582 19.1274C114.582 18.8184 114.53 18.561 114.425 18.3585C114.321 18.1554 114.188 17.9868 114.025 17.8537C113.861 17.719 113.678 17.612 113.473 17.5327C113.266 17.4517 113.064 17.3776 112.867 17.3082C112.743 17.2706 112.629 17.2299 112.522 17.1881C112.416 17.1448 112.319 17.0994 112.237 17.0508C112.155 17.0028 112.089 16.948 112.04 16.8869C111.993 16.8253 111.969 16.7549 111.969 16.674C111.969 16.5252 112.027 16.4156 112.141 16.3467C112.256 16.2757 112.407 16.2418 112.593 16.2418C112.791 16.2418 113.012 16.2929 113.256 16.3931C113.499 16.4949 113.74 16.6322 113.982 16.8034L114.446 15.7125Z" fill="#ED1C24"/>
<path d="M93.1204 7.81088L91.8608 11.5395L90.6576 7.81088H88.3086V13.4161H89.7927V9.11901L91.1316 13.4161H92.495L93.9307 9.11901V13.4161H95.3818V7.81088H93.1204ZM100.722 13.4161H102.285L100.137 7.81088H98.2215L96.1753 13.4161H97.6358L98.1171 12.2208H100.242L100.722 13.4161ZM98.4214 11.1716C98.4589 11.0421 98.4956 10.9272 98.5337 10.8255C98.5712 10.7253 98.613 10.6078 98.6574 10.4773C98.7034 10.3468 98.7503 10.2111 98.7982 10.0727C98.9105 9.75176 99.0384 9.38467 99.182 8.97389C99.2212 9.08093 99.2645 9.21041 99.3151 9.36276C99.3662 9.51523 99.4168 9.67345 99.468 9.83675C99.5187 9.99805 99.5682 10.1599 99.6205 10.3206C99.6701 10.481 99.7144 10.6245 99.7525 10.7497C99.7901 10.8751 99.8292 11.0159 99.8726 11.1716H98.4214ZM102.236 7.81088V8.92538H103.654V13.4161H105.146V8.92538H106.565V7.81088H102.236ZM108.881 11.0906H111.245V10.0242H108.881V8.86952H111.157L111.342 7.81088H107.382L107.397 13.4161H111.431V12.3576H108.881V11.0906ZM116.588 11.2431C116.546 11.1204 116.497 11.0213 116.439 10.9471C116.385 10.8713 116.311 10.8036 116.22 10.742C116.129 10.6809 116.017 10.6495 115.883 10.6495C116.124 10.6182 116.317 10.5582 116.465 10.4695C116.612 10.3808 116.745 10.2409 116.865 10.0476C116.985 9.85613 117.045 9.58312 117.045 9.23073C117.045 8.8774 116.969 8.60439 116.818 8.41276C116.664 8.2206 116.468 8.07975 116.228 7.99155C115.988 7.90375 115.719 7.85164 115.422 7.836C115.126 7.81876 114.832 7.81088 114.544 7.81088H112.571V13.4161H114.063V11.2029H114.719C114.811 11.2029 114.884 11.2237 114.941 11.2665C114.996 11.3099 115.046 11.3554 115.09 11.4039C115.132 11.4623 115.17 11.5291 115.202 11.6032L115.795 13.4161H117.302L116.588 11.2431ZM114.063 10.1442V8.8774H114.52C114.665 8.8774 114.799 8.87994 114.926 8.88515C115.051 8.89143 115.158 8.91228 115.249 8.95037C115.341 8.98698 115.413 9.04805 115.466 9.13411C115.52 9.21923 115.547 9.34031 115.547 9.49492C115.547 9.64994 115.517 9.77101 115.458 9.85974C115.4 9.94847 115.322 10.0137 115.226 10.0571C115.129 10.0988 115.02 10.1249 114.897 10.1328C114.774 10.1406 114.649 10.1442 114.52 10.1442H114.063ZM118.264 13.4161H119.778V7.81088H118.264V13.4161ZM125.178 13.4161H126.741L124.592 7.81088H122.675L120.631 13.4161H122.09L122.57 12.2208H124.696L125.178 13.4161ZM122.876 11.1716C122.914 11.0421 122.951 10.9272 122.988 10.8255C123.026 10.7253 123.066 10.6078 123.113 10.4773C123.158 10.3468 123.205 10.2111 123.253 10.0727C123.365 9.75176 123.494 9.38467 123.638 8.97389C123.674 9.08093 123.719 9.21041 123.77 9.36276C123.821 9.51523 123.872 9.67345 123.922 9.83675C123.973 9.99805 124.024 10.1599 124.074 10.3206C124.126 10.481 124.17 10.6245 124.207 10.7497C124.245 10.8751 124.285 11.0159 124.327 11.1716H122.876ZM131.309 12.3095H129.064V7.81088H127.557V13.4161H131.309V12.3095ZM136.027 8.36425C135.759 8.16741 135.469 8.01079 135.156 7.896C134.845 7.78108 134.529 7.72375 134.215 7.72375C133.968 7.72375 133.73 7.75502 133.497 7.81876C133.265 7.88291 133.059 7.98206 132.88 8.11677C132.7 8.24986 132.558 8.42158 132.451 8.63299C132.344 8.84439 132.29 9.09656 132.29 9.39149C132.29 9.69016 132.34 9.93698 132.439 10.1328C132.538 10.3269 132.666 10.4887 132.824 10.6182C132.982 10.7461 133.159 10.8505 133.358 10.9299C133.555 11.0107 133.752 11.0827 133.951 11.1465C134.072 11.1898 134.193 11.2316 134.307 11.2708C134.422 11.3109 134.521 11.3595 134.608 11.4159C134.694 11.4718 134.762 11.5354 134.811 11.6074C134.863 11.6805 134.889 11.764 134.889 11.8606C134.883 12.0261 134.814 12.1477 134.68 12.2244C134.547 12.3027 134.378 12.3424 134.175 12.3424C133.924 12.3424 133.653 12.2662 133.36 12.118C133.069 11.9677 132.794 11.7588 132.53 11.491L132.034 12.5742C132.323 12.8785 132.653 13.1093 133.023 13.2674C133.396 13.4251 133.769 13.5039 134.143 13.5039C134.4 13.5039 134.65 13.471 134.893 13.4042C135.135 13.3369 135.351 13.2334 135.542 13.091C135.732 12.9489 135.883 12.7699 135.995 12.5532C136.107 12.3366 136.164 12.0798 136.164 11.7796C136.164 11.4701 136.111 11.2133 136.007 11.0107C135.903 10.8072 135.769 10.6391 135.606 10.506C135.443 10.3718 135.258 10.2642 135.053 10.185C134.847 10.104 134.644 10.0295 134.448 9.9605C134.325 9.92241 134.209 9.88219 134.103 9.8405C133.996 9.79707 133.901 9.75176 133.817 9.70366C133.734 9.65515 133.67 9.60036 133.621 9.53875C133.574 9.47768 133.55 9.40712 133.55 9.32628C133.55 9.17754 133.607 9.06783 133.722 8.99847C133.837 8.92792 133.987 8.89411 134.175 8.89411C134.373 8.89411 134.592 8.94515 134.837 9.04538C135.08 9.14721 135.32 9.28445 135.562 9.45523L136.027 8.36425Z" fill="black"/>
</svg>
