<svg width="200" height="43" viewBox="0 0 200 43" fill="none" xmlns="http://www.w3.org/2000/svg">
  <path d="M139.334 35.908h8.541l-6.14-10.588c3.404-1.436 5.335-4.19 5.335-7.838 0-5.429-3.553-8.993-10.589-8.993H123v27.419h7.404v-9.506h3.749zm.306-18.426c0 1.942-1.311 3.342-4.059 3.342h-5.177v-6.676h5.177c2.748 0 4.059 1.397 4.059 3.334m-29.968-1.276v8.774c0 3.956-1.935 5.352-4.449 5.352s-4.482-1.396-4.482-5.315v-8.81h-7.578v9.139c0 7.213 3.986 11.172 12.06 11.172s12.024-3.96 12.024-11.132v-9.18zm-8.916-7.717h-7.579v5.155h7.579zm8.916 5.158h7.579V8.49h-7.579zm-47.731 12.99L58.115 8.489H50.58l6.96 27.419h8.015l4.675-17.881 4.679 17.88h8.015l6.96-27.418h-7.568L78.49 26.637 73.754 8.489h-7.055zm130.44-8.336h-9.196V8.49h-7.564v27.419h7.578V24.494h9.182v11.414h7.615V8.488h-7.615zm-35.488-3.842v21.449h7.578v-21.45h7.036v-5.97h-21.643v5.97z" fill="#1D1D1B"/>
  <path d="M39.158 16.843H0V0h16.298v6.62h6.558V0h16.298zM22.86 36.405v6.58c9.375-1.765 16.298-9.958 16.298-19.156v-.366H0v.366c0 9.198 6.923 17.39 16.298 19.156v-6.58z" fill="#C00"/>
</svg>
